%TF.GenerationSoftware,KiCad,Pcbnew,7.0.9*%
%TF.CreationDate,2024-01-10T14:10:15+01:00*%
%TF.ProjectId,ControlLineApp,436f6e74-726f-46c4-9c69-6e654170702e,1.0.1*%
%TF.SameCoordinates,Original*%
%TF.FileFunction,Drillmap*%
%TF.FilePolarity,Positive*%
%FSLAX45Y45*%
G04 Gerber Fmt 4.5, Leading zero omitted, Abs format (unit mm)*
G04 Created by KiCad (PCBNEW 7.0.9) date 2024-01-10 14:10:15*
%MOMM*%
%LPD*%
G01*
G04 APERTURE LIST*
%ADD10C,0.100000*%
%ADD11C,0.200000*%
%ADD12C,0.220000*%
G04 APERTURE END LIST*
D10*
X10500000Y-8600000D02*
X16800000Y-8600000D01*
X16800000Y-11500000D01*
X10500000Y-11500000D01*
X10500000Y-8600000D01*
D11*
D10*
X11105630Y-9073630D02*
X11145630Y-9113630D01*
X11145630Y-9073630D02*
X11105630Y-9113630D01*
X12176550Y-8899950D02*
X12216550Y-8939950D01*
X12216550Y-8899950D02*
X12176550Y-8939950D01*
X12322095Y-9913705D02*
X12362095Y-9953705D01*
X12362095Y-9913705D02*
X12322095Y-9953705D01*
X12375200Y-10140000D02*
X12415200Y-10180000D01*
X12415200Y-10140000D02*
X12375200Y-10180000D01*
X12449525Y-9938675D02*
X12489525Y-9978675D01*
X12489525Y-9938675D02*
X12449525Y-9978675D01*
X12654600Y-9860600D02*
X12694600Y-9900600D01*
X12694600Y-9860600D02*
X12654600Y-9900600D01*
X13264200Y-9886000D02*
X13304200Y-9926000D01*
X13304200Y-9886000D02*
X13264200Y-9926000D01*
X13289600Y-10216200D02*
X13329600Y-10256200D01*
X13329600Y-10216200D02*
X13289600Y-10256200D01*
X14559600Y-10386500D02*
X14599600Y-10426500D01*
X14599600Y-10386500D02*
X14559600Y-10426500D01*
X11661500Y-9000000D02*
G75*
G03*
X11661500Y-9000000I-50000J0D01*
G01*
X11661500Y-9254000D02*
G75*
G03*
X11661500Y-9254000I-50000J0D01*
G01*
X11661500Y-9508000D02*
G75*
G03*
X11661500Y-9508000I-50000J0D01*
G01*
X11661500Y-9762000D02*
G75*
G03*
X11661500Y-9762000I-50000J0D01*
G01*
X11661500Y-10016000D02*
G75*
G03*
X11661500Y-10016000I-50000J0D01*
G01*
X11661500Y-10270000D02*
G75*
G03*
X11661500Y-10270000I-50000J0D01*
G01*
X11661500Y-10524000D02*
G75*
G03*
X11661500Y-10524000I-50000J0D01*
G01*
X11661500Y-10778000D02*
G75*
G03*
X11661500Y-10778000I-50000J0D01*
G01*
X11661500Y-11032000D02*
G75*
G03*
X11661500Y-11032000I-50000J0D01*
G01*
X11915500Y-9000000D02*
G75*
G03*
X11915500Y-9000000I-50000J0D01*
G01*
X11915500Y-9254000D02*
G75*
G03*
X11915500Y-9254000I-50000J0D01*
G01*
X11915500Y-9508000D02*
G75*
G03*
X11915500Y-9508000I-50000J0D01*
G01*
X11915500Y-9762000D02*
G75*
G03*
X11915500Y-9762000I-50000J0D01*
G01*
X11915500Y-10016000D02*
G75*
G03*
X11915500Y-10016000I-50000J0D01*
G01*
X11915500Y-10270000D02*
G75*
G03*
X11915500Y-10270000I-50000J0D01*
G01*
X11915500Y-10524000D02*
G75*
G03*
X11915500Y-10524000I-50000J0D01*
G01*
X11915500Y-10778000D02*
G75*
G03*
X11915500Y-10778000I-50000J0D01*
G01*
X11915500Y-11032000D02*
G75*
G03*
X11915500Y-11032000I-50000J0D01*
G01*
X12546800Y-9296400D02*
G75*
G03*
X12546800Y-9296400I-50000J0D01*
G01*
X12546800Y-10820400D02*
G75*
G03*
X12546800Y-10820400I-50000J0D01*
G01*
X12800800Y-9296400D02*
G75*
G03*
X12800800Y-9296400I-50000J0D01*
G01*
X12800800Y-10820400D02*
G75*
G03*
X12800800Y-10820400I-50000J0D01*
G01*
X13054800Y-9296400D02*
G75*
G03*
X13054800Y-9296400I-50000J0D01*
G01*
X13054800Y-10820400D02*
G75*
G03*
X13054800Y-10820400I-50000J0D01*
G01*
X13308800Y-9296400D02*
G75*
G03*
X13308800Y-9296400I-50000J0D01*
G01*
X13308800Y-10820400D02*
G75*
G03*
X13308800Y-10820400I-50000J0D01*
G01*
X13562800Y-9296400D02*
G75*
G03*
X13562800Y-9296400I-50000J0D01*
G01*
X13562800Y-10820400D02*
G75*
G03*
X13562800Y-10820400I-50000J0D01*
G01*
X13816800Y-9296400D02*
G75*
G03*
X13816800Y-9296400I-50000J0D01*
G01*
X13816800Y-10820400D02*
G75*
G03*
X13816800Y-10820400I-50000J0D01*
G01*
X14070800Y-9296400D02*
G75*
G03*
X14070800Y-9296400I-50000J0D01*
G01*
X14070800Y-10820400D02*
G75*
G03*
X14070800Y-10820400I-50000J0D01*
G01*
X14324800Y-9296400D02*
G75*
G03*
X14324800Y-9296400I-50000J0D01*
G01*
X14324800Y-10820400D02*
G75*
G03*
X14324800Y-10820400I-50000J0D01*
G01*
X14578800Y-9296400D02*
G75*
G03*
X14578800Y-9296400I-50000J0D01*
G01*
X14578800Y-10820400D02*
G75*
G03*
X14578800Y-10820400I-50000J0D01*
G01*
X14832800Y-9296400D02*
G75*
G03*
X14832800Y-9296400I-50000J0D01*
G01*
X14832800Y-10820400D02*
G75*
G03*
X14832800Y-10820400I-50000J0D01*
G01*
X15086800Y-9296400D02*
G75*
G03*
X15086800Y-9296400I-50000J0D01*
G01*
X15086800Y-10820400D02*
G75*
G03*
X15086800Y-10820400I-50000J0D01*
G01*
X15340800Y-9296400D02*
G75*
G03*
X15340800Y-9296400I-50000J0D01*
G01*
X15340800Y-10820400D02*
G75*
G03*
X15340800Y-10820400I-50000J0D01*
G01*
X15594800Y-9296400D02*
G75*
G03*
X15594800Y-9296400I-50000J0D01*
G01*
X15594800Y-10820400D02*
G75*
G03*
X15594800Y-10820400I-50000J0D01*
G01*
X15848800Y-9296400D02*
G75*
G03*
X15848800Y-9296400I-50000J0D01*
G01*
X15848800Y-10820400D02*
G75*
G03*
X15848800Y-10820400I-50000J0D01*
G01*
X16102800Y-9296400D02*
G75*
G03*
X16102800Y-9296400I-50000J0D01*
G01*
X16102800Y-10820400D02*
G75*
G03*
X16102800Y-10820400I-50000J0D01*
G01*
D12*
X12293600Y-11116800D02*
X12293600Y-11336800D01*
X12183600Y-11226800D02*
X12403600Y-11226800D01*
X16500000Y-8790000D02*
X16500000Y-9010000D01*
X16390000Y-8900000D02*
X16610000Y-8900000D01*
X16500000Y-11090000D02*
X16500000Y-11310000D01*
X16390000Y-11200000D02*
X16610000Y-11200000D01*
D11*
X10755777Y-11816484D02*
X10755777Y-11616484D01*
X10755777Y-11616484D02*
X10803396Y-11616484D01*
X10803396Y-11616484D02*
X10831967Y-11626008D01*
X10831967Y-11626008D02*
X10851015Y-11645055D01*
X10851015Y-11645055D02*
X10860539Y-11664103D01*
X10860539Y-11664103D02*
X10870063Y-11702198D01*
X10870063Y-11702198D02*
X10870063Y-11730769D01*
X10870063Y-11730769D02*
X10860539Y-11768865D01*
X10860539Y-11768865D02*
X10851015Y-11787912D01*
X10851015Y-11787912D02*
X10831967Y-11806960D01*
X10831967Y-11806960D02*
X10803396Y-11816484D01*
X10803396Y-11816484D02*
X10755777Y-11816484D01*
X10955777Y-11816484D02*
X10955777Y-11683150D01*
X10955777Y-11721246D02*
X10965301Y-11702198D01*
X10965301Y-11702198D02*
X10974824Y-11692674D01*
X10974824Y-11692674D02*
X10993872Y-11683150D01*
X10993872Y-11683150D02*
X11012920Y-11683150D01*
X11079586Y-11816484D02*
X11079586Y-11683150D01*
X11079586Y-11616484D02*
X11070063Y-11626008D01*
X11070063Y-11626008D02*
X11079586Y-11635531D01*
X11079586Y-11635531D02*
X11089110Y-11626008D01*
X11089110Y-11626008D02*
X11079586Y-11616484D01*
X11079586Y-11616484D02*
X11079586Y-11635531D01*
X11203396Y-11816484D02*
X11184348Y-11806960D01*
X11184348Y-11806960D02*
X11174824Y-11787912D01*
X11174824Y-11787912D02*
X11174824Y-11616484D01*
X11308158Y-11816484D02*
X11289110Y-11806960D01*
X11289110Y-11806960D02*
X11279586Y-11787912D01*
X11279586Y-11787912D02*
X11279586Y-11616484D01*
X11536729Y-11816484D02*
X11536729Y-11616484D01*
X11536729Y-11616484D02*
X11603396Y-11759341D01*
X11603396Y-11759341D02*
X11670062Y-11616484D01*
X11670062Y-11616484D02*
X11670062Y-11816484D01*
X11851015Y-11816484D02*
X11851015Y-11711722D01*
X11851015Y-11711722D02*
X11841491Y-11692674D01*
X11841491Y-11692674D02*
X11822443Y-11683150D01*
X11822443Y-11683150D02*
X11784348Y-11683150D01*
X11784348Y-11683150D02*
X11765301Y-11692674D01*
X11851015Y-11806960D02*
X11831967Y-11816484D01*
X11831967Y-11816484D02*
X11784348Y-11816484D01*
X11784348Y-11816484D02*
X11765301Y-11806960D01*
X11765301Y-11806960D02*
X11755777Y-11787912D01*
X11755777Y-11787912D02*
X11755777Y-11768865D01*
X11755777Y-11768865D02*
X11765301Y-11749817D01*
X11765301Y-11749817D02*
X11784348Y-11740293D01*
X11784348Y-11740293D02*
X11831967Y-11740293D01*
X11831967Y-11740293D02*
X11851015Y-11730769D01*
X11946253Y-11683150D02*
X11946253Y-11883150D01*
X11946253Y-11692674D02*
X11965301Y-11683150D01*
X11965301Y-11683150D02*
X12003396Y-11683150D01*
X12003396Y-11683150D02*
X12022443Y-11692674D01*
X12022443Y-11692674D02*
X12031967Y-11702198D01*
X12031967Y-11702198D02*
X12041491Y-11721246D01*
X12041491Y-11721246D02*
X12041491Y-11778388D01*
X12041491Y-11778388D02*
X12031967Y-11797436D01*
X12031967Y-11797436D02*
X12022443Y-11806960D01*
X12022443Y-11806960D02*
X12003396Y-11816484D01*
X12003396Y-11816484D02*
X11965301Y-11816484D01*
X11965301Y-11816484D02*
X11946253Y-11806960D01*
X12127205Y-11797436D02*
X12136729Y-11806960D01*
X12136729Y-11806960D02*
X12127205Y-11816484D01*
X12127205Y-11816484D02*
X12117682Y-11806960D01*
X12117682Y-11806960D02*
X12127205Y-11797436D01*
X12127205Y-11797436D02*
X12127205Y-11816484D01*
X12127205Y-11692674D02*
X12136729Y-11702198D01*
X12136729Y-11702198D02*
X12127205Y-11711722D01*
X12127205Y-11711722D02*
X12117682Y-11702198D01*
X12117682Y-11702198D02*
X12127205Y-11692674D01*
X12127205Y-11692674D02*
X12127205Y-11711722D01*
D10*
X10455000Y-12125000D02*
X10495000Y-12165000D01*
X10495000Y-12125000D02*
X10455000Y-12165000D01*
D11*
X10793872Y-12036484D02*
X10812920Y-12036484D01*
X10812920Y-12036484D02*
X10831967Y-12046008D01*
X10831967Y-12046008D02*
X10841491Y-12055531D01*
X10841491Y-12055531D02*
X10851015Y-12074579D01*
X10851015Y-12074579D02*
X10860539Y-12112674D01*
X10860539Y-12112674D02*
X10860539Y-12160293D01*
X10860539Y-12160293D02*
X10851015Y-12198388D01*
X10851015Y-12198388D02*
X10841491Y-12217436D01*
X10841491Y-12217436D02*
X10831967Y-12226960D01*
X10831967Y-12226960D02*
X10812920Y-12236484D01*
X10812920Y-12236484D02*
X10793872Y-12236484D01*
X10793872Y-12236484D02*
X10774824Y-12226960D01*
X10774824Y-12226960D02*
X10765301Y-12217436D01*
X10765301Y-12217436D02*
X10755777Y-12198388D01*
X10755777Y-12198388D02*
X10746253Y-12160293D01*
X10746253Y-12160293D02*
X10746253Y-12112674D01*
X10746253Y-12112674D02*
X10755777Y-12074579D01*
X10755777Y-12074579D02*
X10765301Y-12055531D01*
X10765301Y-12055531D02*
X10774824Y-12046008D01*
X10774824Y-12046008D02*
X10793872Y-12036484D01*
X10946253Y-12217436D02*
X10955777Y-12226960D01*
X10955777Y-12226960D02*
X10946253Y-12236484D01*
X10946253Y-12236484D02*
X10936729Y-12226960D01*
X10936729Y-12226960D02*
X10946253Y-12217436D01*
X10946253Y-12217436D02*
X10946253Y-12236484D01*
X11127205Y-12103150D02*
X11127205Y-12236484D01*
X11079586Y-12026960D02*
X11031967Y-12169817D01*
X11031967Y-12169817D02*
X11155777Y-12169817D01*
X11270062Y-12036484D02*
X11289110Y-12036484D01*
X11289110Y-12036484D02*
X11308158Y-12046008D01*
X11308158Y-12046008D02*
X11317682Y-12055531D01*
X11317682Y-12055531D02*
X11327205Y-12074579D01*
X11327205Y-12074579D02*
X11336729Y-12112674D01*
X11336729Y-12112674D02*
X11336729Y-12160293D01*
X11336729Y-12160293D02*
X11327205Y-12198388D01*
X11327205Y-12198388D02*
X11317682Y-12217436D01*
X11317682Y-12217436D02*
X11308158Y-12226960D01*
X11308158Y-12226960D02*
X11289110Y-12236484D01*
X11289110Y-12236484D02*
X11270062Y-12236484D01*
X11270062Y-12236484D02*
X11251015Y-12226960D01*
X11251015Y-12226960D02*
X11241491Y-12217436D01*
X11241491Y-12217436D02*
X11231967Y-12198388D01*
X11231967Y-12198388D02*
X11222443Y-12160293D01*
X11222443Y-12160293D02*
X11222443Y-12112674D01*
X11222443Y-12112674D02*
X11231967Y-12074579D01*
X11231967Y-12074579D02*
X11241491Y-12055531D01*
X11241491Y-12055531D02*
X11251015Y-12046008D01*
X11251015Y-12046008D02*
X11270062Y-12036484D01*
X11460539Y-12036484D02*
X11479586Y-12036484D01*
X11479586Y-12036484D02*
X11498634Y-12046008D01*
X11498634Y-12046008D02*
X11508158Y-12055531D01*
X11508158Y-12055531D02*
X11517682Y-12074579D01*
X11517682Y-12074579D02*
X11527205Y-12112674D01*
X11527205Y-12112674D02*
X11527205Y-12160293D01*
X11527205Y-12160293D02*
X11517682Y-12198388D01*
X11517682Y-12198388D02*
X11508158Y-12217436D01*
X11508158Y-12217436D02*
X11498634Y-12226960D01*
X11498634Y-12226960D02*
X11479586Y-12236484D01*
X11479586Y-12236484D02*
X11460539Y-12236484D01*
X11460539Y-12236484D02*
X11441491Y-12226960D01*
X11441491Y-12226960D02*
X11431967Y-12217436D01*
X11431967Y-12217436D02*
X11422443Y-12198388D01*
X11422443Y-12198388D02*
X11412920Y-12160293D01*
X11412920Y-12160293D02*
X11412920Y-12112674D01*
X11412920Y-12112674D02*
X11422443Y-12074579D01*
X11422443Y-12074579D02*
X11431967Y-12055531D01*
X11431967Y-12055531D02*
X11441491Y-12046008D01*
X11441491Y-12046008D02*
X11460539Y-12036484D01*
X11612920Y-12236484D02*
X11612920Y-12103150D01*
X11612920Y-12122198D02*
X11622443Y-12112674D01*
X11622443Y-12112674D02*
X11641491Y-12103150D01*
X11641491Y-12103150D02*
X11670063Y-12103150D01*
X11670063Y-12103150D02*
X11689110Y-12112674D01*
X11689110Y-12112674D02*
X11698634Y-12131722D01*
X11698634Y-12131722D02*
X11698634Y-12236484D01*
X11698634Y-12131722D02*
X11708158Y-12112674D01*
X11708158Y-12112674D02*
X11727205Y-12103150D01*
X11727205Y-12103150D02*
X11755777Y-12103150D01*
X11755777Y-12103150D02*
X11774824Y-12112674D01*
X11774824Y-12112674D02*
X11784348Y-12131722D01*
X11784348Y-12131722D02*
X11784348Y-12236484D01*
X11879586Y-12236484D02*
X11879586Y-12103150D01*
X11879586Y-12122198D02*
X11889110Y-12112674D01*
X11889110Y-12112674D02*
X11908158Y-12103150D01*
X11908158Y-12103150D02*
X11936729Y-12103150D01*
X11936729Y-12103150D02*
X11955777Y-12112674D01*
X11955777Y-12112674D02*
X11965301Y-12131722D01*
X11965301Y-12131722D02*
X11965301Y-12236484D01*
X11965301Y-12131722D02*
X11974824Y-12112674D01*
X11974824Y-12112674D02*
X11993872Y-12103150D01*
X11993872Y-12103150D02*
X12022443Y-12103150D01*
X12022443Y-12103150D02*
X12041491Y-12112674D01*
X12041491Y-12112674D02*
X12051015Y-12131722D01*
X12051015Y-12131722D02*
X12051015Y-12236484D01*
X12441491Y-12026960D02*
X12270063Y-12284103D01*
X12698634Y-12036484D02*
X12717682Y-12036484D01*
X12717682Y-12036484D02*
X12736729Y-12046008D01*
X12736729Y-12046008D02*
X12746253Y-12055531D01*
X12746253Y-12055531D02*
X12755777Y-12074579D01*
X12755777Y-12074579D02*
X12765301Y-12112674D01*
X12765301Y-12112674D02*
X12765301Y-12160293D01*
X12765301Y-12160293D02*
X12755777Y-12198388D01*
X12755777Y-12198388D02*
X12746253Y-12217436D01*
X12746253Y-12217436D02*
X12736729Y-12226960D01*
X12736729Y-12226960D02*
X12717682Y-12236484D01*
X12717682Y-12236484D02*
X12698634Y-12236484D01*
X12698634Y-12236484D02*
X12679586Y-12226960D01*
X12679586Y-12226960D02*
X12670063Y-12217436D01*
X12670063Y-12217436D02*
X12660539Y-12198388D01*
X12660539Y-12198388D02*
X12651015Y-12160293D01*
X12651015Y-12160293D02*
X12651015Y-12112674D01*
X12651015Y-12112674D02*
X12660539Y-12074579D01*
X12660539Y-12074579D02*
X12670063Y-12055531D01*
X12670063Y-12055531D02*
X12679586Y-12046008D01*
X12679586Y-12046008D02*
X12698634Y-12036484D01*
X12851015Y-12217436D02*
X12860539Y-12226960D01*
X12860539Y-12226960D02*
X12851015Y-12236484D01*
X12851015Y-12236484D02*
X12841491Y-12226960D01*
X12841491Y-12226960D02*
X12851015Y-12217436D01*
X12851015Y-12217436D02*
X12851015Y-12236484D01*
X12984348Y-12036484D02*
X13003396Y-12036484D01*
X13003396Y-12036484D02*
X13022444Y-12046008D01*
X13022444Y-12046008D02*
X13031967Y-12055531D01*
X13031967Y-12055531D02*
X13041491Y-12074579D01*
X13041491Y-12074579D02*
X13051015Y-12112674D01*
X13051015Y-12112674D02*
X13051015Y-12160293D01*
X13051015Y-12160293D02*
X13041491Y-12198388D01*
X13041491Y-12198388D02*
X13031967Y-12217436D01*
X13031967Y-12217436D02*
X13022444Y-12226960D01*
X13022444Y-12226960D02*
X13003396Y-12236484D01*
X13003396Y-12236484D02*
X12984348Y-12236484D01*
X12984348Y-12236484D02*
X12965301Y-12226960D01*
X12965301Y-12226960D02*
X12955777Y-12217436D01*
X12955777Y-12217436D02*
X12946253Y-12198388D01*
X12946253Y-12198388D02*
X12936729Y-12160293D01*
X12936729Y-12160293D02*
X12936729Y-12112674D01*
X12936729Y-12112674D02*
X12946253Y-12074579D01*
X12946253Y-12074579D02*
X12955777Y-12055531D01*
X12955777Y-12055531D02*
X12965301Y-12046008D01*
X12965301Y-12046008D02*
X12984348Y-12036484D01*
X13241491Y-12236484D02*
X13127206Y-12236484D01*
X13184348Y-12236484D02*
X13184348Y-12036484D01*
X13184348Y-12036484D02*
X13165301Y-12065055D01*
X13165301Y-12065055D02*
X13146253Y-12084103D01*
X13146253Y-12084103D02*
X13127206Y-12093627D01*
X13422444Y-12036484D02*
X13327206Y-12036484D01*
X13327206Y-12036484D02*
X13317682Y-12131722D01*
X13317682Y-12131722D02*
X13327206Y-12122198D01*
X13327206Y-12122198D02*
X13346253Y-12112674D01*
X13346253Y-12112674D02*
X13393872Y-12112674D01*
X13393872Y-12112674D02*
X13412920Y-12122198D01*
X13412920Y-12122198D02*
X13422444Y-12131722D01*
X13422444Y-12131722D02*
X13431967Y-12150769D01*
X13431967Y-12150769D02*
X13431967Y-12198388D01*
X13431967Y-12198388D02*
X13422444Y-12217436D01*
X13422444Y-12217436D02*
X13412920Y-12226960D01*
X13412920Y-12226960D02*
X13393872Y-12236484D01*
X13393872Y-12236484D02*
X13346253Y-12236484D01*
X13346253Y-12236484D02*
X13327206Y-12226960D01*
X13327206Y-12226960D02*
X13317682Y-12217436D01*
X13498634Y-12036484D02*
X13631967Y-12036484D01*
X13631967Y-12036484D02*
X13546253Y-12236484D01*
X13698634Y-12036484D02*
X13698634Y-12074579D01*
X13774825Y-12036484D02*
X13774825Y-12074579D01*
X14070063Y-12312674D02*
X14060539Y-12303150D01*
X14060539Y-12303150D02*
X14041491Y-12274579D01*
X14041491Y-12274579D02*
X14031968Y-12255531D01*
X14031968Y-12255531D02*
X14022444Y-12226960D01*
X14022444Y-12226960D02*
X14012920Y-12179341D01*
X14012920Y-12179341D02*
X14012920Y-12141246D01*
X14012920Y-12141246D02*
X14022444Y-12093627D01*
X14022444Y-12093627D02*
X14031968Y-12065055D01*
X14031968Y-12065055D02*
X14041491Y-12046008D01*
X14041491Y-12046008D02*
X14060539Y-12017436D01*
X14060539Y-12017436D02*
X14070063Y-12007912D01*
X14155777Y-12236484D02*
X14193872Y-12236484D01*
X14193872Y-12236484D02*
X14212920Y-12226960D01*
X14212920Y-12226960D02*
X14222444Y-12217436D01*
X14222444Y-12217436D02*
X14241491Y-12188865D01*
X14241491Y-12188865D02*
X14251015Y-12150769D01*
X14251015Y-12150769D02*
X14251015Y-12074579D01*
X14251015Y-12074579D02*
X14241491Y-12055531D01*
X14241491Y-12055531D02*
X14231968Y-12046008D01*
X14231968Y-12046008D02*
X14212920Y-12036484D01*
X14212920Y-12036484D02*
X14174825Y-12036484D01*
X14174825Y-12036484D02*
X14155777Y-12046008D01*
X14155777Y-12046008D02*
X14146253Y-12055531D01*
X14146253Y-12055531D02*
X14136729Y-12074579D01*
X14136729Y-12074579D02*
X14136729Y-12122198D01*
X14136729Y-12122198D02*
X14146253Y-12141246D01*
X14146253Y-12141246D02*
X14155777Y-12150769D01*
X14155777Y-12150769D02*
X14174825Y-12160293D01*
X14174825Y-12160293D02*
X14212920Y-12160293D01*
X14212920Y-12160293D02*
X14231968Y-12150769D01*
X14231968Y-12150769D02*
X14241491Y-12141246D01*
X14241491Y-12141246D02*
X14251015Y-12122198D01*
X14489110Y-12236484D02*
X14489110Y-12036484D01*
X14574825Y-12236484D02*
X14574825Y-12131722D01*
X14574825Y-12131722D02*
X14565301Y-12112674D01*
X14565301Y-12112674D02*
X14546253Y-12103150D01*
X14546253Y-12103150D02*
X14517682Y-12103150D01*
X14517682Y-12103150D02*
X14498634Y-12112674D01*
X14498634Y-12112674D02*
X14489110Y-12122198D01*
X14698634Y-12236484D02*
X14679587Y-12226960D01*
X14679587Y-12226960D02*
X14670063Y-12217436D01*
X14670063Y-12217436D02*
X14660539Y-12198388D01*
X14660539Y-12198388D02*
X14660539Y-12141246D01*
X14660539Y-12141246D02*
X14670063Y-12122198D01*
X14670063Y-12122198D02*
X14679587Y-12112674D01*
X14679587Y-12112674D02*
X14698634Y-12103150D01*
X14698634Y-12103150D02*
X14727206Y-12103150D01*
X14727206Y-12103150D02*
X14746253Y-12112674D01*
X14746253Y-12112674D02*
X14755777Y-12122198D01*
X14755777Y-12122198D02*
X14765301Y-12141246D01*
X14765301Y-12141246D02*
X14765301Y-12198388D01*
X14765301Y-12198388D02*
X14755777Y-12217436D01*
X14755777Y-12217436D02*
X14746253Y-12226960D01*
X14746253Y-12226960D02*
X14727206Y-12236484D01*
X14727206Y-12236484D02*
X14698634Y-12236484D01*
X14879587Y-12236484D02*
X14860539Y-12226960D01*
X14860539Y-12226960D02*
X14851015Y-12207912D01*
X14851015Y-12207912D02*
X14851015Y-12036484D01*
X15031968Y-12226960D02*
X15012920Y-12236484D01*
X15012920Y-12236484D02*
X14974825Y-12236484D01*
X14974825Y-12236484D02*
X14955777Y-12226960D01*
X14955777Y-12226960D02*
X14946253Y-12207912D01*
X14946253Y-12207912D02*
X14946253Y-12131722D01*
X14946253Y-12131722D02*
X14955777Y-12112674D01*
X14955777Y-12112674D02*
X14974825Y-12103150D01*
X14974825Y-12103150D02*
X15012920Y-12103150D01*
X15012920Y-12103150D02*
X15031968Y-12112674D01*
X15031968Y-12112674D02*
X15041491Y-12131722D01*
X15041491Y-12131722D02*
X15041491Y-12150769D01*
X15041491Y-12150769D02*
X14946253Y-12169817D01*
X15117682Y-12226960D02*
X15136730Y-12236484D01*
X15136730Y-12236484D02*
X15174825Y-12236484D01*
X15174825Y-12236484D02*
X15193872Y-12226960D01*
X15193872Y-12226960D02*
X15203396Y-12207912D01*
X15203396Y-12207912D02*
X15203396Y-12198388D01*
X15203396Y-12198388D02*
X15193872Y-12179341D01*
X15193872Y-12179341D02*
X15174825Y-12169817D01*
X15174825Y-12169817D02*
X15146253Y-12169817D01*
X15146253Y-12169817D02*
X15127206Y-12160293D01*
X15127206Y-12160293D02*
X15117682Y-12141246D01*
X15117682Y-12141246D02*
X15117682Y-12131722D01*
X15117682Y-12131722D02*
X15127206Y-12112674D01*
X15127206Y-12112674D02*
X15146253Y-12103150D01*
X15146253Y-12103150D02*
X15174825Y-12103150D01*
X15174825Y-12103150D02*
X15193872Y-12112674D01*
X15270063Y-12312674D02*
X15279587Y-12303150D01*
X15279587Y-12303150D02*
X15298634Y-12274579D01*
X15298634Y-12274579D02*
X15308158Y-12255531D01*
X15308158Y-12255531D02*
X15317682Y-12226960D01*
X15317682Y-12226960D02*
X15327206Y-12179341D01*
X15327206Y-12179341D02*
X15327206Y-12141246D01*
X15327206Y-12141246D02*
X15317682Y-12093627D01*
X15317682Y-12093627D02*
X15308158Y-12065055D01*
X15308158Y-12065055D02*
X15298634Y-12046008D01*
X15298634Y-12046008D02*
X15279587Y-12017436D01*
X15279587Y-12017436D02*
X15270063Y-12007912D01*
D10*
X10495000Y-12409000D02*
G75*
G03*
X10495000Y-12409000I-50000J0D01*
G01*
D11*
X10860539Y-12500484D02*
X10746253Y-12500484D01*
X10803396Y-12500484D02*
X10803396Y-12300484D01*
X10803396Y-12300484D02*
X10784348Y-12329055D01*
X10784348Y-12329055D02*
X10765301Y-12348103D01*
X10765301Y-12348103D02*
X10746253Y-12357627D01*
X10946253Y-12481436D02*
X10955777Y-12490960D01*
X10955777Y-12490960D02*
X10946253Y-12500484D01*
X10946253Y-12500484D02*
X10936729Y-12490960D01*
X10936729Y-12490960D02*
X10946253Y-12481436D01*
X10946253Y-12481436D02*
X10946253Y-12500484D01*
X11079586Y-12300484D02*
X11098634Y-12300484D01*
X11098634Y-12300484D02*
X11117682Y-12310008D01*
X11117682Y-12310008D02*
X11127205Y-12319531D01*
X11127205Y-12319531D02*
X11136729Y-12338579D01*
X11136729Y-12338579D02*
X11146253Y-12376674D01*
X11146253Y-12376674D02*
X11146253Y-12424293D01*
X11146253Y-12424293D02*
X11136729Y-12462388D01*
X11136729Y-12462388D02*
X11127205Y-12481436D01*
X11127205Y-12481436D02*
X11117682Y-12490960D01*
X11117682Y-12490960D02*
X11098634Y-12500484D01*
X11098634Y-12500484D02*
X11079586Y-12500484D01*
X11079586Y-12500484D02*
X11060539Y-12490960D01*
X11060539Y-12490960D02*
X11051015Y-12481436D01*
X11051015Y-12481436D02*
X11041491Y-12462388D01*
X11041491Y-12462388D02*
X11031967Y-12424293D01*
X11031967Y-12424293D02*
X11031967Y-12376674D01*
X11031967Y-12376674D02*
X11041491Y-12338579D01*
X11041491Y-12338579D02*
X11051015Y-12319531D01*
X11051015Y-12319531D02*
X11060539Y-12310008D01*
X11060539Y-12310008D02*
X11079586Y-12300484D01*
X11270062Y-12300484D02*
X11289110Y-12300484D01*
X11289110Y-12300484D02*
X11308158Y-12310008D01*
X11308158Y-12310008D02*
X11317682Y-12319531D01*
X11317682Y-12319531D02*
X11327205Y-12338579D01*
X11327205Y-12338579D02*
X11336729Y-12376674D01*
X11336729Y-12376674D02*
X11336729Y-12424293D01*
X11336729Y-12424293D02*
X11327205Y-12462388D01*
X11327205Y-12462388D02*
X11317682Y-12481436D01*
X11317682Y-12481436D02*
X11308158Y-12490960D01*
X11308158Y-12490960D02*
X11289110Y-12500484D01*
X11289110Y-12500484D02*
X11270062Y-12500484D01*
X11270062Y-12500484D02*
X11251015Y-12490960D01*
X11251015Y-12490960D02*
X11241491Y-12481436D01*
X11241491Y-12481436D02*
X11231967Y-12462388D01*
X11231967Y-12462388D02*
X11222443Y-12424293D01*
X11222443Y-12424293D02*
X11222443Y-12376674D01*
X11222443Y-12376674D02*
X11231967Y-12338579D01*
X11231967Y-12338579D02*
X11241491Y-12319531D01*
X11241491Y-12319531D02*
X11251015Y-12310008D01*
X11251015Y-12310008D02*
X11270062Y-12300484D01*
X11460539Y-12300484D02*
X11479586Y-12300484D01*
X11479586Y-12300484D02*
X11498634Y-12310008D01*
X11498634Y-12310008D02*
X11508158Y-12319531D01*
X11508158Y-12319531D02*
X11517682Y-12338579D01*
X11517682Y-12338579D02*
X11527205Y-12376674D01*
X11527205Y-12376674D02*
X11527205Y-12424293D01*
X11527205Y-12424293D02*
X11517682Y-12462388D01*
X11517682Y-12462388D02*
X11508158Y-12481436D01*
X11508158Y-12481436D02*
X11498634Y-12490960D01*
X11498634Y-12490960D02*
X11479586Y-12500484D01*
X11479586Y-12500484D02*
X11460539Y-12500484D01*
X11460539Y-12500484D02*
X11441491Y-12490960D01*
X11441491Y-12490960D02*
X11431967Y-12481436D01*
X11431967Y-12481436D02*
X11422443Y-12462388D01*
X11422443Y-12462388D02*
X11412920Y-12424293D01*
X11412920Y-12424293D02*
X11412920Y-12376674D01*
X11412920Y-12376674D02*
X11422443Y-12338579D01*
X11422443Y-12338579D02*
X11431967Y-12319531D01*
X11431967Y-12319531D02*
X11441491Y-12310008D01*
X11441491Y-12310008D02*
X11460539Y-12300484D01*
X11612920Y-12500484D02*
X11612920Y-12367150D01*
X11612920Y-12386198D02*
X11622443Y-12376674D01*
X11622443Y-12376674D02*
X11641491Y-12367150D01*
X11641491Y-12367150D02*
X11670063Y-12367150D01*
X11670063Y-12367150D02*
X11689110Y-12376674D01*
X11689110Y-12376674D02*
X11698634Y-12395722D01*
X11698634Y-12395722D02*
X11698634Y-12500484D01*
X11698634Y-12395722D02*
X11708158Y-12376674D01*
X11708158Y-12376674D02*
X11727205Y-12367150D01*
X11727205Y-12367150D02*
X11755777Y-12367150D01*
X11755777Y-12367150D02*
X11774824Y-12376674D01*
X11774824Y-12376674D02*
X11784348Y-12395722D01*
X11784348Y-12395722D02*
X11784348Y-12500484D01*
X11879586Y-12500484D02*
X11879586Y-12367150D01*
X11879586Y-12386198D02*
X11889110Y-12376674D01*
X11889110Y-12376674D02*
X11908158Y-12367150D01*
X11908158Y-12367150D02*
X11936729Y-12367150D01*
X11936729Y-12367150D02*
X11955777Y-12376674D01*
X11955777Y-12376674D02*
X11965301Y-12395722D01*
X11965301Y-12395722D02*
X11965301Y-12500484D01*
X11965301Y-12395722D02*
X11974824Y-12376674D01*
X11974824Y-12376674D02*
X11993872Y-12367150D01*
X11993872Y-12367150D02*
X12022443Y-12367150D01*
X12022443Y-12367150D02*
X12041491Y-12376674D01*
X12041491Y-12376674D02*
X12051015Y-12395722D01*
X12051015Y-12395722D02*
X12051015Y-12500484D01*
X12441491Y-12290960D02*
X12270063Y-12548103D01*
X12698634Y-12300484D02*
X12717682Y-12300484D01*
X12717682Y-12300484D02*
X12736729Y-12310008D01*
X12736729Y-12310008D02*
X12746253Y-12319531D01*
X12746253Y-12319531D02*
X12755777Y-12338579D01*
X12755777Y-12338579D02*
X12765301Y-12376674D01*
X12765301Y-12376674D02*
X12765301Y-12424293D01*
X12765301Y-12424293D02*
X12755777Y-12462388D01*
X12755777Y-12462388D02*
X12746253Y-12481436D01*
X12746253Y-12481436D02*
X12736729Y-12490960D01*
X12736729Y-12490960D02*
X12717682Y-12500484D01*
X12717682Y-12500484D02*
X12698634Y-12500484D01*
X12698634Y-12500484D02*
X12679586Y-12490960D01*
X12679586Y-12490960D02*
X12670063Y-12481436D01*
X12670063Y-12481436D02*
X12660539Y-12462388D01*
X12660539Y-12462388D02*
X12651015Y-12424293D01*
X12651015Y-12424293D02*
X12651015Y-12376674D01*
X12651015Y-12376674D02*
X12660539Y-12338579D01*
X12660539Y-12338579D02*
X12670063Y-12319531D01*
X12670063Y-12319531D02*
X12679586Y-12310008D01*
X12679586Y-12310008D02*
X12698634Y-12300484D01*
X12851015Y-12481436D02*
X12860539Y-12490960D01*
X12860539Y-12490960D02*
X12851015Y-12500484D01*
X12851015Y-12500484D02*
X12841491Y-12490960D01*
X12841491Y-12490960D02*
X12851015Y-12481436D01*
X12851015Y-12481436D02*
X12851015Y-12500484D01*
X12984348Y-12300484D02*
X13003396Y-12300484D01*
X13003396Y-12300484D02*
X13022444Y-12310008D01*
X13022444Y-12310008D02*
X13031967Y-12319531D01*
X13031967Y-12319531D02*
X13041491Y-12338579D01*
X13041491Y-12338579D02*
X13051015Y-12376674D01*
X13051015Y-12376674D02*
X13051015Y-12424293D01*
X13051015Y-12424293D02*
X13041491Y-12462388D01*
X13041491Y-12462388D02*
X13031967Y-12481436D01*
X13031967Y-12481436D02*
X13022444Y-12490960D01*
X13022444Y-12490960D02*
X13003396Y-12500484D01*
X13003396Y-12500484D02*
X12984348Y-12500484D01*
X12984348Y-12500484D02*
X12965301Y-12490960D01*
X12965301Y-12490960D02*
X12955777Y-12481436D01*
X12955777Y-12481436D02*
X12946253Y-12462388D01*
X12946253Y-12462388D02*
X12936729Y-12424293D01*
X12936729Y-12424293D02*
X12936729Y-12376674D01*
X12936729Y-12376674D02*
X12946253Y-12338579D01*
X12946253Y-12338579D02*
X12955777Y-12319531D01*
X12955777Y-12319531D02*
X12965301Y-12310008D01*
X12965301Y-12310008D02*
X12984348Y-12300484D01*
X13117682Y-12300484D02*
X13241491Y-12300484D01*
X13241491Y-12300484D02*
X13174825Y-12376674D01*
X13174825Y-12376674D02*
X13203396Y-12376674D01*
X13203396Y-12376674D02*
X13222444Y-12386198D01*
X13222444Y-12386198D02*
X13231967Y-12395722D01*
X13231967Y-12395722D02*
X13241491Y-12414769D01*
X13241491Y-12414769D02*
X13241491Y-12462388D01*
X13241491Y-12462388D02*
X13231967Y-12481436D01*
X13231967Y-12481436D02*
X13222444Y-12490960D01*
X13222444Y-12490960D02*
X13203396Y-12500484D01*
X13203396Y-12500484D02*
X13146253Y-12500484D01*
X13146253Y-12500484D02*
X13127206Y-12490960D01*
X13127206Y-12490960D02*
X13117682Y-12481436D01*
X13336729Y-12500484D02*
X13374825Y-12500484D01*
X13374825Y-12500484D02*
X13393872Y-12490960D01*
X13393872Y-12490960D02*
X13403396Y-12481436D01*
X13403396Y-12481436D02*
X13422444Y-12452865D01*
X13422444Y-12452865D02*
X13431967Y-12414769D01*
X13431967Y-12414769D02*
X13431967Y-12338579D01*
X13431967Y-12338579D02*
X13422444Y-12319531D01*
X13422444Y-12319531D02*
X13412920Y-12310008D01*
X13412920Y-12310008D02*
X13393872Y-12300484D01*
X13393872Y-12300484D02*
X13355777Y-12300484D01*
X13355777Y-12300484D02*
X13336729Y-12310008D01*
X13336729Y-12310008D02*
X13327206Y-12319531D01*
X13327206Y-12319531D02*
X13317682Y-12338579D01*
X13317682Y-12338579D02*
X13317682Y-12386198D01*
X13317682Y-12386198D02*
X13327206Y-12405246D01*
X13327206Y-12405246D02*
X13336729Y-12414769D01*
X13336729Y-12414769D02*
X13355777Y-12424293D01*
X13355777Y-12424293D02*
X13393872Y-12424293D01*
X13393872Y-12424293D02*
X13412920Y-12414769D01*
X13412920Y-12414769D02*
X13422444Y-12405246D01*
X13422444Y-12405246D02*
X13431967Y-12386198D01*
X13603396Y-12367150D02*
X13603396Y-12500484D01*
X13555777Y-12290960D02*
X13508158Y-12433817D01*
X13508158Y-12433817D02*
X13631967Y-12433817D01*
X13698634Y-12300484D02*
X13698634Y-12338579D01*
X13774825Y-12300484D02*
X13774825Y-12338579D01*
X14070063Y-12576674D02*
X14060539Y-12567150D01*
X14060539Y-12567150D02*
X14041491Y-12538579D01*
X14041491Y-12538579D02*
X14031968Y-12519531D01*
X14031968Y-12519531D02*
X14022444Y-12490960D01*
X14022444Y-12490960D02*
X14012920Y-12443341D01*
X14012920Y-12443341D02*
X14012920Y-12405246D01*
X14012920Y-12405246D02*
X14022444Y-12357627D01*
X14022444Y-12357627D02*
X14031968Y-12329055D01*
X14031968Y-12329055D02*
X14041491Y-12310008D01*
X14041491Y-12310008D02*
X14060539Y-12281436D01*
X14060539Y-12281436D02*
X14070063Y-12271912D01*
X14231968Y-12367150D02*
X14231968Y-12500484D01*
X14184348Y-12290960D02*
X14136729Y-12433817D01*
X14136729Y-12433817D02*
X14260539Y-12433817D01*
X14365301Y-12386198D02*
X14346253Y-12376674D01*
X14346253Y-12376674D02*
X14336729Y-12367150D01*
X14336729Y-12367150D02*
X14327206Y-12348103D01*
X14327206Y-12348103D02*
X14327206Y-12338579D01*
X14327206Y-12338579D02*
X14336729Y-12319531D01*
X14336729Y-12319531D02*
X14346253Y-12310008D01*
X14346253Y-12310008D02*
X14365301Y-12300484D01*
X14365301Y-12300484D02*
X14403396Y-12300484D01*
X14403396Y-12300484D02*
X14422444Y-12310008D01*
X14422444Y-12310008D02*
X14431968Y-12319531D01*
X14431968Y-12319531D02*
X14441491Y-12338579D01*
X14441491Y-12338579D02*
X14441491Y-12348103D01*
X14441491Y-12348103D02*
X14431968Y-12367150D01*
X14431968Y-12367150D02*
X14422444Y-12376674D01*
X14422444Y-12376674D02*
X14403396Y-12386198D01*
X14403396Y-12386198D02*
X14365301Y-12386198D01*
X14365301Y-12386198D02*
X14346253Y-12395722D01*
X14346253Y-12395722D02*
X14336729Y-12405246D01*
X14336729Y-12405246D02*
X14327206Y-12424293D01*
X14327206Y-12424293D02*
X14327206Y-12462388D01*
X14327206Y-12462388D02*
X14336729Y-12481436D01*
X14336729Y-12481436D02*
X14346253Y-12490960D01*
X14346253Y-12490960D02*
X14365301Y-12500484D01*
X14365301Y-12500484D02*
X14403396Y-12500484D01*
X14403396Y-12500484D02*
X14422444Y-12490960D01*
X14422444Y-12490960D02*
X14431968Y-12481436D01*
X14431968Y-12481436D02*
X14441491Y-12462388D01*
X14441491Y-12462388D02*
X14441491Y-12424293D01*
X14441491Y-12424293D02*
X14431968Y-12405246D01*
X14431968Y-12405246D02*
X14422444Y-12395722D01*
X14422444Y-12395722D02*
X14403396Y-12386198D01*
X14679587Y-12500484D02*
X14679587Y-12300484D01*
X14765301Y-12500484D02*
X14765301Y-12395722D01*
X14765301Y-12395722D02*
X14755777Y-12376674D01*
X14755777Y-12376674D02*
X14736730Y-12367150D01*
X14736730Y-12367150D02*
X14708158Y-12367150D01*
X14708158Y-12367150D02*
X14689110Y-12376674D01*
X14689110Y-12376674D02*
X14679587Y-12386198D01*
X14889110Y-12500484D02*
X14870063Y-12490960D01*
X14870063Y-12490960D02*
X14860539Y-12481436D01*
X14860539Y-12481436D02*
X14851015Y-12462388D01*
X14851015Y-12462388D02*
X14851015Y-12405246D01*
X14851015Y-12405246D02*
X14860539Y-12386198D01*
X14860539Y-12386198D02*
X14870063Y-12376674D01*
X14870063Y-12376674D02*
X14889110Y-12367150D01*
X14889110Y-12367150D02*
X14917682Y-12367150D01*
X14917682Y-12367150D02*
X14936730Y-12376674D01*
X14936730Y-12376674D02*
X14946253Y-12386198D01*
X14946253Y-12386198D02*
X14955777Y-12405246D01*
X14955777Y-12405246D02*
X14955777Y-12462388D01*
X14955777Y-12462388D02*
X14946253Y-12481436D01*
X14946253Y-12481436D02*
X14936730Y-12490960D01*
X14936730Y-12490960D02*
X14917682Y-12500484D01*
X14917682Y-12500484D02*
X14889110Y-12500484D01*
X15070063Y-12500484D02*
X15051015Y-12490960D01*
X15051015Y-12490960D02*
X15041491Y-12471912D01*
X15041491Y-12471912D02*
X15041491Y-12300484D01*
X15222444Y-12490960D02*
X15203396Y-12500484D01*
X15203396Y-12500484D02*
X15165301Y-12500484D01*
X15165301Y-12500484D02*
X15146253Y-12490960D01*
X15146253Y-12490960D02*
X15136730Y-12471912D01*
X15136730Y-12471912D02*
X15136730Y-12395722D01*
X15136730Y-12395722D02*
X15146253Y-12376674D01*
X15146253Y-12376674D02*
X15165301Y-12367150D01*
X15165301Y-12367150D02*
X15203396Y-12367150D01*
X15203396Y-12367150D02*
X15222444Y-12376674D01*
X15222444Y-12376674D02*
X15231968Y-12395722D01*
X15231968Y-12395722D02*
X15231968Y-12414769D01*
X15231968Y-12414769D02*
X15136730Y-12433817D01*
X15308158Y-12490960D02*
X15327206Y-12500484D01*
X15327206Y-12500484D02*
X15365301Y-12500484D01*
X15365301Y-12500484D02*
X15384349Y-12490960D01*
X15384349Y-12490960D02*
X15393872Y-12471912D01*
X15393872Y-12471912D02*
X15393872Y-12462388D01*
X15393872Y-12462388D02*
X15384349Y-12443341D01*
X15384349Y-12443341D02*
X15365301Y-12433817D01*
X15365301Y-12433817D02*
X15336730Y-12433817D01*
X15336730Y-12433817D02*
X15317682Y-12424293D01*
X15317682Y-12424293D02*
X15308158Y-12405246D01*
X15308158Y-12405246D02*
X15308158Y-12395722D01*
X15308158Y-12395722D02*
X15317682Y-12376674D01*
X15317682Y-12376674D02*
X15336730Y-12367150D01*
X15336730Y-12367150D02*
X15365301Y-12367150D01*
X15365301Y-12367150D02*
X15384349Y-12376674D01*
X15460539Y-12576674D02*
X15470063Y-12567150D01*
X15470063Y-12567150D02*
X15489111Y-12538579D01*
X15489111Y-12538579D02*
X15498634Y-12519531D01*
X15498634Y-12519531D02*
X15508158Y-12490960D01*
X15508158Y-12490960D02*
X15517682Y-12443341D01*
X15517682Y-12443341D02*
X15517682Y-12405246D01*
X15517682Y-12405246D02*
X15508158Y-12357627D01*
X15508158Y-12357627D02*
X15498634Y-12329055D01*
X15498634Y-12329055D02*
X15489111Y-12310008D01*
X15489111Y-12310008D02*
X15470063Y-12281436D01*
X15470063Y-12281436D02*
X15460539Y-12271912D01*
X10395000Y-12573000D02*
X10395000Y-12773000D01*
X10295000Y-12673000D02*
X10495000Y-12673000D01*
X10746253Y-12583531D02*
X10755777Y-12574008D01*
X10755777Y-12574008D02*
X10774824Y-12564484D01*
X10774824Y-12564484D02*
X10822444Y-12564484D01*
X10822444Y-12564484D02*
X10841491Y-12574008D01*
X10841491Y-12574008D02*
X10851015Y-12583531D01*
X10851015Y-12583531D02*
X10860539Y-12602579D01*
X10860539Y-12602579D02*
X10860539Y-12621627D01*
X10860539Y-12621627D02*
X10851015Y-12650198D01*
X10851015Y-12650198D02*
X10736729Y-12764484D01*
X10736729Y-12764484D02*
X10860539Y-12764484D01*
X10946253Y-12745436D02*
X10955777Y-12754960D01*
X10955777Y-12754960D02*
X10946253Y-12764484D01*
X10946253Y-12764484D02*
X10936729Y-12754960D01*
X10936729Y-12754960D02*
X10946253Y-12745436D01*
X10946253Y-12745436D02*
X10946253Y-12764484D01*
X11031967Y-12583531D02*
X11041491Y-12574008D01*
X11041491Y-12574008D02*
X11060539Y-12564484D01*
X11060539Y-12564484D02*
X11108158Y-12564484D01*
X11108158Y-12564484D02*
X11127205Y-12574008D01*
X11127205Y-12574008D02*
X11136729Y-12583531D01*
X11136729Y-12583531D02*
X11146253Y-12602579D01*
X11146253Y-12602579D02*
X11146253Y-12621627D01*
X11146253Y-12621627D02*
X11136729Y-12650198D01*
X11136729Y-12650198D02*
X11022444Y-12764484D01*
X11022444Y-12764484D02*
X11146253Y-12764484D01*
X11270062Y-12564484D02*
X11289110Y-12564484D01*
X11289110Y-12564484D02*
X11308158Y-12574008D01*
X11308158Y-12574008D02*
X11317682Y-12583531D01*
X11317682Y-12583531D02*
X11327205Y-12602579D01*
X11327205Y-12602579D02*
X11336729Y-12640674D01*
X11336729Y-12640674D02*
X11336729Y-12688293D01*
X11336729Y-12688293D02*
X11327205Y-12726388D01*
X11327205Y-12726388D02*
X11317682Y-12745436D01*
X11317682Y-12745436D02*
X11308158Y-12754960D01*
X11308158Y-12754960D02*
X11289110Y-12764484D01*
X11289110Y-12764484D02*
X11270062Y-12764484D01*
X11270062Y-12764484D02*
X11251015Y-12754960D01*
X11251015Y-12754960D02*
X11241491Y-12745436D01*
X11241491Y-12745436D02*
X11231967Y-12726388D01*
X11231967Y-12726388D02*
X11222443Y-12688293D01*
X11222443Y-12688293D02*
X11222443Y-12640674D01*
X11222443Y-12640674D02*
X11231967Y-12602579D01*
X11231967Y-12602579D02*
X11241491Y-12583531D01*
X11241491Y-12583531D02*
X11251015Y-12574008D01*
X11251015Y-12574008D02*
X11270062Y-12564484D01*
X11460539Y-12564484D02*
X11479586Y-12564484D01*
X11479586Y-12564484D02*
X11498634Y-12574008D01*
X11498634Y-12574008D02*
X11508158Y-12583531D01*
X11508158Y-12583531D02*
X11517682Y-12602579D01*
X11517682Y-12602579D02*
X11527205Y-12640674D01*
X11527205Y-12640674D02*
X11527205Y-12688293D01*
X11527205Y-12688293D02*
X11517682Y-12726388D01*
X11517682Y-12726388D02*
X11508158Y-12745436D01*
X11508158Y-12745436D02*
X11498634Y-12754960D01*
X11498634Y-12754960D02*
X11479586Y-12764484D01*
X11479586Y-12764484D02*
X11460539Y-12764484D01*
X11460539Y-12764484D02*
X11441491Y-12754960D01*
X11441491Y-12754960D02*
X11431967Y-12745436D01*
X11431967Y-12745436D02*
X11422443Y-12726388D01*
X11422443Y-12726388D02*
X11412920Y-12688293D01*
X11412920Y-12688293D02*
X11412920Y-12640674D01*
X11412920Y-12640674D02*
X11422443Y-12602579D01*
X11422443Y-12602579D02*
X11431967Y-12583531D01*
X11431967Y-12583531D02*
X11441491Y-12574008D01*
X11441491Y-12574008D02*
X11460539Y-12564484D01*
X11612920Y-12764484D02*
X11612920Y-12631150D01*
X11612920Y-12650198D02*
X11622443Y-12640674D01*
X11622443Y-12640674D02*
X11641491Y-12631150D01*
X11641491Y-12631150D02*
X11670063Y-12631150D01*
X11670063Y-12631150D02*
X11689110Y-12640674D01*
X11689110Y-12640674D02*
X11698634Y-12659722D01*
X11698634Y-12659722D02*
X11698634Y-12764484D01*
X11698634Y-12659722D02*
X11708158Y-12640674D01*
X11708158Y-12640674D02*
X11727205Y-12631150D01*
X11727205Y-12631150D02*
X11755777Y-12631150D01*
X11755777Y-12631150D02*
X11774824Y-12640674D01*
X11774824Y-12640674D02*
X11784348Y-12659722D01*
X11784348Y-12659722D02*
X11784348Y-12764484D01*
X11879586Y-12764484D02*
X11879586Y-12631150D01*
X11879586Y-12650198D02*
X11889110Y-12640674D01*
X11889110Y-12640674D02*
X11908158Y-12631150D01*
X11908158Y-12631150D02*
X11936729Y-12631150D01*
X11936729Y-12631150D02*
X11955777Y-12640674D01*
X11955777Y-12640674D02*
X11965301Y-12659722D01*
X11965301Y-12659722D02*
X11965301Y-12764484D01*
X11965301Y-12659722D02*
X11974824Y-12640674D01*
X11974824Y-12640674D02*
X11993872Y-12631150D01*
X11993872Y-12631150D02*
X12022443Y-12631150D01*
X12022443Y-12631150D02*
X12041491Y-12640674D01*
X12041491Y-12640674D02*
X12051015Y-12659722D01*
X12051015Y-12659722D02*
X12051015Y-12764484D01*
X12441491Y-12554960D02*
X12270063Y-12812103D01*
X12698634Y-12564484D02*
X12717682Y-12564484D01*
X12717682Y-12564484D02*
X12736729Y-12574008D01*
X12736729Y-12574008D02*
X12746253Y-12583531D01*
X12746253Y-12583531D02*
X12755777Y-12602579D01*
X12755777Y-12602579D02*
X12765301Y-12640674D01*
X12765301Y-12640674D02*
X12765301Y-12688293D01*
X12765301Y-12688293D02*
X12755777Y-12726388D01*
X12755777Y-12726388D02*
X12746253Y-12745436D01*
X12746253Y-12745436D02*
X12736729Y-12754960D01*
X12736729Y-12754960D02*
X12717682Y-12764484D01*
X12717682Y-12764484D02*
X12698634Y-12764484D01*
X12698634Y-12764484D02*
X12679586Y-12754960D01*
X12679586Y-12754960D02*
X12670063Y-12745436D01*
X12670063Y-12745436D02*
X12660539Y-12726388D01*
X12660539Y-12726388D02*
X12651015Y-12688293D01*
X12651015Y-12688293D02*
X12651015Y-12640674D01*
X12651015Y-12640674D02*
X12660539Y-12602579D01*
X12660539Y-12602579D02*
X12670063Y-12583531D01*
X12670063Y-12583531D02*
X12679586Y-12574008D01*
X12679586Y-12574008D02*
X12698634Y-12564484D01*
X12851015Y-12745436D02*
X12860539Y-12754960D01*
X12860539Y-12754960D02*
X12851015Y-12764484D01*
X12851015Y-12764484D02*
X12841491Y-12754960D01*
X12841491Y-12754960D02*
X12851015Y-12745436D01*
X12851015Y-12745436D02*
X12851015Y-12764484D01*
X12984348Y-12564484D02*
X13003396Y-12564484D01*
X13003396Y-12564484D02*
X13022444Y-12574008D01*
X13022444Y-12574008D02*
X13031967Y-12583531D01*
X13031967Y-12583531D02*
X13041491Y-12602579D01*
X13041491Y-12602579D02*
X13051015Y-12640674D01*
X13051015Y-12640674D02*
X13051015Y-12688293D01*
X13051015Y-12688293D02*
X13041491Y-12726388D01*
X13041491Y-12726388D02*
X13031967Y-12745436D01*
X13031967Y-12745436D02*
X13022444Y-12754960D01*
X13022444Y-12754960D02*
X13003396Y-12764484D01*
X13003396Y-12764484D02*
X12984348Y-12764484D01*
X12984348Y-12764484D02*
X12965301Y-12754960D01*
X12965301Y-12754960D02*
X12955777Y-12745436D01*
X12955777Y-12745436D02*
X12946253Y-12726388D01*
X12946253Y-12726388D02*
X12936729Y-12688293D01*
X12936729Y-12688293D02*
X12936729Y-12640674D01*
X12936729Y-12640674D02*
X12946253Y-12602579D01*
X12946253Y-12602579D02*
X12955777Y-12583531D01*
X12955777Y-12583531D02*
X12965301Y-12574008D01*
X12965301Y-12574008D02*
X12984348Y-12564484D01*
X13165301Y-12650198D02*
X13146253Y-12640674D01*
X13146253Y-12640674D02*
X13136729Y-12631150D01*
X13136729Y-12631150D02*
X13127206Y-12612103D01*
X13127206Y-12612103D02*
X13127206Y-12602579D01*
X13127206Y-12602579D02*
X13136729Y-12583531D01*
X13136729Y-12583531D02*
X13146253Y-12574008D01*
X13146253Y-12574008D02*
X13165301Y-12564484D01*
X13165301Y-12564484D02*
X13203396Y-12564484D01*
X13203396Y-12564484D02*
X13222444Y-12574008D01*
X13222444Y-12574008D02*
X13231967Y-12583531D01*
X13231967Y-12583531D02*
X13241491Y-12602579D01*
X13241491Y-12602579D02*
X13241491Y-12612103D01*
X13241491Y-12612103D02*
X13231967Y-12631150D01*
X13231967Y-12631150D02*
X13222444Y-12640674D01*
X13222444Y-12640674D02*
X13203396Y-12650198D01*
X13203396Y-12650198D02*
X13165301Y-12650198D01*
X13165301Y-12650198D02*
X13146253Y-12659722D01*
X13146253Y-12659722D02*
X13136729Y-12669246D01*
X13136729Y-12669246D02*
X13127206Y-12688293D01*
X13127206Y-12688293D02*
X13127206Y-12726388D01*
X13127206Y-12726388D02*
X13136729Y-12745436D01*
X13136729Y-12745436D02*
X13146253Y-12754960D01*
X13146253Y-12754960D02*
X13165301Y-12764484D01*
X13165301Y-12764484D02*
X13203396Y-12764484D01*
X13203396Y-12764484D02*
X13222444Y-12754960D01*
X13222444Y-12754960D02*
X13231967Y-12745436D01*
X13231967Y-12745436D02*
X13241491Y-12726388D01*
X13241491Y-12726388D02*
X13241491Y-12688293D01*
X13241491Y-12688293D02*
X13231967Y-12669246D01*
X13231967Y-12669246D02*
X13222444Y-12659722D01*
X13222444Y-12659722D02*
X13203396Y-12650198D01*
X13412920Y-12564484D02*
X13374825Y-12564484D01*
X13374825Y-12564484D02*
X13355777Y-12574008D01*
X13355777Y-12574008D02*
X13346253Y-12583531D01*
X13346253Y-12583531D02*
X13327206Y-12612103D01*
X13327206Y-12612103D02*
X13317682Y-12650198D01*
X13317682Y-12650198D02*
X13317682Y-12726388D01*
X13317682Y-12726388D02*
X13327206Y-12745436D01*
X13327206Y-12745436D02*
X13336729Y-12754960D01*
X13336729Y-12754960D02*
X13355777Y-12764484D01*
X13355777Y-12764484D02*
X13393872Y-12764484D01*
X13393872Y-12764484D02*
X13412920Y-12754960D01*
X13412920Y-12754960D02*
X13422444Y-12745436D01*
X13422444Y-12745436D02*
X13431967Y-12726388D01*
X13431967Y-12726388D02*
X13431967Y-12678769D01*
X13431967Y-12678769D02*
X13422444Y-12659722D01*
X13422444Y-12659722D02*
X13412920Y-12650198D01*
X13412920Y-12650198D02*
X13393872Y-12640674D01*
X13393872Y-12640674D02*
X13355777Y-12640674D01*
X13355777Y-12640674D02*
X13336729Y-12650198D01*
X13336729Y-12650198D02*
X13327206Y-12659722D01*
X13327206Y-12659722D02*
X13317682Y-12678769D01*
X13603396Y-12564484D02*
X13565301Y-12564484D01*
X13565301Y-12564484D02*
X13546253Y-12574008D01*
X13546253Y-12574008D02*
X13536729Y-12583531D01*
X13536729Y-12583531D02*
X13517682Y-12612103D01*
X13517682Y-12612103D02*
X13508158Y-12650198D01*
X13508158Y-12650198D02*
X13508158Y-12726388D01*
X13508158Y-12726388D02*
X13517682Y-12745436D01*
X13517682Y-12745436D02*
X13527206Y-12754960D01*
X13527206Y-12754960D02*
X13546253Y-12764484D01*
X13546253Y-12764484D02*
X13584348Y-12764484D01*
X13584348Y-12764484D02*
X13603396Y-12754960D01*
X13603396Y-12754960D02*
X13612920Y-12745436D01*
X13612920Y-12745436D02*
X13622444Y-12726388D01*
X13622444Y-12726388D02*
X13622444Y-12678769D01*
X13622444Y-12678769D02*
X13612920Y-12659722D01*
X13612920Y-12659722D02*
X13603396Y-12650198D01*
X13603396Y-12650198D02*
X13584348Y-12640674D01*
X13584348Y-12640674D02*
X13546253Y-12640674D01*
X13546253Y-12640674D02*
X13527206Y-12650198D01*
X13527206Y-12650198D02*
X13517682Y-12659722D01*
X13517682Y-12659722D02*
X13508158Y-12678769D01*
X13698634Y-12564484D02*
X13698634Y-12602579D01*
X13774825Y-12564484D02*
X13774825Y-12602579D01*
X14070063Y-12840674D02*
X14060539Y-12831150D01*
X14060539Y-12831150D02*
X14041491Y-12802579D01*
X14041491Y-12802579D02*
X14031968Y-12783531D01*
X14031968Y-12783531D02*
X14022444Y-12754960D01*
X14022444Y-12754960D02*
X14012920Y-12707341D01*
X14012920Y-12707341D02*
X14012920Y-12669246D01*
X14012920Y-12669246D02*
X14022444Y-12621627D01*
X14022444Y-12621627D02*
X14031968Y-12593055D01*
X14031968Y-12593055D02*
X14041491Y-12574008D01*
X14041491Y-12574008D02*
X14060539Y-12545436D01*
X14060539Y-12545436D02*
X14070063Y-12535912D01*
X14127206Y-12564484D02*
X14251015Y-12564484D01*
X14251015Y-12564484D02*
X14184348Y-12640674D01*
X14184348Y-12640674D02*
X14212920Y-12640674D01*
X14212920Y-12640674D02*
X14231968Y-12650198D01*
X14231968Y-12650198D02*
X14241491Y-12659722D01*
X14241491Y-12659722D02*
X14251015Y-12678769D01*
X14251015Y-12678769D02*
X14251015Y-12726388D01*
X14251015Y-12726388D02*
X14241491Y-12745436D01*
X14241491Y-12745436D02*
X14231968Y-12754960D01*
X14231968Y-12754960D02*
X14212920Y-12764484D01*
X14212920Y-12764484D02*
X14155777Y-12764484D01*
X14155777Y-12764484D02*
X14136729Y-12754960D01*
X14136729Y-12754960D02*
X14127206Y-12745436D01*
X14489110Y-12764484D02*
X14489110Y-12564484D01*
X14574825Y-12764484D02*
X14574825Y-12659722D01*
X14574825Y-12659722D02*
X14565301Y-12640674D01*
X14565301Y-12640674D02*
X14546253Y-12631150D01*
X14546253Y-12631150D02*
X14517682Y-12631150D01*
X14517682Y-12631150D02*
X14498634Y-12640674D01*
X14498634Y-12640674D02*
X14489110Y-12650198D01*
X14698634Y-12764484D02*
X14679587Y-12754960D01*
X14679587Y-12754960D02*
X14670063Y-12745436D01*
X14670063Y-12745436D02*
X14660539Y-12726388D01*
X14660539Y-12726388D02*
X14660539Y-12669246D01*
X14660539Y-12669246D02*
X14670063Y-12650198D01*
X14670063Y-12650198D02*
X14679587Y-12640674D01*
X14679587Y-12640674D02*
X14698634Y-12631150D01*
X14698634Y-12631150D02*
X14727206Y-12631150D01*
X14727206Y-12631150D02*
X14746253Y-12640674D01*
X14746253Y-12640674D02*
X14755777Y-12650198D01*
X14755777Y-12650198D02*
X14765301Y-12669246D01*
X14765301Y-12669246D02*
X14765301Y-12726388D01*
X14765301Y-12726388D02*
X14755777Y-12745436D01*
X14755777Y-12745436D02*
X14746253Y-12754960D01*
X14746253Y-12754960D02*
X14727206Y-12764484D01*
X14727206Y-12764484D02*
X14698634Y-12764484D01*
X14879587Y-12764484D02*
X14860539Y-12754960D01*
X14860539Y-12754960D02*
X14851015Y-12735912D01*
X14851015Y-12735912D02*
X14851015Y-12564484D01*
X15031968Y-12754960D02*
X15012920Y-12764484D01*
X15012920Y-12764484D02*
X14974825Y-12764484D01*
X14974825Y-12764484D02*
X14955777Y-12754960D01*
X14955777Y-12754960D02*
X14946253Y-12735912D01*
X14946253Y-12735912D02*
X14946253Y-12659722D01*
X14946253Y-12659722D02*
X14955777Y-12640674D01*
X14955777Y-12640674D02*
X14974825Y-12631150D01*
X14974825Y-12631150D02*
X15012920Y-12631150D01*
X15012920Y-12631150D02*
X15031968Y-12640674D01*
X15031968Y-12640674D02*
X15041491Y-12659722D01*
X15041491Y-12659722D02*
X15041491Y-12678769D01*
X15041491Y-12678769D02*
X14946253Y-12697817D01*
X15117682Y-12754960D02*
X15136730Y-12764484D01*
X15136730Y-12764484D02*
X15174825Y-12764484D01*
X15174825Y-12764484D02*
X15193872Y-12754960D01*
X15193872Y-12754960D02*
X15203396Y-12735912D01*
X15203396Y-12735912D02*
X15203396Y-12726388D01*
X15203396Y-12726388D02*
X15193872Y-12707341D01*
X15193872Y-12707341D02*
X15174825Y-12697817D01*
X15174825Y-12697817D02*
X15146253Y-12697817D01*
X15146253Y-12697817D02*
X15127206Y-12688293D01*
X15127206Y-12688293D02*
X15117682Y-12669246D01*
X15117682Y-12669246D02*
X15117682Y-12659722D01*
X15117682Y-12659722D02*
X15127206Y-12640674D01*
X15127206Y-12640674D02*
X15146253Y-12631150D01*
X15146253Y-12631150D02*
X15174825Y-12631150D01*
X15174825Y-12631150D02*
X15193872Y-12640674D01*
X15270063Y-12840674D02*
X15279587Y-12831150D01*
X15279587Y-12831150D02*
X15298634Y-12802579D01*
X15298634Y-12802579D02*
X15308158Y-12783531D01*
X15308158Y-12783531D02*
X15317682Y-12754960D01*
X15317682Y-12754960D02*
X15327206Y-12707341D01*
X15327206Y-12707341D02*
X15327206Y-12669246D01*
X15327206Y-12669246D02*
X15317682Y-12621627D01*
X15317682Y-12621627D02*
X15308158Y-12593055D01*
X15308158Y-12593055D02*
X15298634Y-12574008D01*
X15298634Y-12574008D02*
X15279587Y-12545436D01*
X15279587Y-12545436D02*
X15270063Y-12535912D01*
M02*
