M48
; DRILL file {KiCad 7.0.9} date Tue Dec 26 13:04:55 2023
; FORMAT={-:-/ absolute / inch / decimal}
; #@! TF.CreationDate,2023-12-26T13:04:55+01:00
; #@! TF.GenerationSoftware,Kicad,Pcbnew,7.0.9
; #@! TF.FileFunction,Plated,1,2,PTH
FMAT,2
INCH
; #@! TA.AperFunction,Plated,PTH,ViaDrill
T1C0.0157
; #@! TA.AperFunction,Plated,PTH,ComponentDrill
T2C0.0394
; #@! TA.AperFunction,Plated,PTH,ComponentDrill
T3C0.0866
%
G90
G05
T1
X4.83Y-3.84
X4.89Y-3.5
X5.23Y-3.9
X5.24Y-4.03
X5.74Y-4.097
T2
X4.5715Y-3.5433
X4.5715Y-3.6433
X4.5715Y-3.7433
X4.5715Y-3.8433
X4.5715Y-3.9433
X4.5715Y-4.0433
X4.5715Y-4.1433
X4.5715Y-4.2433
X4.5715Y-4.3433
X4.6715Y-3.5433
X4.6715Y-3.6433
X4.6715Y-3.7433
X4.6715Y-3.8433
X4.6715Y-3.9433
X4.6715Y-4.0433
X4.6715Y-4.1433
X4.6715Y-4.2433
X4.6715Y-4.3433
X4.92Y-3.66
X4.92Y-4.26
X5.02Y-3.66
X5.02Y-4.26
X5.12Y-3.66
X5.12Y-4.26
X5.22Y-3.66
X5.22Y-4.26
X5.32Y-3.66
X5.32Y-4.26
X5.42Y-3.66
X5.42Y-4.26
X5.52Y-3.66
X5.52Y-4.26
X5.62Y-3.66
X5.62Y-4.26
X5.72Y-3.66
X5.72Y-4.26
X5.82Y-3.66
X5.82Y-4.26
X5.92Y-3.66
X5.92Y-4.26
X6.02Y-3.66
X6.02Y-4.26
X6.12Y-3.66
X6.12Y-4.26
X6.22Y-3.66
X6.22Y-4.26
X6.32Y-3.66
X6.32Y-4.26
T3
X4.84Y-4.42
X6.4961Y-3.5039
X6.4961Y-4.4094
T0
M30
