M48
; DRILL file {KiCad 7.0.9} date Wed Jan 10 14:10:09 2024
; FORMAT={-:-/ absolute / inch / decimal}
; #@! TF.CreationDate,2024-01-10T14:10:09+01:00
; #@! TF.GenerationSoftware,Kicad,Pcbnew,7.0.9
; #@! TF.FileFunction,Plated,1,2,PTH
FMAT,2
INCH
; #@! TA.AperFunction,Plated,PTH,ViaDrill
T1C0.0157
; #@! TA.AperFunction,Plated,PTH,ComponentDrill
T2C0.0394
; #@! TA.AperFunction,Plated,PTH,ComponentDrill
T3C0.0866
%
G90
G05
T1
X4.3802Y-3.5802
X4.8018Y-3.5118
X4.8591Y-3.9109
X4.88Y-4.0
X4.9093Y-3.9207
X4.99Y-3.89
X5.23Y-3.9
X5.24Y-4.03
X5.74Y-4.097
T2
X4.5715Y-3.5433
X4.5715Y-3.6433
X4.5715Y-3.7433
X4.5715Y-3.8433
X4.5715Y-3.9433
X4.5715Y-4.0433
X4.5715Y-4.1433
X4.5715Y-4.2433
X4.5715Y-4.3433
X4.6715Y-3.5433
X4.6715Y-3.6433
X4.6715Y-3.7433
X4.6715Y-3.8433
X4.6715Y-3.9433
X4.6715Y-4.0433
X4.6715Y-4.1433
X4.6715Y-4.2433
X4.6715Y-4.3433
X4.92Y-3.66
X4.92Y-4.26
X5.02Y-3.66
X5.02Y-4.26
X5.12Y-3.66
X5.12Y-4.26
X5.22Y-3.66
X5.22Y-4.26
X5.32Y-3.66
X5.32Y-4.26
X5.42Y-3.66
X5.42Y-4.26
X5.52Y-3.66
X5.52Y-4.26
X5.62Y-3.66
X5.62Y-4.26
X5.72Y-3.66
X5.72Y-4.26
X5.82Y-3.66
X5.82Y-4.26
X5.92Y-3.66
X5.92Y-4.26
X6.02Y-3.66
X6.02Y-4.26
X6.12Y-3.66
X6.12Y-4.26
X6.22Y-3.66
X6.22Y-4.26
X6.32Y-3.66
X6.32Y-4.26
T3
X4.84Y-4.42
X6.4961Y-3.5039
X6.4961Y-4.4094
T0
M30
