  0
SECTION
  2
HEADER
  9
$ANGBASE
  50
0.0
  9
$ANGDIR
  70
1
  9
$MEASUREMENT
  70
0
  0
ENDSEC
  0
SECTION
  2
TABLES
  0
TABLE
  2
LTYPE
  70
4
  0
LTYPE
  5
40F
  2
CONTINUOUS
  70
0
  3
Solid line
  72
65
  73
0
  40
0.0
  0
LTYPE
  5
410
  2
DASHDOT
 70
0
  3
Dash Dot ____ _ ____ _
 72
65
 73
4
 40
2.0
 49
1.25
 49
-0.25
 49
0.25
 49
-0.25
  0
LTYPE
  5
411
  2
DASHED
 70
0
  3
Dashed __ __ __ __ __
 72
65
 73
2
 40
0.75
 49
0.5
 49
-0.25
  0
LTYPE
  5
43B
  2
DOTTED
 70
0
  3
Dotted .  .  .  .
 72
65
 73
2
 40
0.2
 49
0.0
 49
-0.2
  0
ENDTAB
  0
TABLE
  2
STYLE
  70
4
  0
STYLE
  2
KICAD
  70
0
  40
0
  41
1
  42
1
  50
0
  71
0
  3
isocp.shx
  0
STYLE
  2
KICADB
  70
0
  40
0
  41
1
  42
1
  50
0
  71
0
  3
isocp.shx
  0
STYLE
  2
KICADI
  70
0
  40
0
  41
1
  42
1
  50
15
  71
0
  3
isocp.shx
  0
STYLE
  2
KICADBI
  70
0
  40
0
  41
1
  42
1
  50
15
  71
0
  3
isocp.shx
  0
ENDTAB
  0
TABLE
  2
LAYER
  70
1
  0
LAYER
  2
BLACK
  70
0
  62
7
  6
CONTINUOUS
  0
ENDTAB
  0
ENDSEC
  0
SECTION
  2
ENTITIES
0
LINE
8
BLACK
6
CONTINUOUS
10
4.1338582677165352
20
-3.3858267716535431
11
6.6141732283464565
21
-3.3858267716535431
0
LINE
8
BLACK
6
CONTINUOUS
10
6.6141732283464565
20
-3.3858267716535431
11
6.6141732283464565
21
-4.5275590551181102
0
LINE
8
BLACK
6
CONTINUOUS
10
6.6141732283464565
20
-4.5275590551181102
11
4.1338582677165352
21
-4.5275590551181102
0
LINE
8
BLACK
6
CONTINUOUS
10
4.1338582677165352
20
-4.5275590551181102
11
4.1338582677165352
21
-3.3858267716535431
0
LINE
8
BLACK
6
CONTINUOUS
10
4.8221259842519686
20
-3.8321259842519684
11
4.8378740157480316
21
-3.8478740157480313
0
LINE
8
BLACK
6
CONTINUOUS
10
4.8378740157480316
20
-3.8321259842519684
11
4.8221259842519686
21
-3.8478740157480313
0
LINE
8
BLACK
6
CONTINUOUS
10
4.8821259842519682
20
-3.4921259842519685
11
4.8978740157480312
21
-3.5078740157480315
0
LINE
8
BLACK
6
CONTINUOUS
10
4.8978740157480312
20
-3.4921259842519685
11
4.8821259842519682
21
-3.5078740157480315
0
LINE
8
BLACK
6
CONTINUOUS
10
5.2221259842519681
20
-3.8921259842519684
11
5.237874015748031
21
-3.9078740157480314
0
LINE
8
BLACK
6
CONTINUOUS
10
5.237874015748031
20
-3.8921259842519684
11
5.2221259842519681
21
-3.9078740157480314
0
LINE
8
BLACK
6
CONTINUOUS
10
5.2321259842519687
20
-4.0221259842519688
11
5.2478740157480317
21
-4.0378740157480317
0
LINE
8
BLACK
6
CONTINUOUS
10
5.2478740157480317
20
-4.0221259842519688
11
5.2321259842519687
21
-4.0378740157480317
0
LINE
8
BLACK
6
CONTINUOUS
10
5.7321259842519687
20
-4.089173228346457
11
5.7478740157480317
21
-4.10492125984252
0
LINE
8
BLACK
6
CONTINUOUS
10
5.7478740157480317
20
-4.089173228346457
11
5.7321259842519687
21
-4.10492125984252
0
CIRCLE
8
BLACK
10
4.5714566929133857
20
-3.5433070866141732
40
0.0196850393700787
0
CIRCLE
8
BLACK
10
4.5714566929133857
20
-3.6433070866141732
40
0.0196850393700787
0
CIRCLE
8
BLACK
10
4.5714566929133857
20
-3.7433070866141733
40
0.0196850393700787
0
CIRCLE
8
BLACK
10
4.5714566929133857
20
-3.843307086614173
40
0.0196850393700787
0
CIRCLE
8
BLACK
10
4.5714566929133857
20
-3.9433070866141731
40
0.0196850393700787
0
CIRCLE
8
BLACK
10
4.5714566929133857
20
-4.0433070866141732
40
0.0196850393700787
0
CIRCLE
8
BLACK
10
4.5714566929133857
20
-4.1433070866141728
40
0.0196850393700787
0
CIRCLE
8
BLACK
10
4.5714566929133857
20
-4.2433070866141733
40
0.0196850393700787
0
CIRCLE
8
BLACK
10
4.5714566929133857
20
-4.343307086614173
40
0.0196850393700787
0
CIRCLE
8
BLACK
10
4.6714566929133854
20
-3.5433070866141732
40
0.0196850393700787
0
CIRCLE
8
BLACK
10
4.6714566929133854
20
-3.6433070866141732
40
0.0196850393700787
0
CIRCLE
8
BLACK
10
4.6714566929133854
20
-3.7433070866141733
40
0.0196850393700787
0
CIRCLE
8
BLACK
10
4.6714566929133854
20
-3.843307086614173
40
0.0196850393700787
0
CIRCLE
8
BLACK
10
4.6714566929133854
20
-3.9433070866141731
40
0.0196850393700787
0
CIRCLE
8
BLACK
10
4.6714566929133854
20
-4.0433070866141732
40
0.0196850393700787
0
CIRCLE
8
BLACK
10
4.6714566929133854
20
-4.1433070866141728
40
0.0196850393700787
0
CIRCLE
8
BLACK
10
4.6714566929133854
20
-4.2433070866141733
40
0.0196850393700787
0
CIRCLE
8
BLACK
10
4.6714566929133854
20
-4.343307086614173
40
0.0196850393700787
0
CIRCLE
8
BLACK
10
4.9199999999999999
20
-3.6599999999999997
40
0.0196850393700787
0
CIRCLE
8
BLACK
10
4.9199999999999999
20
-4.2599999999999998
40
0.0196850393700787
0
CIRCLE
8
BLACK
10
5.0199999999999996
20
-3.6599999999999997
40
0.0196850393700787
0
CIRCLE
8
BLACK
10
5.0199999999999996
20
-4.2599999999999998
40
0.0196850393700787
0
CIRCLE
8
BLACK
10
5.1200000000000001
20
-3.6599999999999997
40
0.0196850393700787
0
CIRCLE
8
BLACK
10
5.1200000000000001
20
-4.2599999999999998
40
0.0196850393700787
0
CIRCLE
8
BLACK
10
5.2199999999999998
20
-3.6599999999999997
40
0.0196850393700787
0
CIRCLE
8
BLACK
10
5.2199999999999998
20
-4.2599999999999998
40
0.0196850393700787
0
CIRCLE
8
BLACK
10
5.3200000000000003
20
-3.6599999999999997
40
0.0196850393700787
0
CIRCLE
8
BLACK
10
5.3200000000000003
20
-4.2599999999999998
40
0.0196850393700787
0
CIRCLE
8
BLACK
10
5.4199999999999999
20
-3.6599999999999997
40
0.0196850393700787
0
CIRCLE
8
BLACK
10
5.4199999999999999
20
-4.2599999999999998
40
0.0196850393700787
0
CIRCLE
8
BLACK
10
5.5199999999999996
20
-3.6599999999999997
40
0.0196850393700787
0
CIRCLE
8
BLACK
10
5.5199999999999996
20
-4.2599999999999998
40
0.0196850393700787
0
CIRCLE
8
BLACK
10
5.6200000000000001
20
-3.6599999999999997
40
0.0196850393700787
0
CIRCLE
8
BLACK
10
5.6200000000000001
20
-4.2599999999999998
40
0.0196850393700787
0
CIRCLE
8
BLACK
10
5.7199999999999998
20
-3.6599999999999997
40
0.0196850393700787
0
CIRCLE
8
BLACK
10
5.7199999999999998
20
-4.2599999999999998
40
0.0196850393700787
0
CIRCLE
8
BLACK
10
5.8200000000000003
20
-3.6599999999999997
40
0.0196850393700787
0
CIRCLE
8
BLACK
10
5.8200000000000003
20
-4.2599999999999998
40
0.0196850393700787
0
CIRCLE
8
BLACK
10
5.9199999999999999
20
-3.6599999999999997
40
0.0196850393700787
0
CIRCLE
8
BLACK
10
5.9199999999999999
20
-4.2599999999999998
40
0.0196850393700787
0
CIRCLE
8
BLACK
10
6.0199999999999996
20
-3.6599999999999997
40
0.0196850393700787
0
CIRCLE
8
BLACK
10
6.0199999999999996
20
-4.2599999999999998
40
0.0196850393700787
0
CIRCLE
8
BLACK
10
6.1200000000000001
20
-3.6599999999999997
40
0.0196850393700787
0
CIRCLE
8
BLACK
10
6.1200000000000001
20
-4.2599999999999998
40
0.0196850393700787
0
CIRCLE
8
BLACK
10
6.2199999999999998
20
-3.6599999999999997
40
0.0196850393700787
0
CIRCLE
8
BLACK
10
6.2199999999999998
20
-4.2599999999999998
40
0.0196850393700787
0
CIRCLE
8
BLACK
10
6.3200000000000003
20
-3.6599999999999997
40
0.0196850393700787
0
CIRCLE
8
BLACK
10
6.3200000000000003
20
-4.2599999999999998
40
0.0196850393700787
0
LINE
8
BLACK
6
CONTINUOUS
10
4.8399999999999999
20
-4.3766929133858268
11
4.8399999999999999
21
-4.4633070866141731
0
LINE
8
BLACK
6
CONTINUOUS
10
4.7966929133858267
20
-4.4199999999999999
11
4.883307086614173
21
-4.4199999999999999
0
LINE
8
BLACK
6
CONTINUOUS
10
6.4960629921259843
20
-3.4606299212598426
11
6.4960629921259843
21
-3.5472440944881889
0
LINE
8
BLACK
6
CONTINUOUS
10
6.4527559055118111
20
-3.5039370078740157
11
6.5393700787401574
21
-3.5039370078740157
0
LINE
8
BLACK
6
CONTINUOUS
10
6.4960629921259843
20
-4.3661417322834648
11
6.4960629921259843
21
-4.4527559055118111
0
LINE
8
BLACK
6
CONTINUOUS
10
6.4527559055118111
20
-4.409448818897638
11
6.5393700787401574
21
-4.409448818897638
0
LINE
8
BLACK
6
CONTINUOUS
10
4.2345577952755908
20
-4.6521589763779527
11
4.2345577952755908
21
-4.5734188188976379
0
LINE
8
BLACK
6
CONTINUOUS
10
4.2345577952755908
20
-4.5734188188976379
11
4.2533054330708664
21
-4.5734188188976379
0
LINE
8
BLACK
6
CONTINUOUS
10
4.2533054330708664
20
-4.5734188188976379
11
4.2645540551181105
21
-4.577168346456693
0
LINE
8
BLACK
6
CONTINUOUS
10
4.2645540551181105
20
-4.577168346456693
11
4.2720531102362207
21
-4.5846674015748032
0
LINE
8
BLACK
6
CONTINUOUS
10
4.2720531102362207
20
-4.5846674015748032
11
4.2758026377952758
21
-4.5921664566929135
0
LINE
8
BLACK
6
CONTINUOUS
10
4.2758026377952758
20
-4.5921664566929135
11
4.2795521653543309
21
-4.6071645669291339
0
LINE
8
BLACK
6
CONTINUOUS
10
4.2795521653543309
20
-4.6071645669291339
11
4.2795521653543309
21
-4.618413188976378
0
LINE
8
BLACK
6
CONTINUOUS
10
4.2795521653543309
20
-4.618413188976378
11
4.2758026377952758
21
-4.6334112992125984
0
LINE
8
BLACK
6
CONTINUOUS
10
4.2758026377952758
20
-4.6334112992125984
11
4.2720531102362207
21
-4.6409103543307086
0
LINE
8
BLACK
6
CONTINUOUS
10
4.2720531102362207
20
-4.6409103543307086
11
4.2645540551181105
21
-4.6484094488188976
0
LINE
8
BLACK
6
CONTINUOUS
10
4.2645540551181105
20
-4.6484094488188976
11
4.2533054330708664
21
-4.6521589763779527
0
LINE
8
BLACK
6
CONTINUOUS
10
4.2533054330708664
20
-4.6521589763779527
11
4.2345577952755908
21
-4.6521589763779527
0
LINE
8
BLACK
6
CONTINUOUS
10
4.3132979527559057
20
-4.6521589763779527
11
4.3132979527559057
21
-4.5996655118110237
0
LINE
8
BLACK
6
CONTINUOUS
10
4.3132979527559057
20
-4.6146636614173229
11
4.3170474803149608
21
-4.6071645669291339
0
LINE
8
BLACK
6
CONTINUOUS
10
4.3170474803149608
20
-4.6071645669291339
11
4.3207970078740159
21
-4.6034150393700788
0
LINE
8
BLACK
6
CONTINUOUS
10
4.3207970078740159
20
-4.6034150393700788
11
4.3282960629921261
21
-4.5996655118110237
0
LINE
8
BLACK
6
CONTINUOUS
10
4.3282960629921261
20
-4.5996655118110237
11
4.3357951574803151
21
-4.5996655118110237
0
LINE
8
BLACK
6
CONTINUOUS
10
4.3620418503937008
20
-4.6521589763779527
11
4.3620418503937008
21
-4.5996655118110237
0
LINE
8
BLACK
6
CONTINUOUS
10
4.3620418503937008
20
-4.5734188188976379
11
4.3582923228346457
21
-4.577168346456693
0
LINE
8
BLACK
6
CONTINUOUS
10
4.3582923228346457
20
-4.577168346456693
11
4.3620418503937008
21
-4.5809178740157481
0
LINE
8
BLACK
6
CONTINUOUS
10
4.3620418503937008
20
-4.5809178740157481
11
4.365791377952756
21
-4.577168346456693
0
LINE
8
BLACK
6
CONTINUOUS
10
4.365791377952756
20
-4.577168346456693
11
4.3620418503937008
21
-4.5734188188976379
0
LINE
8
BLACK
6
CONTINUOUS
10
4.3620418503937008
20
-4.5734188188976379
11
4.3620418503937008
21
-4.5809178740157481
0
LINE
8
BLACK
6
CONTINUOUS
10
4.410785748031496
20
-4.6521589763779527
11
4.4032866929133858
21
-4.6484094488188976
0
LINE
8
BLACK
6
CONTINUOUS
10
4.4032866929133858
20
-4.6484094488188976
11
4.3995371653543307
21
-4.6409103543307086
0
LINE
8
BLACK
6
CONTINUOUS
10
4.3995371653543307
20
-4.6409103543307086
11
4.3995371653543307
21
-4.5734188188976379
0
LINE
8
BLACK
6
CONTINUOUS
10
4.452030590551181
20
-4.6521589763779527
11
4.4445315354330708
21
-4.6484094488188976
0
LINE
8
BLACK
6
CONTINUOUS
10
4.4445315354330708
20
-4.6484094488188976
11
4.4407820078740157
21
-4.6409103543307086
0
LINE
8
BLACK
6
CONTINUOUS
10
4.4407820078740157
20
-4.6409103543307086
11
4.4407820078740157
21
-4.5734188188976379
0
LINE
8
BLACK
6
CONTINUOUS
10
4.5420193700787399
20
-4.6521589763779527
11
4.5420193700787399
21
-4.5734188188976379
0
LINE
8
BLACK
6
CONTINUOUS
10
4.5420193700787399
20
-4.5734188188976379
11
4.5682661023622044
21
-4.6296617716535433
0
LINE
8
BLACK
6
CONTINUOUS
10
4.5682661023622044
20
-4.6296617716535433
11
4.5945127952755902
21
-4.5734188188976379
0
LINE
8
BLACK
6
CONTINUOUS
10
4.5945127952755902
20
-4.5734188188976379
11
4.5945127952755902
21
-4.6521589763779527
0
LINE
8
BLACK
6
CONTINUOUS
10
4.6657538976377948
20
-4.6521589763779527
11
4.6657538976377948
21
-4.6109141338582678
0
LINE
8
BLACK
6
CONTINUOUS
10
4.6657538976377948
20
-4.6109141338582678
11
4.6620043700787397
21
-4.6034150393700788
0
LINE
8
BLACK
6
CONTINUOUS
10
4.6620043700787397
20
-4.6034150393700788
11
4.6545053149606295
21
-4.5996655118110237
0
LINE
8
BLACK
6
CONTINUOUS
10
4.6545053149606295
20
-4.5996655118110237
11
4.6395071653543303
21
-4.5996655118110237
0
LINE
8
BLACK
6
CONTINUOUS
10
4.6395071653543303
20
-4.5996655118110237
11
4.6320081102362201
21
-4.6034150393700788
0
LINE
8
BLACK
6
CONTINUOUS
10
4.6657538976377948
20
-4.6484094488188976
11
4.6582548425196846
21
-4.6521589763779527
0
LINE
8
BLACK
6
CONTINUOUS
10
4.6582548425196846
20
-4.6521589763779527
11
4.6395071653543303
21
-4.6521589763779527
0
LINE
8
BLACK
6
CONTINUOUS
10
4.6395071653543303
20
-4.6521589763779527
11
4.6320081102362201
21
-4.6484094488188976
0
LINE
8
BLACK
6
CONTINUOUS
10
4.6320081102362201
20
-4.6484094488188976
11
4.6282585826771649
21
-4.6409103543307086
0
LINE
8
BLACK
6
CONTINUOUS
10
4.6282585826771649
20
-4.6409103543307086
11
4.6282585826771649
21
-4.6334112992125984
0
LINE
8
BLACK
6
CONTINUOUS
10
4.6282585826771649
20
-4.6334112992125984
11
4.6320081102362201
21
-4.6259122440944882
0
LINE
8
BLACK
6
CONTINUOUS
10
4.6320081102362201
20
-4.6259122440944882
11
4.6395071653543303
21
-4.6221627165354331
0
LINE
8
BLACK
6
CONTINUOUS
10
4.6395071653543303
20
-4.6221627165354331
11
4.6582548425196846
21
-4.6221627165354331
0
LINE
8
BLACK
6
CONTINUOUS
10
4.6582548425196846
20
-4.6221627165354331
11
4.6657538976377948
21
-4.618413188976378
0
LINE
8
BLACK
6
CONTINUOUS
10
4.7032492125984247
20
-4.5996655118110237
11
4.7032492125984247
21
-4.6784056692913385
0
LINE
8
BLACK
6
CONTINUOUS
10
4.7032492125984247
20
-4.6034150393700788
11
4.7107482677165358
21
-4.5996655118110237
0
LINE
8
BLACK
6
CONTINUOUS
10
4.7107482677165358
20
-4.5996655118110237
11
4.725746417322835
21
-4.5996655118110237
0
LINE
8
BLACK
6
CONTINUOUS
10
4.725746417322835
20
-4.5996655118110237
11
4.7332454724409452
21
-4.6034150393700788
0
LINE
8
BLACK
6
CONTINUOUS
10
4.7332454724409452
20
-4.6034150393700788
11
4.7369950000000003
21
-4.6071645669291339
0
LINE
8
BLACK
6
CONTINUOUS
10
4.7369950000000003
20
-4.6071645669291339
11
4.7407445275590554
21
-4.6146636614173229
0
LINE
8
BLACK
6
CONTINUOUS
10
4.7407445275590554
20
-4.6146636614173229
11
4.7407445275590554
21
-4.6371608267716535
0
LINE
8
BLACK
6
CONTINUOUS
10
4.7407445275590554
20
-4.6371608267716535
11
4.7369950000000003
21
-4.6446598818897638
0
LINE
8
BLACK
6
CONTINUOUS
10
4.7369950000000003
20
-4.6446598818897638
11
4.7332454724409452
21
-4.6484094488188976
0
LINE
8
BLACK
6
CONTINUOUS
10
4.7332454724409452
20
-4.6484094488188976
11
4.725746417322835
21
-4.6521589763779527
0
LINE
8
BLACK
6
CONTINUOUS
10
4.725746417322835
20
-4.6521589763779527
11
4.7107482677165358
21
-4.6521589763779527
0
LINE
8
BLACK
6
CONTINUOUS
10
4.7107482677165358
20
-4.6521589763779527
11
4.7032492125984247
21
-4.6484094488188976
0
LINE
8
BLACK
6
CONTINUOUS
10
4.7744903149606301
20
-4.6446598818897638
11
4.7782398425196853
21
-4.6484094488188976
0
LINE
8
BLACK
6
CONTINUOUS
10
4.7782398425196853
20
-4.6484094488188976
11
4.7744903149606301
21
-4.6521589763779527
0
LINE
8
BLACK
6
CONTINUOUS
10
4.7744903149606301
20
-4.6521589763779527
11
4.770740787401575
21
-4.6484094488188976
0
LINE
8
BLACK
6
CONTINUOUS
10
4.770740787401575
20
-4.6484094488188976
11
4.7744903149606301
21
-4.6446598818897638
0
LINE
8
BLACK
6
CONTINUOUS
10
4.7744903149606301
20
-4.6446598818897638
11
4.7744903149606301
21
-4.6521589763779527
0
LINE
8
BLACK
6
CONTINUOUS
10
4.7744903149606301
20
-4.6034150393700788
11
4.7782398425196853
21
-4.6071645669291339
0
LINE
8
BLACK
6
CONTINUOUS
10
4.7782398425196853
20
-4.6071645669291339
11
4.7744903149606301
21
-4.6109141338582678
0
LINE
8
BLACK
6
CONTINUOUS
10
4.7744903149606301
20
-4.6109141338582678
11
4.770740787401575
21
-4.6071645669291339
0
LINE
8
BLACK
6
CONTINUOUS
10
4.770740787401575
20
-4.6071645669291339
11
4.7744903149606301
21
-4.6034150393700788
0
LINE
8
BLACK
6
CONTINUOUS
10
4.7744903149606301
20
-4.6034150393700788
11
4.7744903149606301
21
-4.6109141338582678
0
LINE
8
BLACK
6
CONTINUOUS
10
4.1161417322834648
20
-4.7736220472440944
11
4.1318897637795278
21
-4.7893700787401574
0
LINE
8
BLACK
6
CONTINUOUS
10
4.1318897637795278
20
-4.7736220472440944
11
4.1161417322834648
21
-4.7893700787401574
0
LINE
8
BLACK
6
CONTINUOUS
10
4.2495559055118113
20
-4.738773149606299
11
4.2570550000000003
21
-4.738773149606299
0
LINE
8
BLACK
6
CONTINUOUS
10
4.2570550000000003
20
-4.738773149606299
11
4.2645540551181105
21
-4.7425226771653541
0
LINE
8
BLACK
6
CONTINUOUS
10
4.2645540551181105
20
-4.7425226771653541
11
4.2683035826771656
21
-4.7462722047244092
0
LINE
8
BLACK
6
CONTINUOUS
10
4.2683035826771656
20
-4.7462722047244092
11
4.2720531102362207
21
-4.7537712598425195
0
LINE
8
BLACK
6
CONTINUOUS
10
4.2720531102362207
20
-4.7537712598425195
11
4.2758026377952758
21
-4.7687693700787399
0
LINE
8
BLACK
6
CONTINUOUS
10
4.2758026377952758
20
-4.7687693700787399
11
4.2758026377952758
21
-4.7875170472440942
0
LINE
8
BLACK
6
CONTINUOUS
10
4.2758026377952758
20
-4.7875170472440942
11
4.2720531102362207
21
-4.8025151574803147
0
LINE
8
BLACK
6
CONTINUOUS
10
4.2720531102362207
20
-4.8025151574803147
11
4.2683035826771656
21
-4.8100142125984249
0
LINE
8
BLACK
6
CONTINUOUS
10
4.2683035826771656
20
-4.8100142125984249
11
4.2645540551181105
21
-4.8137637795275587
0
LINE
8
BLACK
6
CONTINUOUS
10
4.2645540551181105
20
-4.8137637795275587
11
4.2570550000000003
21
-4.8175133070866138
0
LINE
8
BLACK
6
CONTINUOUS
10
4.2570550000000003
20
-4.8175133070866138
11
4.2495559055118113
21
-4.8175133070866138
0
LINE
8
BLACK
6
CONTINUOUS
10
4.2495559055118113
20
-4.8175133070866138
11
4.2420568503937011
21
-4.8137637795275587
0
LINE
8
BLACK
6
CONTINUOUS
10
4.2420568503937011
20
-4.8137637795275587
11
4.238307322834646
21
-4.8100142125984249
0
LINE
8
BLACK
6
CONTINUOUS
10
4.238307322834646
20
-4.8100142125984249
11
4.2345577952755908
21
-4.8025151574803147
0
LINE
8
BLACK
6
CONTINUOUS
10
4.2345577952755908
20
-4.8025151574803147
11
4.2308082677165357
21
-4.7875170472440942
0
LINE
8
BLACK
6
CONTINUOUS
10
4.2308082677165357
20
-4.7875170472440942
11
4.2308082677165357
21
-4.7687693700787399
0
LINE
8
BLACK
6
CONTINUOUS
10
4.2308082677165357
20
-4.7687693700787399
11
4.2345577952755908
21
-4.7537712598425195
0
LINE
8
BLACK
6
CONTINUOUS
10
4.2345577952755908
20
-4.7537712598425195
11
4.238307322834646
21
-4.7462722047244092
0
LINE
8
BLACK
6
CONTINUOUS
10
4.238307322834646
20
-4.7462722047244092
11
4.2420568503937011
21
-4.7425226771653541
0
LINE
8
BLACK
6
CONTINUOUS
10
4.2420568503937011
20
-4.7425226771653541
11
4.2495559055118113
21
-4.738773149606299
0
LINE
8
BLACK
6
CONTINUOUS
10
4.3095484251968506
20
-4.8100142125984249
11
4.3132979527559057
21
-4.8137637795275587
0
LINE
8
BLACK
6
CONTINUOUS
10
4.3132979527559057
20
-4.8137637795275587
11
4.3095484251968506
21
-4.8175133070866138
0
LINE
8
BLACK
6
CONTINUOUS
10
4.3095484251968506
20
-4.8175133070866138
11
4.3057988976377954
21
-4.8137637795275587
0
LINE
8
BLACK
6
CONTINUOUS
10
4.3057988976377954
20
-4.8137637795275587
11
4.3095484251968506
21
-4.8100142125984249
0
LINE
8
BLACK
6
CONTINUOUS
10
4.3095484251968506
20
-4.8100142125984249
11
4.3095484251968506
21
-4.8175133070866138
0
LINE
8
BLACK
6
CONTINUOUS
10
4.3807895275590552
20
-4.7650198425196848
11
4.3807895275590552
21
-4.8175133070866138
0
LINE
8
BLACK
6
CONTINUOUS
10
4.3620418503937008
20
-4.7350236220472439
11
4.3432942125984253
21
-4.7912665748031493
0
LINE
8
BLACK
6
CONTINUOUS
10
4.3432942125984253
20
-4.7912665748031493
11
4.3920381102362205
21
-4.7912665748031493
0
LINE
8
BLACK
6
CONTINUOUS
10
4.4370324803149606
20
-4.738773149606299
11
4.4445315748031495
21
-4.738773149606299
0
LINE
8
BLACK
6
CONTINUOUS
10
4.4445315748031495
20
-4.738773149606299
11
4.4520306299212598
21
-4.7425226771653541
0
LINE
8
BLACK
6
CONTINUOUS
10
4.4520306299212598
20
-4.7425226771653541
11
4.4557801574803149
21
-4.7462722047244092
0
LINE
8
BLACK
6
CONTINUOUS
10
4.4557801574803149
20
-4.7462722047244092
11
4.45952968503937
21
-4.7537712598425195
0
LINE
8
BLACK
6
CONTINUOUS
10
4.45952968503937
20
-4.7537712598425195
11
4.4632792125984251
21
-4.7687693700787399
0
LINE
8
BLACK
6
CONTINUOUS
10
4.4632792125984251
20
-4.7687693700787399
11
4.4632792125984251
21
-4.7875170472440942
0
LINE
8
BLACK
6
CONTINUOUS
10
4.4632792125984251
20
-4.7875170472440942
11
4.45952968503937
21
-4.8025151574803147
0
LINE
8
BLACK
6
CONTINUOUS
10
4.45952968503937
20
-4.8025151574803147
11
4.4557801574803149
21
-4.8100142125984249
0
LINE
8
BLACK
6
CONTINUOUS
10
4.4557801574803149
20
-4.8100142125984249
11
4.4520306299212598
21
-4.8137637795275587
0
LINE
8
BLACK
6
CONTINUOUS
10
4.4520306299212598
20
-4.8137637795275587
11
4.4445315748031495
21
-4.8175133070866138
0
LINE
8
BLACK
6
CONTINUOUS
10
4.4445315748031495
20
-4.8175133070866138
11
4.4370324803149606
21
-4.8175133070866138
0
LINE
8
BLACK
6
CONTINUOUS
10
4.4370324803149606
20
-4.8175133070866138
11
4.4295334251968503
21
-4.8137637795275587
0
LINE
8
BLACK
6
CONTINUOUS
10
4.4295334251968503
20
-4.8137637795275587
11
4.4257838976377952
21
-4.8100142125984249
0
LINE
8
BLACK
6
CONTINUOUS
10
4.4257838976377952
20
-4.8100142125984249
11
4.4220343700787401
21
-4.8025151574803147
0
LINE
8
BLACK
6
CONTINUOUS
10
4.4220343700787401
20
-4.8025151574803147
11
4.418284842519685
21
-4.7875170472440942
0
LINE
8
BLACK
6
CONTINUOUS
10
4.418284842519685
20
-4.7875170472440942
11
4.418284842519685
21
-4.7687693700787399
0
LINE
8
BLACK
6
CONTINUOUS
10
4.418284842519685
20
-4.7687693700787399
11
4.4220343700787401
21
-4.7537712598425195
0
LINE
8
BLACK
6
CONTINUOUS
10
4.4220343700787401
20
-4.7537712598425195
11
4.4257838976377952
21
-4.7462722047244092
0
LINE
8
BLACK
6
CONTINUOUS
10
4.4257838976377952
20
-4.7462722047244092
11
4.4295334251968503
21
-4.7425226771653541
0
LINE
8
BLACK
6
CONTINUOUS
10
4.4295334251968503
20
-4.7425226771653541
11
4.4370324803149606
21
-4.738773149606299
0
LINE
8
BLACK
6
CONTINUOUS
10
4.5120231102362203
20
-4.738773149606299
11
4.5195222047244092
21
-4.738773149606299
0
LINE
8
BLACK
6
CONTINUOUS
10
4.5195222047244092
20
-4.738773149606299
11
4.5270212598425195
21
-4.7425226771653541
0
LINE
8
BLACK
6
CONTINUOUS
10
4.5270212598425195
20
-4.7425226771653541
11
4.5307707874015746
21
-4.7462722047244092
0
LINE
8
BLACK
6
CONTINUOUS
10
4.5307707874015746
20
-4.7462722047244092
11
4.5345203149606297
21
-4.7537712598425195
0
LINE
8
BLACK
6
CONTINUOUS
10
4.5345203149606297
20
-4.7537712598425195
11
4.5382698425196848
21
-4.7687693700787399
0
LINE
8
BLACK
6
CONTINUOUS
10
4.5382698425196848
20
-4.7687693700787399
11
4.5382698425196848
21
-4.7875170472440942
0
LINE
8
BLACK
6
CONTINUOUS
10
4.5382698425196848
20
-4.7875170472440942
11
4.5345203149606297
21
-4.8025151574803147
0
LINE
8
BLACK
6
CONTINUOUS
10
4.5345203149606297
20
-4.8025151574803147
11
4.5307707874015746
21
-4.8100142125984249
0
LINE
8
BLACK
6
CONTINUOUS
10
4.5307707874015746
20
-4.8100142125984249
11
4.5270212598425195
21
-4.8137637795275587
0
LINE
8
BLACK
6
CONTINUOUS
10
4.5270212598425195
20
-4.8137637795275587
11
4.5195222047244092
21
-4.8175133070866138
0
LINE
8
BLACK
6
CONTINUOUS
10
4.5195222047244092
20
-4.8175133070866138
11
4.5120231102362203
21
-4.8175133070866138
0
LINE
8
BLACK
6
CONTINUOUS
10
4.5120231102362203
20
-4.8175133070866138
11
4.50452405511811
21
-4.8137637795275587
0
LINE
8
BLACK
6
CONTINUOUS
10
4.50452405511811
20
-4.8137637795275587
11
4.5007745275590549
21
-4.8100142125984249
0
LINE
8
BLACK
6
CONTINUOUS
10
4.5007745275590549
20
-4.8100142125984249
11
4.4970249999999998
21
-4.8025151574803147
0
LINE
8
BLACK
6
CONTINUOUS
10
4.4970249999999998
20
-4.8025151574803147
11
4.4932754724409447
21
-4.7875170472440942
0
LINE
8
BLACK
6
CONTINUOUS
10
4.4932754724409447
20
-4.7875170472440942
11
4.4932754724409447
21
-4.7687693700787399
0
LINE
8
BLACK
6
CONTINUOUS
10
4.4932754724409447
20
-4.7687693700787399
11
4.4970249999999998
21
-4.7537712598425195
0
LINE
8
BLACK
6
CONTINUOUS
10
4.4970249999999998
20
-4.7537712598425195
11
4.5007745275590549
21
-4.7462722047244092
0
LINE
8
BLACK
6
CONTINUOUS
10
4.5007745275590549
20
-4.7462722047244092
11
4.50452405511811
21
-4.7425226771653541
0
LINE
8
BLACK
6
CONTINUOUS
10
4.50452405511811
20
-4.7425226771653541
11
4.5120231102362203
21
-4.738773149606299
0
LINE
8
BLACK
6
CONTINUOUS
10
4.5720156299212595
20
-4.8175133070866138
11
4.5720156299212595
21
-4.7650198425196848
0
LINE
8
BLACK
6
CONTINUOUS
10
4.5720156299212595
20
-4.772518897637795
11
4.5757651574803146
21
-4.7687693700787399
0
LINE
8
BLACK
6
CONTINUOUS
10
4.5757651574803146
20
-4.7687693700787399
11
4.5832642125984249
21
-4.7650198425196848
0
LINE
8
BLACK
6
CONTINUOUS
10
4.5832642125984249
20
-4.7650198425196848
11
4.594512834645669
21
-4.7650198425196848
0
LINE
8
BLACK
6
CONTINUOUS
10
4.594512834645669
20
-4.7650198425196848
11
4.6020118897637792
21
-4.7687693700787399
0
LINE
8
BLACK
6
CONTINUOUS
10
4.6020118897637792
20
-4.7687693700787399
11
4.6057614173228343
21
-4.7762684645669289
0
LINE
8
BLACK
6
CONTINUOUS
10
4.6057614173228343
20
-4.7762684645669289
11
4.6057614173228343
21
-4.8175133070866138
0
LINE
8
BLACK
6
CONTINUOUS
10
4.6057614173228343
20
-4.7762684645669289
11
4.6095109448818894
21
-4.7687693700787399
0
LINE
8
BLACK
6
CONTINUOUS
10
4.6095109448818894
20
-4.7687693700787399
11
4.6170099999999996
21
-4.7650198425196848
0
LINE
8
BLACK
6
CONTINUOUS
10
4.6170099999999996
20
-4.7650198425196848
11
4.6282585826771649
21
-4.7650198425196848
0
LINE
8
BLACK
6
CONTINUOUS
10
4.6282585826771649
20
-4.7650198425196848
11
4.6357576771653539
21
-4.7687693700787399
0
LINE
8
BLACK
6
CONTINUOUS
10
4.6357576771653539
20
-4.7687693700787399
11
4.639507204724409
21
-4.7762684645669289
0
LINE
8
BLACK
6
CONTINUOUS
10
4.639507204724409
20
-4.7762684645669289
11
4.639507204724409
21
-4.8175133070866138
0
LINE
8
BLACK
6
CONTINUOUS
10
4.6770025196850389
20
-4.8175133070866138
11
4.6770025196850389
21
-4.7650198425196848
0
LINE
8
BLACK
6
CONTINUOUS
10
4.6770025196850389
20
-4.772518897637795
11
4.680752047244094
21
-4.7687693700787399
0
LINE
8
BLACK
6
CONTINUOUS
10
4.680752047244094
20
-4.7687693700787399
11
4.6882511023622042
21
-4.7650198425196848
0
LINE
8
BLACK
6
CONTINUOUS
10
4.6882511023622042
20
-4.7650198425196848
11
4.6994997244094483
21
-4.7650198425196848
0
LINE
8
BLACK
6
CONTINUOUS
10
4.6994997244094483
20
-4.7650198425196848
11
4.7069987795275585
21
-4.7687693700787399
0
LINE
8
BLACK
6
CONTINUOUS
10
4.7069987795275585
20
-4.7687693700787399
11
4.7107483070866136
21
-4.7762684645669289
0
LINE
8
BLACK
6
CONTINUOUS
10
4.7107483070866136
20
-4.7762684645669289
11
4.7107483070866136
21
-4.8175133070866138
0
LINE
8
BLACK
6
CONTINUOUS
10
4.7107483070866136
20
-4.7762684645669289
11
4.7144978346456696
21
-4.7687693700787399
0
LINE
8
BLACK
6
CONTINUOUS
10
4.7144978346456696
20
-4.7687693700787399
11
4.7219968897637798
21
-4.7650198425196848
0
LINE
8
BLACK
6
CONTINUOUS
10
4.7219968897637798
20
-4.7650198425196848
11
4.7332454724409452
21
-4.7650198425196848
0
LINE
8
BLACK
6
CONTINUOUS
10
4.7332454724409452
20
-4.7650198425196848
11
4.7407445669291342
21
-4.7687693700787399
0
LINE
8
BLACK
6
CONTINUOUS
10
4.7407445669291342
20
-4.7687693700787399
11
4.7444940944881893
21
-4.7762684645669289
0
LINE
8
BLACK
6
CONTINUOUS
10
4.7444940944881893
20
-4.7762684645669289
11
4.7444940944881893
21
-4.8175133070866138
0
LINE
8
BLACK
6
CONTINUOUS
10
4.8982248818897638
20
-4.7350236220472439
11
4.8307333464566931
21
-4.8362609448818894
0
LINE
8
BLACK
6
CONTINUOUS
10
4.999462244094488
20
-4.738773149606299
11
5.006961338582677
21
-4.738773149606299
0
LINE
8
BLACK
6
CONTINUOUS
10
5.006961338582677
20
-4.738773149606299
11
5.0144603937007872
21
-4.7425226771653541
0
LINE
8
BLACK
6
CONTINUOUS
10
5.0144603937007872
20
-4.7425226771653541
11
5.0182099212598423
21
-4.7462722047244092
0
LINE
8
BLACK
6
CONTINUOUS
10
5.0182099212598423
20
-4.7462722047244092
11
5.0219594488188974
21
-4.7537712598425195
0
LINE
8
BLACK
6
CONTINUOUS
10
5.0219594488188974
20
-4.7537712598425195
11
5.0257089763779526
21
-4.7687693700787399
0
LINE
8
BLACK
6
CONTINUOUS
10
5.0257089763779526
20
-4.7687693700787399
11
5.0257089763779526
21
-4.7875170472440942
0
LINE
8
BLACK
6
CONTINUOUS
10
5.0257089763779526
20
-4.7875170472440942
11
5.0219594488188974
21
-4.8025151574803147
0
LINE
8
BLACK
6
CONTINUOUS
10
5.0219594488188974
20
-4.8025151574803147
11
5.0182099212598423
21
-4.8100142125984249
0
LINE
8
BLACK
6
CONTINUOUS
10
5.0182099212598423
20
-4.8100142125984249
11
5.0144603937007872
21
-4.8137637795275587
0
LINE
8
BLACK
6
CONTINUOUS
10
5.0144603937007872
20
-4.8137637795275587
11
5.006961338582677
21
-4.8175133070866138
0
LINE
8
BLACK
6
CONTINUOUS
10
5.006961338582677
20
-4.8175133070866138
11
4.999462244094488
21
-4.8175133070866138
0
LINE
8
BLACK
6
CONTINUOUS
10
4.999462244094488
20
-4.8175133070866138
11
4.9919631889763778
21
-4.8137637795275587
0
LINE
8
BLACK
6
CONTINUOUS
10
4.9919631889763778
20
-4.8137637795275587
11
4.9882136614173227
21
-4.8100142125984249
0
LINE
8
BLACK
6
CONTINUOUS
10
4.9882136614173227
20
-4.8100142125984249
11
4.9844641338582676
21
-4.8025151574803147
0
LINE
8
BLACK
6
CONTINUOUS
10
4.9844641338582676
20
-4.8025151574803147
11
4.9807146062992125
21
-4.7875170472440942
0
LINE
8
BLACK
6
CONTINUOUS
10
4.9807146062992125
20
-4.7875170472440942
11
4.9807146062992125
21
-4.7687693700787399
0
LINE
8
BLACK
6
CONTINUOUS
10
4.9807146062992125
20
-4.7687693700787399
11
4.9844641338582676
21
-4.7537712598425195
0
LINE
8
BLACK
6
CONTINUOUS
10
4.9844641338582676
20
-4.7537712598425195
11
4.9882136614173227
21
-4.7462722047244092
0
LINE
8
BLACK
6
CONTINUOUS
10
4.9882136614173227
20
-4.7462722047244092
11
4.9919631889763778
21
-4.7425226771653541
0
LINE
8
BLACK
6
CONTINUOUS
10
4.9919631889763778
20
-4.7425226771653541
11
4.999462244094488
21
-4.738773149606299
0
LINE
8
BLACK
6
CONTINUOUS
10
5.0594547637795273
20
-4.8100142125984249
11
5.0632042913385824
21
-4.8137637795275587
0
LINE
8
BLACK
6
CONTINUOUS
10
5.0632042913385824
20
-4.8137637795275587
11
5.0594547637795273
21
-4.8175133070866138
0
LINE
8
BLACK
6
CONTINUOUS
10
5.0594547637795273
20
-4.8175133070866138
11
5.0557052362204722
21
-4.8137637795275587
0
LINE
8
BLACK
6
CONTINUOUS
10
5.0557052362204722
20
-4.8137637795275587
11
5.0594547637795273
21
-4.8100142125984249
0
LINE
8
BLACK
6
CONTINUOUS
10
5.0594547637795273
20
-4.8100142125984249
11
5.0594547637795273
21
-4.8175133070866138
0
LINE
8
BLACK
6
CONTINUOUS
10
5.1119481889763776
20
-4.738773149606299
11
5.1194472834645666
21
-4.738773149606299
0
LINE
8
BLACK
6
CONTINUOUS
10
5.1194472834645666
20
-4.738773149606299
11
5.1269463385826768
21
-4.7425226771653541
0
LINE
8
BLACK
6
CONTINUOUS
10
5.1269463385826768
20
-4.7425226771653541
11
5.1306958661417319
21
-4.7462722047244092
0
LINE
8
BLACK
6
CONTINUOUS
10
5.1306958661417319
20
-4.7462722047244092
11
5.134445393700787
21
-4.7537712598425195
0
LINE
8
BLACK
6
CONTINUOUS
10
5.134445393700787
20
-4.7537712598425195
11
5.1381949212598421
21
-4.7687693700787399
0
LINE
8
BLACK
6
CONTINUOUS
10
5.1381949212598421
20
-4.7687693700787399
11
5.1381949212598421
21
-4.7875170472440942
0
LINE
8
BLACK
6
CONTINUOUS
10
5.1381949212598421
20
-4.7875170472440942
11
5.134445393700787
21
-4.8025151574803147
0
LINE
8
BLACK
6
CONTINUOUS
10
5.134445393700787
20
-4.8025151574803147
11
5.1306958661417319
21
-4.8100142125984249
0
LINE
8
BLACK
6
CONTINUOUS
10
5.1306958661417319
20
-4.8100142125984249
11
5.1269463385826768
21
-4.8137637795275587
0
LINE
8
BLACK
6
CONTINUOUS
10
5.1269463385826768
20
-4.8137637795275587
11
5.1194472834645666
21
-4.8175133070866138
0
LINE
8
BLACK
6
CONTINUOUS
10
5.1194472834645666
20
-4.8175133070866138
11
5.1119481889763776
21
-4.8175133070866138
0
LINE
8
BLACK
6
CONTINUOUS
10
5.1119481889763776
20
-4.8175133070866138
11
5.1044491338582674
21
-4.8137637795275587
0
LINE
8
BLACK
6
CONTINUOUS
10
5.1044491338582674
20
-4.8137637795275587
11
5.1006996062992123
21
-4.8100142125984249
0
LINE
8
BLACK
6
CONTINUOUS
10
5.1006996062992123
20
-4.8100142125984249
11
5.0969500787401572
21
-4.8025151574803147
0
LINE
8
BLACK
6
CONTINUOUS
10
5.0969500787401572
20
-4.8025151574803147
11
5.093200551181102
21
-4.7875170472440942
0
LINE
8
BLACK
6
CONTINUOUS
10
5.093200551181102
20
-4.7875170472440942
11
5.093200551181102
21
-4.7687693700787399
0
LINE
8
BLACK
6
CONTINUOUS
10
5.093200551181102
20
-4.7687693700787399
11
5.0969500787401572
21
-4.7537712598425195
0
LINE
8
BLACK
6
CONTINUOUS
10
5.0969500787401572
20
-4.7537712598425195
11
5.1006996062992123
21
-4.7462722047244092
0
LINE
8
BLACK
6
CONTINUOUS
10
5.1006996062992123
20
-4.7462722047244092
11
5.1044491338582674
21
-4.7425226771653541
0
LINE
8
BLACK
6
CONTINUOUS
10
5.1044491338582674
20
-4.7425226771653541
11
5.1119481889763776
21
-4.738773149606299
0
LINE
8
BLACK
6
CONTINUOUS
10
5.2131855511811018
20
-4.8175133070866138
11
5.1681911811023618
21
-4.8175133070866138
0
LINE
8
BLACK
6
CONTINUOUS
10
5.1906883464566924
20
-4.8175133070866138
11
5.1906883464566924
21
-4.738773149606299
0
LINE
8
BLACK
6
CONTINUOUS
10
5.1906883464566924
20
-4.738773149606299
11
5.1831892913385822
21
-4.7500217322834644
0
LINE
8
BLACK
6
CONTINUOUS
10
5.1831892913385822
20
-4.7500217322834644
11
5.175690236220472
21
-4.7575207874015746
0
LINE
8
BLACK
6
CONTINUOUS
10
5.175690236220472
20
-4.7575207874015746
11
5.1681911811023618
21
-4.7612703149606297
0
LINE
8
BLACK
6
CONTINUOUS
10
5.2844266535433073
20
-4.738773149606299
11
5.2469313385826775
21
-4.738773149606299
0
LINE
8
BLACK
6
CONTINUOUS
10
5.2469313385826775
20
-4.738773149606299
11
5.2431818110236224
21
-4.7762684645669289
0
LINE
8
BLACK
6
CONTINUOUS
10
5.2431818110236224
20
-4.7762684645669289
11
5.2469313385826775
21
-4.772518897637795
0
LINE
8
BLACK
6
CONTINUOUS
10
5.2469313385826775
20
-4.772518897637795
11
5.2544303937007877
21
-4.7687693700787399
0
LINE
8
BLACK
6
CONTINUOUS
10
5.2544303937007877
20
-4.7687693700787399
11
5.273178070866142
21
-4.7687693700787399
0
LINE
8
BLACK
6
CONTINUOUS
10
5.273178070866142
20
-4.7687693700787399
11
5.2806771259842522
21
-4.772518897637795
0
LINE
8
BLACK
6
CONTINUOUS
10
5.2806771259842522
20
-4.772518897637795
11
5.2844266535433073
21
-4.7762684645669289
0
LINE
8
BLACK
6
CONTINUOUS
10
5.2844266535433073
20
-4.7762684645669289
11
5.2881761811023624
21
-4.7837675196850391
0
LINE
8
BLACK
6
CONTINUOUS
10
5.2881761811023624
20
-4.7837675196850391
11
5.2881761811023624
21
-4.8025151574803147
0
LINE
8
BLACK
6
CONTINUOUS
10
5.2881761811023624
20
-4.8025151574803147
11
5.2844266535433073
21
-4.8100142125984249
0
LINE
8
BLACK
6
CONTINUOUS
10
5.2844266535433073
20
-4.8100142125984249
11
5.2806771259842522
21
-4.8137637795275587
0
LINE
8
BLACK
6
CONTINUOUS
10
5.2806771259842522
20
-4.8137637795275587
11
5.273178070866142
21
-4.8175133070866138
0
LINE
8
BLACK
6
CONTINUOUS
10
5.273178070866142
20
-4.8175133070866138
11
5.2544303937007877
21
-4.8175133070866138
0
LINE
8
BLACK
6
CONTINUOUS
10
5.2544303937007877
20
-4.8175133070866138
11
5.2469313385826775
21
-4.8137637795275587
0
LINE
8
BLACK
6
CONTINUOUS
10
5.2469313385826775
20
-4.8137637795275587
11
5.2431818110236224
21
-4.8100142125984249
0
LINE
8
BLACK
6
CONTINUOUS
10
5.314422913385827
20
-4.738773149606299
11
5.3669163385826772
21
-4.738773149606299
0
LINE
8
BLACK
6
CONTINUOUS
10
5.3669163385826772
20
-4.738773149606299
11
5.3331705511811025
21
-4.8175133070866138
0
LINE
8
BLACK
6
CONTINUOUS
10
5.3931630708661418
20
-4.738773149606299
11
5.3931630708661418
21
-4.7537712598425195
0
LINE
8
BLACK
6
CONTINUOUS
10
5.4231593307086614
20
-4.738773149606299
11
5.4231593307086614
21
-4.7537712598425195
0
LINE
8
BLACK
6
CONTINUOUS
10
5.5393948425196848
20
-4.8475095275590547
11
5.535645275590551
21
-4.8437599999999996
0
LINE
8
BLACK
6
CONTINUOUS
10
5.535645275590551
20
-4.8437599999999996
11
5.5281462204724408
21
-4.8325114173228343
0
LINE
8
BLACK
6
CONTINUOUS
10
5.5281462204724408
20
-4.8325114173228343
11
5.5243966929133856
21
-4.8250123622047241
0
LINE
8
BLACK
6
CONTINUOUS
10
5.5243966929133856
20
-4.8250123622047241
11
5.5206471653543305
21
-4.8137637795275587
0
LINE
8
BLACK
6
CONTINUOUS
10
5.5206471653543305
20
-4.8137637795275587
11
5.5168976377952754
21
-4.7950161023622044
0
LINE
8
BLACK
6
CONTINUOUS
10
5.5168976377952754
20
-4.7950161023622044
11
5.5168976377952754
21
-4.780017992125984
0
LINE
8
BLACK
6
CONTINUOUS
10
5.5168976377952754
20
-4.780017992125984
11
5.5206471653543305
21
-4.7612703149606297
0
LINE
8
BLACK
6
CONTINUOUS
10
5.5206471653543305
20
-4.7612703149606297
11
5.5243966929133856
21
-4.7500217322834644
0
LINE
8
BLACK
6
CONTINUOUS
10
5.5243966929133856
20
-4.7500217322834644
11
5.5281462204724408
21
-4.7425226771653541
0
LINE
8
BLACK
6
CONTINUOUS
10
5.5281462204724408
20
-4.7425226771653541
11
5.535645275590551
21
-4.7312740551181101
0
LINE
8
BLACK
6
CONTINUOUS
10
5.535645275590551
20
-4.7312740551181101
11
5.5393948425196848
21
-4.7275245275590549
0
LINE
8
BLACK
6
CONTINUOUS
10
5.6068863779527556
20
-4.738773149606299
11
5.5693910629921257
21
-4.738773149606299
0
LINE
8
BLACK
6
CONTINUOUS
10
5.5693910629921257
20
-4.738773149606299
11
5.5656415354330706
21
-4.7762684645669289
0
LINE
8
BLACK
6
CONTINUOUS
10
5.5656415354330706
20
-4.7762684645669289
11
5.5693910629921257
21
-4.772518897637795
0
LINE
8
BLACK
6
CONTINUOUS
10
5.5693910629921257
20
-4.772518897637795
11
5.5768901181102359
21
-4.7687693700787399
0
LINE
8
BLACK
6
CONTINUOUS
10
5.5768901181102359
20
-4.7687693700787399
11
5.5956377952755902
21
-4.7687693700787399
0
LINE
8
BLACK
6
CONTINUOUS
10
5.5956377952755902
20
-4.7687693700787399
11
5.6031368503937005
21
-4.772518897637795
0
LINE
8
BLACK
6
CONTINUOUS
10
5.6031368503937005
20
-4.772518897637795
11
5.6068863779527556
21
-4.7762684645669289
0
LINE
8
BLACK
6
CONTINUOUS
10
5.6068863779527556
20
-4.7762684645669289
11
5.6106359055118107
21
-4.7837675196850391
0
LINE
8
BLACK
6
CONTINUOUS
10
5.6106359055118107
20
-4.7837675196850391
11
5.6106359055118107
21
-4.8025151574803147
0
LINE
8
BLACK
6
CONTINUOUS
10
5.6106359055118107
20
-4.8025151574803147
11
5.6068863779527556
21
-4.8100142125984249
0
LINE
8
BLACK
6
CONTINUOUS
10
5.6068863779527556
20
-4.8100142125984249
11
5.6031368503937005
21
-4.8137637795275587
0
LINE
8
BLACK
6
CONTINUOUS
10
5.6031368503937005
20
-4.8137637795275587
11
5.5956377952755902
21
-4.8175133070866138
0
LINE
8
BLACK
6
CONTINUOUS
10
5.5956377952755902
20
-4.8175133070866138
11
5.5768901181102359
21
-4.8175133070866138
0
LINE
8
BLACK
6
CONTINUOUS
10
5.5768901181102359
20
-4.8175133070866138
11
5.5693910629921257
21
-4.8137637795275587
0
LINE
8
BLACK
6
CONTINUOUS
10
5.5693910629921257
20
-4.8137637795275587
11
5.5656415354330706
21
-4.8100142125984249
0
LINE
8
BLACK
6
CONTINUOUS
10
5.7043742125984247
20
-4.8175133070866138
11
5.7043742125984247
21
-4.738773149606299
0
LINE
8
BLACK
6
CONTINUOUS
10
5.7381199999999994
20
-4.8175133070866138
11
5.7381199999999994
21
-4.7762684645669289
0
LINE
8
BLACK
6
CONTINUOUS
10
5.7381199999999994
20
-4.7762684645669289
11
5.7343704724409443
21
-4.7687693700787399
0
LINE
8
BLACK
6
CONTINUOUS
10
5.7343704724409443
20
-4.7687693700787399
11
5.7268714173228341
21
-4.7650198425196848
0
LINE
8
BLACK
6
CONTINUOUS
10
5.7268714173228341
20
-4.7650198425196848
11
5.71562279527559
21
-4.7650198425196848
0
LINE
8
BLACK
6
CONTINUOUS
10
5.71562279527559
20
-4.7650198425196848
11
5.7081237401574798
21
-4.7687693700787399
0
LINE
8
BLACK
6
CONTINUOUS
10
5.7081237401574798
20
-4.7687693700787399
11
5.7043742125984247
21
-4.772518897637795
0
LINE
8
BLACK
6
CONTINUOUS
10
5.7868638976377955
20
-4.8175133070866138
11
5.7793648425196853
21
-4.8137637795275587
0
LINE
8
BLACK
6
CONTINUOUS
10
5.7793648425196853
20
-4.8137637795275587
11
5.7756153149606302
21
-4.8100142125984249
0
LINE
8
BLACK
6
CONTINUOUS
10
5.7756153149606302
20
-4.8100142125984249
11
5.7718657874015751
21
-4.8025151574803147
0
LINE
8
BLACK
6
CONTINUOUS
10
5.7718657874015751
20
-4.8025151574803147
11
5.7718657874015751
21
-4.780017992125984
0
LINE
8
BLACK
6
CONTINUOUS
10
5.7718657874015751
20
-4.780017992125984
11
5.7756153149606302
21
-4.772518897637795
0
LINE
8
BLACK
6
CONTINUOUS
10
5.7756153149606302
20
-4.772518897637795
11
5.7793648425196853
21
-4.7687693700787399
0
LINE
8
BLACK
6
CONTINUOUS
10
5.7793648425196853
20
-4.7687693700787399
11
5.7868638976377955
21
-4.7650198425196848
0
LINE
8
BLACK
6
CONTINUOUS
10
5.7868638976377955
20
-4.7650198425196848
11
5.7981125196850396
21
-4.7650198425196848
0
LINE
8
BLACK
6
CONTINUOUS
10
5.7981125196850396
20
-4.7650198425196848
11
5.8056115748031498
21
-4.7687693700787399
0
LINE
8
BLACK
6
CONTINUOUS
10
5.8056115748031498
20
-4.7687693700787399
11
5.8093611023622049
21
-4.772518897637795
0
LINE
8
BLACK
6
CONTINUOUS
10
5.8093611023622049
20
-4.772518897637795
11
5.81311062992126
21
-4.780017992125984
0
LINE
8
BLACK
6
CONTINUOUS
10
5.81311062992126
20
-4.780017992125984
11
5.81311062992126
21
-4.8025151574803147
0
LINE
8
BLACK
6
CONTINUOUS
10
5.81311062992126
20
-4.8025151574803147
11
5.8093611023622049
21
-4.8100142125984249
0
LINE
8
BLACK
6
CONTINUOUS
10
5.8093611023622049
20
-4.8100142125984249
11
5.8056115748031498
21
-4.8137637795275587
0
LINE
8
BLACK
6
CONTINUOUS
10
5.8056115748031498
20
-4.8137637795275587
11
5.7981125196850396
21
-4.8175133070866138
0
LINE
8
BLACK
6
CONTINUOUS
10
5.7981125196850396
20
-4.8175133070866138
11
5.7868638976377955
21
-4.8175133070866138
0
LINE
8
BLACK
6
CONTINUOUS
10
5.8581050000000001
20
-4.8175133070866138
11
5.8506059448818899
21
-4.8137637795275587
0
LINE
8
BLACK
6
CONTINUOUS
10
5.8506059448818899
20
-4.8137637795275587
11
5.8468564173228348
21
-4.8062646850393698
0
LINE
8
BLACK
6
CONTINUOUS
10
5.8468564173228348
20
-4.8062646850393698
11
5.8468564173228348
21
-4.738773149606299
0
LINE
8
BLACK
6
CONTINUOUS
10
5.9180975196850394
20
-4.8137637795275587
11
5.9105984645669292
21
-4.8175133070866138
0
LINE
8
BLACK
6
CONTINUOUS
10
5.9105984645669292
20
-4.8175133070866138
11
5.89560031496063
21
-4.8175133070866138
0
LINE
8
BLACK
6
CONTINUOUS
10
5.89560031496063
20
-4.8175133070866138
11
5.8881012598425198
21
-4.8137637795275587
0
LINE
8
BLACK
6
CONTINUOUS
10
5.8881012598425198
20
-4.8137637795275587
11
5.8843517322834646
21
-4.8062646850393698
0
LINE
8
BLACK
6
CONTINUOUS
10
5.8843517322834646
20
-4.8062646850393698
11
5.8843517322834646
21
-4.7762684645669289
0
LINE
8
BLACK
6
CONTINUOUS
10
5.8843517322834646
20
-4.7762684645669289
11
5.8881012598425198
21
-4.7687693700787399
0
LINE
8
BLACK
6
CONTINUOUS
10
5.8881012598425198
20
-4.7687693700787399
11
5.89560031496063
21
-4.7650198425196848
0
LINE
8
BLACK
6
CONTINUOUS
10
5.89560031496063
20
-4.7650198425196848
11
5.9105984645669292
21
-4.7650198425196848
0
LINE
8
BLACK
6
CONTINUOUS
10
5.9105984645669292
20
-4.7650198425196848
11
5.9180975196850394
21
-4.7687693700787399
0
LINE
8
BLACK
6
CONTINUOUS
10
5.9180975196850394
20
-4.7687693700787399
11
5.9218470472440945
21
-4.7762684645669289
0
LINE
8
BLACK
6
CONTINUOUS
10
5.9218470472440945
20
-4.7762684645669289
11
5.9218470472440945
21
-4.7837675196850391
0
LINE
8
BLACK
6
CONTINUOUS
10
5.9218470472440945
20
-4.7837675196850391
11
5.8843517322834646
21
-4.7912665748031493
0
LINE
8
BLACK
6
CONTINUOUS
10
5.9518433070866141
20
-4.8137637795275587
11
5.9593423622047244
21
-4.8175133070866138
0
LINE
8
BLACK
6
CONTINUOUS
10
5.9593423622047244
20
-4.8175133070866138
11
5.9743404724409448
21
-4.8175133070866138
0
LINE
8
BLACK
6
CONTINUOUS
10
5.9743404724409448
20
-4.8175133070866138
11
5.9818395669291338
21
-4.8137637795275587
0
LINE
8
BLACK
6
CONTINUOUS
10
5.9818395669291338
20
-4.8137637795275587
11
5.9855890944881889
21
-4.8062646850393698
0
LINE
8
BLACK
6
CONTINUOUS
10
5.9855890944881889
20
-4.8062646850393698
11
5.9855890944881889
21
-4.8025151574803147
0
LINE
8
BLACK
6
CONTINUOUS
10
5.9855890944881889
20
-4.8025151574803147
11
5.9818395669291338
21
-4.7950161023622044
0
LINE
8
BLACK
6
CONTINUOUS
10
5.9818395669291338
20
-4.7950161023622044
11
5.9743404724409448
21
-4.7912665748031493
0
LINE
8
BLACK
6
CONTINUOUS
10
5.9743404724409448
20
-4.7912665748031493
11
5.9630918897637795
21
-4.7912665748031493
0
LINE
8
BLACK
6
CONTINUOUS
10
5.9630918897637795
20
-4.7912665748031493
11
5.9555928346456692
21
-4.7875170472440942
0
LINE
8
BLACK
6
CONTINUOUS
10
5.9555928346456692
20
-4.7875170472440942
11
5.9518433070866141
21
-4.780017992125984
0
LINE
8
BLACK
6
CONTINUOUS
10
5.9518433070866141
20
-4.780017992125984
11
5.9518433070866141
21
-4.7762684645669289
0
LINE
8
BLACK
6
CONTINUOUS
10
5.9518433070866141
20
-4.7762684645669289
11
5.9555928346456692
21
-4.7687693700787399
0
LINE
8
BLACK
6
CONTINUOUS
10
5.9555928346456692
20
-4.7687693700787399
11
5.9630918897637795
21
-4.7650198425196848
0
LINE
8
BLACK
6
CONTINUOUS
10
5.9630918897637795
20
-4.7650198425196848
11
5.9743404724409448
21
-4.7650198425196848
0
LINE
8
BLACK
6
CONTINUOUS
10
5.9743404724409448
20
-4.7650198425196848
11
5.9818395669291338
21
-4.7687693700787399
0
LINE
8
BLACK
6
CONTINUOUS
10
6.0118358267716534
20
-4.8475095275590547
11
6.0155853543307085
21
-4.8437599999999996
0
LINE
8
BLACK
6
CONTINUOUS
10
6.0155853543307085
20
-4.8437599999999996
11
6.0230844094488187
21
-4.8325114173228343
0
LINE
8
BLACK
6
CONTINUOUS
10
6.0230844094488187
20
-4.8325114173228343
11
6.0268339370078738
21
-4.8250123622047241
0
LINE
8
BLACK
6
CONTINUOUS
10
6.0268339370078738
20
-4.8250123622047241
11
6.030583464566929
21
-4.8137637795275587
0
LINE
8
BLACK
6
CONTINUOUS
10
6.030583464566929
20
-4.8137637795275587
11
6.0343329921259841
21
-4.7950161023622044
0
LINE
8
BLACK
6
CONTINUOUS
10
6.0343329921259841
20
-4.7950161023622044
11
6.0343329921259841
21
-4.780017992125984
0
LINE
8
BLACK
6
CONTINUOUS
10
6.0343329921259841
20
-4.780017992125984
11
6.030583464566929
21
-4.7612703149606297
0
LINE
8
BLACK
6
CONTINUOUS
10
6.030583464566929
20
-4.7612703149606297
11
6.0268339370078738
21
-4.7500217322834644
0
LINE
8
BLACK
6
CONTINUOUS
10
6.0268339370078738
20
-4.7500217322834644
11
6.0230844094488187
21
-4.7425226771653541
0
LINE
8
BLACK
6
CONTINUOUS
10
6.0230844094488187
20
-4.7425226771653541
11
6.0155853543307085
21
-4.7312740551181101
0
LINE
8
BLACK
6
CONTINUOUS
10
6.0155853543307085
20
-4.7312740551181101
11
6.0118358267716534
21
-4.7275245275590549
0
CIRCLE
8
BLACK
10
4.1122047244094491
20
-4.8854330708661413
40
0.0196850393700787
0
LINE
8
BLACK
6
CONTINUOUS
10
4.2758026377952758
20
-4.9214503149606301
11
4.2308082677165357
21
-4.9214503149606301
0
LINE
8
BLACK
6
CONTINUOUS
10
4.2533054330708664
20
-4.9214503149606301
11
4.2533054330708664
21
-4.8427101574803144
0
LINE
8
BLACK
6
CONTINUOUS
10
4.2533054330708664
20
-4.8427101574803144
11
4.2458063779527562
21
-4.8539587401574806
0
LINE
8
BLACK
6
CONTINUOUS
10
4.2458063779527562
20
-4.8539587401574806
11
4.238307322834646
21
-4.8614577952755909
0
LINE
8
BLACK
6
CONTINUOUS
10
4.238307322834646
20
-4.8614577952755909
11
4.2308082677165357
21
-4.865207322834646
0
LINE
8
BLACK
6
CONTINUOUS
10
4.3095484251968506
20
-4.9139512204724412
11
4.3132979527559057
21
-4.917700787401575
0
LINE
8
BLACK
6
CONTINUOUS
10
4.3132979527559057
20
-4.917700787401575
11
4.3095484251968506
21
-4.9214503149606301
0
LINE
8
BLACK
6
CONTINUOUS
10
4.3095484251968506
20
-4.9214503149606301
11
4.3057988976377954
21
-4.917700787401575
0
LINE
8
BLACK
6
CONTINUOUS
10
4.3057988976377954
20
-4.917700787401575
11
4.3095484251968506
21
-4.9139512204724412
0
LINE
8
BLACK
6
CONTINUOUS
10
4.3095484251968506
20
-4.9139512204724412
11
4.3095484251968506
21
-4.9214503149606301
0
LINE
8
BLACK
6
CONTINUOUS
10
4.3620418503937008
20
-4.8427101574803144
11
4.3695409448818898
21
-4.8427101574803144
0
LINE
8
BLACK
6
CONTINUOUS
10
4.3695409448818898
20
-4.8427101574803144
11
4.37704
21
-4.8464596850393695
0
LINE
8
BLACK
6
CONTINUOUS
10
4.37704
20
-4.8464596850393695
11
4.3807895275590552
21
-4.8502092125984255
0
LINE
8
BLACK
6
CONTINUOUS
10
4.3807895275590552
20
-4.8502092125984255
11
4.3845390551181103
21
-4.8577082677165357
0
LINE
8
BLACK
6
CONTINUOUS
10
4.3845390551181103
20
-4.8577082677165357
11
4.3882885826771654
21
-4.8727063779527562
0
LINE
8
BLACK
6
CONTINUOUS
10
4.3882885826771654
20
-4.8727063779527562
11
4.3882885826771654
21
-4.8914540551181105
0
LINE
8
BLACK
6
CONTINUOUS
10
4.3882885826771654
20
-4.8914540551181105
11
4.3845390551181103
21
-4.9064521653543309
0
LINE
8
BLACK
6
CONTINUOUS
10
4.3845390551181103
20
-4.9064521653543309
11
4.3807895275590552
21
-4.9139512204724412
0
LINE
8
BLACK
6
CONTINUOUS
10
4.3807895275590552
20
-4.9139512204724412
11
4.37704
21
-4.917700787401575
0
LINE
8
BLACK
6
CONTINUOUS
10
4.37704
20
-4.917700787401575
11
4.3695409448818898
21
-4.9214503149606301
0
LINE
8
BLACK
6
CONTINUOUS
10
4.3695409448818898
20
-4.9214503149606301
11
4.3620418503937008
21
-4.9214503149606301
0
LINE
8
BLACK
6
CONTINUOUS
10
4.3620418503937008
20
-4.9214503149606301
11
4.3545427952755906
21
-4.917700787401575
0
LINE
8
BLACK
6
CONTINUOUS
10
4.3545427952755906
20
-4.917700787401575
11
4.3507932677165355
21
-4.9139512204724412
0
LINE
8
BLACK
6
CONTINUOUS
10
4.3507932677165355
20
-4.9139512204724412
11
4.3470437401574804
21
-4.9064521653543309
0
LINE
8
BLACK
6
CONTINUOUS
10
4.3470437401574804
20
-4.9064521653543309
11
4.3432942125984253
21
-4.8914540551181105
0
LINE
8
BLACK
6
CONTINUOUS
10
4.3432942125984253
20
-4.8914540551181105
11
4.3432942125984253
21
-4.8727063779527562
0
LINE
8
BLACK
6
CONTINUOUS
10
4.3432942125984253
20
-4.8727063779527562
11
4.3470437401574804
21
-4.8577082677165357
0
LINE
8
BLACK
6
CONTINUOUS
10
4.3470437401574804
20
-4.8577082677165357
11
4.3507932677165355
21
-4.8502092125984255
0
LINE
8
BLACK
6
CONTINUOUS
10
4.3507932677165355
20
-4.8502092125984255
11
4.3545427952755906
21
-4.8464596850393695
0
LINE
8
BLACK
6
CONTINUOUS
10
4.3545427952755906
20
-4.8464596850393695
11
4.3620418503937008
21
-4.8427101574803144
0
LINE
8
BLACK
6
CONTINUOUS
10
4.4370324803149606
20
-4.8427101574803144
11
4.4445315748031495
21
-4.8427101574803144
0
LINE
8
BLACK
6
CONTINUOUS
10
4.4445315748031495
20
-4.8427101574803144
11
4.4520306299212598
21
-4.8464596850393695
0
LINE
8
BLACK
6
CONTINUOUS
10
4.4520306299212598
20
-4.8464596850393695
11
4.4557801574803149
21
-4.8502092125984255
0
LINE
8
BLACK
6
CONTINUOUS
10
4.4557801574803149
20
-4.8502092125984255
11
4.45952968503937
21
-4.8577082677165357
0
LINE
8
BLACK
6
CONTINUOUS
10
4.45952968503937
20
-4.8577082677165357
11
4.4632792125984251
21
-4.8727063779527562
0
LINE
8
BLACK
6
CONTINUOUS
10
4.4632792125984251
20
-4.8727063779527562
11
4.4632792125984251
21
-4.8914540551181105
0
LINE
8
BLACK
6
CONTINUOUS
10
4.4632792125984251
20
-4.8914540551181105
11
4.45952968503937
21
-4.9064521653543309
0
LINE
8
BLACK
6
CONTINUOUS
10
4.45952968503937
20
-4.9064521653543309
11
4.4557801574803149
21
-4.9139512204724412
0
LINE
8
BLACK
6
CONTINUOUS
10
4.4557801574803149
20
-4.9139512204724412
11
4.4520306299212598
21
-4.917700787401575
0
LINE
8
BLACK
6
CONTINUOUS
10
4.4520306299212598
20
-4.917700787401575
11
4.4445315748031495
21
-4.9214503149606301
0
LINE
8
BLACK
6
CONTINUOUS
10
4.4445315748031495
20
-4.9214503149606301
11
4.4370324803149606
21
-4.9214503149606301
0
LINE
8
BLACK
6
CONTINUOUS
10
4.4370324803149606
20
-4.9214503149606301
11
4.4295334251968503
21
-4.917700787401575
0
LINE
8
BLACK
6
CONTINUOUS
10
4.4295334251968503
20
-4.917700787401575
11
4.4257838976377952
21
-4.9139512204724412
0
LINE
8
BLACK
6
CONTINUOUS
10
4.4257838976377952
20
-4.9139512204724412
11
4.4220343700787401
21
-4.9064521653543309
0
LINE
8
BLACK
6
CONTINUOUS
10
4.4220343700787401
20
-4.9064521653543309
11
4.418284842519685
21
-4.8914540551181105
0
LINE
8
BLACK
6
CONTINUOUS
10
4.418284842519685
20
-4.8914540551181105
11
4.418284842519685
21
-4.8727063779527562
0
LINE
8
BLACK
6
CONTINUOUS
10
4.418284842519685
20
-4.8727063779527562
11
4.4220343700787401
21
-4.8577082677165357
0
LINE
8
BLACK
6
CONTINUOUS
10
4.4220343700787401
20
-4.8577082677165357
11
4.4257838976377952
21
-4.8502092125984255
0
LINE
8
BLACK
6
CONTINUOUS
10
4.4257838976377952
20
-4.8502092125984255
11
4.4295334251968503
21
-4.8464596850393695
0
LINE
8
BLACK
6
CONTINUOUS
10
4.4295334251968503
20
-4.8464596850393695
11
4.4370324803149606
21
-4.8427101574803144
0
LINE
8
BLACK
6
CONTINUOUS
10
4.5120231102362203
20
-4.8427101574803144
11
4.5195222047244092
21
-4.8427101574803144
0
LINE
8
BLACK
6
CONTINUOUS
10
4.5195222047244092
20
-4.8427101574803144
11
4.5270212598425195
21
-4.8464596850393695
0
LINE
8
BLACK
6
CONTINUOUS
10
4.5270212598425195
20
-4.8464596850393695
11
4.5307707874015746
21
-4.8502092125984255
0
LINE
8
BLACK
6
CONTINUOUS
10
4.5307707874015746
20
-4.8502092125984255
11
4.5345203149606297
21
-4.8577082677165357
0
LINE
8
BLACK
6
CONTINUOUS
10
4.5345203149606297
20
-4.8577082677165357
11
4.5382698425196848
21
-4.8727063779527562
0
LINE
8
BLACK
6
CONTINUOUS
10
4.5382698425196848
20
-4.8727063779527562
11
4.5382698425196848
21
-4.8914540551181105
0
LINE
8
BLACK
6
CONTINUOUS
10
4.5382698425196848
20
-4.8914540551181105
11
4.5345203149606297
21
-4.9064521653543309
0
LINE
8
BLACK
6
CONTINUOUS
10
4.5345203149606297
20
-4.9064521653543309
11
4.5307707874015746
21
-4.9139512204724412
0
LINE
8
BLACK
6
CONTINUOUS
10
4.5307707874015746
20
-4.9139512204724412
11
4.5270212598425195
21
-4.917700787401575
0
LINE
8
BLACK
6
CONTINUOUS
10
4.5270212598425195
20
-4.917700787401575
11
4.5195222047244092
21
-4.9214503149606301
0
LINE
8
BLACK
6
CONTINUOUS
10
4.5195222047244092
20
-4.9214503149606301
11
4.5120231102362203
21
-4.9214503149606301
0
LINE
8
BLACK
6
CONTINUOUS
10
4.5120231102362203
20
-4.9214503149606301
11
4.50452405511811
21
-4.917700787401575
0
LINE
8
BLACK
6
CONTINUOUS
10
4.50452405511811
20
-4.917700787401575
11
4.5007745275590549
21
-4.9139512204724412
0
LINE
8
BLACK
6
CONTINUOUS
10
4.5007745275590549
20
-4.9139512204724412
11
4.4970249999999998
21
-4.9064521653543309
0
LINE
8
BLACK
6
CONTINUOUS
10
4.4970249999999998
20
-4.9064521653543309
11
4.4932754724409447
21
-4.8914540551181105
0
LINE
8
BLACK
6
CONTINUOUS
10
4.4932754724409447
20
-4.8914540551181105
11
4.4932754724409447
21
-4.8727063779527562
0
LINE
8
BLACK
6
CONTINUOUS
10
4.4932754724409447
20
-4.8727063779527562
11
4.4970249999999998
21
-4.8577082677165357
0
LINE
8
BLACK
6
CONTINUOUS
10
4.4970249999999998
20
-4.8577082677165357
11
4.5007745275590549
21
-4.8502092125984255
0
LINE
8
BLACK
6
CONTINUOUS
10
4.5007745275590549
20
-4.8502092125984255
11
4.50452405511811
21
-4.8464596850393695
0
LINE
8
BLACK
6
CONTINUOUS
10
4.50452405511811
20
-4.8464596850393695
11
4.5120231102362203
21
-4.8427101574803144
0
LINE
8
BLACK
6
CONTINUOUS
10
4.5720156299212595
20
-4.9214503149606301
11
4.5720156299212595
21
-4.8689568503937011
0
LINE
8
BLACK
6
CONTINUOUS
10
4.5720156299212595
20
-4.8764559055118113
11
4.5757651574803146
21
-4.8727063779527562
0
LINE
8
BLACK
6
CONTINUOUS
10
4.5757651574803146
20
-4.8727063779527562
11
4.5832642125984249
21
-4.8689568503937011
0
LINE
8
BLACK
6
CONTINUOUS
10
4.5832642125984249
20
-4.8689568503937011
11
4.594512834645669
21
-4.8689568503937011
0
LINE
8
BLACK
6
CONTINUOUS
10
4.594512834645669
20
-4.8689568503937011
11
4.6020118897637792
21
-4.8727063779527562
0
LINE
8
BLACK
6
CONTINUOUS
10
4.6020118897637792
20
-4.8727063779527562
11
4.6057614173228343
21
-4.8802054724409452
0
LINE
8
BLACK
6
CONTINUOUS
10
4.6057614173228343
20
-4.8802054724409452
11
4.6057614173228343
21
-4.9214503149606301
0
LINE
8
BLACK
6
CONTINUOUS
10
4.6057614173228343
20
-4.8802054724409452
11
4.6095109448818894
21
-4.8727063779527562
0
LINE
8
BLACK
6
CONTINUOUS
10
4.6095109448818894
20
-4.8727063779527562
11
4.6170099999999996
21
-4.8689568503937011
0
LINE
8
BLACK
6
CONTINUOUS
10
4.6170099999999996
20
-4.8689568503937011
11
4.6282585826771649
21
-4.8689568503937011
0
LINE
8
BLACK
6
CONTINUOUS
10
4.6282585826771649
20
-4.8689568503937011
11
4.6357576771653539
21
-4.8727063779527562
0
LINE
8
BLACK
6
CONTINUOUS
10
4.6357576771653539
20
-4.8727063779527562
11
4.639507204724409
21
-4.8802054724409452
0
LINE
8
BLACK
6
CONTINUOUS
10
4.639507204724409
20
-4.8802054724409452
11
4.639507204724409
21
-4.9214503149606301
0
LINE
8
BLACK
6
CONTINUOUS
10
4.6770025196850389
20
-4.9214503149606301
11
4.6770025196850389
21
-4.8689568503937011
0
LINE
8
BLACK
6
CONTINUOUS
10
4.6770025196850389
20
-4.8764559055118113
11
4.680752047244094
21
-4.8727063779527562
0
LINE
8
BLACK
6
CONTINUOUS
10
4.680752047244094
20
-4.8727063779527562
11
4.6882511023622042
21
-4.8689568503937011
0
LINE
8
BLACK
6
CONTINUOUS
10
4.6882511023622042
20
-4.8689568503937011
11
4.6994997244094483
21
-4.8689568503937011
0
LINE
8
BLACK
6
CONTINUOUS
10
4.6994997244094483
20
-4.8689568503937011
11
4.7069987795275585
21
-4.8727063779527562
0
LINE
8
BLACK
6
CONTINUOUS
10
4.7069987795275585
20
-4.8727063779527562
11
4.7107483070866136
21
-4.8802054724409452
0
LINE
8
BLACK
6
CONTINUOUS
10
4.7107483070866136
20
-4.8802054724409452
11
4.7107483070866136
21
-4.9214503149606301
0
LINE
8
BLACK
6
CONTINUOUS
10
4.7107483070866136
20
-4.8802054724409452
11
4.7144978346456696
21
-4.8727063779527562
0
LINE
8
BLACK
6
CONTINUOUS
10
4.7144978346456696
20
-4.8727063779527562
11
4.7219968897637798
21
-4.8689568503937011
0
LINE
8
BLACK
6
CONTINUOUS
10
4.7219968897637798
20
-4.8689568503937011
11
4.7332454724409452
21
-4.8689568503937011
0
LINE
8
BLACK
6
CONTINUOUS
10
4.7332454724409452
20
-4.8689568503937011
11
4.7407445669291342
21
-4.8727063779527562
0
LINE
8
BLACK
6
CONTINUOUS
10
4.7407445669291342
20
-4.8727063779527562
11
4.7444940944881893
21
-4.8802054724409452
0
LINE
8
BLACK
6
CONTINUOUS
10
4.7444940944881893
20
-4.8802054724409452
11
4.7444940944881893
21
-4.9214503149606301
0
LINE
8
BLACK
6
CONTINUOUS
10
4.8982248818897638
20
-4.8389606299212593
11
4.8307333464566931
21
-4.9401979527559057
0
LINE
8
BLACK
6
CONTINUOUS
10
4.999462244094488
20
-4.8427101574803144
11
5.006961338582677
21
-4.8427101574803144
0
LINE
8
BLACK
6
CONTINUOUS
10
5.006961338582677
20
-4.8427101574803144
11
5.0144603937007872
21
-4.8464596850393695
0
LINE
8
BLACK
6
CONTINUOUS
10
5.0144603937007872
20
-4.8464596850393695
11
5.0182099212598423
21
-4.8502092125984255
0
LINE
8
BLACK
6
CONTINUOUS
10
5.0182099212598423
20
-4.8502092125984255
11
5.0219594488188974
21
-4.8577082677165357
0
LINE
8
BLACK
6
CONTINUOUS
10
5.0219594488188974
20
-4.8577082677165357
11
5.0257089763779526
21
-4.8727063779527562
0
LINE
8
BLACK
6
CONTINUOUS
10
5.0257089763779526
20
-4.8727063779527562
11
5.0257089763779526
21
-4.8914540551181105
0
LINE
8
BLACK
6
CONTINUOUS
10
5.0257089763779526
20
-4.8914540551181105
11
5.0219594488188974
21
-4.9064521653543309
0
LINE
8
BLACK
6
CONTINUOUS
10
5.0219594488188974
20
-4.9064521653543309
11
5.0182099212598423
21
-4.9139512204724412
0
LINE
8
BLACK
6
CONTINUOUS
10
5.0182099212598423
20
-4.9139512204724412
11
5.0144603937007872
21
-4.917700787401575
0
LINE
8
BLACK
6
CONTINUOUS
10
5.0144603937007872
20
-4.917700787401575
11
5.006961338582677
21
-4.9214503149606301
0
LINE
8
BLACK
6
CONTINUOUS
10
5.006961338582677
20
-4.9214503149606301
11
4.999462244094488
21
-4.9214503149606301
0
LINE
8
BLACK
6
CONTINUOUS
10
4.999462244094488
20
-4.9214503149606301
11
4.9919631889763778
21
-4.917700787401575
0
LINE
8
BLACK
6
CONTINUOUS
10
4.9919631889763778
20
-4.917700787401575
11
4.9882136614173227
21
-4.9139512204724412
0
LINE
8
BLACK
6
CONTINUOUS
10
4.9882136614173227
20
-4.9139512204724412
11
4.9844641338582676
21
-4.9064521653543309
0
LINE
8
BLACK
6
CONTINUOUS
10
4.9844641338582676
20
-4.9064521653543309
11
4.9807146062992125
21
-4.8914540551181105
0
LINE
8
BLACK
6
CONTINUOUS
10
4.9807146062992125
20
-4.8914540551181105
11
4.9807146062992125
21
-4.8727063779527562
0
LINE
8
BLACK
6
CONTINUOUS
10
4.9807146062992125
20
-4.8727063779527562
11
4.9844641338582676
21
-4.8577082677165357
0
LINE
8
BLACK
6
CONTINUOUS
10
4.9844641338582676
20
-4.8577082677165357
11
4.9882136614173227
21
-4.8502092125984255
0
LINE
8
BLACK
6
CONTINUOUS
10
4.9882136614173227
20
-4.8502092125984255
11
4.9919631889763778
21
-4.8464596850393695
0
LINE
8
BLACK
6
CONTINUOUS
10
4.9919631889763778
20
-4.8464596850393695
11
4.999462244094488
21
-4.8427101574803144
0
LINE
8
BLACK
6
CONTINUOUS
10
5.0594547637795273
20
-4.9139512204724412
11
5.0632042913385824
21
-4.917700787401575
0
LINE
8
BLACK
6
CONTINUOUS
10
5.0632042913385824
20
-4.917700787401575
11
5.0594547637795273
21
-4.9214503149606301
0
LINE
8
BLACK
6
CONTINUOUS
10
5.0594547637795273
20
-4.9214503149606301
11
5.0557052362204722
21
-4.917700787401575
0
LINE
8
BLACK
6
CONTINUOUS
10
5.0557052362204722
20
-4.917700787401575
11
5.0594547637795273
21
-4.9139512204724412
0
LINE
8
BLACK
6
CONTINUOUS
10
5.0594547637795273
20
-4.9139512204724412
11
5.0594547637795273
21
-4.9214503149606301
0
LINE
8
BLACK
6
CONTINUOUS
10
5.1119481889763776
20
-4.8427101574803144
11
5.1194472834645666
21
-4.8427101574803144
0
LINE
8
BLACK
6
CONTINUOUS
10
5.1194472834645666
20
-4.8427101574803144
11
5.1269463385826768
21
-4.8464596850393695
0
LINE
8
BLACK
6
CONTINUOUS
10
5.1269463385826768
20
-4.8464596850393695
11
5.1306958661417319
21
-4.8502092125984255
0
LINE
8
BLACK
6
CONTINUOUS
10
5.1306958661417319
20
-4.8502092125984255
11
5.134445393700787
21
-4.8577082677165357
0
LINE
8
BLACK
6
CONTINUOUS
10
5.134445393700787
20
-4.8577082677165357
11
5.1381949212598421
21
-4.8727063779527562
0
LINE
8
BLACK
6
CONTINUOUS
10
5.1381949212598421
20
-4.8727063779527562
11
5.1381949212598421
21
-4.8914540551181105
0
LINE
8
BLACK
6
CONTINUOUS
10
5.1381949212598421
20
-4.8914540551181105
11
5.134445393700787
21
-4.9064521653543309
0
LINE
8
BLACK
6
CONTINUOUS
10
5.134445393700787
20
-4.9064521653543309
11
5.1306958661417319
21
-4.9139512204724412
0
LINE
8
BLACK
6
CONTINUOUS
10
5.1306958661417319
20
-4.9139512204724412
11
5.1269463385826768
21
-4.917700787401575
0
LINE
8
BLACK
6
CONTINUOUS
10
5.1269463385826768
20
-4.917700787401575
11
5.1194472834645666
21
-4.9214503149606301
0
LINE
8
BLACK
6
CONTINUOUS
10
5.1194472834645666
20
-4.9214503149606301
11
5.1119481889763776
21
-4.9214503149606301
0
LINE
8
BLACK
6
CONTINUOUS
10
5.1119481889763776
20
-4.9214503149606301
11
5.1044491338582674
21
-4.917700787401575
0
LINE
8
BLACK
6
CONTINUOUS
10
5.1044491338582674
20
-4.917700787401575
11
5.1006996062992123
21
-4.9139512204724412
0
LINE
8
BLACK
6
CONTINUOUS
10
5.1006996062992123
20
-4.9139512204724412
11
5.0969500787401572
21
-4.9064521653543309
0
LINE
8
BLACK
6
CONTINUOUS
10
5.0969500787401572
20
-4.9064521653543309
11
5.093200551181102
21
-4.8914540551181105
0
LINE
8
BLACK
6
CONTINUOUS
10
5.093200551181102
20
-4.8914540551181105
11
5.093200551181102
21
-4.8727063779527562
0
LINE
8
BLACK
6
CONTINUOUS
10
5.093200551181102
20
-4.8727063779527562
11
5.0969500787401572
21
-4.8577082677165357
0
LINE
8
BLACK
6
CONTINUOUS
10
5.0969500787401572
20
-4.8577082677165357
11
5.1006996062992123
21
-4.8502092125984255
0
LINE
8
BLACK
6
CONTINUOUS
10
5.1006996062992123
20
-4.8502092125984255
11
5.1044491338582674
21
-4.8464596850393695
0
LINE
8
BLACK
6
CONTINUOUS
10
5.1044491338582674
20
-4.8464596850393695
11
5.1119481889763776
21
-4.8427101574803144
0
LINE
8
BLACK
6
CONTINUOUS
10
5.1644416535433066
20
-4.8427101574803144
11
5.2131855511811018
21
-4.8427101574803144
0
LINE
8
BLACK
6
CONTINUOUS
10
5.2131855511811018
20
-4.8427101574803144
11
5.1869388188976373
21
-4.8727063779527562
0
LINE
8
BLACK
6
CONTINUOUS
10
5.1869388188976373
20
-4.8727063779527562
11
5.1981874409448814
21
-4.8727063779527562
0
LINE
8
BLACK
6
CONTINUOUS
10
5.1981874409448814
20
-4.8727063779527562
11
5.2056864960629916
21
-4.8764559055118113
0
LINE
8
BLACK
6
CONTINUOUS
10
5.2056864960629916
20
-4.8764559055118113
11
5.2094360236220467
21
-4.8802054724409452
0
LINE
8
BLACK
6
CONTINUOUS
10
5.2094360236220467
20
-4.8802054724409452
11
5.2131855511811018
21
-4.8877045275590554
0
LINE
8
BLACK
6
CONTINUOUS
10
5.2131855511811018
20
-4.8877045275590554
11
5.2131855511811018
21
-4.9064521653543309
0
LINE
8
BLACK
6
CONTINUOUS
10
5.2131855511811018
20
-4.9064521653543309
11
5.2094360236220467
21
-4.9139512204724412
0
LINE
8
BLACK
6
CONTINUOUS
10
5.2094360236220467
20
-4.9139512204724412
11
5.2056864960629916
21
-4.917700787401575
0
LINE
8
BLACK
6
CONTINUOUS
10
5.2056864960629916
20
-4.917700787401575
11
5.1981874409448814
21
-4.9214503149606301
0
LINE
8
BLACK
6
CONTINUOUS
10
5.1981874409448814
20
-4.9214503149606301
11
5.175690236220472
21
-4.9214503149606301
0
LINE
8
BLACK
6
CONTINUOUS
10
5.175690236220472
20
-4.9214503149606301
11
5.1681911811023618
21
-4.917700787401575
0
LINE
8
BLACK
6
CONTINUOUS
10
5.1681911811023618
20
-4.917700787401575
11
5.1644416535433066
21
-4.9139512204724412
0
LINE
8
BLACK
6
CONTINUOUS
10
5.2506808661417326
20
-4.9214503149606301
11
5.265678976377953
21
-4.9214503149606301
0
LINE
8
BLACK
6
CONTINUOUS
10
5.265678976377953
20
-4.9214503149606301
11
5.273178070866142
21
-4.917700787401575
0
LINE
8
BLACK
6
CONTINUOUS
10
5.273178070866142
20
-4.917700787401575
11
5.2769275984251971
21
-4.9139512204724412
0
LINE
8
BLACK
6
CONTINUOUS
10
5.2769275984251971
20
-4.9139512204724412
11
5.2844266535433073
21
-4.9027026377952758
0
LINE
8
BLACK
6
CONTINUOUS
10
5.2844266535433073
20
-4.9027026377952758
11
5.2881761811023624
21
-4.8877045275590554
0
LINE
8
BLACK
6
CONTINUOUS
10
5.2881761811023624
20
-4.8877045275590554
11
5.2881761811023624
21
-4.8577082677165357
0
LINE
8
BLACK
6
CONTINUOUS
10
5.2881761811023624
20
-4.8577082677165357
11
5.2844266535433073
21
-4.8502092125984255
0
LINE
8
BLACK
6
CONTINUOUS
10
5.2844266535433073
20
-4.8502092125984255
11
5.2806771259842522
21
-4.8464596850393695
0
LINE
8
BLACK
6
CONTINUOUS
10
5.2806771259842522
20
-4.8464596850393695
11
5.273178070866142
21
-4.8427101574803144
0
LINE
8
BLACK
6
CONTINUOUS
10
5.273178070866142
20
-4.8427101574803144
11
5.2581799212598428
21
-4.8427101574803144
0
LINE
8
BLACK
6
CONTINUOUS
10
5.2581799212598428
20
-4.8427101574803144
11
5.2506808661417326
21
-4.8464596850393695
0
LINE
8
BLACK
6
CONTINUOUS
10
5.2506808661417326
20
-4.8464596850393695
11
5.2469313385826775
21
-4.8502092125984255
0
LINE
8
BLACK
6
CONTINUOUS
10
5.2469313385826775
20
-4.8502092125984255
11
5.2431818110236224
21
-4.8577082677165357
0
LINE
8
BLACK
6
CONTINUOUS
10
5.2431818110236224
20
-4.8577082677165357
11
5.2431818110236224
21
-4.8764559055118113
0
LINE
8
BLACK
6
CONTINUOUS
10
5.2431818110236224
20
-4.8764559055118113
11
5.2469313385826775
21
-4.8839550000000003
0
LINE
8
BLACK
6
CONTINUOUS
10
5.2469313385826775
20
-4.8839550000000003
11
5.2506808661417326
21
-4.8877045275590554
0
LINE
8
BLACK
6
CONTINUOUS
10
5.2506808661417326
20
-4.8877045275590554
11
5.2581799212598428
21
-4.8914540551181105
0
LINE
8
BLACK
6
CONTINUOUS
10
5.2581799212598428
20
-4.8914540551181105
11
5.273178070866142
21
-4.8914540551181105
0
LINE
8
BLACK
6
CONTINUOUS
10
5.273178070866142
20
-4.8914540551181105
11
5.2806771259842522
21
-4.8877045275590554
0
LINE
8
BLACK
6
CONTINUOUS
10
5.2806771259842522
20
-4.8877045275590554
11
5.2844266535433073
21
-4.8839550000000003
0
LINE
8
BLACK
6
CONTINUOUS
10
5.2844266535433073
20
-4.8839550000000003
11
5.2881761811023624
21
-4.8764559055118113
0
LINE
8
BLACK
6
CONTINUOUS
10
5.3556677559055119
20
-4.8689568503937011
11
5.3556677559055119
21
-4.9214503149606301
0
LINE
8
BLACK
6
CONTINUOUS
10
5.3369200787401576
20
-4.8389606299212593
11
5.3181724409448821
21
-4.8952035826771656
0
LINE
8
BLACK
6
CONTINUOUS
10
5.3181724409448821
20
-4.8952035826771656
11
5.3669163385826772
21
-4.8952035826771656
0
LINE
8
BLACK
6
CONTINUOUS
10
5.3931630708661418
20
-4.8427101574803144
11
5.3931630708661418
21
-4.8577082677165357
0
LINE
8
BLACK
6
CONTINUOUS
10
5.4231593307086614
20
-4.8427101574803144
11
5.4231593307086614
21
-4.8577082677165357
0
LINE
8
BLACK
6
CONTINUOUS
10
5.5393948425196848
20
-4.951446535433071
11
5.535645275590551
21
-4.9476970078740159
0
LINE
8
BLACK
6
CONTINUOUS
10
5.535645275590551
20
-4.9476970078740159
11
5.5281462204724408
21
-4.9364484251968506
0
LINE
8
BLACK
6
CONTINUOUS
10
5.5281462204724408
20
-4.9364484251968506
11
5.5243966929133856
21
-4.9289493700787403
0
LINE
8
BLACK
6
CONTINUOUS
10
5.5243966929133856
20
-4.9289493700787403
11
5.5206471653543305
21
-4.917700787401575
0
LINE
8
BLACK
6
CONTINUOUS
10
5.5206471653543305
20
-4.917700787401575
11
5.5168976377952754
21
-4.8989531102362207
0
LINE
8
BLACK
6
CONTINUOUS
10
5.5168976377952754
20
-4.8989531102362207
11
5.5168976377952754
21
-4.8839550000000003
0
LINE
8
BLACK
6
CONTINUOUS
10
5.5168976377952754
20
-4.8839550000000003
11
5.5206471653543305
21
-4.865207322834646
0
LINE
8
BLACK
6
CONTINUOUS
10
5.5206471653543305
20
-4.865207322834646
11
5.5243966929133856
21
-4.8539587401574806
0
LINE
8
BLACK
6
CONTINUOUS
10
5.5243966929133856
20
-4.8539587401574806
11
5.5281462204724408
21
-4.8464596850393695
0
LINE
8
BLACK
6
CONTINUOUS
10
5.5281462204724408
20
-4.8464596850393695
11
5.535645275590551
21
-4.8352110629921254
0
LINE
8
BLACK
6
CONTINUOUS
10
5.535645275590551
20
-4.8352110629921254
11
5.5393948425196848
21
-4.8314615354330703
0
LINE
8
BLACK
6
CONTINUOUS
10
5.6031368503937005
20
-4.8689568503937011
11
5.6031368503937005
21
-4.9214503149606301
0
LINE
8
BLACK
6
CONTINUOUS
10
5.5843891732283462
20
-4.8389606299212593
11
5.5656415354330706
21
-4.8952035826771656
0
LINE
8
BLACK
6
CONTINUOUS
10
5.5656415354330706
20
-4.8952035826771656
11
5.6143854330708658
21
-4.8952035826771656
0
LINE
8
BLACK
6
CONTINUOUS
10
5.6556302755905508
20
-4.8764559055118113
11
5.6481312204724405
21
-4.8727063779527562
0
LINE
8
BLACK
6
CONTINUOUS
10
5.6481312204724405
20
-4.8727063779527562
11
5.6443816929133854
21
-4.8689568503937011
0
LINE
8
BLACK
6
CONTINUOUS
10
5.6443816929133854
20
-4.8689568503937011
11
5.6406321653543303
21
-4.8614577952755909
0
LINE
8
BLACK
6
CONTINUOUS
10
5.6406321653543303
20
-4.8614577952755909
11
5.6406321653543303
21
-4.8577082677165357
0
LINE
8
BLACK
6
CONTINUOUS
10
5.6406321653543303
20
-4.8577082677165357
11
5.6443816929133854
21
-4.8502092125984255
0
LINE
8
BLACK
6
CONTINUOUS
10
5.6443816929133854
20
-4.8502092125984255
11
5.6481312204724405
21
-4.8464596850393695
0
LINE
8
BLACK
6
CONTINUOUS
10
5.6481312204724405
20
-4.8464596850393695
11
5.6556302755905508
21
-4.8427101574803144
0
LINE
8
BLACK
6
CONTINUOUS
10
5.6556302755905508
20
-4.8427101574803144
11
5.67062842519685
21
-4.8427101574803144
0
LINE
8
BLACK
6
CONTINUOUS
10
5.67062842519685
20
-4.8427101574803144
11
5.6781274803149602
21
-4.8464596850393695
0
LINE
8
BLACK
6
CONTINUOUS
10
5.6781274803149602
20
-4.8464596850393695
11
5.6818770078740153
21
-4.8502092125984255
0
LINE
8
BLACK
6
CONTINUOUS
10
5.6818770078740153
20
-4.8502092125984255
11
5.6856265354330704
21
-4.8577082677165357
0
LINE
8
BLACK
6
CONTINUOUS
10
5.6856265354330704
20
-4.8577082677165357
11
5.6856265354330704
21
-4.8614577952755909
0
LINE
8
BLACK
6
CONTINUOUS
10
5.6856265354330704
20
-4.8614577952755909
11
5.6818770078740153
21
-4.8689568503937011
0
LINE
8
BLACK
6
CONTINUOUS
10
5.6818770078740153
20
-4.8689568503937011
11
5.6781274803149602
21
-4.8727063779527562
0
LINE
8
BLACK
6
CONTINUOUS
10
5.6781274803149602
20
-4.8727063779527562
11
5.67062842519685
21
-4.8764559055118113
0
LINE
8
BLACK
6
CONTINUOUS
10
5.67062842519685
20
-4.8764559055118113
11
5.6556302755905508
21
-4.8764559055118113
0
LINE
8
BLACK
6
CONTINUOUS
10
5.6556302755905508
20
-4.8764559055118113
11
5.6481312204724405
21
-4.8802054724409452
0
LINE
8
BLACK
6
CONTINUOUS
10
5.6481312204724405
20
-4.8802054724409452
11
5.6443816929133854
21
-4.8839550000000003
0
LINE
8
BLACK
6
CONTINUOUS
10
5.6443816929133854
20
-4.8839550000000003
11
5.6406321653543303
21
-4.8914540551181105
0
LINE
8
BLACK
6
CONTINUOUS
10
5.6406321653543303
20
-4.8914540551181105
11
5.6406321653543303
21
-4.9064521653543309
0
LINE
8
BLACK
6
CONTINUOUS
10
5.6406321653543303
20
-4.9064521653543309
11
5.6443816929133854
21
-4.9139512204724412
0
LINE
8
BLACK
6
CONTINUOUS
10
5.6443816929133854
20
-4.9139512204724412
11
5.6481312204724405
21
-4.917700787401575
0
LINE
8
BLACK
6
CONTINUOUS
10
5.6481312204724405
20
-4.917700787401575
11
5.6556302755905508
21
-4.9214503149606301
0
LINE
8
BLACK
6
CONTINUOUS
10
5.6556302755905508
20
-4.9214503149606301
11
5.67062842519685
21
-4.9214503149606301
0
LINE
8
BLACK
6
CONTINUOUS
10
5.67062842519685
20
-4.9214503149606301
11
5.6781274803149602
21
-4.917700787401575
0
LINE
8
BLACK
6
CONTINUOUS
10
5.6781274803149602
20
-4.917700787401575
11
5.6818770078740153
21
-4.9139512204724412
0
LINE
8
BLACK
6
CONTINUOUS
10
5.6818770078740153
20
-4.9139512204724412
11
5.6856265354330704
21
-4.9064521653543309
0
LINE
8
BLACK
6
CONTINUOUS
10
5.6856265354330704
20
-4.9064521653543309
11
5.6856265354330704
21
-4.8914540551181105
0
LINE
8
BLACK
6
CONTINUOUS
10
5.6856265354330704
20
-4.8914540551181105
11
5.6818770078740153
21
-4.8839550000000003
0
LINE
8
BLACK
6
CONTINUOUS
10
5.6818770078740153
20
-4.8839550000000003
11
5.6781274803149602
21
-4.8802054724409452
0
LINE
8
BLACK
6
CONTINUOUS
10
5.6781274803149602
20
-4.8802054724409452
11
5.67062842519685
21
-4.8764559055118113
0
LINE
8
BLACK
6
CONTINUOUS
10
5.7793648425196853
20
-4.9214503149606301
11
5.7793648425196853
21
-4.8427101574803144
0
LINE
8
BLACK
6
CONTINUOUS
10
5.81311062992126
20
-4.9214503149606301
11
5.81311062992126
21
-4.8802054724409452
0
LINE
8
BLACK
6
CONTINUOUS
10
5.81311062992126
20
-4.8802054724409452
11
5.8093611023622049
21
-4.8727063779527562
0
LINE
8
BLACK
6
CONTINUOUS
10
5.8093611023622049
20
-4.8727063779527562
11
5.8018620472440947
21
-4.8689568503937011
0
LINE
8
BLACK
6
CONTINUOUS
10
5.8018620472440947
20
-4.8689568503937011
11
5.7906134251968506
21
-4.8689568503937011
0
LINE
8
BLACK
6
CONTINUOUS
10
5.7906134251968506
20
-4.8689568503937011
11
5.7831143700787404
21
-4.8727063779527562
0
LINE
8
BLACK
6
CONTINUOUS
10
5.7831143700787404
20
-4.8727063779527562
11
5.7793648425196853
21
-4.8764559055118113
0
LINE
8
BLACK
6
CONTINUOUS
10
5.8618545275590552
20
-4.9214503149606301
11
5.854355472440945
21
-4.917700787401575
0
LINE
8
BLACK
6
CONTINUOUS
10
5.854355472440945
20
-4.917700787401575
11
5.8506059448818899
21
-4.9139512204724412
0
LINE
8
BLACK
6
CONTINUOUS
10
5.8506059448818899
20
-4.9139512204724412
11
5.8468564173228348
21
-4.9064521653543309
0
LINE
8
BLACK
6
CONTINUOUS
10
5.8468564173228348
20
-4.9064521653543309
11
5.8468564173228348
21
-4.8839550000000003
0
LINE
8
BLACK
6
CONTINUOUS
10
5.8468564173228348
20
-4.8839550000000003
11
5.8506059448818899
21
-4.8764559055118113
0
LINE
8
BLACK
6
CONTINUOUS
10
5.8506059448818899
20
-4.8764559055118113
11
5.854355472440945
21
-4.8727063779527562
0
LINE
8
BLACK
6
CONTINUOUS
10
5.854355472440945
20
-4.8727063779527562
11
5.8618545275590552
21
-4.8689568503937011
0
LINE
8
BLACK
6
CONTINUOUS
10
5.8618545275590552
20
-4.8689568503937011
11
5.8731031496062993
21
-4.8689568503937011
0
LINE
8
BLACK
6
CONTINUOUS
10
5.8731031496062993
20
-4.8689568503937011
11
5.8806022047244095
21
-4.8727063779527562
0
LINE
8
BLACK
6
CONTINUOUS
10
5.8806022047244095
20
-4.8727063779527562
11
5.8843517322834646
21
-4.8764559055118113
0
LINE
8
BLACK
6
CONTINUOUS
10
5.8843517322834646
20
-4.8764559055118113
11
5.8881012598425198
21
-4.8839550000000003
0
LINE
8
BLACK
6
CONTINUOUS
10
5.8881012598425198
20
-4.8839550000000003
11
5.8881012598425198
21
-4.9064521653543309
0
LINE
8
BLACK
6
CONTINUOUS
10
5.8881012598425198
20
-4.9064521653543309
11
5.8843517322834646
21
-4.9139512204724412
0
LINE
8
BLACK
6
CONTINUOUS
10
5.8843517322834646
20
-4.9139512204724412
11
5.8806022047244095
21
-4.917700787401575
0
LINE
8
BLACK
6
CONTINUOUS
10
5.8806022047244095
20
-4.917700787401575
11
5.8731031496062993
21
-4.9214503149606301
0
LINE
8
BLACK
6
CONTINUOUS
10
5.8731031496062993
20
-4.9214503149606301
11
5.8618545275590552
21
-4.9214503149606301
0
LINE
8
BLACK
6
CONTINUOUS
10
5.9330956299212598
20
-4.9214503149606301
11
5.9255965748031496
21
-4.917700787401575
0
LINE
8
BLACK
6
CONTINUOUS
10
5.9255965748031496
20
-4.917700787401575
11
5.9218470472440945
21
-4.910201692913386
0
LINE
8
BLACK
6
CONTINUOUS
10
5.9218470472440945
20
-4.910201692913386
11
5.9218470472440945
21
-4.8427101574803144
0
LINE
8
BLACK
6
CONTINUOUS
10
5.9930881496062991
20
-4.917700787401575
11
5.9855890944881889
21
-4.9214503149606301
0
LINE
8
BLACK
6
CONTINUOUS
10
5.9855890944881889
20
-4.9214503149606301
11
5.9705909448818897
21
-4.9214503149606301
0
LINE
8
BLACK
6
CONTINUOUS
10
5.9705909448818897
20
-4.9214503149606301
11
5.9630918897637795
21
-4.917700787401575
0
LINE
8
BLACK
6
CONTINUOUS
10
5.9630918897637795
20
-4.917700787401575
11
5.9593423622047244
21
-4.910201692913386
0
LINE
8
BLACK
6
CONTINUOUS
10
5.9593423622047244
20
-4.910201692913386
11
5.9593423622047244
21
-4.8802054724409452
0
LINE
8
BLACK
6
CONTINUOUS
10
5.9593423622047244
20
-4.8802054724409452
11
5.9630918897637795
21
-4.8727063779527562
0
LINE
8
BLACK
6
CONTINUOUS
10
5.9630918897637795
20
-4.8727063779527562
11
5.9705909448818897
21
-4.8689568503937011
0
LINE
8
BLACK
6
CONTINUOUS
10
5.9705909448818897
20
-4.8689568503937011
11
5.9855890944881889
21
-4.8689568503937011
0
LINE
8
BLACK
6
CONTINUOUS
10
5.9855890944881889
20
-4.8689568503937011
11
5.9930881496062991
21
-4.8727063779527562
0
LINE
8
BLACK
6
CONTINUOUS
10
5.9930881496062991
20
-4.8727063779527562
11
5.9968376771653542
21
-4.8802054724409452
0
LINE
8
BLACK
6
CONTINUOUS
10
5.9968376771653542
20
-4.8802054724409452
11
5.9968376771653542
21
-4.8877045275590554
0
LINE
8
BLACK
6
CONTINUOUS
10
5.9968376771653542
20
-4.8877045275590554
11
5.9593423622047244
21
-4.8952035826771656
0
LINE
8
BLACK
6
CONTINUOUS
10
6.0268339370078738
20
-4.917700787401575
11
6.0343329921259841
21
-4.9214503149606301
0
LINE
8
BLACK
6
CONTINUOUS
10
6.0343329921259841
20
-4.9214503149606301
11
6.0493311023622045
21
-4.9214503149606301
0
LINE
8
BLACK
6
CONTINUOUS
10
6.0493311023622045
20
-4.9214503149606301
11
6.0568301968503935
21
-4.917700787401575
0
LINE
8
BLACK
6
CONTINUOUS
10
6.0568301968503935
20
-4.917700787401575
11
6.0605797244094486
21
-4.910201692913386
0
LINE
8
BLACK
6
CONTINUOUS
10
6.0605797244094486
20
-4.910201692913386
11
6.0605797244094486
21
-4.9064521653543309
0
LINE
8
BLACK
6
CONTINUOUS
10
6.0605797244094486
20
-4.9064521653543309
11
6.0568301968503935
21
-4.8989531102362207
0
LINE
8
BLACK
6
CONTINUOUS
10
6.0568301968503935
20
-4.8989531102362207
11
6.0493311023622045
21
-4.8952035826771656
0
LINE
8
BLACK
6
CONTINUOUS
10
6.0493311023622045
20
-4.8952035826771656
11
6.0380825196850392
21
-4.8952035826771656
0
LINE
8
BLACK
6
CONTINUOUS
10
6.0380825196850392
20
-4.8952035826771656
11
6.030583464566929
21
-4.8914540551181105
0
LINE
8
BLACK
6
CONTINUOUS
10
6.030583464566929
20
-4.8914540551181105
11
6.0268339370078738
21
-4.8839550000000003
0
LINE
8
BLACK
6
CONTINUOUS
10
6.0268339370078738
20
-4.8839550000000003
11
6.0268339370078738
21
-4.8802054724409452
0
LINE
8
BLACK
6
CONTINUOUS
10
6.0268339370078738
20
-4.8802054724409452
11
6.030583464566929
21
-4.8727063779527562
0
LINE
8
BLACK
6
CONTINUOUS
10
6.030583464566929
20
-4.8727063779527562
11
6.0380825196850392
21
-4.8689568503937011
0
LINE
8
BLACK
6
CONTINUOUS
10
6.0380825196850392
20
-4.8689568503937011
11
6.0493311023622045
21
-4.8689568503937011
0
LINE
8
BLACK
6
CONTINUOUS
10
6.0493311023622045
20
-4.8689568503937011
11
6.0568301968503935
21
-4.8727063779527562
0
LINE
8
BLACK
6
CONTINUOUS
10
6.0868264566929131
20
-4.951446535433071
11
6.0905759842519682
21
-4.9476970078740159
0
LINE
8
BLACK
6
CONTINUOUS
10
6.0905759842519682
20
-4.9476970078740159
11
6.0980750393700784
21
-4.9364484251968506
0
LINE
8
BLACK
6
CONTINUOUS
10
6.0980750393700784
20
-4.9364484251968506
11
6.1018245669291336
21
-4.9289493700787403
0
LINE
8
BLACK
6
CONTINUOUS
10
6.1018245669291336
20
-4.9289493700787403
11
6.1055740944881887
21
-4.917700787401575
0
LINE
8
BLACK
6
CONTINUOUS
10
6.1055740944881887
20
-4.917700787401575
11
6.1093236220472438
21
-4.8989531102362207
0
LINE
8
BLACK
6
CONTINUOUS
10
6.1093236220472438
20
-4.8989531102362207
11
6.1093236220472438
21
-4.8839550000000003
0
LINE
8
BLACK
6
CONTINUOUS
10
6.1093236220472438
20
-4.8839550000000003
11
6.1055740944881887
21
-4.865207322834646
0
LINE
8
BLACK
6
CONTINUOUS
10
6.1055740944881887
20
-4.865207322834646
11
6.1018245669291336
21
-4.8539587401574806
0
LINE
8
BLACK
6
CONTINUOUS
10
6.1018245669291336
20
-4.8539587401574806
11
6.0980750393700784
21
-4.8464596850393695
0
LINE
8
BLACK
6
CONTINUOUS
10
6.0980750393700784
20
-4.8464596850393695
11
6.0905759842519682
21
-4.8352110629921254
0
LINE
8
BLACK
6
CONTINUOUS
10
6.0905759842519682
20
-4.8352110629921254
11
6.0868264566929131
21
-4.8314615354330703
0
LINE
8
BLACK
6
CONTINUOUS
10
4.0925196850393704
20
-4.9500000000000002
11
4.0925196850393704
21
-5.028740157480315
0
LINE
8
BLACK
6
CONTINUOUS
10
4.0531496062992129
20
-4.9893700787401576
11
4.1318897637795278
21
-4.9893700787401576
0
LINE
8
BLACK
6
CONTINUOUS
10
4.2308082677165357
20
-4.9541462204724409
11
4.2345577952755908
21
-4.9503966929133858
0
LINE
8
BLACK
6
CONTINUOUS
10
4.2345577952755908
20
-4.9503966929133858
11
4.2420568503937011
21
-4.9466471653543307
0
LINE
8
BLACK
6
CONTINUOUS
10
4.2420568503937011
20
-4.9466471653543307
11
4.2608045275590554
21
-4.9466471653543307
0
LINE
8
BLACK
6
CONTINUOUS
10
4.2608045275590554
20
-4.9466471653543307
11
4.2683035826771656
21
-4.9503966929133858
0
LINE
8
BLACK
6
CONTINUOUS
10
4.2683035826771656
20
-4.9503966929133858
11
4.2720531102362207
21
-4.9541462204724409
0
LINE
8
BLACK
6
CONTINUOUS
10
4.2720531102362207
20
-4.9541462204724409
11
4.2758026377952758
21
-4.9616452755905511
0
LINE
8
BLACK
6
CONTINUOUS
10
4.2758026377952758
20
-4.9616452755905511
11
4.2758026377952758
21
-4.9691443307086614
0
LINE
8
BLACK
6
CONTINUOUS
10
4.2758026377952758
20
-4.9691443307086614
11
4.2720531102362207
21
-4.9803929133858267
0
LINE
8
BLACK
6
CONTINUOUS
10
4.2720531102362207
20
-4.9803929133858267
11
4.2270587401574806
21
-5.0253873228346455
0
LINE
8
BLACK
6
CONTINUOUS
10
4.2270587401574806
20
-5.0253873228346455
11
4.2758026377952758
21
-5.0253873228346455
0
LINE
8
BLACK
6
CONTINUOUS
10
4.3095484251968506
20
-5.0178882283464565
11
4.3132979527559057
21
-5.0216377952755904
0
LINE
8
BLACK
6
CONTINUOUS
10
4.3132979527559057
20
-5.0216377952755904
11
4.3095484251968506
21
-5.0253873228346455
0
LINE
8
BLACK
6
CONTINUOUS
10
4.3095484251968506
20
-5.0253873228346455
11
4.3057988976377954
21
-5.0216377952755904
0
LINE
8
BLACK
6
CONTINUOUS
10
4.3057988976377954
20
-5.0216377952755904
11
4.3095484251968506
21
-5.0178882283464565
0
LINE
8
BLACK
6
CONTINUOUS
10
4.3095484251968506
20
-5.0178882283464565
11
4.3095484251968506
21
-5.0253873228346455
0
LINE
8
BLACK
6
CONTINUOUS
10
4.3432942125984253
20
-4.9541462204724409
11
4.3470437401574804
21
-4.9503966929133858
0
LINE
8
BLACK
6
CONTINUOUS
10
4.3470437401574804
20
-4.9503966929133858
11
4.3545427952755906
21
-4.9466471653543307
0
LINE
8
BLACK
6
CONTINUOUS
10
4.3545427952755906
20
-4.9466471653543307
11
4.3732904724409449
21
-4.9466471653543307
0
LINE
8
BLACK
6
CONTINUOUS
10
4.3732904724409449
20
-4.9466471653543307
11
4.3807895275590552
21
-4.9503966929133858
0
LINE
8
BLACK
6
CONTINUOUS
10
4.3807895275590552
20
-4.9503966929133858
11
4.3845390551181103
21
-4.9541462204724409
0
LINE
8
BLACK
6
CONTINUOUS
10
4.3845390551181103
20
-4.9541462204724409
11
4.3882885826771654
21
-4.9616452755905511
0
LINE
8
BLACK
6
CONTINUOUS
10
4.3882885826771654
20
-4.9616452755905511
11
4.3882885826771654
21
-4.9691443307086614
0
LINE
8
BLACK
6
CONTINUOUS
10
4.3882885826771654
20
-4.9691443307086614
11
4.3845390551181103
21
-4.9803929133858267
0
LINE
8
BLACK
6
CONTINUOUS
10
4.3845390551181103
20
-4.9803929133858267
11
4.3395446850393702
21
-5.0253873228346455
0
LINE
8
BLACK
6
CONTINUOUS
10
4.3395446850393702
20
-5.0253873228346455
11
4.3882885826771654
21
-5.0253873228346455
0
LINE
8
BLACK
6
CONTINUOUS
10
4.4370324803149606
20
-4.9466471653543307
11
4.4445315748031495
21
-4.9466471653543307
0
LINE
8
BLACK
6
CONTINUOUS
10
4.4445315748031495
20
-4.9466471653543307
11
4.4520306299212598
21
-4.9503966929133858
0
LINE
8
BLACK
6
CONTINUOUS
10
4.4520306299212598
20
-4.9503966929133858
11
4.4557801574803149
21
-4.9541462204724409
0
LINE
8
BLACK
6
CONTINUOUS
10
4.4557801574803149
20
-4.9541462204724409
11
4.45952968503937
21
-4.9616452755905511
0
LINE
8
BLACK
6
CONTINUOUS
10
4.45952968503937
20
-4.9616452755905511
11
4.4632792125984251
21
-4.9766433858267716
0
LINE
8
BLACK
6
CONTINUOUS
10
4.4632792125984251
20
-4.9766433858267716
11
4.4632792125984251
21
-4.9953910629921259
0
LINE
8
BLACK
6
CONTINUOUS
10
4.4632792125984251
20
-4.9953910629921259
11
4.45952968503937
21
-5.0103891732283463
0
LINE
8
BLACK
6
CONTINUOUS
10
4.45952968503937
20
-5.0103891732283463
11
4.4557801574803149
21
-5.0178882283464565
0
LINE
8
BLACK
6
CONTINUOUS
10
4.4557801574803149
20
-5.0178882283464565
11
4.4520306299212598
21
-5.0216377952755904
0
LINE
8
BLACK
6
CONTINUOUS
10
4.4520306299212598
20
-5.0216377952755904
11
4.4445315748031495
21
-5.0253873228346455
0
LINE
8
BLACK
6
CONTINUOUS
10
4.4445315748031495
20
-5.0253873228346455
11
4.4370324803149606
21
-5.0253873228346455
0
LINE
8
BLACK
6
CONTINUOUS
10
4.4370324803149606
20
-5.0253873228346455
11
4.4295334251968503
21
-5.0216377952755904
0
LINE
8
BLACK
6
CONTINUOUS
10
4.4295334251968503
20
-5.0216377952755904
11
4.4257838976377952
21
-5.0178882283464565
0
LINE
8
BLACK
6
CONTINUOUS
10
4.4257838976377952
20
-5.0178882283464565
11
4.4220343700787401
21
-5.0103891732283463
0
LINE
8
BLACK
6
CONTINUOUS
10
4.4220343700787401
20
-5.0103891732283463
11
4.418284842519685
21
-4.9953910629921259
0
LINE
8
BLACK
6
CONTINUOUS
10
4.418284842519685
20
-4.9953910629921259
11
4.418284842519685
21
-4.9766433858267716
0
LINE
8
BLACK
6
CONTINUOUS
10
4.418284842519685
20
-4.9766433858267716
11
4.4220343700787401
21
-4.9616452755905511
0
LINE
8
BLACK
6
CONTINUOUS
10
4.4220343700787401
20
-4.9616452755905511
11
4.4257838976377952
21
-4.9541462204724409
0
LINE
8
BLACK
6
CONTINUOUS
10
4.4257838976377952
20
-4.9541462204724409
11
4.4295334251968503
21
-4.9503966929133858
0
LINE
8
BLACK
6
CONTINUOUS
10
4.4295334251968503
20
-4.9503966929133858
11
4.4370324803149606
21
-4.9466471653543307
0
LINE
8
BLACK
6
CONTINUOUS
10
4.5120231102362203
20
-4.9466471653543307
11
4.5195222047244092
21
-4.9466471653543307
0
LINE
8
BLACK
6
CONTINUOUS
10
4.5195222047244092
20
-4.9466471653543307
11
4.5270212598425195
21
-4.9503966929133858
0
LINE
8
BLACK
6
CONTINUOUS
10
4.5270212598425195
20
-4.9503966929133858
11
4.5307707874015746
21
-4.9541462204724409
0
LINE
8
BLACK
6
CONTINUOUS
10
4.5307707874015746
20
-4.9541462204724409
11
4.5345203149606297
21
-4.9616452755905511
0
LINE
8
BLACK
6
CONTINUOUS
10
4.5345203149606297
20
-4.9616452755905511
11
4.5382698425196848
21
-4.9766433858267716
0
LINE
8
BLACK
6
CONTINUOUS
10
4.5382698425196848
20
-4.9766433858267716
11
4.5382698425196848
21
-4.9953910629921259
0
LINE
8
BLACK
6
CONTINUOUS
10
4.5382698425196848
20
-4.9953910629921259
11
4.5345203149606297
21
-5.0103891732283463
0
LINE
8
BLACK
6
CONTINUOUS
10
4.5345203149606297
20
-5.0103891732283463
11
4.5307707874015746
21
-5.0178882283464565
0
LINE
8
BLACK
6
CONTINUOUS
10
4.5307707874015746
20
-5.0178882283464565
11
4.5270212598425195
21
-5.0216377952755904
0
LINE
8
BLACK
6
CONTINUOUS
10
4.5270212598425195
20
-5.0216377952755904
11
4.5195222047244092
21
-5.0253873228346455
0
LINE
8
BLACK
6
CONTINUOUS
10
4.5195222047244092
20
-5.0253873228346455
11
4.5120231102362203
21
-5.0253873228346455
0
LINE
8
BLACK
6
CONTINUOUS
10
4.5120231102362203
20
-5.0253873228346455
11
4.50452405511811
21
-5.0216377952755904
0
LINE
8
BLACK
6
CONTINUOUS
10
4.50452405511811
20
-5.0216377952755904
11
4.5007745275590549
21
-5.0178882283464565
0
LINE
8
BLACK
6
CONTINUOUS
10
4.5007745275590549
20
-5.0178882283464565
11
4.4970249999999998
21
-5.0103891732283463
0
LINE
8
BLACK
6
CONTINUOUS
10
4.4970249999999998
20
-5.0103891732283463
11
4.4932754724409447
21
-4.9953910629921259
0
LINE
8
BLACK
6
CONTINUOUS
10
4.4932754724409447
20
-4.9953910629921259
11
4.4932754724409447
21
-4.9766433858267716
0
LINE
8
BLACK
6
CONTINUOUS
10
4.4932754724409447
20
-4.9766433858267716
11
4.4970249999999998
21
-4.9616452755905511
0
LINE
8
BLACK
6
CONTINUOUS
10
4.4970249999999998
20
-4.9616452755905511
11
4.5007745275590549
21
-4.9541462204724409
0
LINE
8
BLACK
6
CONTINUOUS
10
4.5007745275590549
20
-4.9541462204724409
11
4.50452405511811
21
-4.9503966929133858
0
LINE
8
BLACK
6
CONTINUOUS
10
4.50452405511811
20
-4.9503966929133858
11
4.5120231102362203
21
-4.9466471653543307
0
LINE
8
BLACK
6
CONTINUOUS
10
4.5720156299212595
20
-5.0253873228346455
11
4.5720156299212595
21
-4.9728938582677165
0
LINE
8
BLACK
6
CONTINUOUS
10
4.5720156299212595
20
-4.9803929133858267
11
4.5757651574803146
21
-4.9766433858267716
0
LINE
8
BLACK
6
CONTINUOUS
10
4.5757651574803146
20
-4.9766433858267716
11
4.5832642125984249
21
-4.9728938582677165
0
LINE
8
BLACK
6
CONTINUOUS
10
4.5832642125984249
20
-4.9728938582677165
11
4.594512834645669
21
-4.9728938582677165
0
LINE
8
BLACK
6
CONTINUOUS
10
4.594512834645669
20
-4.9728938582677165
11
4.6020118897637792
21
-4.9766433858267716
0
LINE
8
BLACK
6
CONTINUOUS
10
4.6020118897637792
20
-4.9766433858267716
11
4.6057614173228343
21
-4.9841424803149605
0
LINE
8
BLACK
6
CONTINUOUS
10
4.6057614173228343
20
-4.9841424803149605
11
4.6057614173228343
21
-5.0253873228346455
0
LINE
8
BLACK
6
CONTINUOUS
10
4.6057614173228343
20
-4.9841424803149605
11
4.6095109448818894
21
-4.9766433858267716
0
LINE
8
BLACK
6
CONTINUOUS
10
4.6095109448818894
20
-4.9766433858267716
11
4.6170099999999996
21
-4.9728938582677165
0
LINE
8
BLACK
6
CONTINUOUS
10
4.6170099999999996
20
-4.9728938582677165
11
4.6282585826771649
21
-4.9728938582677165
0
LINE
8
BLACK
6
CONTINUOUS
10
4.6282585826771649
20
-4.9728938582677165
11
4.6357576771653539
21
-4.9766433858267716
0
LINE
8
BLACK
6
CONTINUOUS
10
4.6357576771653539
20
-4.9766433858267716
11
4.639507204724409
21
-4.9841424803149605
0
LINE
8
BLACK
6
CONTINUOUS
10
4.639507204724409
20
-4.9841424803149605
11
4.639507204724409
21
-5.0253873228346455
0
LINE
8
BLACK
6
CONTINUOUS
10
4.6770025196850389
20
-5.0253873228346455
11
4.6770025196850389
21
-4.9728938582677165
0
LINE
8
BLACK
6
CONTINUOUS
10
4.6770025196850389
20
-4.9803929133858267
11
4.680752047244094
21
-4.9766433858267716
0
LINE
8
BLACK
6
CONTINUOUS
10
4.680752047244094
20
-4.9766433858267716
11
4.6882511023622042
21
-4.9728938582677165
0
LINE
8
BLACK
6
CONTINUOUS
10
4.6882511023622042
20
-4.9728938582677165
11
4.6994997244094483
21
-4.9728938582677165
0
LINE
8
BLACK
6
CONTINUOUS
10
4.6994997244094483
20
-4.9728938582677165
11
4.7069987795275585
21
-4.9766433858267716
0
LINE
8
BLACK
6
CONTINUOUS
10
4.7069987795275585
20
-4.9766433858267716
11
4.7107483070866136
21
-4.9841424803149605
0
LINE
8
BLACK
6
CONTINUOUS
10
4.7107483070866136
20
-4.9841424803149605
11
4.7107483070866136
21
-5.0253873228346455
0
LINE
8
BLACK
6
CONTINUOUS
10
4.7107483070866136
20
-4.9841424803149605
11
4.7144978346456696
21
-4.9766433858267716
0
LINE
8
BLACK
6
CONTINUOUS
10
4.7144978346456696
20
-4.9766433858267716
11
4.7219968897637798
21
-4.9728938582677165
0
LINE
8
BLACK
6
CONTINUOUS
10
4.7219968897637798
20
-4.9728938582677165
11
4.7332454724409452
21
-4.9728938582677165
0
LINE
8
BLACK
6
CONTINUOUS
10
4.7332454724409452
20
-4.9728938582677165
11
4.7407445669291342
21
-4.9766433858267716
0
LINE
8
BLACK
6
CONTINUOUS
10
4.7407445669291342
20
-4.9766433858267716
11
4.7444940944881893
21
-4.9841424803149605
0
LINE
8
BLACK
6
CONTINUOUS
10
4.7444940944881893
20
-4.9841424803149605
11
4.7444940944881893
21
-5.0253873228346455
0
LINE
8
BLACK
6
CONTINUOUS
10
4.8982248818897638
20
-4.9428976377952756
11
4.8307333464566931
21
-5.0441349606299211
0
LINE
8
BLACK
6
CONTINUOUS
10
4.999462244094488
20
-4.9466471653543307
11
5.006961338582677
21
-4.9466471653543307
0
LINE
8
BLACK
6
CONTINUOUS
10
5.006961338582677
20
-4.9466471653543307
11
5.0144603937007872
21
-4.9503966929133858
0
LINE
8
BLACK
6
CONTINUOUS
10
5.0144603937007872
20
-4.9503966929133858
11
5.0182099212598423
21
-4.9541462204724409
0
LINE
8
BLACK
6
CONTINUOUS
10
5.0182099212598423
20
-4.9541462204724409
11
5.0219594488188974
21
-4.9616452755905511
0
LINE
8
BLACK
6
CONTINUOUS
10
5.0219594488188974
20
-4.9616452755905511
11
5.0257089763779526
21
-4.9766433858267716
0
LINE
8
BLACK
6
CONTINUOUS
10
5.0257089763779526
20
-4.9766433858267716
11
5.0257089763779526
21
-4.9953910629921259
0
LINE
8
BLACK
6
CONTINUOUS
10
5.0257089763779526
20
-4.9953910629921259
11
5.0219594488188974
21
-5.0103891732283463
0
LINE
8
BLACK
6
CONTINUOUS
10
5.0219594488188974
20
-5.0103891732283463
11
5.0182099212598423
21
-5.0178882283464565
0
LINE
8
BLACK
6
CONTINUOUS
10
5.0182099212598423
20
-5.0178882283464565
11
5.0144603937007872
21
-5.0216377952755904
0
LINE
8
BLACK
6
CONTINUOUS
10
5.0144603937007872
20
-5.0216377952755904
11
5.006961338582677
21
-5.0253873228346455
0
LINE
8
BLACK
6
CONTINUOUS
10
5.006961338582677
20
-5.0253873228346455
11
4.999462244094488
21
-5.0253873228346455
0
LINE
8
BLACK
6
CONTINUOUS
10
4.999462244094488
20
-5.0253873228346455
11
4.9919631889763778
21
-5.0216377952755904
0
LINE
8
BLACK
6
CONTINUOUS
10
4.9919631889763778
20
-5.0216377952755904
11
4.9882136614173227
21
-5.0178882283464565
0
LINE
8
BLACK
6
CONTINUOUS
10
4.9882136614173227
20
-5.0178882283464565
11
4.9844641338582676
21
-5.0103891732283463
0
LINE
8
BLACK
6
CONTINUOUS
10
4.9844641338582676
20
-5.0103891732283463
11
4.9807146062992125
21
-4.9953910629921259
0
LINE
8
BLACK
6
CONTINUOUS
10
4.9807146062992125
20
-4.9953910629921259
11
4.9807146062992125
21
-4.9766433858267716
0
LINE
8
BLACK
6
CONTINUOUS
10
4.9807146062992125
20
-4.9766433858267716
11
4.9844641338582676
21
-4.9616452755905511
0
LINE
8
BLACK
6
CONTINUOUS
10
4.9844641338582676
20
-4.9616452755905511
11
4.9882136614173227
21
-4.9541462204724409
0
LINE
8
BLACK
6
CONTINUOUS
10
4.9882136614173227
20
-4.9541462204724409
11
4.9919631889763778
21
-4.9503966929133858
0
LINE
8
BLACK
6
CONTINUOUS
10
4.9919631889763778
20
-4.9503966929133858
11
4.999462244094488
21
-4.9466471653543307
0
LINE
8
BLACK
6
CONTINUOUS
10
5.0594547637795273
20
-5.0178882283464565
11
5.0632042913385824
21
-5.0216377952755904
0
LINE
8
BLACK
6
CONTINUOUS
10
5.0632042913385824
20
-5.0216377952755904
11
5.0594547637795273
21
-5.0253873228346455
0
LINE
8
BLACK
6
CONTINUOUS
10
5.0594547637795273
20
-5.0253873228346455
11
5.0557052362204722
21
-5.0216377952755904
0
LINE
8
BLACK
6
CONTINUOUS
10
5.0557052362204722
20
-5.0216377952755904
11
5.0594547637795273
21
-5.0178882283464565
0
LINE
8
BLACK
6
CONTINUOUS
10
5.0594547637795273
20
-5.0178882283464565
11
5.0594547637795273
21
-5.0253873228346455
0
LINE
8
BLACK
6
CONTINUOUS
10
5.1119481889763776
20
-4.9466471653543307
11
5.1194472834645666
21
-4.9466471653543307
0
LINE
8
BLACK
6
CONTINUOUS
10
5.1194472834645666
20
-4.9466471653543307
11
5.1269463385826768
21
-4.9503966929133858
0
LINE
8
BLACK
6
CONTINUOUS
10
5.1269463385826768
20
-4.9503966929133858
11
5.1306958661417319
21
-4.9541462204724409
0
LINE
8
BLACK
6
CONTINUOUS
10
5.1306958661417319
20
-4.9541462204724409
11
5.134445393700787
21
-4.9616452755905511
0
LINE
8
BLACK
6
CONTINUOUS
10
5.134445393700787
20
-4.9616452755905511
11
5.1381949212598421
21
-4.9766433858267716
0
LINE
8
BLACK
6
CONTINUOUS
10
5.1381949212598421
20
-4.9766433858267716
11
5.1381949212598421
21
-4.9953910629921259
0
LINE
8
BLACK
6
CONTINUOUS
10
5.1381949212598421
20
-4.9953910629921259
11
5.134445393700787
21
-5.0103891732283463
0
LINE
8
BLACK
6
CONTINUOUS
10
5.134445393700787
20
-5.0103891732283463
11
5.1306958661417319
21
-5.0178882283464565
0
LINE
8
BLACK
6
CONTINUOUS
10
5.1306958661417319
20
-5.0178882283464565
11
5.1269463385826768
21
-5.0216377952755904
0
LINE
8
BLACK
6
CONTINUOUS
10
5.1269463385826768
20
-5.0216377952755904
11
5.1194472834645666
21
-5.0253873228346455
0
LINE
8
BLACK
6
CONTINUOUS
10
5.1194472834645666
20
-5.0253873228346455
11
5.1119481889763776
21
-5.0253873228346455
0
LINE
8
BLACK
6
CONTINUOUS
10
5.1119481889763776
20
-5.0253873228346455
11
5.1044491338582674
21
-5.0216377952755904
0
LINE
8
BLACK
6
CONTINUOUS
10
5.1044491338582674
20
-5.0216377952755904
11
5.1006996062992123
21
-5.0178882283464565
0
LINE
8
BLACK
6
CONTINUOUS
10
5.1006996062992123
20
-5.0178882283464565
11
5.0969500787401572
21
-5.0103891732283463
0
LINE
8
BLACK
6
CONTINUOUS
10
5.0969500787401572
20
-5.0103891732283463
11
5.093200551181102
21
-4.9953910629921259
0
LINE
8
BLACK
6
CONTINUOUS
10
5.093200551181102
20
-4.9953910629921259
11
5.093200551181102
21
-4.9766433858267716
0
LINE
8
BLACK
6
CONTINUOUS
10
5.093200551181102
20
-4.9766433858267716
11
5.0969500787401572
21
-4.9616452755905511
0
LINE
8
BLACK
6
CONTINUOUS
10
5.0969500787401572
20
-4.9616452755905511
11
5.1006996062992123
21
-4.9541462204724409
0
LINE
8
BLACK
6
CONTINUOUS
10
5.1006996062992123
20
-4.9541462204724409
11
5.1044491338582674
21
-4.9503966929133858
0
LINE
8
BLACK
6
CONTINUOUS
10
5.1044491338582674
20
-4.9503966929133858
11
5.1119481889763776
21
-4.9466471653543307
0
LINE
8
BLACK
6
CONTINUOUS
10
5.1831892913385822
20
-4.9803929133858267
11
5.175690236220472
21
-4.9766433858267716
0
LINE
8
BLACK
6
CONTINUOUS
10
5.175690236220472
20
-4.9766433858267716
11
5.1719407086614169
21
-4.9728938582677165
0
LINE
8
BLACK
6
CONTINUOUS
10
5.1719407086614169
20
-4.9728938582677165
11
5.1681911811023618
21
-4.9653948031496062
0
LINE
8
BLACK
6
CONTINUOUS
10
5.1681911811023618
20
-4.9653948031496062
11
5.1681911811023618
21
-4.9616452755905511
0
LINE
8
BLACK
6
CONTINUOUS
10
5.1681911811023618
20
-4.9616452755905511
11
5.1719407086614169
21
-4.9541462204724409
0
LINE
8
BLACK
6
CONTINUOUS
10
5.1719407086614169
20
-4.9541462204724409
11
5.175690236220472
21
-4.9503966929133858
0
LINE
8
BLACK
6
CONTINUOUS
10
5.175690236220472
20
-4.9503966929133858
11
5.1831892913385822
21
-4.9466471653543307
0
LINE
8
BLACK
6
CONTINUOUS
10
5.1831892913385822
20
-4.9466471653543307
11
5.1981874409448814
21
-4.9466471653543307
0
LINE
8
BLACK
6
CONTINUOUS
10
5.1981874409448814
20
-4.9466471653543307
11
5.2056864960629916
21
-4.9503966929133858
0
LINE
8
BLACK
6
CONTINUOUS
10
5.2056864960629916
20
-4.9503966929133858
11
5.2094360236220467
21
-4.9541462204724409
0
LINE
8
BLACK
6
CONTINUOUS
10
5.2094360236220467
20
-4.9541462204724409
11
5.2131855511811018
21
-4.9616452755905511
0
LINE
8
BLACK
6
CONTINUOUS
10
5.2131855511811018
20
-4.9616452755905511
11
5.2131855511811018
21
-4.9653948031496062
0
LINE
8
BLACK
6
CONTINUOUS
10
5.2131855511811018
20
-4.9653948031496062
11
5.2094360236220467
21
-4.9728938582677165
0
LINE
8
BLACK
6
CONTINUOUS
10
5.2094360236220467
20
-4.9728938582677165
11
5.2056864960629916
21
-4.9766433858267716
0
LINE
8
BLACK
6
CONTINUOUS
10
5.2056864960629916
20
-4.9766433858267716
11
5.1981874409448814
21
-4.9803929133858267
0
LINE
8
BLACK
6
CONTINUOUS
10
5.1981874409448814
20
-4.9803929133858267
11
5.1831892913385822
21
-4.9803929133858267
0
LINE
8
BLACK
6
CONTINUOUS
10
5.1831892913385822
20
-4.9803929133858267
11
5.175690236220472
21
-4.9841424803149605
0
LINE
8
BLACK
6
CONTINUOUS
10
5.175690236220472
20
-4.9841424803149605
11
5.1719407086614169
21
-4.9878920078740157
0
LINE
8
BLACK
6
CONTINUOUS
10
5.1719407086614169
20
-4.9878920078740157
11
5.1681911811023618
21
-4.9953910629921259
0
LINE
8
BLACK
6
CONTINUOUS
10
5.1681911811023618
20
-4.9953910629921259
11
5.1681911811023618
21
-5.0103891732283463
0
LINE
8
BLACK
6
CONTINUOUS
10
5.1681911811023618
20
-5.0103891732283463
11
5.1719407086614169
21
-5.0178882283464565
0
LINE
8
BLACK
6
CONTINUOUS
10
5.1719407086614169
20
-5.0178882283464565
11
5.175690236220472
21
-5.0216377952755904
0
LINE
8
BLACK
6
CONTINUOUS
10
5.175690236220472
20
-5.0216377952755904
11
5.1831892913385822
21
-5.0253873228346455
0
LINE
8
BLACK
6
CONTINUOUS
10
5.1831892913385822
20
-5.0253873228346455
11
5.1981874409448814
21
-5.0253873228346455
0
LINE
8
BLACK
6
CONTINUOUS
10
5.1981874409448814
20
-5.0253873228346455
11
5.2056864960629916
21
-5.0216377952755904
0
LINE
8
BLACK
6
CONTINUOUS
10
5.2056864960629916
20
-5.0216377952755904
11
5.2094360236220467
21
-5.0178882283464565
0
LINE
8
BLACK
6
CONTINUOUS
10
5.2094360236220467
20
-5.0178882283464565
11
5.2131855511811018
21
-5.0103891732283463
0
LINE
8
BLACK
6
CONTINUOUS
10
5.2131855511811018
20
-5.0103891732283463
11
5.2131855511811018
21
-4.9953910629921259
0
LINE
8
BLACK
6
CONTINUOUS
10
5.2131855511811018
20
-4.9953910629921259
11
5.2094360236220467
21
-4.9878920078740157
0
LINE
8
BLACK
6
CONTINUOUS
10
5.2094360236220467
20
-4.9878920078740157
11
5.2056864960629916
21
-4.9841424803149605
0
LINE
8
BLACK
6
CONTINUOUS
10
5.2056864960629916
20
-4.9841424803149605
11
5.1981874409448814
21
-4.9803929133858267
0
LINE
8
BLACK
6
CONTINUOUS
10
5.2806771259842522
20
-4.9466471653543307
11
5.265678976377953
21
-4.9466471653543307
0
LINE
8
BLACK
6
CONTINUOUS
10
5.265678976377953
20
-4.9466471653543307
11
5.2581799212598428
21
-4.9503966929133858
0
LINE
8
BLACK
6
CONTINUOUS
10
5.2581799212598428
20
-4.9503966929133858
11
5.2544303937007877
21
-4.9541462204724409
0
LINE
8
BLACK
6
CONTINUOUS
10
5.2544303937007877
20
-4.9541462204724409
11
5.2469313385826775
21
-4.9653948031496062
0
LINE
8
BLACK
6
CONTINUOUS
10
5.2469313385826775
20
-4.9653948031496062
11
5.2431818110236224
21
-4.9803929133858267
0
LINE
8
BLACK
6
CONTINUOUS
10
5.2431818110236224
20
-4.9803929133858267
11
5.2431818110236224
21
-5.0103891732283463
0
LINE
8
BLACK
6
CONTINUOUS
10
5.2431818110236224
20
-5.0103891732283463
11
5.2469313385826775
21
-5.0178882283464565
0
LINE
8
BLACK
6
CONTINUOUS
10
5.2469313385826775
20
-5.0178882283464565
11
5.2506808661417326
21
-5.0216377952755904
0
LINE
8
BLACK
6
CONTINUOUS
10
5.2506808661417326
20
-5.0216377952755904
11
5.2581799212598428
21
-5.0253873228346455
0
LINE
8
BLACK
6
CONTINUOUS
10
5.2581799212598428
20
-5.0253873228346455
11
5.273178070866142
21
-5.0253873228346455
0
LINE
8
BLACK
6
CONTINUOUS
10
5.273178070866142
20
-5.0253873228346455
11
5.2806771259842522
21
-5.0216377952755904
0
LINE
8
BLACK
6
CONTINUOUS
10
5.2806771259842522
20
-5.0216377952755904
11
5.2844266535433073
21
-5.0178882283464565
0
LINE
8
BLACK
6
CONTINUOUS
10
5.2844266535433073
20
-5.0178882283464565
11
5.2881761811023624
21
-5.0103891732283463
0
LINE
8
BLACK
6
CONTINUOUS
10
5.2881761811023624
20
-5.0103891732283463
11
5.2881761811023624
21
-4.9916415354330708
0
LINE
8
BLACK
6
CONTINUOUS
10
5.2881761811023624
20
-4.9916415354330708
11
5.2844266535433073
21
-4.9841424803149605
0
LINE
8
BLACK
6
CONTINUOUS
10
5.2844266535433073
20
-4.9841424803149605
11
5.2806771259842522
21
-4.9803929133858267
0
LINE
8
BLACK
6
CONTINUOUS
10
5.2806771259842522
20
-4.9803929133858267
11
5.273178070866142
21
-4.9766433858267716
0
LINE
8
BLACK
6
CONTINUOUS
10
5.273178070866142
20
-4.9766433858267716
11
5.2581799212598428
21
-4.9766433858267716
0
LINE
8
BLACK
6
CONTINUOUS
10
5.2581799212598428
20
-4.9766433858267716
11
5.2506808661417326
21
-4.9803929133858267
0
LINE
8
BLACK
6
CONTINUOUS
10
5.2506808661417326
20
-4.9803929133858267
11
5.2469313385826775
21
-4.9841424803149605
0
LINE
8
BLACK
6
CONTINUOUS
10
5.2469313385826775
20
-4.9841424803149605
11
5.2431818110236224
21
-4.9916415354330708
0
LINE
8
BLACK
6
CONTINUOUS
10
5.3556677559055119
20
-4.9466471653543307
11
5.3406696062992127
21
-4.9466471653543307
0
LINE
8
BLACK
6
CONTINUOUS
10
5.3406696062992127
20
-4.9466471653543307
11
5.3331705511811025
21
-4.9503966929133858
0
LINE
8
BLACK
6
CONTINUOUS
10
5.3331705511811025
20
-4.9503966929133858
11
5.3294210236220474
21
-4.9541462204724409
0
LINE
8
BLACK
6
CONTINUOUS
10
5.3294210236220474
20
-4.9541462204724409
11
5.3219219685039372
21
-4.9653948031496062
0
LINE
8
BLACK
6
CONTINUOUS
10
5.3219219685039372
20
-4.9653948031496062
11
5.3181724409448821
21
-4.9803929133858267
0
LINE
8
BLACK
6
CONTINUOUS
10
5.3181724409448821
20
-4.9803929133858267
11
5.3181724409448821
21
-5.0103891732283463
0
LINE
8
BLACK
6
CONTINUOUS
10
5.3181724409448821
20
-5.0103891732283463
11
5.3219219685039372
21
-5.0178882283464565
0
LINE
8
BLACK
6
CONTINUOUS
10
5.3219219685039372
20
-5.0178882283464565
11
5.3256714960629923
21
-5.0216377952755904
0
LINE
8
BLACK
6
CONTINUOUS
10
5.3256714960629923
20
-5.0216377952755904
11
5.3331705511811025
21
-5.0253873228346455
0
LINE
8
BLACK
6
CONTINUOUS
10
5.3331705511811025
20
-5.0253873228346455
11
5.3481687007874017
21
-5.0253873228346455
0
LINE
8
BLACK
6
CONTINUOUS
10
5.3481687007874017
20
-5.0253873228346455
11
5.3556677559055119
21
-5.0216377952755904
0
LINE
8
BLACK
6
CONTINUOUS
10
5.3556677559055119
20
-5.0216377952755904
11
5.359417283464567
21
-5.0178882283464565
0
LINE
8
BLACK
6
CONTINUOUS
10
5.359417283464567
20
-5.0178882283464565
11
5.3631668110236221
21
-5.0103891732283463
0
LINE
8
BLACK
6
CONTINUOUS
10
5.3631668110236221
20
-5.0103891732283463
11
5.3631668110236221
21
-4.9916415354330708
0
LINE
8
BLACK
6
CONTINUOUS
10
5.3631668110236221
20
-4.9916415354330708
11
5.359417283464567
21
-4.9841424803149605
0
LINE
8
BLACK
6
CONTINUOUS
10
5.359417283464567
20
-4.9841424803149605
11
5.3556677559055119
21
-4.9803929133858267
0
LINE
8
BLACK
6
CONTINUOUS
10
5.3556677559055119
20
-4.9803929133858267
11
5.3481687007874017
21
-4.9766433858267716
0
LINE
8
BLACK
6
CONTINUOUS
10
5.3481687007874017
20
-4.9766433858267716
11
5.3331705511811025
21
-4.9766433858267716
0
LINE
8
BLACK
6
CONTINUOUS
10
5.3331705511811025
20
-4.9766433858267716
11
5.3256714960629923
21
-4.9803929133858267
0
LINE
8
BLACK
6
CONTINUOUS
10
5.3256714960629923
20
-4.9803929133858267
11
5.3219219685039372
21
-4.9841424803149605
0
LINE
8
BLACK
6
CONTINUOUS
10
5.3219219685039372
20
-4.9841424803149605
11
5.3181724409448821
21
-4.9916415354330708
0
LINE
8
BLACK
6
CONTINUOUS
10
5.3931630708661418
20
-4.9466471653543307
11
5.3931630708661418
21
-4.9616452755905511
0
LINE
8
BLACK
6
CONTINUOUS
10
5.4231593307086614
20
-4.9466471653543307
11
5.4231593307086614
21
-4.9616452755905511
0
LINE
8
BLACK
6
CONTINUOUS
10
5.5393948425196848
20
-5.0553835433070864
11
5.535645275590551
21
-5.0516340157480313
0
LINE
8
BLACK
6
CONTINUOUS
10
5.535645275590551
20
-5.0516340157480313
11
5.5281462204724408
21
-5.040385433070866
0
LINE
8
BLACK
6
CONTINUOUS
10
5.5281462204724408
20
-5.040385433070866
11
5.5243966929133856
21
-5.0328863779527557
0
LINE
8
BLACK
6
CONTINUOUS
10
5.5243966929133856
20
-5.0328863779527557
11
5.5206471653543305
21
-5.0216377952755904
0
LINE
8
BLACK
6
CONTINUOUS
10
5.5206471653543305
20
-5.0216377952755904
11
5.5168976377952754
21
-5.0028901181102361
0
LINE
8
BLACK
6
CONTINUOUS
10
5.5168976377952754
20
-5.0028901181102361
11
5.5168976377952754
21
-4.9878920078740157
0
LINE
8
BLACK
6
CONTINUOUS
10
5.5168976377952754
20
-4.9878920078740157
11
5.5206471653543305
21
-4.9691443307086614
0
LINE
8
BLACK
6
CONTINUOUS
10
5.5206471653543305
20
-4.9691443307086614
11
5.5243966929133856
21
-4.957895748031496
0
LINE
8
BLACK
6
CONTINUOUS
10
5.5243966929133856
20
-4.957895748031496
11
5.5281462204724408
21
-4.9503966929133858
0
LINE
8
BLACK
6
CONTINUOUS
10
5.5281462204724408
20
-4.9503966929133858
11
5.535645275590551
21
-4.9391480708661417
0
LINE
8
BLACK
6
CONTINUOUS
10
5.535645275590551
20
-4.9391480708661417
11
5.5393948425196848
21
-4.9353985433070866
0
LINE
8
BLACK
6
CONTINUOUS
10
5.5618920078740155
20
-4.9466471653543307
11
5.6106359055118107
21
-4.9466471653543307
0
LINE
8
BLACK
6
CONTINUOUS
10
5.6106359055118107
20
-4.9466471653543307
11
5.5843891732283462
21
-4.9766433858267716
0
LINE
8
BLACK
6
CONTINUOUS
10
5.5843891732283462
20
-4.9766433858267716
11
5.5956377952755902
21
-4.9766433858267716
0
LINE
8
BLACK
6
CONTINUOUS
10
5.5956377952755902
20
-4.9766433858267716
11
5.6031368503937005
21
-4.9803929133858267
0
LINE
8
BLACK
6
CONTINUOUS
10
5.6031368503937005
20
-4.9803929133858267
11
5.6068863779527556
21
-4.9841424803149605
0
LINE
8
BLACK
6
CONTINUOUS
10
5.6068863779527556
20
-4.9841424803149605
11
5.6106359055118107
21
-4.9916415354330708
0
LINE
8
BLACK
6
CONTINUOUS
10
5.6106359055118107
20
-4.9916415354330708
11
5.6106359055118107
21
-5.0103891732283463
0
LINE
8
BLACK
6
CONTINUOUS
10
5.6106359055118107
20
-5.0103891732283463
11
5.6068863779527556
21
-5.0178882283464565
0
LINE
8
BLACK
6
CONTINUOUS
10
5.6068863779527556
20
-5.0178882283464565
11
5.6031368503937005
21
-5.0216377952755904
0
LINE
8
BLACK
6
CONTINUOUS
10
5.6031368503937005
20
-5.0216377952755904
11
5.5956377952755902
21
-5.0253873228346455
0
LINE
8
BLACK
6
CONTINUOUS
10
5.5956377952755902
20
-5.0253873228346455
11
5.5731405905511808
21
-5.0253873228346455
0
LINE
8
BLACK
6
CONTINUOUS
10
5.5731405905511808
20
-5.0253873228346455
11
5.5656415354330706
21
-5.0216377952755904
0
LINE
8
BLACK
6
CONTINUOUS
10
5.5656415354330706
20
-5.0216377952755904
11
5.5618920078740155
21
-5.0178882283464565
0
LINE
8
BLACK
6
CONTINUOUS
10
5.7043742125984247
20
-5.0253873228346455
11
5.7043742125984247
21
-4.9466471653543307
0
LINE
8
BLACK
6
CONTINUOUS
10
5.7381199999999994
20
-5.0253873228346455
11
5.7381199999999994
21
-4.9841424803149605
0
LINE
8
BLACK
6
CONTINUOUS
10
5.7381199999999994
20
-4.9841424803149605
11
5.7343704724409443
21
-4.9766433858267716
0
LINE
8
BLACK
6
CONTINUOUS
10
5.7343704724409443
20
-4.9766433858267716
11
5.7268714173228341
21
-4.9728938582677165
0
LINE
8
BLACK
6
CONTINUOUS
10
5.7268714173228341
20
-4.9728938582677165
11
5.71562279527559
21
-4.9728938582677165
0
LINE
8
BLACK
6
CONTINUOUS
10
5.71562279527559
20
-4.9728938582677165
11
5.7081237401574798
21
-4.9766433858267716
0
LINE
8
BLACK
6
CONTINUOUS
10
5.7081237401574798
20
-4.9766433858267716
11
5.7043742125984247
21
-4.9803929133858267
0
LINE
8
BLACK
6
CONTINUOUS
10
5.7868638976377955
20
-5.0253873228346455
11
5.7793648425196853
21
-5.0216377952755904
0
LINE
8
BLACK
6
CONTINUOUS
10
5.7793648425196853
20
-5.0216377952755904
11
5.7756153149606302
21
-5.0178882283464565
0
LINE
8
BLACK
6
CONTINUOUS
10
5.7756153149606302
20
-5.0178882283464565
11
5.7718657874015751
21
-5.0103891732283463
0
LINE
8
BLACK
6
CONTINUOUS
10
5.7718657874015751
20
-5.0103891732283463
11
5.7718657874015751
21
-4.9878920078740157
0
LINE
8
BLACK
6
CONTINUOUS
10
5.7718657874015751
20
-4.9878920078740157
11
5.7756153149606302
21
-4.9803929133858267
0
LINE
8
BLACK
6
CONTINUOUS
10
5.7756153149606302
20
-4.9803929133858267
11
5.7793648425196853
21
-4.9766433858267716
0
LINE
8
BLACK
6
CONTINUOUS
10
5.7793648425196853
20
-4.9766433858267716
11
5.7868638976377955
21
-4.9728938582677165
0
LINE
8
BLACK
6
CONTINUOUS
10
5.7868638976377955
20
-4.9728938582677165
11
5.7981125196850396
21
-4.9728938582677165
0
LINE
8
BLACK
6
CONTINUOUS
10
5.7981125196850396
20
-4.9728938582677165
11
5.8056115748031498
21
-4.9766433858267716
0
LINE
8
BLACK
6
CONTINUOUS
10
5.8056115748031498
20
-4.9766433858267716
11
5.8093611023622049
21
-4.9803929133858267
0
LINE
8
BLACK
6
CONTINUOUS
10
5.8093611023622049
20
-4.9803929133858267
11
5.81311062992126
21
-4.9878920078740157
0
LINE
8
BLACK
6
CONTINUOUS
10
5.81311062992126
20
-4.9878920078740157
11
5.81311062992126
21
-5.0103891732283463
0
LINE
8
BLACK
6
CONTINUOUS
10
5.81311062992126
20
-5.0103891732283463
11
5.8093611023622049
21
-5.0178882283464565
0
LINE
8
BLACK
6
CONTINUOUS
10
5.8093611023622049
20
-5.0178882283464565
11
5.8056115748031498
21
-5.0216377952755904
0
LINE
8
BLACK
6
CONTINUOUS
10
5.8056115748031498
20
-5.0216377952755904
11
5.7981125196850396
21
-5.0253873228346455
0
LINE
8
BLACK
6
CONTINUOUS
10
5.7981125196850396
20
-5.0253873228346455
11
5.7868638976377955
21
-5.0253873228346455
0
LINE
8
BLACK
6
CONTINUOUS
10
5.8581050000000001
20
-5.0253873228346455
11
5.8506059448818899
21
-5.0216377952755904
0
LINE
8
BLACK
6
CONTINUOUS
10
5.8506059448818899
20
-5.0216377952755904
11
5.8468564173228348
21
-5.0141387007874014
0
LINE
8
BLACK
6
CONTINUOUS
10
5.8468564173228348
20
-5.0141387007874014
11
5.8468564173228348
21
-4.9466471653543307
0
LINE
8
BLACK
6
CONTINUOUS
10
5.9180975196850394
20
-5.0216377952755904
11
5.9105984645669292
21
-5.0253873228346455
0
LINE
8
BLACK
6
CONTINUOUS
10
5.9105984645669292
20
-5.0253873228346455
11
5.89560031496063
21
-5.0253873228346455
0
LINE
8
BLACK
6
CONTINUOUS
10
5.89560031496063
20
-5.0253873228346455
11
5.8881012598425198
21
-5.0216377952755904
0
LINE
8
BLACK
6
CONTINUOUS
10
5.8881012598425198
20
-5.0216377952755904
11
5.8843517322834646
21
-5.0141387007874014
0
LINE
8
BLACK
6
CONTINUOUS
10
5.8843517322834646
20
-5.0141387007874014
11
5.8843517322834646
21
-4.9841424803149605
0
LINE
8
BLACK
6
CONTINUOUS
10
5.8843517322834646
20
-4.9841424803149605
11
5.8881012598425198
21
-4.9766433858267716
0
LINE
8
BLACK
6
CONTINUOUS
10
5.8881012598425198
20
-4.9766433858267716
11
5.89560031496063
21
-4.9728938582677165
0
LINE
8
BLACK
6
CONTINUOUS
10
5.89560031496063
20
-4.9728938582677165
11
5.9105984645669292
21
-4.9728938582677165
0
LINE
8
BLACK
6
CONTINUOUS
10
5.9105984645669292
20
-4.9728938582677165
11
5.9180975196850394
21
-4.9766433858267716
0
LINE
8
BLACK
6
CONTINUOUS
10
5.9180975196850394
20
-4.9766433858267716
11
5.9218470472440945
21
-4.9841424803149605
0
LINE
8
BLACK
6
CONTINUOUS
10
5.9218470472440945
20
-4.9841424803149605
11
5.9218470472440945
21
-4.9916415354330708
0
LINE
8
BLACK
6
CONTINUOUS
10
5.9218470472440945
20
-4.9916415354330708
11
5.8843517322834646
21
-4.999140590551181
0
LINE
8
BLACK
6
CONTINUOUS
10
5.9518433070866141
20
-5.0216377952755904
11
5.9593423622047244
21
-5.0253873228346455
0
LINE
8
BLACK
6
CONTINUOUS
10
5.9593423622047244
20
-5.0253873228346455
11
5.9743404724409448
21
-5.0253873228346455
0
LINE
8
BLACK
6
CONTINUOUS
10
5.9743404724409448
20
-5.0253873228346455
11
5.9818395669291338
21
-5.0216377952755904
0
LINE
8
BLACK
6
CONTINUOUS
10
5.9818395669291338
20
-5.0216377952755904
11
5.9855890944881889
21
-5.0141387007874014
0
LINE
8
BLACK
6
CONTINUOUS
10
5.9855890944881889
20
-5.0141387007874014
11
5.9855890944881889
21
-5.0103891732283463
0
LINE
8
BLACK
6
CONTINUOUS
10
5.9855890944881889
20
-5.0103891732283463
11
5.9818395669291338
21
-5.0028901181102361
0
LINE
8
BLACK
6
CONTINUOUS
10
5.9818395669291338
20
-5.0028901181102361
11
5.9743404724409448
21
-4.999140590551181
0
LINE
8
BLACK
6
CONTINUOUS
10
5.9743404724409448
20
-4.999140590551181
11
5.9630918897637795
21
-4.999140590551181
0
LINE
8
BLACK
6
CONTINUOUS
10
5.9630918897637795
20
-4.999140590551181
11
5.9555928346456692
21
-4.9953910629921259
0
LINE
8
BLACK
6
CONTINUOUS
10
5.9555928346456692
20
-4.9953910629921259
11
5.9518433070866141
21
-4.9878920078740157
0
LINE
8
BLACK
6
CONTINUOUS
10
5.9518433070866141
20
-4.9878920078740157
11
5.9518433070866141
21
-4.9841424803149605
0
LINE
8
BLACK
6
CONTINUOUS
10
5.9518433070866141
20
-4.9841424803149605
11
5.9555928346456692
21
-4.9766433858267716
0
LINE
8
BLACK
6
CONTINUOUS
10
5.9555928346456692
20
-4.9766433858267716
11
5.9630918897637795
21
-4.9728938582677165
0
LINE
8
BLACK
6
CONTINUOUS
10
5.9630918897637795
20
-4.9728938582677165
11
5.9743404724409448
21
-4.9728938582677165
0
LINE
8
BLACK
6
CONTINUOUS
10
5.9743404724409448
20
-4.9728938582677165
11
5.9818395669291338
21
-4.9766433858267716
0
LINE
8
BLACK
6
CONTINUOUS
10
6.0118358267716534
20
-5.0553835433070864
11
6.0155853543307085
21
-5.0516340157480313
0
LINE
8
BLACK
6
CONTINUOUS
10
6.0155853543307085
20
-5.0516340157480313
11
6.0230844094488187
21
-5.040385433070866
0
LINE
8
BLACK
6
CONTINUOUS
10
6.0230844094488187
20
-5.040385433070866
11
6.0268339370078738
21
-5.0328863779527557
0
LINE
8
BLACK
6
CONTINUOUS
10
6.0268339370078738
20
-5.0328863779527557
11
6.030583464566929
21
-5.0216377952755904
0
LINE
8
BLACK
6
CONTINUOUS
10
6.030583464566929
20
-5.0216377952755904
11
6.0343329921259841
21
-5.0028901181102361
0
LINE
8
BLACK
6
CONTINUOUS
10
6.0343329921259841
20
-5.0028901181102361
11
6.0343329921259841
21
-4.9878920078740157
0
LINE
8
BLACK
6
CONTINUOUS
10
6.0343329921259841
20
-4.9878920078740157
11
6.030583464566929
21
-4.9691443307086614
0
LINE
8
BLACK
6
CONTINUOUS
10
6.030583464566929
20
-4.9691443307086614
11
6.0268339370078738
21
-4.957895748031496
0
LINE
8
BLACK
6
CONTINUOUS
10
6.0268339370078738
20
-4.957895748031496
11
6.0230844094488187
21
-4.9503966929133858
0
LINE
8
BLACK
6
CONTINUOUS
10
6.0230844094488187
20
-4.9503966929133858
11
6.0155853543307085
21
-4.9391480708661417
0
LINE
8
BLACK
6
CONTINUOUS
10
6.0155853543307085
20
-4.9391480708661417
11
6.0118358267716534
21
-4.9353985433070866
  0
ENDSEC
  0
EOF
