%TF.GenerationSoftware,KiCad,Pcbnew,7.0.9*%
%TF.CreationDate,2024-01-10T14:10:15+01:00*%
%TF.ProjectId,ControlLineApp,436f6e74-726f-46c4-9c69-6e654170702e,1.0.1*%
%TF.SameCoordinates,Original*%
%TF.FileFunction,Drillmap*%
%TF.FilePolarity,Positive*%
%FSLAX45Y45*%
G04 Gerber Fmt 4.5, Leading zero omitted, Abs format (unit mm)*
G04 Created by KiCad (PCBNEW 7.0.9) date 2024-01-10 14:10:15*
%MOMM*%
%LPD*%
G01*
G04 APERTURE LIST*
%ADD10C,0.100000*%
%ADD11C,0.200000*%
G04 APERTURE END LIST*
D10*
X10500000Y-8600000D02*
X16800000Y-8600000D01*
X16800000Y-11500000D01*
X10500000Y-11500000D01*
X10500000Y-8600000D01*
D11*
X10755777Y-11816484D02*
X10755777Y-11616484D01*
X10755777Y-11616484D02*
X10803396Y-11616484D01*
X10803396Y-11616484D02*
X10831967Y-11626008D01*
X10831967Y-11626008D02*
X10851015Y-11645055D01*
X10851015Y-11645055D02*
X10860539Y-11664103D01*
X10860539Y-11664103D02*
X10870063Y-11702198D01*
X10870063Y-11702198D02*
X10870063Y-11730769D01*
X10870063Y-11730769D02*
X10860539Y-11768865D01*
X10860539Y-11768865D02*
X10851015Y-11787912D01*
X10851015Y-11787912D02*
X10831967Y-11806960D01*
X10831967Y-11806960D02*
X10803396Y-11816484D01*
X10803396Y-11816484D02*
X10755777Y-11816484D01*
X10955777Y-11816484D02*
X10955777Y-11683150D01*
X10955777Y-11721246D02*
X10965301Y-11702198D01*
X10965301Y-11702198D02*
X10974824Y-11692674D01*
X10974824Y-11692674D02*
X10993872Y-11683150D01*
X10993872Y-11683150D02*
X11012920Y-11683150D01*
X11079586Y-11816484D02*
X11079586Y-11683150D01*
X11079586Y-11616484D02*
X11070063Y-11626008D01*
X11070063Y-11626008D02*
X11079586Y-11635531D01*
X11079586Y-11635531D02*
X11089110Y-11626008D01*
X11089110Y-11626008D02*
X11079586Y-11616484D01*
X11079586Y-11616484D02*
X11079586Y-11635531D01*
X11203396Y-11816484D02*
X11184348Y-11806960D01*
X11184348Y-11806960D02*
X11174824Y-11787912D01*
X11174824Y-11787912D02*
X11174824Y-11616484D01*
X11308158Y-11816484D02*
X11289110Y-11806960D01*
X11289110Y-11806960D02*
X11279586Y-11787912D01*
X11279586Y-11787912D02*
X11279586Y-11616484D01*
X11536729Y-11816484D02*
X11536729Y-11616484D01*
X11536729Y-11616484D02*
X11603396Y-11759341D01*
X11603396Y-11759341D02*
X11670062Y-11616484D01*
X11670062Y-11616484D02*
X11670062Y-11816484D01*
X11851015Y-11816484D02*
X11851015Y-11711722D01*
X11851015Y-11711722D02*
X11841491Y-11692674D01*
X11841491Y-11692674D02*
X11822443Y-11683150D01*
X11822443Y-11683150D02*
X11784348Y-11683150D01*
X11784348Y-11683150D02*
X11765301Y-11692674D01*
X11851015Y-11806960D02*
X11831967Y-11816484D01*
X11831967Y-11816484D02*
X11784348Y-11816484D01*
X11784348Y-11816484D02*
X11765301Y-11806960D01*
X11765301Y-11806960D02*
X11755777Y-11787912D01*
X11755777Y-11787912D02*
X11755777Y-11768865D01*
X11755777Y-11768865D02*
X11765301Y-11749817D01*
X11765301Y-11749817D02*
X11784348Y-11740293D01*
X11784348Y-11740293D02*
X11831967Y-11740293D01*
X11831967Y-11740293D02*
X11851015Y-11730769D01*
X11946253Y-11683150D02*
X11946253Y-11883150D01*
X11946253Y-11692674D02*
X11965301Y-11683150D01*
X11965301Y-11683150D02*
X12003396Y-11683150D01*
X12003396Y-11683150D02*
X12022443Y-11692674D01*
X12022443Y-11692674D02*
X12031967Y-11702198D01*
X12031967Y-11702198D02*
X12041491Y-11721246D01*
X12041491Y-11721246D02*
X12041491Y-11778388D01*
X12041491Y-11778388D02*
X12031967Y-11797436D01*
X12031967Y-11797436D02*
X12022443Y-11806960D01*
X12022443Y-11806960D02*
X12003396Y-11816484D01*
X12003396Y-11816484D02*
X11965301Y-11816484D01*
X11965301Y-11816484D02*
X11946253Y-11806960D01*
X12127205Y-11797436D02*
X12136729Y-11806960D01*
X12136729Y-11806960D02*
X12127205Y-11816484D01*
X12127205Y-11816484D02*
X12117682Y-11806960D01*
X12117682Y-11806960D02*
X12127205Y-11797436D01*
X12127205Y-11797436D02*
X12127205Y-11816484D01*
X12127205Y-11692674D02*
X12136729Y-11702198D01*
X12136729Y-11702198D02*
X12127205Y-11711722D01*
X12127205Y-11711722D02*
X12117682Y-11702198D01*
X12117682Y-11702198D02*
X12127205Y-11692674D01*
X12127205Y-11692674D02*
X12127205Y-11711722D01*
M02*
