%TF.GenerationSoftware,KiCad,Pcbnew,7.0.9*%
%TF.CreationDate,2024-01-10T14:09:04+01:00*%
%TF.ProjectId,ControlLineApp,436f6e74-726f-46c4-9c69-6e654170702e,1.0.1*%
%TF.SameCoordinates,Original*%
%TF.FileFunction,Legend,Bot*%
%TF.FilePolarity,Positive*%
%FSLAX46Y46*%
G04 Gerber Fmt 4.6, Leading zero omitted, Abs format (unit mm)*
G04 Created by KiCad (PCBNEW 7.0.9) date 2024-01-10 14:09:04*
%MOMM*%
%LPD*%
G01*
G04 APERTURE LIST*
%ADD10C,0.150000*%
%ADD11C,0.120000*%
G04 APERTURE END LIST*
D10*
X152301411Y-110845438D02*
X152396649Y-110797819D01*
X152396649Y-110797819D02*
X152539506Y-110797819D01*
X152539506Y-110797819D02*
X152682363Y-110845438D01*
X152682363Y-110845438D02*
X152777601Y-110940676D01*
X152777601Y-110940676D02*
X152825220Y-111035914D01*
X152825220Y-111035914D02*
X152872839Y-111226390D01*
X152872839Y-111226390D02*
X152872839Y-111369247D01*
X152872839Y-111369247D02*
X152825220Y-111559723D01*
X152825220Y-111559723D02*
X152777601Y-111654961D01*
X152777601Y-111654961D02*
X152682363Y-111750200D01*
X152682363Y-111750200D02*
X152539506Y-111797819D01*
X152539506Y-111797819D02*
X152444268Y-111797819D01*
X152444268Y-111797819D02*
X152301411Y-111750200D01*
X152301411Y-111750200D02*
X152253792Y-111702580D01*
X152253792Y-111702580D02*
X152253792Y-111369247D01*
X152253792Y-111369247D02*
X152444268Y-111369247D01*
X151444268Y-111750200D02*
X151539506Y-111797819D01*
X151539506Y-111797819D02*
X151729982Y-111797819D01*
X151729982Y-111797819D02*
X151825220Y-111750200D01*
X151825220Y-111750200D02*
X151872839Y-111654961D01*
X151872839Y-111654961D02*
X151872839Y-111274009D01*
X151872839Y-111274009D02*
X151825220Y-111178771D01*
X151825220Y-111178771D02*
X151729982Y-111131152D01*
X151729982Y-111131152D02*
X151539506Y-111131152D01*
X151539506Y-111131152D02*
X151444268Y-111178771D01*
X151444268Y-111178771D02*
X151396649Y-111274009D01*
X151396649Y-111274009D02*
X151396649Y-111369247D01*
X151396649Y-111369247D02*
X151872839Y-111464485D01*
X150968077Y-111797819D02*
X150968077Y-111131152D01*
X150968077Y-110797819D02*
X151015696Y-110845438D01*
X151015696Y-110845438D02*
X150968077Y-110893057D01*
X150968077Y-110893057D02*
X150920458Y-110845438D01*
X150920458Y-110845438D02*
X150968077Y-110797819D01*
X150968077Y-110797819D02*
X150968077Y-110893057D01*
X150110935Y-111750200D02*
X150206173Y-111797819D01*
X150206173Y-111797819D02*
X150396649Y-111797819D01*
X150396649Y-111797819D02*
X150491887Y-111750200D01*
X150491887Y-111750200D02*
X150539506Y-111654961D01*
X150539506Y-111654961D02*
X150539506Y-111274009D01*
X150539506Y-111274009D02*
X150491887Y-111178771D01*
X150491887Y-111178771D02*
X150396649Y-111131152D01*
X150396649Y-111131152D02*
X150206173Y-111131152D01*
X150206173Y-111131152D02*
X150110935Y-111178771D01*
X150110935Y-111178771D02*
X150063316Y-111274009D01*
X150063316Y-111274009D02*
X150063316Y-111369247D01*
X150063316Y-111369247D02*
X150539506Y-111464485D01*
X149634744Y-111797819D02*
X149634744Y-111131152D01*
X149634744Y-111321628D02*
X149587125Y-111226390D01*
X149587125Y-111226390D02*
X149539506Y-111178771D01*
X149539506Y-111178771D02*
X149444268Y-111131152D01*
X149444268Y-111131152D02*
X149349030Y-111131152D01*
X149110934Y-111131152D02*
X148920458Y-111797819D01*
X148920458Y-111797819D02*
X148729982Y-111321628D01*
X148729982Y-111321628D02*
X148539506Y-111797819D01*
X148539506Y-111797819D02*
X148349030Y-111131152D01*
X147539506Y-111797819D02*
X147539506Y-111274009D01*
X147539506Y-111274009D02*
X147587125Y-111178771D01*
X147587125Y-111178771D02*
X147682363Y-111131152D01*
X147682363Y-111131152D02*
X147872839Y-111131152D01*
X147872839Y-111131152D02*
X147968077Y-111178771D01*
X147539506Y-111750200D02*
X147634744Y-111797819D01*
X147634744Y-111797819D02*
X147872839Y-111797819D01*
X147872839Y-111797819D02*
X147968077Y-111750200D01*
X147968077Y-111750200D02*
X148015696Y-111654961D01*
X148015696Y-111654961D02*
X148015696Y-111559723D01*
X148015696Y-111559723D02*
X147968077Y-111464485D01*
X147968077Y-111464485D02*
X147872839Y-111416866D01*
X147872839Y-111416866D02*
X147634744Y-111416866D01*
X147634744Y-111416866D02*
X147539506Y-111369247D01*
X146920458Y-111797819D02*
X147015696Y-111750200D01*
X147015696Y-111750200D02*
X147063315Y-111654961D01*
X147063315Y-111654961D02*
X147063315Y-110797819D01*
X146396648Y-111797819D02*
X146491886Y-111750200D01*
X146491886Y-111750200D02*
X146539505Y-111654961D01*
X146539505Y-111654961D02*
X146539505Y-110797819D01*
X146110933Y-111131152D02*
X145872838Y-111797819D01*
X145634743Y-111131152D02*
X145872838Y-111797819D01*
X145872838Y-111797819D02*
X145968076Y-112035914D01*
X145968076Y-112035914D02*
X146015695Y-112083533D01*
X146015695Y-112083533D02*
X146110933Y-112131152D01*
X145206171Y-110797819D02*
X145301409Y-110988295D01*
X144825219Y-111750200D02*
X144729981Y-111797819D01*
X144729981Y-111797819D02*
X144539505Y-111797819D01*
X144539505Y-111797819D02*
X144444267Y-111750200D01*
X144444267Y-111750200D02*
X144396648Y-111654961D01*
X144396648Y-111654961D02*
X144396648Y-111607342D01*
X144396648Y-111607342D02*
X144444267Y-111512104D01*
X144444267Y-111512104D02*
X144539505Y-111464485D01*
X144539505Y-111464485D02*
X144682362Y-111464485D01*
X144682362Y-111464485D02*
X144777600Y-111416866D01*
X144777600Y-111416866D02*
X144825219Y-111321628D01*
X144825219Y-111321628D02*
X144825219Y-111274009D01*
X144825219Y-111274009D02*
X144777600Y-111178771D01*
X144777600Y-111178771D02*
X144682362Y-111131152D01*
X144682362Y-111131152D02*
X144539505Y-111131152D01*
X144539505Y-111131152D02*
X144444267Y-111178771D01*
X142634743Y-111702580D02*
X142682362Y-111750200D01*
X142682362Y-111750200D02*
X142825219Y-111797819D01*
X142825219Y-111797819D02*
X142920457Y-111797819D01*
X142920457Y-111797819D02*
X143063314Y-111750200D01*
X143063314Y-111750200D02*
X143158552Y-111654961D01*
X143158552Y-111654961D02*
X143206171Y-111559723D01*
X143206171Y-111559723D02*
X143253790Y-111369247D01*
X143253790Y-111369247D02*
X143253790Y-111226390D01*
X143253790Y-111226390D02*
X143206171Y-111035914D01*
X143206171Y-111035914D02*
X143158552Y-110940676D01*
X143158552Y-110940676D02*
X143063314Y-110845438D01*
X143063314Y-110845438D02*
X142920457Y-110797819D01*
X142920457Y-110797819D02*
X142825219Y-110797819D01*
X142825219Y-110797819D02*
X142682362Y-110845438D01*
X142682362Y-110845438D02*
X142634743Y-110893057D01*
X142063314Y-111797819D02*
X142158552Y-111750200D01*
X142158552Y-111750200D02*
X142206171Y-111702580D01*
X142206171Y-111702580D02*
X142253790Y-111607342D01*
X142253790Y-111607342D02*
X142253790Y-111321628D01*
X142253790Y-111321628D02*
X142206171Y-111226390D01*
X142206171Y-111226390D02*
X142158552Y-111178771D01*
X142158552Y-111178771D02*
X142063314Y-111131152D01*
X142063314Y-111131152D02*
X141920457Y-111131152D01*
X141920457Y-111131152D02*
X141825219Y-111178771D01*
X141825219Y-111178771D02*
X141777600Y-111226390D01*
X141777600Y-111226390D02*
X141729981Y-111321628D01*
X141729981Y-111321628D02*
X141729981Y-111607342D01*
X141729981Y-111607342D02*
X141777600Y-111702580D01*
X141777600Y-111702580D02*
X141825219Y-111750200D01*
X141825219Y-111750200D02*
X141920457Y-111797819D01*
X141920457Y-111797819D02*
X142063314Y-111797819D01*
X141301409Y-111131152D02*
X141301409Y-111797819D01*
X141301409Y-111226390D02*
X141253790Y-111178771D01*
X141253790Y-111178771D02*
X141158552Y-111131152D01*
X141158552Y-111131152D02*
X141015695Y-111131152D01*
X141015695Y-111131152D02*
X140920457Y-111178771D01*
X140920457Y-111178771D02*
X140872838Y-111274009D01*
X140872838Y-111274009D02*
X140872838Y-111797819D01*
X140539504Y-111131152D02*
X140158552Y-111131152D01*
X140396647Y-110797819D02*
X140396647Y-111654961D01*
X140396647Y-111654961D02*
X140349028Y-111750200D01*
X140349028Y-111750200D02*
X140253790Y-111797819D01*
X140253790Y-111797819D02*
X140158552Y-111797819D01*
X139825218Y-111797819D02*
X139825218Y-111131152D01*
X139825218Y-111321628D02*
X139777599Y-111226390D01*
X139777599Y-111226390D02*
X139729980Y-111178771D01*
X139729980Y-111178771D02*
X139634742Y-111131152D01*
X139634742Y-111131152D02*
X139539504Y-111131152D01*
X139063313Y-111797819D02*
X139158551Y-111750200D01*
X139158551Y-111750200D02*
X139206170Y-111702580D01*
X139206170Y-111702580D02*
X139253789Y-111607342D01*
X139253789Y-111607342D02*
X139253789Y-111321628D01*
X139253789Y-111321628D02*
X139206170Y-111226390D01*
X139206170Y-111226390D02*
X139158551Y-111178771D01*
X139158551Y-111178771D02*
X139063313Y-111131152D01*
X139063313Y-111131152D02*
X138920456Y-111131152D01*
X138920456Y-111131152D02*
X138825218Y-111178771D01*
X138825218Y-111178771D02*
X138777599Y-111226390D01*
X138777599Y-111226390D02*
X138729980Y-111321628D01*
X138729980Y-111321628D02*
X138729980Y-111607342D01*
X138729980Y-111607342D02*
X138777599Y-111702580D01*
X138777599Y-111702580D02*
X138825218Y-111750200D01*
X138825218Y-111750200D02*
X138920456Y-111797819D01*
X138920456Y-111797819D02*
X139063313Y-111797819D01*
X138158551Y-111797819D02*
X138253789Y-111750200D01*
X138253789Y-111750200D02*
X138301408Y-111654961D01*
X138301408Y-111654961D02*
X138301408Y-110797819D01*
X137301408Y-111797819D02*
X137777598Y-111797819D01*
X137777598Y-111797819D02*
X137777598Y-110797819D01*
X136968074Y-111797819D02*
X136968074Y-111131152D01*
X136968074Y-110797819D02*
X137015693Y-110845438D01*
X137015693Y-110845438D02*
X136968074Y-110893057D01*
X136968074Y-110893057D02*
X136920455Y-110845438D01*
X136920455Y-110845438D02*
X136968074Y-110797819D01*
X136968074Y-110797819D02*
X136968074Y-110893057D01*
X136491884Y-111131152D02*
X136491884Y-111797819D01*
X136491884Y-111226390D02*
X136444265Y-111178771D01*
X136444265Y-111178771D02*
X136349027Y-111131152D01*
X136349027Y-111131152D02*
X136206170Y-111131152D01*
X136206170Y-111131152D02*
X136110932Y-111178771D01*
X136110932Y-111178771D02*
X136063313Y-111274009D01*
X136063313Y-111274009D02*
X136063313Y-111797819D01*
X135206170Y-111750200D02*
X135301408Y-111797819D01*
X135301408Y-111797819D02*
X135491884Y-111797819D01*
X135491884Y-111797819D02*
X135587122Y-111750200D01*
X135587122Y-111750200D02*
X135634741Y-111654961D01*
X135634741Y-111654961D02*
X135634741Y-111274009D01*
X135634741Y-111274009D02*
X135587122Y-111178771D01*
X135587122Y-111178771D02*
X135491884Y-111131152D01*
X135491884Y-111131152D02*
X135301408Y-111131152D01*
X135301408Y-111131152D02*
X135206170Y-111178771D01*
X135206170Y-111178771D02*
X135158551Y-111274009D01*
X135158551Y-111274009D02*
X135158551Y-111369247D01*
X135158551Y-111369247D02*
X135634741Y-111464485D01*
X134777598Y-111512104D02*
X134301408Y-111512104D01*
X134872836Y-111797819D02*
X134539503Y-110797819D01*
X134539503Y-110797819D02*
X134206170Y-111797819D01*
X133872836Y-111131152D02*
X133872836Y-112131152D01*
X133872836Y-111178771D02*
X133777598Y-111131152D01*
X133777598Y-111131152D02*
X133587122Y-111131152D01*
X133587122Y-111131152D02*
X133491884Y-111178771D01*
X133491884Y-111178771D02*
X133444265Y-111226390D01*
X133444265Y-111226390D02*
X133396646Y-111321628D01*
X133396646Y-111321628D02*
X133396646Y-111607342D01*
X133396646Y-111607342D02*
X133444265Y-111702580D01*
X133444265Y-111702580D02*
X133491884Y-111750200D01*
X133491884Y-111750200D02*
X133587122Y-111797819D01*
X133587122Y-111797819D02*
X133777598Y-111797819D01*
X133777598Y-111797819D02*
X133872836Y-111750200D01*
X132968074Y-111131152D02*
X132968074Y-112131152D01*
X132968074Y-111178771D02*
X132872836Y-111131152D01*
X132872836Y-111131152D02*
X132682360Y-111131152D01*
X132682360Y-111131152D02*
X132587122Y-111178771D01*
X132587122Y-111178771D02*
X132539503Y-111226390D01*
X132539503Y-111226390D02*
X132491884Y-111321628D01*
X132491884Y-111321628D02*
X132491884Y-111607342D01*
X132491884Y-111607342D02*
X132539503Y-111702580D01*
X132539503Y-111702580D02*
X132587122Y-111750200D01*
X132587122Y-111750200D02*
X132682360Y-111797819D01*
X132682360Y-111797819D02*
X132872836Y-111797819D01*
X132872836Y-111797819D02*
X132968074Y-111750200D01*
X152253792Y-113407819D02*
X152587125Y-112931628D01*
X152825220Y-113407819D02*
X152825220Y-112407819D01*
X152825220Y-112407819D02*
X152444268Y-112407819D01*
X152444268Y-112407819D02*
X152349030Y-112455438D01*
X152349030Y-112455438D02*
X152301411Y-112503057D01*
X152301411Y-112503057D02*
X152253792Y-112598295D01*
X152253792Y-112598295D02*
X152253792Y-112741152D01*
X152253792Y-112741152D02*
X152301411Y-112836390D01*
X152301411Y-112836390D02*
X152349030Y-112884009D01*
X152349030Y-112884009D02*
X152444268Y-112931628D01*
X152444268Y-112931628D02*
X152825220Y-112931628D01*
X151444268Y-113360200D02*
X151539506Y-113407819D01*
X151539506Y-113407819D02*
X151729982Y-113407819D01*
X151729982Y-113407819D02*
X151825220Y-113360200D01*
X151825220Y-113360200D02*
X151872839Y-113264961D01*
X151872839Y-113264961D02*
X151872839Y-112884009D01*
X151872839Y-112884009D02*
X151825220Y-112788771D01*
X151825220Y-112788771D02*
X151729982Y-112741152D01*
X151729982Y-112741152D02*
X151539506Y-112741152D01*
X151539506Y-112741152D02*
X151444268Y-112788771D01*
X151444268Y-112788771D02*
X151396649Y-112884009D01*
X151396649Y-112884009D02*
X151396649Y-112979247D01*
X151396649Y-112979247D02*
X151872839Y-113074485D01*
X151063315Y-112741152D02*
X150825220Y-113407819D01*
X150825220Y-113407819D02*
X150587125Y-112741152D01*
X149682363Y-113407819D02*
X150253791Y-113407819D01*
X149968077Y-113407819D02*
X149968077Y-112407819D01*
X149968077Y-112407819D02*
X150063315Y-112550676D01*
X150063315Y-112550676D02*
X150158553Y-112645914D01*
X150158553Y-112645914D02*
X150253791Y-112693533D01*
X149253791Y-113312580D02*
X149206172Y-113360200D01*
X149206172Y-113360200D02*
X149253791Y-113407819D01*
X149253791Y-113407819D02*
X149301410Y-113360200D01*
X149301410Y-113360200D02*
X149253791Y-113312580D01*
X149253791Y-113312580D02*
X149253791Y-113407819D01*
X148587125Y-112407819D02*
X148491887Y-112407819D01*
X148491887Y-112407819D02*
X148396649Y-112455438D01*
X148396649Y-112455438D02*
X148349030Y-112503057D01*
X148349030Y-112503057D02*
X148301411Y-112598295D01*
X148301411Y-112598295D02*
X148253792Y-112788771D01*
X148253792Y-112788771D02*
X148253792Y-113026866D01*
X148253792Y-113026866D02*
X148301411Y-113217342D01*
X148301411Y-113217342D02*
X148349030Y-113312580D01*
X148349030Y-113312580D02*
X148396649Y-113360200D01*
X148396649Y-113360200D02*
X148491887Y-113407819D01*
X148491887Y-113407819D02*
X148587125Y-113407819D01*
X148587125Y-113407819D02*
X148682363Y-113360200D01*
X148682363Y-113360200D02*
X148729982Y-113312580D01*
X148729982Y-113312580D02*
X148777601Y-113217342D01*
X148777601Y-113217342D02*
X148825220Y-113026866D01*
X148825220Y-113026866D02*
X148825220Y-112788771D01*
X148825220Y-112788771D02*
X148777601Y-112598295D01*
X148777601Y-112598295D02*
X148729982Y-112503057D01*
X148729982Y-112503057D02*
X148682363Y-112455438D01*
X148682363Y-112455438D02*
X148587125Y-112407819D01*
X147825220Y-113312580D02*
X147777601Y-113360200D01*
X147777601Y-113360200D02*
X147825220Y-113407819D01*
X147825220Y-113407819D02*
X147872839Y-113360200D01*
X147872839Y-113360200D02*
X147825220Y-113312580D01*
X147825220Y-113312580D02*
X147825220Y-113407819D01*
X146825221Y-113407819D02*
X147396649Y-113407819D01*
X147110935Y-113407819D02*
X147110935Y-112407819D01*
X147110935Y-112407819D02*
X147206173Y-112550676D01*
X147206173Y-112550676D02*
X147301411Y-112645914D01*
X147301411Y-112645914D02*
X147396649Y-112693533D01*
X135582819Y-101179333D02*
X135106628Y-100846000D01*
X135582819Y-100607905D02*
X134582819Y-100607905D01*
X134582819Y-100607905D02*
X134582819Y-100988857D01*
X134582819Y-100988857D02*
X134630438Y-101084095D01*
X134630438Y-101084095D02*
X134678057Y-101131714D01*
X134678057Y-101131714D02*
X134773295Y-101179333D01*
X134773295Y-101179333D02*
X134916152Y-101179333D01*
X134916152Y-101179333D02*
X135011390Y-101131714D01*
X135011390Y-101131714D02*
X135059009Y-101084095D01*
X135059009Y-101084095D02*
X135106628Y-100988857D01*
X135106628Y-100988857D02*
X135106628Y-100607905D01*
X134916152Y-102036476D02*
X135582819Y-102036476D01*
X134535200Y-101798381D02*
X135249485Y-101560286D01*
X135249485Y-101560286D02*
X135249485Y-102179333D01*
X158696819Y-100163333D02*
X158220628Y-99830000D01*
X158696819Y-99591905D02*
X157696819Y-99591905D01*
X157696819Y-99591905D02*
X157696819Y-99972857D01*
X157696819Y-99972857D02*
X157744438Y-100068095D01*
X157744438Y-100068095D02*
X157792057Y-100115714D01*
X157792057Y-100115714D02*
X157887295Y-100163333D01*
X157887295Y-100163333D02*
X158030152Y-100163333D01*
X158030152Y-100163333D02*
X158125390Y-100115714D01*
X158125390Y-100115714D02*
X158173009Y-100068095D01*
X158173009Y-100068095D02*
X158220628Y-99972857D01*
X158220628Y-99972857D02*
X158220628Y-99591905D01*
X157696819Y-100496667D02*
X157696819Y-101115714D01*
X157696819Y-101115714D02*
X158077771Y-100782381D01*
X158077771Y-100782381D02*
X158077771Y-100925238D01*
X158077771Y-100925238D02*
X158125390Y-101020476D01*
X158125390Y-101020476D02*
X158173009Y-101068095D01*
X158173009Y-101068095D02*
X158268247Y-101115714D01*
X158268247Y-101115714D02*
X158506342Y-101115714D01*
X158506342Y-101115714D02*
X158601580Y-101068095D01*
X158601580Y-101068095D02*
X158649200Y-101020476D01*
X158649200Y-101020476D02*
X158696819Y-100925238D01*
X158696819Y-100925238D02*
X158696819Y-100639524D01*
X158696819Y-100639524D02*
X158649200Y-100544286D01*
X158649200Y-100544286D02*
X158601580Y-100496667D01*
X142853580Y-100417333D02*
X142901200Y-100369714D01*
X142901200Y-100369714D02*
X142948819Y-100226857D01*
X142948819Y-100226857D02*
X142948819Y-100131619D01*
X142948819Y-100131619D02*
X142901200Y-99988762D01*
X142901200Y-99988762D02*
X142805961Y-99893524D01*
X142805961Y-99893524D02*
X142710723Y-99845905D01*
X142710723Y-99845905D02*
X142520247Y-99798286D01*
X142520247Y-99798286D02*
X142377390Y-99798286D01*
X142377390Y-99798286D02*
X142186914Y-99845905D01*
X142186914Y-99845905D02*
X142091676Y-99893524D01*
X142091676Y-99893524D02*
X141996438Y-99988762D01*
X141996438Y-99988762D02*
X141948819Y-100131619D01*
X141948819Y-100131619D02*
X141948819Y-100226857D01*
X141948819Y-100226857D02*
X141996438Y-100369714D01*
X141996438Y-100369714D02*
X142044057Y-100417333D01*
X142948819Y-101369714D02*
X142948819Y-100798286D01*
X142948819Y-101084000D02*
X141948819Y-101084000D01*
X141948819Y-101084000D02*
X142091676Y-100988762D01*
X142091676Y-100988762D02*
X142186914Y-100893524D01*
X142186914Y-100893524D02*
X142234533Y-100798286D01*
X161903580Y-100163333D02*
X161951200Y-100115714D01*
X161951200Y-100115714D02*
X161998819Y-99972857D01*
X161998819Y-99972857D02*
X161998819Y-99877619D01*
X161998819Y-99877619D02*
X161951200Y-99734762D01*
X161951200Y-99734762D02*
X161855961Y-99639524D01*
X161855961Y-99639524D02*
X161760723Y-99591905D01*
X161760723Y-99591905D02*
X161570247Y-99544286D01*
X161570247Y-99544286D02*
X161427390Y-99544286D01*
X161427390Y-99544286D02*
X161236914Y-99591905D01*
X161236914Y-99591905D02*
X161141676Y-99639524D01*
X161141676Y-99639524D02*
X161046438Y-99734762D01*
X161046438Y-99734762D02*
X160998819Y-99877619D01*
X160998819Y-99877619D02*
X160998819Y-99972857D01*
X160998819Y-99972857D02*
X161046438Y-100115714D01*
X161046438Y-100115714D02*
X161094057Y-100163333D01*
X160998819Y-100496667D02*
X160998819Y-101115714D01*
X160998819Y-101115714D02*
X161379771Y-100782381D01*
X161379771Y-100782381D02*
X161379771Y-100925238D01*
X161379771Y-100925238D02*
X161427390Y-101020476D01*
X161427390Y-101020476D02*
X161475009Y-101068095D01*
X161475009Y-101068095D02*
X161570247Y-101115714D01*
X161570247Y-101115714D02*
X161808342Y-101115714D01*
X161808342Y-101115714D02*
X161903580Y-101068095D01*
X161903580Y-101068095D02*
X161951200Y-101020476D01*
X161951200Y-101020476D02*
X161998819Y-100925238D01*
X161998819Y-100925238D02*
X161998819Y-100639524D01*
X161998819Y-100639524D02*
X161951200Y-100544286D01*
X161951200Y-100544286D02*
X161903580Y-100496667D01*
X151584819Y-101179333D02*
X151108628Y-100846000D01*
X151584819Y-100607905D02*
X150584819Y-100607905D01*
X150584819Y-100607905D02*
X150584819Y-100988857D01*
X150584819Y-100988857D02*
X150632438Y-101084095D01*
X150632438Y-101084095D02*
X150680057Y-101131714D01*
X150680057Y-101131714D02*
X150775295Y-101179333D01*
X150775295Y-101179333D02*
X150918152Y-101179333D01*
X150918152Y-101179333D02*
X151013390Y-101131714D01*
X151013390Y-101131714D02*
X151061009Y-101084095D01*
X151061009Y-101084095D02*
X151108628Y-100988857D01*
X151108628Y-100988857D02*
X151108628Y-100607905D01*
X150680057Y-101560286D02*
X150632438Y-101607905D01*
X150632438Y-101607905D02*
X150584819Y-101703143D01*
X150584819Y-101703143D02*
X150584819Y-101941238D01*
X150584819Y-101941238D02*
X150632438Y-102036476D01*
X150632438Y-102036476D02*
X150680057Y-102084095D01*
X150680057Y-102084095D02*
X150775295Y-102131714D01*
X150775295Y-102131714D02*
X150870533Y-102131714D01*
X150870533Y-102131714D02*
X151013390Y-102084095D01*
X151013390Y-102084095D02*
X151584819Y-101512667D01*
X151584819Y-101512667D02*
X151584819Y-102131714D01*
X141170819Y-100417333D02*
X140694628Y-100084000D01*
X141170819Y-99845905D02*
X140170819Y-99845905D01*
X140170819Y-99845905D02*
X140170819Y-100226857D01*
X140170819Y-100226857D02*
X140218438Y-100322095D01*
X140218438Y-100322095D02*
X140266057Y-100369714D01*
X140266057Y-100369714D02*
X140361295Y-100417333D01*
X140361295Y-100417333D02*
X140504152Y-100417333D01*
X140504152Y-100417333D02*
X140599390Y-100369714D01*
X140599390Y-100369714D02*
X140647009Y-100322095D01*
X140647009Y-100322095D02*
X140694628Y-100226857D01*
X140694628Y-100226857D02*
X140694628Y-99845905D01*
X141170819Y-101369714D02*
X141170819Y-100798286D01*
X141170819Y-101084000D02*
X140170819Y-101084000D01*
X140170819Y-101084000D02*
X140313676Y-100988762D01*
X140313676Y-100988762D02*
X140408914Y-100893524D01*
X140408914Y-100893524D02*
X140456533Y-100798286D01*
X136302819Y-103745333D02*
X135826628Y-103412000D01*
X136302819Y-103173905D02*
X135302819Y-103173905D01*
X135302819Y-103173905D02*
X135302819Y-103554857D01*
X135302819Y-103554857D02*
X135350438Y-103650095D01*
X135350438Y-103650095D02*
X135398057Y-103697714D01*
X135398057Y-103697714D02*
X135493295Y-103745333D01*
X135493295Y-103745333D02*
X135636152Y-103745333D01*
X135636152Y-103745333D02*
X135731390Y-103697714D01*
X135731390Y-103697714D02*
X135779009Y-103650095D01*
X135779009Y-103650095D02*
X135826628Y-103554857D01*
X135826628Y-103554857D02*
X135826628Y-103173905D01*
X135302819Y-104650095D02*
X135302819Y-104173905D01*
X135302819Y-104173905D02*
X135779009Y-104126286D01*
X135779009Y-104126286D02*
X135731390Y-104173905D01*
X135731390Y-104173905D02*
X135683771Y-104269143D01*
X135683771Y-104269143D02*
X135683771Y-104507238D01*
X135683771Y-104507238D02*
X135731390Y-104602476D01*
X135731390Y-104602476D02*
X135779009Y-104650095D01*
X135779009Y-104650095D02*
X135874247Y-104697714D01*
X135874247Y-104697714D02*
X136112342Y-104697714D01*
X136112342Y-104697714D02*
X136207580Y-104650095D01*
X136207580Y-104650095D02*
X136255200Y-104602476D01*
X136255200Y-104602476D02*
X136302819Y-104507238D01*
X136302819Y-104507238D02*
X136302819Y-104269143D01*
X136302819Y-104269143D02*
X136255200Y-104173905D01*
X136255200Y-104173905D02*
X136207580Y-104126286D01*
X155045580Y-100163333D02*
X155093200Y-100115714D01*
X155093200Y-100115714D02*
X155140819Y-99972857D01*
X155140819Y-99972857D02*
X155140819Y-99877619D01*
X155140819Y-99877619D02*
X155093200Y-99734762D01*
X155093200Y-99734762D02*
X154997961Y-99639524D01*
X154997961Y-99639524D02*
X154902723Y-99591905D01*
X154902723Y-99591905D02*
X154712247Y-99544286D01*
X154712247Y-99544286D02*
X154569390Y-99544286D01*
X154569390Y-99544286D02*
X154378914Y-99591905D01*
X154378914Y-99591905D02*
X154283676Y-99639524D01*
X154283676Y-99639524D02*
X154188438Y-99734762D01*
X154188438Y-99734762D02*
X154140819Y-99877619D01*
X154140819Y-99877619D02*
X154140819Y-99972857D01*
X154140819Y-99972857D02*
X154188438Y-100115714D01*
X154188438Y-100115714D02*
X154236057Y-100163333D01*
X154236057Y-100544286D02*
X154188438Y-100591905D01*
X154188438Y-100591905D02*
X154140819Y-100687143D01*
X154140819Y-100687143D02*
X154140819Y-100925238D01*
X154140819Y-100925238D02*
X154188438Y-101020476D01*
X154188438Y-101020476D02*
X154236057Y-101068095D01*
X154236057Y-101068095D02*
X154331295Y-101115714D01*
X154331295Y-101115714D02*
X154426533Y-101115714D01*
X154426533Y-101115714D02*
X154569390Y-101068095D01*
X154569390Y-101068095D02*
X155140819Y-100496667D01*
X155140819Y-100496667D02*
X155140819Y-101115714D01*
D11*
%TO.C,R4*%
X134091000Y-98289064D02*
X134091000Y-96834936D01*
X135911000Y-98289064D02*
X135911000Y-96834936D01*
%TO.C,R3*%
X157253000Y-97239064D02*
X157253000Y-96784936D01*
X158723000Y-97239064D02*
X158723000Y-96784936D01*
%TO.C,C1*%
X142975000Y-96788248D02*
X142975000Y-97310752D01*
X141505000Y-96788248D02*
X141505000Y-97310752D01*
%TO.C,C3*%
X162025000Y-96788248D02*
X162025000Y-97310752D01*
X160555000Y-96788248D02*
X160555000Y-97310752D01*
%TO.C,R2*%
X150220000Y-98289064D02*
X150220000Y-96834936D01*
X152040000Y-98289064D02*
X152040000Y-96834936D01*
%TO.C,R1*%
X137774000Y-98289064D02*
X137774000Y-96834936D01*
X139594000Y-98289064D02*
X139594000Y-96834936D01*
%TO.C,R5*%
X138578000Y-103184936D02*
X138578000Y-104639064D01*
X136758000Y-103184936D02*
X136758000Y-104639064D01*
%TO.C,C2*%
X155421000Y-96788248D02*
X155421000Y-97310752D01*
X153951000Y-96788248D02*
X153951000Y-97310752D01*
%TD*%
M02*
