%TF.GenerationSoftware,KiCad,Pcbnew,7.0.9*%
%TF.CreationDate,2024-01-10T14:09:04+01:00*%
%TF.ProjectId,ControlLineApp,436f6e74-726f-46c4-9c69-6e654170702e,1.0.1*%
%TF.SameCoordinates,Original*%
%TF.FileFunction,Legend,Top*%
%TF.FilePolarity,Positive*%
%FSLAX46Y46*%
G04 Gerber Fmt 4.6, Leading zero omitted, Abs format (unit mm)*
G04 Created by KiCad (PCBNEW 7.0.9) date 2024-01-10 14:09:04*
%MOMM*%
%LPD*%
G01*
G04 APERTURE LIST*
%ADD10C,0.150000*%
%ADD11C,0.120000*%
G04 APERTURE END LIST*
D10*
X133194588Y-110591438D02*
X133099350Y-110543819D01*
X133099350Y-110543819D02*
X132956493Y-110543819D01*
X132956493Y-110543819D02*
X132813636Y-110591438D01*
X132813636Y-110591438D02*
X132718398Y-110686676D01*
X132718398Y-110686676D02*
X132670779Y-110781914D01*
X132670779Y-110781914D02*
X132623160Y-110972390D01*
X132623160Y-110972390D02*
X132623160Y-111115247D01*
X132623160Y-111115247D02*
X132670779Y-111305723D01*
X132670779Y-111305723D02*
X132718398Y-111400961D01*
X132718398Y-111400961D02*
X132813636Y-111496200D01*
X132813636Y-111496200D02*
X132956493Y-111543819D01*
X132956493Y-111543819D02*
X133051731Y-111543819D01*
X133051731Y-111543819D02*
X133194588Y-111496200D01*
X133194588Y-111496200D02*
X133242207Y-111448580D01*
X133242207Y-111448580D02*
X133242207Y-111115247D01*
X133242207Y-111115247D02*
X133051731Y-111115247D01*
X134051731Y-111496200D02*
X133956493Y-111543819D01*
X133956493Y-111543819D02*
X133766017Y-111543819D01*
X133766017Y-111543819D02*
X133670779Y-111496200D01*
X133670779Y-111496200D02*
X133623160Y-111400961D01*
X133623160Y-111400961D02*
X133623160Y-111020009D01*
X133623160Y-111020009D02*
X133670779Y-110924771D01*
X133670779Y-110924771D02*
X133766017Y-110877152D01*
X133766017Y-110877152D02*
X133956493Y-110877152D01*
X133956493Y-110877152D02*
X134051731Y-110924771D01*
X134051731Y-110924771D02*
X134099350Y-111020009D01*
X134099350Y-111020009D02*
X134099350Y-111115247D01*
X134099350Y-111115247D02*
X133623160Y-111210485D01*
X134527922Y-111543819D02*
X134527922Y-110877152D01*
X134527922Y-110543819D02*
X134480303Y-110591438D01*
X134480303Y-110591438D02*
X134527922Y-110639057D01*
X134527922Y-110639057D02*
X134575541Y-110591438D01*
X134575541Y-110591438D02*
X134527922Y-110543819D01*
X134527922Y-110543819D02*
X134527922Y-110639057D01*
X135385064Y-111496200D02*
X135289826Y-111543819D01*
X135289826Y-111543819D02*
X135099350Y-111543819D01*
X135099350Y-111543819D02*
X135004112Y-111496200D01*
X135004112Y-111496200D02*
X134956493Y-111400961D01*
X134956493Y-111400961D02*
X134956493Y-111020009D01*
X134956493Y-111020009D02*
X135004112Y-110924771D01*
X135004112Y-110924771D02*
X135099350Y-110877152D01*
X135099350Y-110877152D02*
X135289826Y-110877152D01*
X135289826Y-110877152D02*
X135385064Y-110924771D01*
X135385064Y-110924771D02*
X135432683Y-111020009D01*
X135432683Y-111020009D02*
X135432683Y-111115247D01*
X135432683Y-111115247D02*
X134956493Y-111210485D01*
X135861255Y-111543819D02*
X135861255Y-110877152D01*
X135861255Y-111067628D02*
X135908874Y-110972390D01*
X135908874Y-110972390D02*
X135956493Y-110924771D01*
X135956493Y-110924771D02*
X136051731Y-110877152D01*
X136051731Y-110877152D02*
X136146969Y-110877152D01*
X136385065Y-110877152D02*
X136575541Y-111543819D01*
X136575541Y-111543819D02*
X136766017Y-111067628D01*
X136766017Y-111067628D02*
X136956493Y-111543819D01*
X136956493Y-111543819D02*
X137146969Y-110877152D01*
X137956493Y-111543819D02*
X137956493Y-111020009D01*
X137956493Y-111020009D02*
X137908874Y-110924771D01*
X137908874Y-110924771D02*
X137813636Y-110877152D01*
X137813636Y-110877152D02*
X137623160Y-110877152D01*
X137623160Y-110877152D02*
X137527922Y-110924771D01*
X137956493Y-111496200D02*
X137861255Y-111543819D01*
X137861255Y-111543819D02*
X137623160Y-111543819D01*
X137623160Y-111543819D02*
X137527922Y-111496200D01*
X137527922Y-111496200D02*
X137480303Y-111400961D01*
X137480303Y-111400961D02*
X137480303Y-111305723D01*
X137480303Y-111305723D02*
X137527922Y-111210485D01*
X137527922Y-111210485D02*
X137623160Y-111162866D01*
X137623160Y-111162866D02*
X137861255Y-111162866D01*
X137861255Y-111162866D02*
X137956493Y-111115247D01*
X138575541Y-111543819D02*
X138480303Y-111496200D01*
X138480303Y-111496200D02*
X138432684Y-111400961D01*
X138432684Y-111400961D02*
X138432684Y-110543819D01*
X139099351Y-111543819D02*
X139004113Y-111496200D01*
X139004113Y-111496200D02*
X138956494Y-111400961D01*
X138956494Y-111400961D02*
X138956494Y-110543819D01*
X139385066Y-110877152D02*
X139623161Y-111543819D01*
X139861256Y-110877152D02*
X139623161Y-111543819D01*
X139623161Y-111543819D02*
X139527923Y-111781914D01*
X139527923Y-111781914D02*
X139480304Y-111829533D01*
X139480304Y-111829533D02*
X139385066Y-111877152D01*
X140289828Y-110543819D02*
X140194590Y-110734295D01*
X140670780Y-111496200D02*
X140766018Y-111543819D01*
X140766018Y-111543819D02*
X140956494Y-111543819D01*
X140956494Y-111543819D02*
X141051732Y-111496200D01*
X141051732Y-111496200D02*
X141099351Y-111400961D01*
X141099351Y-111400961D02*
X141099351Y-111353342D01*
X141099351Y-111353342D02*
X141051732Y-111258104D01*
X141051732Y-111258104D02*
X140956494Y-111210485D01*
X140956494Y-111210485D02*
X140813637Y-111210485D01*
X140813637Y-111210485D02*
X140718399Y-111162866D01*
X140718399Y-111162866D02*
X140670780Y-111067628D01*
X140670780Y-111067628D02*
X140670780Y-111020009D01*
X140670780Y-111020009D02*
X140718399Y-110924771D01*
X140718399Y-110924771D02*
X140813637Y-110877152D01*
X140813637Y-110877152D02*
X140956494Y-110877152D01*
X140956494Y-110877152D02*
X141051732Y-110924771D01*
X142861256Y-111448580D02*
X142813637Y-111496200D01*
X142813637Y-111496200D02*
X142670780Y-111543819D01*
X142670780Y-111543819D02*
X142575542Y-111543819D01*
X142575542Y-111543819D02*
X142432685Y-111496200D01*
X142432685Y-111496200D02*
X142337447Y-111400961D01*
X142337447Y-111400961D02*
X142289828Y-111305723D01*
X142289828Y-111305723D02*
X142242209Y-111115247D01*
X142242209Y-111115247D02*
X142242209Y-110972390D01*
X142242209Y-110972390D02*
X142289828Y-110781914D01*
X142289828Y-110781914D02*
X142337447Y-110686676D01*
X142337447Y-110686676D02*
X142432685Y-110591438D01*
X142432685Y-110591438D02*
X142575542Y-110543819D01*
X142575542Y-110543819D02*
X142670780Y-110543819D01*
X142670780Y-110543819D02*
X142813637Y-110591438D01*
X142813637Y-110591438D02*
X142861256Y-110639057D01*
X143432685Y-111543819D02*
X143337447Y-111496200D01*
X143337447Y-111496200D02*
X143289828Y-111448580D01*
X143289828Y-111448580D02*
X143242209Y-111353342D01*
X143242209Y-111353342D02*
X143242209Y-111067628D01*
X143242209Y-111067628D02*
X143289828Y-110972390D01*
X143289828Y-110972390D02*
X143337447Y-110924771D01*
X143337447Y-110924771D02*
X143432685Y-110877152D01*
X143432685Y-110877152D02*
X143575542Y-110877152D01*
X143575542Y-110877152D02*
X143670780Y-110924771D01*
X143670780Y-110924771D02*
X143718399Y-110972390D01*
X143718399Y-110972390D02*
X143766018Y-111067628D01*
X143766018Y-111067628D02*
X143766018Y-111353342D01*
X143766018Y-111353342D02*
X143718399Y-111448580D01*
X143718399Y-111448580D02*
X143670780Y-111496200D01*
X143670780Y-111496200D02*
X143575542Y-111543819D01*
X143575542Y-111543819D02*
X143432685Y-111543819D01*
X144194590Y-110877152D02*
X144194590Y-111543819D01*
X144194590Y-110972390D02*
X144242209Y-110924771D01*
X144242209Y-110924771D02*
X144337447Y-110877152D01*
X144337447Y-110877152D02*
X144480304Y-110877152D01*
X144480304Y-110877152D02*
X144575542Y-110924771D01*
X144575542Y-110924771D02*
X144623161Y-111020009D01*
X144623161Y-111020009D02*
X144623161Y-111543819D01*
X144956495Y-110877152D02*
X145337447Y-110877152D01*
X145099352Y-110543819D02*
X145099352Y-111400961D01*
X145099352Y-111400961D02*
X145146971Y-111496200D01*
X145146971Y-111496200D02*
X145242209Y-111543819D01*
X145242209Y-111543819D02*
X145337447Y-111543819D01*
X145670781Y-111543819D02*
X145670781Y-110877152D01*
X145670781Y-111067628D02*
X145718400Y-110972390D01*
X145718400Y-110972390D02*
X145766019Y-110924771D01*
X145766019Y-110924771D02*
X145861257Y-110877152D01*
X145861257Y-110877152D02*
X145956495Y-110877152D01*
X146432686Y-111543819D02*
X146337448Y-111496200D01*
X146337448Y-111496200D02*
X146289829Y-111448580D01*
X146289829Y-111448580D02*
X146242210Y-111353342D01*
X146242210Y-111353342D02*
X146242210Y-111067628D01*
X146242210Y-111067628D02*
X146289829Y-110972390D01*
X146289829Y-110972390D02*
X146337448Y-110924771D01*
X146337448Y-110924771D02*
X146432686Y-110877152D01*
X146432686Y-110877152D02*
X146575543Y-110877152D01*
X146575543Y-110877152D02*
X146670781Y-110924771D01*
X146670781Y-110924771D02*
X146718400Y-110972390D01*
X146718400Y-110972390D02*
X146766019Y-111067628D01*
X146766019Y-111067628D02*
X146766019Y-111353342D01*
X146766019Y-111353342D02*
X146718400Y-111448580D01*
X146718400Y-111448580D02*
X146670781Y-111496200D01*
X146670781Y-111496200D02*
X146575543Y-111543819D01*
X146575543Y-111543819D02*
X146432686Y-111543819D01*
X147337448Y-111543819D02*
X147242210Y-111496200D01*
X147242210Y-111496200D02*
X147194591Y-111400961D01*
X147194591Y-111400961D02*
X147194591Y-110543819D01*
X148194591Y-111543819D02*
X147718401Y-111543819D01*
X147718401Y-111543819D02*
X147718401Y-110543819D01*
X148527925Y-111543819D02*
X148527925Y-110877152D01*
X148527925Y-110543819D02*
X148480306Y-110591438D01*
X148480306Y-110591438D02*
X148527925Y-110639057D01*
X148527925Y-110639057D02*
X148575544Y-110591438D01*
X148575544Y-110591438D02*
X148527925Y-110543819D01*
X148527925Y-110543819D02*
X148527925Y-110639057D01*
X149004115Y-110877152D02*
X149004115Y-111543819D01*
X149004115Y-110972390D02*
X149051734Y-110924771D01*
X149051734Y-110924771D02*
X149146972Y-110877152D01*
X149146972Y-110877152D02*
X149289829Y-110877152D01*
X149289829Y-110877152D02*
X149385067Y-110924771D01*
X149385067Y-110924771D02*
X149432686Y-111020009D01*
X149432686Y-111020009D02*
X149432686Y-111543819D01*
X150289829Y-111496200D02*
X150194591Y-111543819D01*
X150194591Y-111543819D02*
X150004115Y-111543819D01*
X150004115Y-111543819D02*
X149908877Y-111496200D01*
X149908877Y-111496200D02*
X149861258Y-111400961D01*
X149861258Y-111400961D02*
X149861258Y-111020009D01*
X149861258Y-111020009D02*
X149908877Y-110924771D01*
X149908877Y-110924771D02*
X150004115Y-110877152D01*
X150004115Y-110877152D02*
X150194591Y-110877152D01*
X150194591Y-110877152D02*
X150289829Y-110924771D01*
X150289829Y-110924771D02*
X150337448Y-111020009D01*
X150337448Y-111020009D02*
X150337448Y-111115247D01*
X150337448Y-111115247D02*
X149861258Y-111210485D01*
X150718401Y-111258104D02*
X151194591Y-111258104D01*
X150623163Y-111543819D02*
X150956496Y-110543819D01*
X150956496Y-110543819D02*
X151289829Y-111543819D01*
X151623163Y-110877152D02*
X151623163Y-111877152D01*
X151623163Y-110924771D02*
X151718401Y-110877152D01*
X151718401Y-110877152D02*
X151908877Y-110877152D01*
X151908877Y-110877152D02*
X152004115Y-110924771D01*
X152004115Y-110924771D02*
X152051734Y-110972390D01*
X152051734Y-110972390D02*
X152099353Y-111067628D01*
X152099353Y-111067628D02*
X152099353Y-111353342D01*
X152099353Y-111353342D02*
X152051734Y-111448580D01*
X152051734Y-111448580D02*
X152004115Y-111496200D01*
X152004115Y-111496200D02*
X151908877Y-111543819D01*
X151908877Y-111543819D02*
X151718401Y-111543819D01*
X151718401Y-111543819D02*
X151623163Y-111496200D01*
X152527925Y-110877152D02*
X152527925Y-111877152D01*
X152527925Y-110924771D02*
X152623163Y-110877152D01*
X152623163Y-110877152D02*
X152813639Y-110877152D01*
X152813639Y-110877152D02*
X152908877Y-110924771D01*
X152908877Y-110924771D02*
X152956496Y-110972390D01*
X152956496Y-110972390D02*
X153004115Y-111067628D01*
X153004115Y-111067628D02*
X153004115Y-111353342D01*
X153004115Y-111353342D02*
X152956496Y-111448580D01*
X152956496Y-111448580D02*
X152908877Y-111496200D01*
X152908877Y-111496200D02*
X152813639Y-111543819D01*
X152813639Y-111543819D02*
X152623163Y-111543819D01*
X152623163Y-111543819D02*
X152527925Y-111496200D01*
X133242207Y-113153819D02*
X132908874Y-112677628D01*
X132670779Y-113153819D02*
X132670779Y-112153819D01*
X132670779Y-112153819D02*
X133051731Y-112153819D01*
X133051731Y-112153819D02*
X133146969Y-112201438D01*
X133146969Y-112201438D02*
X133194588Y-112249057D01*
X133194588Y-112249057D02*
X133242207Y-112344295D01*
X133242207Y-112344295D02*
X133242207Y-112487152D01*
X133242207Y-112487152D02*
X133194588Y-112582390D01*
X133194588Y-112582390D02*
X133146969Y-112630009D01*
X133146969Y-112630009D02*
X133051731Y-112677628D01*
X133051731Y-112677628D02*
X132670779Y-112677628D01*
X134051731Y-113106200D02*
X133956493Y-113153819D01*
X133956493Y-113153819D02*
X133766017Y-113153819D01*
X133766017Y-113153819D02*
X133670779Y-113106200D01*
X133670779Y-113106200D02*
X133623160Y-113010961D01*
X133623160Y-113010961D02*
X133623160Y-112630009D01*
X133623160Y-112630009D02*
X133670779Y-112534771D01*
X133670779Y-112534771D02*
X133766017Y-112487152D01*
X133766017Y-112487152D02*
X133956493Y-112487152D01*
X133956493Y-112487152D02*
X134051731Y-112534771D01*
X134051731Y-112534771D02*
X134099350Y-112630009D01*
X134099350Y-112630009D02*
X134099350Y-112725247D01*
X134099350Y-112725247D02*
X133623160Y-112820485D01*
X134432684Y-112487152D02*
X134670779Y-113153819D01*
X134670779Y-113153819D02*
X134908874Y-112487152D01*
X135813636Y-113153819D02*
X135242208Y-113153819D01*
X135527922Y-113153819D02*
X135527922Y-112153819D01*
X135527922Y-112153819D02*
X135432684Y-112296676D01*
X135432684Y-112296676D02*
X135337446Y-112391914D01*
X135337446Y-112391914D02*
X135242208Y-112439533D01*
X136242208Y-113058580D02*
X136289827Y-113106200D01*
X136289827Y-113106200D02*
X136242208Y-113153819D01*
X136242208Y-113153819D02*
X136194589Y-113106200D01*
X136194589Y-113106200D02*
X136242208Y-113058580D01*
X136242208Y-113058580D02*
X136242208Y-113153819D01*
X136908874Y-112153819D02*
X137004112Y-112153819D01*
X137004112Y-112153819D02*
X137099350Y-112201438D01*
X137099350Y-112201438D02*
X137146969Y-112249057D01*
X137146969Y-112249057D02*
X137194588Y-112344295D01*
X137194588Y-112344295D02*
X137242207Y-112534771D01*
X137242207Y-112534771D02*
X137242207Y-112772866D01*
X137242207Y-112772866D02*
X137194588Y-112963342D01*
X137194588Y-112963342D02*
X137146969Y-113058580D01*
X137146969Y-113058580D02*
X137099350Y-113106200D01*
X137099350Y-113106200D02*
X137004112Y-113153819D01*
X137004112Y-113153819D02*
X136908874Y-113153819D01*
X136908874Y-113153819D02*
X136813636Y-113106200D01*
X136813636Y-113106200D02*
X136766017Y-113058580D01*
X136766017Y-113058580D02*
X136718398Y-112963342D01*
X136718398Y-112963342D02*
X136670779Y-112772866D01*
X136670779Y-112772866D02*
X136670779Y-112534771D01*
X136670779Y-112534771D02*
X136718398Y-112344295D01*
X136718398Y-112344295D02*
X136766017Y-112249057D01*
X136766017Y-112249057D02*
X136813636Y-112201438D01*
X136813636Y-112201438D02*
X136908874Y-112153819D01*
X137670779Y-113058580D02*
X137718398Y-113106200D01*
X137718398Y-113106200D02*
X137670779Y-113153819D01*
X137670779Y-113153819D02*
X137623160Y-113106200D01*
X137623160Y-113106200D02*
X137670779Y-113058580D01*
X137670779Y-113058580D02*
X137670779Y-113153819D01*
X138670778Y-113153819D02*
X138099350Y-113153819D01*
X138385064Y-113153819D02*
X138385064Y-112153819D01*
X138385064Y-112153819D02*
X138289826Y-112296676D01*
X138289826Y-112296676D02*
X138194588Y-112391914D01*
X138194588Y-112391914D02*
X138099350Y-112439533D01*
X122725104Y-101008285D02*
X122725104Y-100532095D01*
X123010819Y-101103523D02*
X122010819Y-100770190D01*
X122010819Y-100770190D02*
X123010819Y-100436857D01*
X122106057Y-100151142D02*
X122058438Y-100103523D01*
X122058438Y-100103523D02*
X122010819Y-100008285D01*
X122010819Y-100008285D02*
X122010819Y-99770190D01*
X122010819Y-99770190D02*
X122058438Y-99674952D01*
X122058438Y-99674952D02*
X122106057Y-99627333D01*
X122106057Y-99627333D02*
X122201295Y-99579714D01*
X122201295Y-99579714D02*
X122296533Y-99579714D01*
X122296533Y-99579714D02*
X122439390Y-99627333D01*
X122439390Y-99627333D02*
X123010819Y-100198761D01*
X123010819Y-100198761D02*
X123010819Y-99579714D01*
X165062819Y-101845904D02*
X165872342Y-101845904D01*
X165872342Y-101845904D02*
X165967580Y-101798285D01*
X165967580Y-101798285D02*
X166015200Y-101750666D01*
X166015200Y-101750666D02*
X166062819Y-101655428D01*
X166062819Y-101655428D02*
X166062819Y-101464952D01*
X166062819Y-101464952D02*
X166015200Y-101369714D01*
X166015200Y-101369714D02*
X165967580Y-101322095D01*
X165967580Y-101322095D02*
X165872342Y-101274476D01*
X165872342Y-101274476D02*
X165062819Y-101274476D01*
X166015200Y-100845904D02*
X166062819Y-100703047D01*
X166062819Y-100703047D02*
X166062819Y-100464952D01*
X166062819Y-100464952D02*
X166015200Y-100369714D01*
X166015200Y-100369714D02*
X165967580Y-100322095D01*
X165967580Y-100322095D02*
X165872342Y-100274476D01*
X165872342Y-100274476D02*
X165777104Y-100274476D01*
X165777104Y-100274476D02*
X165681866Y-100322095D01*
X165681866Y-100322095D02*
X165634247Y-100369714D01*
X165634247Y-100369714D02*
X165586628Y-100464952D01*
X165586628Y-100464952D02*
X165539009Y-100655428D01*
X165539009Y-100655428D02*
X165491390Y-100750666D01*
X165491390Y-100750666D02*
X165443771Y-100798285D01*
X165443771Y-100798285D02*
X165348533Y-100845904D01*
X165348533Y-100845904D02*
X165253295Y-100845904D01*
X165253295Y-100845904D02*
X165158057Y-100798285D01*
X165158057Y-100798285D02*
X165110438Y-100750666D01*
X165110438Y-100750666D02*
X165062819Y-100655428D01*
X165062819Y-100655428D02*
X165062819Y-100417333D01*
X165062819Y-100417333D02*
X165110438Y-100274476D01*
X165539009Y-99512571D02*
X165586628Y-99369714D01*
X165586628Y-99369714D02*
X165634247Y-99322095D01*
X165634247Y-99322095D02*
X165729485Y-99274476D01*
X165729485Y-99274476D02*
X165872342Y-99274476D01*
X165872342Y-99274476D02*
X165967580Y-99322095D01*
X165967580Y-99322095D02*
X166015200Y-99369714D01*
X166015200Y-99369714D02*
X166062819Y-99464952D01*
X166062819Y-99464952D02*
X166062819Y-99845904D01*
X166062819Y-99845904D02*
X165062819Y-99845904D01*
X165062819Y-99845904D02*
X165062819Y-99512571D01*
X165062819Y-99512571D02*
X165110438Y-99417333D01*
X165110438Y-99417333D02*
X165158057Y-99369714D01*
X165158057Y-99369714D02*
X165253295Y-99322095D01*
X165253295Y-99322095D02*
X165348533Y-99322095D01*
X165348533Y-99322095D02*
X165443771Y-99369714D01*
X165443771Y-99369714D02*
X165491390Y-99417333D01*
X165491390Y-99417333D02*
X165539009Y-99512571D01*
X165539009Y-99512571D02*
X165539009Y-99845904D01*
X110156666Y-87084819D02*
X110156666Y-87799104D01*
X110156666Y-87799104D02*
X110109047Y-87941961D01*
X110109047Y-87941961D02*
X110013809Y-88037200D01*
X110013809Y-88037200D02*
X109870952Y-88084819D01*
X109870952Y-88084819D02*
X109775714Y-88084819D01*
X110585238Y-87180057D02*
X110632857Y-87132438D01*
X110632857Y-87132438D02*
X110728095Y-87084819D01*
X110728095Y-87084819D02*
X110966190Y-87084819D01*
X110966190Y-87084819D02*
X111061428Y-87132438D01*
X111061428Y-87132438D02*
X111109047Y-87180057D01*
X111109047Y-87180057D02*
X111156666Y-87275295D01*
X111156666Y-87275295D02*
X111156666Y-87370533D01*
X111156666Y-87370533D02*
X111109047Y-87513390D01*
X111109047Y-87513390D02*
X110537619Y-88084819D01*
X110537619Y-88084819D02*
X111156666Y-88084819D01*
D11*
%TO.C,A2*%
X121028000Y-109604000D02*
X123698000Y-109604000D01*
X126238000Y-109604000D02*
X164468000Y-109604000D01*
X164468000Y-109604000D02*
X164468000Y-104524000D01*
X123698000Y-106934000D02*
X123698000Y-109604000D01*
X126238000Y-106934000D02*
X126238000Y-109604000D01*
X126238000Y-106934000D02*
X123698000Y-106934000D01*
X126238000Y-106934000D02*
X161798000Y-106934000D01*
X161798000Y-106934000D02*
X161798000Y-109604000D01*
X156588000Y-104524000D02*
X156588000Y-96644000D01*
X167008000Y-104524000D02*
X156588000Y-104524000D01*
X156588000Y-96644000D02*
X167008000Y-96644000D01*
X167008000Y-96644000D02*
X167008000Y-104524000D01*
X123698000Y-94234000D02*
X161798000Y-94234000D01*
X123698000Y-94234000D02*
X123698000Y-91564000D01*
X161798000Y-94234000D02*
X161798000Y-91564000D01*
X121028000Y-91564000D02*
X121028000Y-109604000D01*
X164468000Y-91564000D02*
X164468000Y-96644000D01*
X164468000Y-91564000D02*
X121028000Y-91564000D01*
%TO.C,J2*%
X106025000Y-88670000D02*
X106025000Y-111650000D01*
X106025000Y-88670000D02*
X114655000Y-88670000D01*
X106025000Y-88790000D02*
X114655000Y-88790000D01*
X106025000Y-88908095D02*
X114655000Y-88908095D01*
X106025000Y-89026190D02*
X114655000Y-89026190D01*
X106025000Y-89144285D02*
X114655000Y-89144285D01*
X106025000Y-89262380D02*
X114655000Y-89262380D01*
X106025000Y-89380475D02*
X114655000Y-89380475D01*
X106025000Y-89498570D02*
X114655000Y-89498570D01*
X106025000Y-89616665D02*
X114655000Y-89616665D01*
X106025000Y-89734760D02*
X114655000Y-89734760D01*
X106025000Y-89852855D02*
X114655000Y-89852855D01*
X106025000Y-89970950D02*
X114655000Y-89970950D01*
X106025000Y-90089045D02*
X114655000Y-90089045D01*
X106025000Y-90207140D02*
X114655000Y-90207140D01*
X106025000Y-90325235D02*
X114655000Y-90325235D01*
X106025000Y-90443330D02*
X114655000Y-90443330D01*
X106025000Y-90561425D02*
X114655000Y-90561425D01*
X106025000Y-90679520D02*
X114655000Y-90679520D01*
X106025000Y-90797615D02*
X114655000Y-90797615D01*
X106025000Y-90915710D02*
X114655000Y-90915710D01*
X106025000Y-91033805D02*
X114655000Y-91033805D01*
X106025000Y-91151900D02*
X114655000Y-91151900D01*
X106025000Y-91270000D02*
X114655000Y-91270000D01*
X106025000Y-93810000D02*
X114655000Y-93810000D01*
X106025000Y-96350000D02*
X114655000Y-96350000D01*
X106025000Y-98890000D02*
X114655000Y-98890000D01*
X106025000Y-101430000D02*
X114655000Y-101430000D01*
X106025000Y-103970000D02*
X114655000Y-103970000D01*
X106025000Y-106510000D02*
X114655000Y-106510000D01*
X106025000Y-109050000D02*
X114655000Y-109050000D01*
X106025000Y-111650000D02*
X114655000Y-111650000D01*
X114655000Y-88670000D02*
X114655000Y-111650000D01*
X114655000Y-89640000D02*
X115065000Y-89640000D01*
X114655000Y-90360000D02*
X115065000Y-90360000D01*
X114655000Y-92180000D02*
X115065000Y-92180000D01*
X114655000Y-92900000D02*
X115065000Y-92900000D01*
X114655000Y-94720000D02*
X115065000Y-94720000D01*
X114655000Y-95440000D02*
X115065000Y-95440000D01*
X114655000Y-97260000D02*
X115065000Y-97260000D01*
X114655000Y-97980000D02*
X115065000Y-97980000D01*
X114655000Y-99800000D02*
X115065000Y-99800000D01*
X114655000Y-100520000D02*
X115065000Y-100520000D01*
X114655000Y-102340000D02*
X115065000Y-102340000D01*
X114655000Y-103060000D02*
X115065000Y-103060000D01*
X114655000Y-104880000D02*
X115065000Y-104880000D01*
X114655000Y-105600000D02*
X115065000Y-105600000D01*
X114655000Y-107420000D02*
X115065000Y-107420000D01*
X114655000Y-108140000D02*
X115065000Y-108140000D01*
X114655000Y-109960000D02*
X115065000Y-109960000D01*
X114655000Y-110680000D02*
X115065000Y-110680000D01*
X117165000Y-89640000D02*
X117545000Y-89640000D01*
X117165000Y-90360000D02*
X117545000Y-90360000D01*
X117165000Y-92180000D02*
X117605000Y-92180000D01*
X117165000Y-92900000D02*
X117605000Y-92900000D01*
X117165000Y-94720000D02*
X117605000Y-94720000D01*
X117165000Y-95440000D02*
X117605000Y-95440000D01*
X117165000Y-97260000D02*
X117605000Y-97260000D01*
X117165000Y-97980000D02*
X117605000Y-97980000D01*
X117165000Y-99800000D02*
X117605000Y-99800000D01*
X117165000Y-100520000D02*
X117605000Y-100520000D01*
X117165000Y-102340000D02*
X117605000Y-102340000D01*
X117165000Y-103060000D02*
X117605000Y-103060000D01*
X117165000Y-104880000D02*
X117605000Y-104880000D01*
X117165000Y-105600000D02*
X117605000Y-105600000D01*
X117165000Y-107420000D02*
X117605000Y-107420000D01*
X117165000Y-108140000D02*
X117605000Y-108140000D01*
X117165000Y-109960000D02*
X117605000Y-109960000D01*
X117165000Y-110680000D02*
X117605000Y-110680000D01*
X118655000Y-88670000D02*
X119765000Y-88670000D01*
X119765000Y-88670000D02*
X119765000Y-90000000D01*
%TD*%
M02*
