%TF.GenerationSoftware,KiCad,Pcbnew,7.0.9*%
%TF.CreationDate,2024-01-10T14:09:04+01:00*%
%TF.ProjectId,ControlLineApp,436f6e74-726f-46c4-9c69-6e654170702e,1.0.1*%
%TF.SameCoordinates,Original*%
%TF.FileFunction,Copper,L1,Top*%
%TF.FilePolarity,Positive*%
%FSLAX46Y46*%
G04 Gerber Fmt 4.6, Leading zero omitted, Abs format (unit mm)*
G04 Created by KiCad (PCBNEW 7.0.9) date 2024-01-10 14:09:04*
%MOMM*%
%LPD*%
G01*
G04 APERTURE LIST*
%TA.AperFunction,ComponentPad*%
%ADD10C,3.800000*%
%TD*%
%TA.AperFunction,ComponentPad*%
%ADD11R,1.600000X1.600000*%
%TD*%
%TA.AperFunction,ComponentPad*%
%ADD12O,1.600000X1.600000*%
%TD*%
%TA.AperFunction,ComponentPad*%
%ADD13R,1.700000X1.700000*%
%TD*%
%TA.AperFunction,ComponentPad*%
%ADD14O,1.700000X1.700000*%
%TD*%
%TA.AperFunction,ViaPad*%
%ADD15C,0.800000*%
%TD*%
%TA.AperFunction,Conductor*%
%ADD16C,0.250000*%
%TD*%
G04 APERTURE END LIST*
D10*
%TO.P, ,1*%
%TO.N,N/C*%
X165000000Y-89000000D03*
%TD*%
D11*
%TO.P,A2,1,TX1*%
%TO.N,unconnected-(A2-TX1-Pad1)*%
X124968000Y-108204000D03*
D12*
%TO.P,A2,2,RX1*%
%TO.N,unconnected-(A2-RX1-Pad2)*%
X127508000Y-108204000D03*
%TO.P,A2,3,~{RESET}*%
%TO.N,unconnected-(A2-~{RESET}-Pad3)*%
X130048000Y-108204000D03*
%TO.P,A2,4,GND*%
%TO.N,GNDREF*%
X132588000Y-108204000D03*
%TO.P,A2,5,D2*%
%TO.N,UserButton*%
X135128000Y-108204000D03*
%TO.P,A2,6,D3*%
%TO.N,Net-(A2-D3)*%
X137668000Y-108204000D03*
%TO.P,A2,7,D4*%
%TO.N,unconnected-(A2-D4-Pad7)*%
X140208000Y-108204000D03*
%TO.P,A2,8,D5*%
%TO.N,unconnected-(A2-D5-Pad8)*%
X142748000Y-108204000D03*
%TO.P,A2,9,D6*%
%TO.N,unconnected-(A2-D6-Pad9)*%
X145288000Y-108204000D03*
%TO.P,A2,10,D7*%
%TO.N,unconnected-(A2-D7-Pad10)*%
X147828000Y-108204000D03*
%TO.P,A2,11,D8*%
%TO.N,SS_SPI*%
X150368000Y-108204000D03*
%TO.P,A2,12,D9*%
%TO.N,ServoPulse*%
X152908000Y-108204000D03*
%TO.P,A2,13,D10*%
%TO.N,unconnected-(A2-D10-Pad13)*%
X155448000Y-108204000D03*
%TO.P,A2,14,MOSI*%
%TO.N,MOSI_SPI*%
X157988000Y-108204000D03*
%TO.P,A2,15,MISO*%
%TO.N,MISO_SPI*%
X160528000Y-108204000D03*
%TO.P,A2,16,SCK*%
%TO.N,SCK_SPI*%
X160528000Y-92964000D03*
%TO.P,A2,17,3V3*%
%TO.N,unconnected-(A2-3V3-Pad17)*%
X157988000Y-92964000D03*
%TO.P,A2,18,AREF*%
%TO.N,+5V*%
X155448000Y-92964000D03*
%TO.P,A2,19,A0*%
%TO.N,Poti10K*%
X152908000Y-92964000D03*
%TO.P,A2,20,A1*%
%TO.N,VPCell_1*%
X150368000Y-92964000D03*
%TO.P,A2,21,A2*%
%TO.N,Net-(A2-A2)*%
X147828000Y-92964000D03*
%TO.P,A2,22,A3*%
%TO.N,unconnected-(A2-A3-Pad22)*%
X145288000Y-92964000D03*
%TO.P,A2,23,SDA/A4*%
%TO.N,SDA*%
X142748000Y-92964000D03*
%TO.P,A2,24,SCL/A5*%
%TO.N,SCL*%
X140208000Y-92964000D03*
%TO.P,A2,25,A6*%
%TO.N,unconnected-(A2-A6-Pad25)*%
X137668000Y-92964000D03*
%TO.P,A2,26,A7*%
%TO.N,unconnected-(A2-A7-Pad26)*%
X135128000Y-92964000D03*
%TO.P,A2,27,+5V*%
%TO.N,+5V*%
X132588000Y-92964000D03*
%TO.P,A2,28,~{RESET}*%
%TO.N,unconnected-(A2-~{RESET}-Pad28)*%
X130048000Y-92964000D03*
%TO.P,A2,29,GND*%
%TO.N,GNDREF*%
X127508000Y-92964000D03*
%TO.P,A2,30,VIN*%
%TO.N,VDD*%
X124968000Y-92964000D03*
%TD*%
D13*
%TO.P,J2,1,Pin_1*%
%TO.N,VDD*%
X118655000Y-90000000D03*
D14*
%TO.P,J2,2,Pin_2*%
%TO.N,+5V*%
X116115000Y-90000000D03*
%TO.P,J2,3,Pin_3*%
%TO.N,VPCell_1*%
X118655000Y-92540000D03*
%TO.P,J2,4,Pin_4*%
%TO.N,Poti10K*%
X116115000Y-92540000D03*
%TO.P,J2,5,Pin_5*%
%TO.N,GNDREF*%
X118655000Y-95080000D03*
%TO.P,J2,6,Pin_6*%
%TO.N,UserButton*%
X116115000Y-95080000D03*
%TO.P,J2,7,Pin_7*%
%TO.N,ServoPulse*%
X118655000Y-97620000D03*
%TO.P,J2,8,Pin_8*%
%TO.N,LED_A*%
X116115000Y-97620000D03*
%TO.P,J2,9,Pin_9*%
%TO.N,VDD*%
X118655000Y-100160000D03*
%TO.P,J2,10,Pin_10*%
%TO.N,SCL*%
X116115000Y-100160000D03*
%TO.P,J2,11,Pin_11*%
%TO.N,GNDREF*%
X118655000Y-102700000D03*
%TO.P,J2,12,Pin_12*%
%TO.N,SDA*%
X116115000Y-102700000D03*
%TO.P,J2,13,Pin_13*%
%TO.N,SCK_SPI*%
X118655000Y-105240000D03*
%TO.P,J2,14,Pin_14*%
%TO.N,SS_SPI*%
X116115000Y-105240000D03*
%TO.P,J2,15,Pin_15*%
%TO.N,MISO_SPI*%
X118655000Y-107780000D03*
%TO.P,J2,16,Pin_16*%
%TO.N,+5V*%
X116115000Y-107780000D03*
%TO.P,J2,17,Pin_17*%
%TO.N,MOSI_SPI*%
X118655000Y-110320000D03*
%TO.P,J2,18,Pin_18*%
%TO.N,GNDREF*%
X116115000Y-110320000D03*
%TD*%
D10*
%TO.P, ,1*%
%TO.N,N/C*%
X122936000Y-112268000D03*
%TD*%
%TO.P, ,1*%
%TO.N,N/C*%
X165000000Y-112000000D03*
%TD*%
D15*
%TO.N,VPCell_1*%
X121965500Y-89199500D03*
%TO.N,VDD*%
X132842000Y-99060000D03*
%TO.N,UserButton*%
X133096000Y-102362000D03*
%TO.N,SS_SPI*%
X145796000Y-104065000D03*
%TO.N,ServoPulse*%
X124695250Y-99586750D03*
%TO.N,SDA*%
X126746000Y-98806000D03*
X123952000Y-101600000D03*
%TO.N,SCL*%
X123420950Y-99337050D03*
%TO.N,SCK_SPI*%
X111256299Y-90936299D03*
%TD*%
D16*
%TO.N,Net-(A2-A2)*%
X147574000Y-92874000D02*
X147700000Y-93000000D01*
%TO.N,VPCell_1*%
X121965500Y-89199500D02*
X118625000Y-92540000D01*
%TO.N,VDD*%
X113284000Y-93472000D02*
X115570000Y-91186000D01*
X115559000Y-98795000D02*
X113284000Y-96520000D01*
X117260000Y-98795000D02*
X115559000Y-98795000D01*
X113284000Y-96520000D02*
X113284000Y-93472000D01*
X117439000Y-91186000D02*
X118625000Y-90000000D01*
X132842000Y-99060000D02*
X130900000Y-99060000D01*
X130900000Y-99060000D02*
X124840000Y-93000000D01*
X118625000Y-100160000D02*
X117260000Y-98795000D01*
X115570000Y-91186000D02*
X117439000Y-91186000D01*
%TO.N,UserButton*%
X133096000Y-102362000D02*
X132334000Y-102362000D01*
X132334000Y-102362000D02*
X123877000Y-93905000D01*
X117260000Y-93905000D02*
X116085000Y-95080000D01*
X123877000Y-93905000D02*
X117260000Y-93905000D01*
%TO.N,SS_SPI*%
X145796000Y-104065000D02*
X128703000Y-104065000D01*
X116085000Y-105240000D02*
X117260000Y-104065000D01*
X117260000Y-104065000D02*
X128703000Y-104065000D01*
%TO.N,ServoPulse*%
X122728500Y-97620000D02*
X118625000Y-97620000D01*
X124695250Y-99586750D02*
X122728500Y-97620000D01*
%TO.N,MOSI_SPI*%
X118625000Y-110320000D02*
X122773000Y-106172000D01*
X122773000Y-106172000D02*
X134620000Y-106172000D01*
X134366000Y-106172000D02*
X155792000Y-106172000D01*
X155792000Y-106172000D02*
X157860000Y-108240000D01*
%TO.N,MISO_SPI*%
X134366000Y-105156000D02*
X157316000Y-105156000D01*
X134366000Y-105156000D02*
X121249000Y-105156000D01*
X121249000Y-105156000D02*
X118625000Y-107780000D01*
X157316000Y-105156000D02*
X160400000Y-108240000D01*
%TO.N,SDA*%
X126746000Y-98806000D02*
X123952000Y-101600000D01*
%TO.N,SCL*%
X121423000Y-101335000D02*
X117290000Y-101335000D01*
X117290000Y-101335000D02*
X116115000Y-100160000D01*
X123420950Y-99337050D02*
X121423000Y-101335000D01*
%TO.N,SCK_SPI*%
X115628299Y-106415000D02*
X117480000Y-106415000D01*
X117480000Y-106415000D02*
X118655000Y-105240000D01*
X111256299Y-102043000D02*
X115628299Y-106415000D01*
X111256299Y-90936299D02*
X111256299Y-102043000D01*
%TO.N,+5V*%
X132460000Y-88520000D02*
X134366000Y-86614000D01*
X134366000Y-86614000D02*
X153162000Y-86614000D01*
X111168000Y-90000000D02*
X108966000Y-92202000D01*
X153162000Y-86614000D02*
X155320000Y-88772000D01*
X119471000Y-86614000D02*
X134366000Y-86614000D01*
X155320000Y-88772000D02*
X155320000Y-93000000D01*
X108966000Y-104648000D02*
X112098000Y-107780000D01*
X116085000Y-90000000D02*
X111168000Y-90000000D01*
X116085000Y-90000000D02*
X119471000Y-86614000D01*
X108966000Y-92202000D02*
X108966000Y-104648000D01*
X132460000Y-93000000D02*
X132460000Y-88520000D01*
X112098000Y-107780000D02*
X116085000Y-107780000D01*
%TD*%
M02*
