%TF.GenerationSoftware,KiCad,Pcbnew,7.0.9*%
%TF.CreationDate,2023-12-31T16:38:04+01:00*%
%TF.ProjectId,ControlLineApp,436f6e74-726f-46c4-9c69-6e654170702e,1.0.1*%
%TF.SameCoordinates,Original*%
%TF.FileFunction,Soldermask,Bot*%
%TF.FilePolarity,Negative*%
%FSLAX46Y46*%
G04 Gerber Fmt 4.6, Leading zero omitted, Abs format (unit mm)*
G04 Created by KiCad (PCBNEW 7.0.9) date 2023-12-31 16:38:04*
%MOMM*%
%LPD*%
G01*
G04 APERTURE LIST*
G04 Aperture macros list*
%AMRoundRect*
0 Rectangle with rounded corners*
0 $1 Rounding radius*
0 $2 $3 $4 $5 $6 $7 $8 $9 X,Y pos of 4 corners*
0 Add a 4 corners polygon primitive as box body*
4,1,4,$2,$3,$4,$5,$6,$7,$8,$9,$2,$3,0*
0 Add four circle primitives for the rounded corners*
1,1,$1+$1,$2,$3*
1,1,$1+$1,$4,$5*
1,1,$1+$1,$6,$7*
1,1,$1+$1,$8,$9*
0 Add four rect primitives between the rounded corners*
20,1,$1+$1,$2,$3,$4,$5,0*
20,1,$1+$1,$4,$5,$6,$7,0*
20,1,$1+$1,$6,$7,$8,$9,0*
20,1,$1+$1,$8,$9,$2,$3,0*%
G04 Aperture macros list end*
%ADD10C,3.800000*%
%ADD11R,1.600000X1.600000*%
%ADD12O,1.600000X1.600000*%
%ADD13R,1.700000X1.700000*%
%ADD14O,1.700000X1.700000*%
%ADD15RoundRect,0.250000X0.625000X-0.400000X0.625000X0.400000X-0.625000X0.400000X-0.625000X-0.400000X0*%
%ADD16RoundRect,0.250000X0.450000X-0.350000X0.450000X0.350000X-0.450000X0.350000X-0.450000X-0.350000X0*%
%ADD17RoundRect,0.250000X-0.475000X0.337500X-0.475000X-0.337500X0.475000X-0.337500X0.475000X0.337500X0*%
%ADD18RoundRect,0.250000X-0.625000X0.400000X-0.625000X-0.400000X0.625000X-0.400000X0.625000X0.400000X0*%
G04 APERTURE END LIST*
D10*
%TO.C, *%
X165000000Y-89000000D03*
%TD*%
D11*
%TO.C,A2*%
X124968000Y-108204000D03*
D12*
X127508000Y-108204000D03*
X130048000Y-108204000D03*
X132588000Y-108204000D03*
X135128000Y-108204000D03*
X137668000Y-108204000D03*
X140208000Y-108204000D03*
X142748000Y-108204000D03*
X145288000Y-108204000D03*
X147828000Y-108204000D03*
X150368000Y-108204000D03*
X152908000Y-108204000D03*
X155448000Y-108204000D03*
X157988000Y-108204000D03*
X160528000Y-108204000D03*
X160528000Y-92964000D03*
X157988000Y-92964000D03*
X155448000Y-92964000D03*
X152908000Y-92964000D03*
X150368000Y-92964000D03*
X147828000Y-92964000D03*
X145288000Y-92964000D03*
X142748000Y-92964000D03*
X140208000Y-92964000D03*
X137668000Y-92964000D03*
X135128000Y-92964000D03*
X132588000Y-92964000D03*
X130048000Y-92964000D03*
X127508000Y-92964000D03*
X124968000Y-92964000D03*
%TD*%
D13*
%TO.C,J2*%
X118655000Y-90000000D03*
D14*
X116115000Y-90000000D03*
X118655000Y-92540000D03*
X116115000Y-92540000D03*
X118655000Y-95080000D03*
X116115000Y-95080000D03*
X118655000Y-97620000D03*
X116115000Y-97620000D03*
X118655000Y-100160000D03*
X116115000Y-100160000D03*
X118655000Y-102700000D03*
X116115000Y-102700000D03*
X118655000Y-105240000D03*
X116115000Y-105240000D03*
X118655000Y-107780000D03*
X116115000Y-107780000D03*
X118655000Y-110320000D03*
X116115000Y-110320000D03*
%TD*%
D10*
%TO.C, *%
X122936000Y-112268000D03*
%TD*%
%TO.C, *%
X165000000Y-112000000D03*
%TD*%
D15*
%TO.C,R4*%
X135001000Y-99112000D03*
X135001000Y-96012000D03*
%TD*%
D16*
%TO.C,R3*%
X157988000Y-98012000D03*
X157988000Y-96012000D03*
%TD*%
D17*
%TO.C,C1*%
X142240000Y-96012000D03*
X142240000Y-98087000D03*
%TD*%
%TO.C,C3*%
X161290000Y-96012000D03*
X161290000Y-98087000D03*
%TD*%
D15*
%TO.C,R2*%
X151130000Y-99112000D03*
X151130000Y-96012000D03*
%TD*%
%TO.C,R1*%
X138684000Y-99112000D03*
X138684000Y-96012000D03*
%TD*%
D18*
%TO.C,R5*%
X137668000Y-102362000D03*
X137668000Y-105462000D03*
%TD*%
D17*
%TO.C,C2*%
X154686000Y-96012000D03*
X154686000Y-98087000D03*
%TD*%
M02*
