%TF.GenerationSoftware,KiCad,Pcbnew,7.0.9*%
%TF.CreationDate,2024-01-10T14:09:04+01:00*%
%TF.ProjectId,ControlLineApp,436f6e74-726f-46c4-9c69-6e654170702e,1.0.1*%
%TF.SameCoordinates,Original*%
%TF.FileFunction,Copper,L2,Bot*%
%TF.FilePolarity,Positive*%
%FSLAX46Y46*%
G04 Gerber Fmt 4.6, Leading zero omitted, Abs format (unit mm)*
G04 Created by KiCad (PCBNEW 7.0.9) date 2024-01-10 14:09:04*
%MOMM*%
%LPD*%
G01*
G04 APERTURE LIST*
G04 Aperture macros list*
%AMRoundRect*
0 Rectangle with rounded corners*
0 $1 Rounding radius*
0 $2 $3 $4 $5 $6 $7 $8 $9 X,Y pos of 4 corners*
0 Add a 4 corners polygon primitive as box body*
4,1,4,$2,$3,$4,$5,$6,$7,$8,$9,$2,$3,0*
0 Add four circle primitives for the rounded corners*
1,1,$1+$1,$2,$3*
1,1,$1+$1,$4,$5*
1,1,$1+$1,$6,$7*
1,1,$1+$1,$8,$9*
0 Add four rect primitives between the rounded corners*
20,1,$1+$1,$2,$3,$4,$5,0*
20,1,$1+$1,$4,$5,$6,$7,0*
20,1,$1+$1,$6,$7,$8,$9,0*
20,1,$1+$1,$8,$9,$2,$3,0*%
G04 Aperture macros list end*
%TA.AperFunction,ComponentPad*%
%ADD10C,3.800000*%
%TD*%
%TA.AperFunction,ComponentPad*%
%ADD11R,1.600000X1.600000*%
%TD*%
%TA.AperFunction,ComponentPad*%
%ADD12O,1.600000X1.600000*%
%TD*%
%TA.AperFunction,ComponentPad*%
%ADD13R,1.700000X1.700000*%
%TD*%
%TA.AperFunction,ComponentPad*%
%ADD14O,1.700000X1.700000*%
%TD*%
%TA.AperFunction,SMDPad,CuDef*%
%ADD15RoundRect,0.250000X0.625000X-0.400000X0.625000X0.400000X-0.625000X0.400000X-0.625000X-0.400000X0*%
%TD*%
%TA.AperFunction,SMDPad,CuDef*%
%ADD16RoundRect,0.250000X0.450000X-0.350000X0.450000X0.350000X-0.450000X0.350000X-0.450000X-0.350000X0*%
%TD*%
%TA.AperFunction,SMDPad,CuDef*%
%ADD17RoundRect,0.250000X-0.475000X0.337500X-0.475000X-0.337500X0.475000X-0.337500X0.475000X0.337500X0*%
%TD*%
%TA.AperFunction,SMDPad,CuDef*%
%ADD18RoundRect,0.250000X-0.625000X0.400000X-0.625000X-0.400000X0.625000X-0.400000X0.625000X0.400000X0*%
%TD*%
%TA.AperFunction,ViaPad*%
%ADD19C,0.800000*%
%TD*%
%TA.AperFunction,Conductor*%
%ADD20C,0.250000*%
%TD*%
G04 APERTURE END LIST*
D10*
%TO.P, ,1*%
%TO.N,N/C*%
X165000000Y-89000000D03*
%TD*%
D11*
%TO.P,A2,1,TX1*%
%TO.N,unconnected-(A2-TX1-Pad1)*%
X124968000Y-108204000D03*
D12*
%TO.P,A2,2,RX1*%
%TO.N,unconnected-(A2-RX1-Pad2)*%
X127508000Y-108204000D03*
%TO.P,A2,3,~{RESET}*%
%TO.N,unconnected-(A2-~{RESET}-Pad3)*%
X130048000Y-108204000D03*
%TO.P,A2,4,GND*%
%TO.N,GNDREF*%
X132588000Y-108204000D03*
%TO.P,A2,5,D2*%
%TO.N,UserButton*%
X135128000Y-108204000D03*
%TO.P,A2,6,D3*%
%TO.N,Net-(A2-D3)*%
X137668000Y-108204000D03*
%TO.P,A2,7,D4*%
%TO.N,unconnected-(A2-D4-Pad7)*%
X140208000Y-108204000D03*
%TO.P,A2,8,D5*%
%TO.N,unconnected-(A2-D5-Pad8)*%
X142748000Y-108204000D03*
%TO.P,A2,9,D6*%
%TO.N,unconnected-(A2-D6-Pad9)*%
X145288000Y-108204000D03*
%TO.P,A2,10,D7*%
%TO.N,unconnected-(A2-D7-Pad10)*%
X147828000Y-108204000D03*
%TO.P,A2,11,D8*%
%TO.N,SS_SPI*%
X150368000Y-108204000D03*
%TO.P,A2,12,D9*%
%TO.N,ServoPulse*%
X152908000Y-108204000D03*
%TO.P,A2,13,D10*%
%TO.N,unconnected-(A2-D10-Pad13)*%
X155448000Y-108204000D03*
%TO.P,A2,14,MOSI*%
%TO.N,MOSI_SPI*%
X157988000Y-108204000D03*
%TO.P,A2,15,MISO*%
%TO.N,MISO_SPI*%
X160528000Y-108204000D03*
%TO.P,A2,16,SCK*%
%TO.N,SCK_SPI*%
X160528000Y-92964000D03*
%TO.P,A2,17,3V3*%
%TO.N,unconnected-(A2-3V3-Pad17)*%
X157988000Y-92964000D03*
%TO.P,A2,18,AREF*%
%TO.N,+5V*%
X155448000Y-92964000D03*
%TO.P,A2,19,A0*%
%TO.N,Poti10K*%
X152908000Y-92964000D03*
%TO.P,A2,20,A1*%
%TO.N,VPCell_1*%
X150368000Y-92964000D03*
%TO.P,A2,21,A2*%
%TO.N,Net-(A2-A2)*%
X147828000Y-92964000D03*
%TO.P,A2,22,A3*%
%TO.N,unconnected-(A2-A3-Pad22)*%
X145288000Y-92964000D03*
%TO.P,A2,23,SDA/A4*%
%TO.N,SDA*%
X142748000Y-92964000D03*
%TO.P,A2,24,SCL/A5*%
%TO.N,SCL*%
X140208000Y-92964000D03*
%TO.P,A2,25,A6*%
%TO.N,unconnected-(A2-A6-Pad25)*%
X137668000Y-92964000D03*
%TO.P,A2,26,A7*%
%TO.N,unconnected-(A2-A7-Pad26)*%
X135128000Y-92964000D03*
%TO.P,A2,27,+5V*%
%TO.N,+5V*%
X132588000Y-92964000D03*
%TO.P,A2,28,~{RESET}*%
%TO.N,unconnected-(A2-~{RESET}-Pad28)*%
X130048000Y-92964000D03*
%TO.P,A2,29,GND*%
%TO.N,GNDREF*%
X127508000Y-92964000D03*
%TO.P,A2,30,VIN*%
%TO.N,VDD*%
X124968000Y-92964000D03*
%TD*%
D13*
%TO.P,J2,1,Pin_1*%
%TO.N,VDD*%
X118655000Y-90000000D03*
D14*
%TO.P,J2,2,Pin_2*%
%TO.N,+5V*%
X116115000Y-90000000D03*
%TO.P,J2,3,Pin_3*%
%TO.N,VPCell_1*%
X118655000Y-92540000D03*
%TO.P,J2,4,Pin_4*%
%TO.N,Poti10K*%
X116115000Y-92540000D03*
%TO.P,J2,5,Pin_5*%
%TO.N,GNDREF*%
X118655000Y-95080000D03*
%TO.P,J2,6,Pin_6*%
%TO.N,UserButton*%
X116115000Y-95080000D03*
%TO.P,J2,7,Pin_7*%
%TO.N,ServoPulse*%
X118655000Y-97620000D03*
%TO.P,J2,8,Pin_8*%
%TO.N,LED_A*%
X116115000Y-97620000D03*
%TO.P,J2,9,Pin_9*%
%TO.N,VDD*%
X118655000Y-100160000D03*
%TO.P,J2,10,Pin_10*%
%TO.N,SCL*%
X116115000Y-100160000D03*
%TO.P,J2,11,Pin_11*%
%TO.N,GNDREF*%
X118655000Y-102700000D03*
%TO.P,J2,12,Pin_12*%
%TO.N,SDA*%
X116115000Y-102700000D03*
%TO.P,J2,13,Pin_13*%
%TO.N,SCK_SPI*%
X118655000Y-105240000D03*
%TO.P,J2,14,Pin_14*%
%TO.N,SS_SPI*%
X116115000Y-105240000D03*
%TO.P,J2,15,Pin_15*%
%TO.N,MISO_SPI*%
X118655000Y-107780000D03*
%TO.P,J2,16,Pin_16*%
%TO.N,+5V*%
X116115000Y-107780000D03*
%TO.P,J2,17,Pin_17*%
%TO.N,MOSI_SPI*%
X118655000Y-110320000D03*
%TO.P,J2,18,Pin_18*%
%TO.N,GNDREF*%
X116115000Y-110320000D03*
%TD*%
D10*
%TO.P, ,1*%
%TO.N,N/C*%
X122936000Y-112268000D03*
%TD*%
%TO.P, ,1*%
%TO.N,N/C*%
X165000000Y-112000000D03*
%TD*%
D15*
%TO.P,R4,1*%
%TO.N,VDD*%
X135001000Y-99112000D03*
%TO.P,R4,2*%
%TO.N,Net-(A2-A2)*%
X135001000Y-96012000D03*
%TD*%
D16*
%TO.P,R3,1*%
%TO.N,GNDREF*%
X157988000Y-98012000D03*
%TO.P,R3,2*%
%TO.N,Poti10K*%
X157988000Y-96012000D03*
%TD*%
D17*
%TO.P,C1,1*%
%TO.N,Net-(A2-A2)*%
X142240000Y-96012000D03*
%TO.P,C1,2*%
%TO.N,GNDREF*%
X142240000Y-98087000D03*
%TD*%
%TO.P,C3,1*%
%TO.N,Poti10K*%
X161290000Y-96012000D03*
%TO.P,C3,2*%
%TO.N,GNDREF*%
X161290000Y-98087000D03*
%TD*%
D15*
%TO.P,R2,1*%
%TO.N,GNDREF*%
X151130000Y-99112000D03*
%TO.P,R2,2*%
%TO.N,VPCell_1*%
X151130000Y-96012000D03*
%TD*%
%TO.P,R1,1*%
%TO.N,GNDREF*%
X138684000Y-99112000D03*
%TO.P,R1,2*%
%TO.N,Net-(A2-A2)*%
X138684000Y-96012000D03*
%TD*%
D18*
%TO.P,R5,1*%
%TO.N,LED_A*%
X137668000Y-102362000D03*
%TO.P,R5,2*%
%TO.N,Net-(A2-D3)*%
X137668000Y-105462000D03*
%TD*%
D17*
%TO.P,C2,1*%
%TO.N,VPCell_1*%
X154686000Y-96012000D03*
%TO.P,C2,2*%
%TO.N,GNDREF*%
X154686000Y-98087000D03*
%TD*%
D19*
%TO.N,VPCell_1*%
X121965500Y-89199500D03*
%TO.N,VDD*%
X132842000Y-99060000D03*
%TO.N,UserButton*%
X133096000Y-102362000D03*
%TO.N,SS_SPI*%
X145796000Y-104065000D03*
%TO.N,ServoPulse*%
X124695250Y-99586750D03*
%TO.N,SDA*%
X126746000Y-98806000D03*
X123952000Y-101600000D03*
%TO.N,SCL*%
X123420950Y-99337050D03*
%TO.N,SCK_SPI*%
X111256299Y-90936299D03*
%TD*%
D20*
%TO.N,GNDREF*%
X118655000Y-95080000D02*
X117290000Y-96445000D01*
X117480000Y-101525000D02*
X115628299Y-101525000D01*
X115391000Y-96445000D02*
X114808000Y-97028000D01*
X115628299Y-101525000D02*
X114808000Y-102345299D01*
X114808000Y-102362000D02*
X114808000Y-109013000D01*
X118625000Y-95080000D02*
X125300000Y-95080000D01*
X114808000Y-102345299D02*
X114808000Y-102362000D01*
X118655000Y-102700000D02*
X117480000Y-101525000D01*
X114808000Y-109013000D02*
X116115000Y-110320000D01*
X125300000Y-95080000D02*
X127380000Y-93000000D01*
X117290000Y-96445000D02*
X115391000Y-96445000D01*
X114808000Y-97028000D02*
X114808000Y-102362000D01*
%TO.N,Net-(A2-A2)*%
X142240000Y-96266000D02*
X138710000Y-96266000D01*
X138710000Y-96266000D02*
X138684000Y-96240000D01*
X135027000Y-96240000D02*
X135001000Y-96266000D01*
X147828000Y-92872000D02*
X147700000Y-93000000D01*
X138684000Y-96240000D02*
X135027000Y-96240000D01*
X147700000Y-93000000D02*
X144434000Y-96266000D01*
X144434000Y-96266000D02*
X142240000Y-96266000D01*
%TO.N,VPCell_1*%
X144870000Y-87630000D02*
X150240000Y-93000000D01*
X121965500Y-89199500D02*
X123535000Y-87630000D01*
X123535000Y-87630000D02*
X144870000Y-87630000D01*
X150240000Y-95122000D02*
X151130000Y-96012000D01*
X151130000Y-96012000D02*
X154686000Y-96012000D01*
X150240000Y-93000000D02*
X150240000Y-95122000D01*
%TO.N,VDD*%
X132894000Y-99112000D02*
X132842000Y-99060000D01*
X135001000Y-99112000D02*
X132894000Y-99112000D01*
X124840000Y-93000000D02*
X122010000Y-90170000D01*
X122010000Y-90170000D02*
X118795000Y-90170000D01*
X118795000Y-90170000D02*
X118625000Y-90000000D01*
%TO.N,LED_A*%
X120904000Y-100584000D02*
X119305000Y-98985000D01*
X117480000Y-98985000D02*
X116115000Y-97620000D01*
X119305000Y-98985000D02*
X117480000Y-98985000D01*
X135890000Y-100584000D02*
X120904000Y-100584000D01*
X137668000Y-102362000D02*
X135890000Y-100584000D01*
%TO.N,Net-(A2-D3)*%
X137540000Y-108240000D02*
X137540000Y-105590000D01*
X137540000Y-105590000D02*
X137668000Y-105462000D01*
%TO.N,Poti10K*%
X115570000Y-87122000D02*
X113792000Y-88900000D01*
X154522000Y-94742000D02*
X146902000Y-87122000D01*
X113792000Y-90247000D02*
X116085000Y-92540000D01*
X157988000Y-96012000D02*
X156718000Y-94742000D01*
X156718000Y-94742000D02*
X154522000Y-94742000D01*
X157988000Y-96012000D02*
X161290000Y-96012000D01*
X113792000Y-88900000D02*
X113792000Y-90247000D01*
X146902000Y-87122000D02*
X115570000Y-87122000D01*
%TO.N,UserButton*%
X133096000Y-102362000D02*
X135000000Y-104266000D01*
X135000000Y-104266000D02*
X135000000Y-108240000D01*
%TO.N,SS_SPI*%
X146065000Y-104065000D02*
X150240000Y-108240000D01*
X145796000Y-104065000D02*
X146065000Y-104065000D01*
%TO.N,ServoPulse*%
X124695250Y-99586750D02*
X124732750Y-99586750D01*
X144627000Y-100087000D02*
X152780000Y-108240000D01*
X124732750Y-99586750D02*
X125233000Y-100087000D01*
X125233000Y-100087000D02*
X144627000Y-100087000D01*
%TO.N,SDA*%
X142748000Y-92964000D02*
X140675000Y-95037000D01*
X130515000Y-95037000D02*
X126746000Y-98806000D01*
X140675000Y-95037000D02*
X130515000Y-95037000D01*
X117290000Y-103875000D02*
X116115000Y-102700000D01*
X121677000Y-103875000D02*
X117290000Y-103875000D01*
X123952000Y-101600000D02*
X121677000Y-103875000D01*
%TO.N,SCL*%
X140208000Y-92964000D02*
X138938000Y-94234000D01*
X128524000Y-94234000D02*
X123420950Y-99337050D01*
X138938000Y-94234000D02*
X128524000Y-94234000D01*
%TO.N,SCK_SPI*%
X111256299Y-90799305D02*
X111256299Y-90936299D01*
X160400000Y-93000000D02*
X154014000Y-86614000D01*
X115441604Y-86614000D02*
X111256299Y-90799305D01*
X154014000Y-86614000D02*
X115441604Y-86614000D01*
%TD*%
%TA.AperFunction,Conductor*%
%TO.N,GNDREF*%
G36*
X114705690Y-86252685D02*
G01*
X114751445Y-86305489D01*
X114761389Y-86374647D01*
X114732364Y-86438203D01*
X114726332Y-86444681D01*
X111154049Y-90016962D01*
X111092726Y-90050447D01*
X111092150Y-90050571D01*
X110976495Y-90075155D01*
X110976491Y-90075156D01*
X110803569Y-90152147D01*
X110803564Y-90152150D01*
X110650428Y-90263410D01*
X110523765Y-90404084D01*
X110429120Y-90568014D01*
X110429117Y-90568021D01*
X110382264Y-90712221D01*
X110370625Y-90748043D01*
X110350839Y-90936299D01*
X110370625Y-91124555D01*
X110370626Y-91124558D01*
X110429117Y-91304576D01*
X110429120Y-91304583D01*
X110523766Y-91468515D01*
X110594140Y-91546673D01*
X110650428Y-91609187D01*
X110803564Y-91720447D01*
X110803569Y-91720450D01*
X110976491Y-91797441D01*
X110976496Y-91797443D01*
X111161653Y-91836799D01*
X111161654Y-91836799D01*
X111350943Y-91836799D01*
X111350945Y-91836799D01*
X111536102Y-91797443D01*
X111709029Y-91720450D01*
X111862170Y-91609187D01*
X111988832Y-91468515D01*
X112083478Y-91304583D01*
X112141973Y-91124555D01*
X112161759Y-90936299D01*
X112152927Y-90852267D01*
X112165497Y-90783538D01*
X112188567Y-90751626D01*
X112653850Y-90286343D01*
X112954820Y-89985373D01*
X113016142Y-89951889D01*
X113085834Y-89956873D01*
X113141767Y-89998745D01*
X113166184Y-90064209D01*
X113166500Y-90073055D01*
X113166500Y-90164255D01*
X113164775Y-90179872D01*
X113165061Y-90179899D01*
X113164326Y-90187665D01*
X113166500Y-90256814D01*
X113166500Y-90286343D01*
X113166501Y-90286360D01*
X113167368Y-90293231D01*
X113167826Y-90299050D01*
X113169290Y-90345624D01*
X113169291Y-90345627D01*
X113174880Y-90364867D01*
X113178824Y-90383911D01*
X113181336Y-90403792D01*
X113181452Y-90404084D01*
X113198490Y-90447119D01*
X113200382Y-90452647D01*
X113213381Y-90497388D01*
X113223580Y-90514634D01*
X113232138Y-90532103D01*
X113239514Y-90550732D01*
X113266898Y-90588423D01*
X113270106Y-90593307D01*
X113293827Y-90633416D01*
X113293833Y-90633424D01*
X113307990Y-90647580D01*
X113320628Y-90662376D01*
X113332405Y-90678586D01*
X113332406Y-90678587D01*
X113368309Y-90708288D01*
X113372620Y-90712210D01*
X114076069Y-91415659D01*
X114768422Y-92108012D01*
X114801907Y-92169335D01*
X114800516Y-92227785D01*
X114779939Y-92304583D01*
X114779936Y-92304596D01*
X114759341Y-92539999D01*
X114759341Y-92540000D01*
X114779936Y-92775403D01*
X114779938Y-92775413D01*
X114841094Y-93003655D01*
X114841096Y-93003659D01*
X114841097Y-93003663D01*
X114881357Y-93090000D01*
X114940965Y-93217830D01*
X114940967Y-93217834D01*
X115018246Y-93328199D01*
X115076501Y-93411396D01*
X115076506Y-93411402D01*
X115243597Y-93578493D01*
X115243603Y-93578498D01*
X115429158Y-93708425D01*
X115472783Y-93763002D01*
X115479977Y-93832500D01*
X115448454Y-93894855D01*
X115429158Y-93911575D01*
X115243597Y-94041505D01*
X115076505Y-94208597D01*
X114940965Y-94402169D01*
X114940964Y-94402171D01*
X114841098Y-94616335D01*
X114841094Y-94616344D01*
X114779938Y-94844586D01*
X114779936Y-94844596D01*
X114759341Y-95079999D01*
X114759341Y-95080000D01*
X114779936Y-95315403D01*
X114779938Y-95315413D01*
X114841094Y-95543655D01*
X114841096Y-95543659D01*
X114841097Y-95543663D01*
X114923835Y-95721094D01*
X114940965Y-95757830D01*
X114940967Y-95757834D01*
X115049281Y-95912521D01*
X115076501Y-95951396D01*
X115076506Y-95951402D01*
X115243597Y-96118493D01*
X115243603Y-96118498D01*
X115429158Y-96248425D01*
X115472783Y-96303002D01*
X115479977Y-96372500D01*
X115448454Y-96434855D01*
X115429158Y-96451575D01*
X115243597Y-96581505D01*
X115076505Y-96748597D01*
X114940965Y-96942169D01*
X114940964Y-96942171D01*
X114867352Y-97100034D01*
X114841569Y-97155326D01*
X114841098Y-97156335D01*
X114841094Y-97156344D01*
X114779938Y-97384586D01*
X114779936Y-97384596D01*
X114759341Y-97619999D01*
X114759341Y-97620000D01*
X114779936Y-97855403D01*
X114779938Y-97855413D01*
X114841094Y-98083655D01*
X114841096Y-98083659D01*
X114841097Y-98083663D01*
X114894812Y-98198855D01*
X114940965Y-98297830D01*
X114940967Y-98297834D01*
X115076501Y-98491395D01*
X115076506Y-98491402D01*
X115243597Y-98658493D01*
X115243603Y-98658498D01*
X115429158Y-98788425D01*
X115472783Y-98843002D01*
X115479977Y-98912500D01*
X115448454Y-98974855D01*
X115429158Y-98991575D01*
X115243597Y-99121505D01*
X115076505Y-99288597D01*
X114940965Y-99482169D01*
X114940964Y-99482171D01*
X114841098Y-99696335D01*
X114841094Y-99696344D01*
X114779938Y-99924586D01*
X114779936Y-99924596D01*
X114759341Y-100159999D01*
X114759341Y-100160000D01*
X114779936Y-100395403D01*
X114779938Y-100395413D01*
X114841094Y-100623655D01*
X114841096Y-100623659D01*
X114841097Y-100623663D01*
X114920138Y-100793166D01*
X114940965Y-100837830D01*
X114940967Y-100837834D01*
X115031963Y-100967788D01*
X115076501Y-101031396D01*
X115076506Y-101031402D01*
X115243597Y-101198493D01*
X115243603Y-101198498D01*
X115429158Y-101328425D01*
X115472783Y-101383002D01*
X115479977Y-101452500D01*
X115448454Y-101514855D01*
X115429158Y-101531575D01*
X115243597Y-101661505D01*
X115076505Y-101828597D01*
X114940965Y-102022169D01*
X114940964Y-102022171D01*
X114841098Y-102236335D01*
X114841094Y-102236344D01*
X114779938Y-102464586D01*
X114779936Y-102464596D01*
X114759341Y-102699999D01*
X114759341Y-102700000D01*
X114779936Y-102935403D01*
X114779938Y-102935413D01*
X114841094Y-103163655D01*
X114841096Y-103163659D01*
X114841097Y-103163663D01*
X114930184Y-103354710D01*
X114940965Y-103377830D01*
X114940967Y-103377834D01*
X115076501Y-103571395D01*
X115076506Y-103571402D01*
X115243597Y-103738493D01*
X115243603Y-103738498D01*
X115429158Y-103868425D01*
X115472783Y-103923002D01*
X115479977Y-103992500D01*
X115448454Y-104054855D01*
X115429158Y-104071575D01*
X115243597Y-104201505D01*
X115076505Y-104368597D01*
X114940965Y-104562169D01*
X114940964Y-104562171D01*
X114841098Y-104776335D01*
X114841094Y-104776344D01*
X114779938Y-105004586D01*
X114779936Y-105004596D01*
X114759341Y-105239999D01*
X114759341Y-105240000D01*
X114779936Y-105475403D01*
X114779938Y-105475413D01*
X114841094Y-105703655D01*
X114841096Y-105703659D01*
X114841097Y-105703663D01*
X114845000Y-105712032D01*
X114940965Y-105917830D01*
X114940967Y-105917834D01*
X115008861Y-106014796D01*
X115076501Y-106111396D01*
X115076506Y-106111402D01*
X115243597Y-106278493D01*
X115243603Y-106278498D01*
X115429158Y-106408425D01*
X115472783Y-106463002D01*
X115479977Y-106532500D01*
X115448454Y-106594855D01*
X115429158Y-106611575D01*
X115243597Y-106741505D01*
X115076505Y-106908597D01*
X114940965Y-107102169D01*
X114940964Y-107102171D01*
X114841098Y-107316335D01*
X114841094Y-107316344D01*
X114779938Y-107544586D01*
X114779936Y-107544596D01*
X114759341Y-107779999D01*
X114759341Y-107780000D01*
X114779936Y-108015403D01*
X114779938Y-108015413D01*
X114841094Y-108243655D01*
X114841096Y-108243659D01*
X114841097Y-108243663D01*
X114920454Y-108413844D01*
X114940965Y-108457830D01*
X114940967Y-108457834D01*
X115042523Y-108602870D01*
X115076501Y-108651396D01*
X115076506Y-108651402D01*
X115243597Y-108818493D01*
X115243603Y-108818498D01*
X115429594Y-108948730D01*
X115473219Y-109003307D01*
X115480413Y-109072805D01*
X115448890Y-109135160D01*
X115429595Y-109151880D01*
X115243922Y-109281890D01*
X115243920Y-109281891D01*
X115076891Y-109448920D01*
X115076886Y-109448926D01*
X114941400Y-109642420D01*
X114941399Y-109642422D01*
X114841570Y-109856507D01*
X114841567Y-109856513D01*
X114784364Y-110069999D01*
X114784364Y-110070000D01*
X115681314Y-110070000D01*
X115655507Y-110110156D01*
X115615000Y-110248111D01*
X115615000Y-110391889D01*
X115655507Y-110529844D01*
X115681314Y-110570000D01*
X114784364Y-110570000D01*
X114841567Y-110783486D01*
X114841570Y-110783492D01*
X114941399Y-110997578D01*
X115076894Y-111191082D01*
X115243917Y-111358105D01*
X115437421Y-111493600D01*
X115651507Y-111593429D01*
X115651516Y-111593433D01*
X115865000Y-111650634D01*
X115865000Y-110755501D01*
X115972685Y-110804680D01*
X116079237Y-110820000D01*
X116150763Y-110820000D01*
X116257315Y-110804680D01*
X116365000Y-110755501D01*
X116365000Y-111650633D01*
X116578483Y-111593433D01*
X116578492Y-111593429D01*
X116792578Y-111493600D01*
X116986082Y-111358105D01*
X117153105Y-111191082D01*
X117283119Y-111005405D01*
X117337696Y-110961781D01*
X117407195Y-110954588D01*
X117469549Y-110986110D01*
X117486269Y-111005405D01*
X117616505Y-111191401D01*
X117783599Y-111358495D01*
X117817972Y-111382563D01*
X117977165Y-111494032D01*
X117977167Y-111494033D01*
X117977170Y-111494035D01*
X118191337Y-111593903D01*
X118419592Y-111655063D01*
X118588433Y-111669835D01*
X118654999Y-111675659D01*
X118655000Y-111675659D01*
X118655001Y-111675659D01*
X118694234Y-111672226D01*
X118890408Y-111655063D01*
X119118663Y-111593903D01*
X119332830Y-111494035D01*
X119526401Y-111358495D01*
X119693495Y-111191401D01*
X119829035Y-110997830D01*
X119928903Y-110783663D01*
X119990063Y-110555408D01*
X120010659Y-110320000D01*
X119990063Y-110084592D01*
X119928903Y-109856337D01*
X119829035Y-109642171D01*
X119825665Y-109637357D01*
X119693494Y-109448597D01*
X119526402Y-109281506D01*
X119526396Y-109281501D01*
X119340842Y-109151575D01*
X119297217Y-109096998D01*
X119290023Y-109027500D01*
X119321546Y-108965145D01*
X119340842Y-108948425D01*
X119471790Y-108856734D01*
X119526401Y-108818495D01*
X119693495Y-108651401D01*
X119829035Y-108457830D01*
X119928903Y-108243663D01*
X119990063Y-108015408D01*
X120010659Y-107780000D01*
X119990063Y-107544592D01*
X119928903Y-107316337D01*
X119829035Y-107102171D01*
X119823425Y-107094158D01*
X119693494Y-106908597D01*
X119526402Y-106741506D01*
X119526396Y-106741501D01*
X119340842Y-106611575D01*
X119297217Y-106556998D01*
X119290023Y-106487500D01*
X119321546Y-106425145D01*
X119340842Y-106408425D01*
X119451907Y-106330656D01*
X119526401Y-106278495D01*
X119693495Y-106111401D01*
X119829035Y-105917830D01*
X119928903Y-105703663D01*
X119990063Y-105475408D01*
X120010659Y-105240000D01*
X119990063Y-105004592D01*
X119928903Y-104776337D01*
X119882537Y-104676905D01*
X119872045Y-104607827D01*
X119900565Y-104544043D01*
X119959041Y-104505804D01*
X119994919Y-104500500D01*
X121594257Y-104500500D01*
X121609877Y-104502224D01*
X121609904Y-104501939D01*
X121617660Y-104502671D01*
X121617667Y-104502673D01*
X121686814Y-104500500D01*
X121716350Y-104500500D01*
X121723228Y-104499630D01*
X121729041Y-104499172D01*
X121775627Y-104497709D01*
X121794869Y-104492117D01*
X121813912Y-104488174D01*
X121833792Y-104485664D01*
X121877122Y-104468507D01*
X121882646Y-104466617D01*
X121886396Y-104465527D01*
X121927390Y-104453618D01*
X121944629Y-104443422D01*
X121962103Y-104434862D01*
X121980727Y-104427488D01*
X121980727Y-104427487D01*
X121980732Y-104427486D01*
X122018449Y-104400082D01*
X122023305Y-104396892D01*
X122063420Y-104373170D01*
X122077589Y-104358999D01*
X122092379Y-104346368D01*
X122108587Y-104334594D01*
X122138299Y-104298676D01*
X122142212Y-104294376D01*
X123899772Y-102536819D01*
X123961095Y-102503334D01*
X123987453Y-102500500D01*
X124046644Y-102500500D01*
X124046646Y-102500500D01*
X124231803Y-102461144D01*
X124404730Y-102384151D01*
X124557871Y-102272888D01*
X124684533Y-102132216D01*
X124779179Y-101968284D01*
X124837674Y-101788256D01*
X124857460Y-101600000D01*
X124837674Y-101411744D01*
X124824700Y-101371817D01*
X124822706Y-101301978D01*
X124858786Y-101242145D01*
X124921487Y-101211316D01*
X124942632Y-101209500D01*
X135579548Y-101209500D01*
X135646587Y-101229185D01*
X135667229Y-101245819D01*
X136256181Y-101834771D01*
X136289666Y-101896094D01*
X136292500Y-101922452D01*
X136292500Y-102812001D01*
X136292501Y-102812019D01*
X136303000Y-102914796D01*
X136303001Y-102914799D01*
X136309832Y-102935413D01*
X136358186Y-103081334D01*
X136450288Y-103230656D01*
X136574344Y-103354712D01*
X136723666Y-103446814D01*
X136890203Y-103501999D01*
X136992991Y-103512500D01*
X138343008Y-103512499D01*
X138445797Y-103501999D01*
X138612334Y-103446814D01*
X138761656Y-103354712D01*
X138885712Y-103230656D01*
X138977814Y-103081334D01*
X139032999Y-102914797D01*
X139043500Y-102812009D01*
X139043499Y-101911992D01*
X139035101Y-101829785D01*
X139032999Y-101809203D01*
X139032998Y-101809200D01*
X139026058Y-101788256D01*
X138977814Y-101642666D01*
X138885712Y-101493344D01*
X138761656Y-101369288D01*
X138668888Y-101312069D01*
X138612336Y-101277187D01*
X138612331Y-101277185D01*
X138610862Y-101276698D01*
X138445797Y-101222001D01*
X138445795Y-101222000D01*
X138343016Y-101211500D01*
X138343009Y-101211500D01*
X137453453Y-101211500D01*
X137386414Y-101191815D01*
X137365772Y-101175181D01*
X137114772Y-100924181D01*
X137081287Y-100862858D01*
X137086271Y-100793166D01*
X137128143Y-100737233D01*
X137193607Y-100712816D01*
X137202453Y-100712500D01*
X144316548Y-100712500D01*
X144383587Y-100732185D01*
X144404229Y-100748819D01*
X150350949Y-106695540D01*
X150384434Y-106756863D01*
X150379450Y-106826555D01*
X150337578Y-106882488D01*
X150274076Y-106906749D01*
X150141312Y-106918364D01*
X150141302Y-106918366D01*
X149943608Y-106971338D01*
X149873758Y-106969675D01*
X149823834Y-106939244D01*
X146664382Y-103779791D01*
X146634133Y-103730429D01*
X146623179Y-103696716D01*
X146528533Y-103532784D01*
X146401871Y-103392112D01*
X146382219Y-103377834D01*
X146248734Y-103280851D01*
X146248729Y-103280848D01*
X146075807Y-103203857D01*
X146075802Y-103203855D01*
X145930001Y-103172865D01*
X145890646Y-103164500D01*
X145701354Y-103164500D01*
X145668897Y-103171398D01*
X145516197Y-103203855D01*
X145516192Y-103203857D01*
X145343270Y-103280848D01*
X145343265Y-103280851D01*
X145190129Y-103392111D01*
X145063466Y-103532785D01*
X144968821Y-103696715D01*
X144968818Y-103696722D01*
X144916249Y-103858515D01*
X144910326Y-103876744D01*
X144890540Y-104065000D01*
X144910326Y-104253256D01*
X144910327Y-104253259D01*
X144968818Y-104433277D01*
X144968821Y-104433284D01*
X145063467Y-104597216D01*
X145135220Y-104676905D01*
X145190129Y-104737888D01*
X145343265Y-104849148D01*
X145343270Y-104849151D01*
X145516192Y-104926142D01*
X145516197Y-104926144D01*
X145701354Y-104965500D01*
X145701355Y-104965500D01*
X145890645Y-104965500D01*
X145890646Y-104965500D01*
X145981702Y-104946145D01*
X146051369Y-104951461D01*
X146095164Y-104979754D01*
X147810950Y-106695540D01*
X147844435Y-106756863D01*
X147839451Y-106826555D01*
X147797579Y-106882488D01*
X147734077Y-106906749D01*
X147601312Y-106918364D01*
X147601302Y-106918366D01*
X147381511Y-106977258D01*
X147381502Y-106977261D01*
X147175267Y-107073431D01*
X147175265Y-107073432D01*
X146988858Y-107203954D01*
X146827954Y-107364858D01*
X146697432Y-107551265D01*
X146697431Y-107551267D01*
X146670382Y-107609275D01*
X146624209Y-107661714D01*
X146557016Y-107680866D01*
X146490135Y-107660650D01*
X146445618Y-107609275D01*
X146418686Y-107551520D01*
X146418568Y-107551266D01*
X146288047Y-107364861D01*
X146288045Y-107364858D01*
X146127141Y-107203954D01*
X145940734Y-107073432D01*
X145940732Y-107073431D01*
X145734497Y-106977261D01*
X145734488Y-106977258D01*
X145514697Y-106918366D01*
X145514693Y-106918365D01*
X145514692Y-106918365D01*
X145514691Y-106918364D01*
X145514686Y-106918364D01*
X145288002Y-106898532D01*
X145287998Y-106898532D01*
X145061313Y-106918364D01*
X145061302Y-106918366D01*
X144841511Y-106977258D01*
X144841502Y-106977261D01*
X144635267Y-107073431D01*
X144635265Y-107073432D01*
X144448858Y-107203954D01*
X144287954Y-107364858D01*
X144157432Y-107551265D01*
X144157431Y-107551267D01*
X144130382Y-107609275D01*
X144084209Y-107661714D01*
X144017016Y-107680866D01*
X143950135Y-107660650D01*
X143905618Y-107609275D01*
X143878686Y-107551520D01*
X143878568Y-107551266D01*
X143748047Y-107364861D01*
X143748045Y-107364858D01*
X143587141Y-107203954D01*
X143400734Y-107073432D01*
X143400732Y-107073431D01*
X143194497Y-106977261D01*
X143194488Y-106977258D01*
X142974697Y-106918366D01*
X142974693Y-106918365D01*
X142974692Y-106918365D01*
X142974691Y-106918364D01*
X142974686Y-106918364D01*
X142748002Y-106898532D01*
X142747998Y-106898532D01*
X142521313Y-106918364D01*
X142521302Y-106918366D01*
X142301511Y-106977258D01*
X142301502Y-106977261D01*
X142095267Y-107073431D01*
X142095265Y-107073432D01*
X141908858Y-107203954D01*
X141747954Y-107364858D01*
X141617432Y-107551265D01*
X141617431Y-107551267D01*
X141590382Y-107609275D01*
X141544209Y-107661714D01*
X141477016Y-107680866D01*
X141410135Y-107660650D01*
X141365618Y-107609275D01*
X141338686Y-107551520D01*
X141338568Y-107551266D01*
X141208047Y-107364861D01*
X141208045Y-107364858D01*
X141047141Y-107203954D01*
X140860734Y-107073432D01*
X140860732Y-107073431D01*
X140654497Y-106977261D01*
X140654488Y-106977258D01*
X140434697Y-106918366D01*
X140434693Y-106918365D01*
X140434692Y-106918365D01*
X140434691Y-106918364D01*
X140434686Y-106918364D01*
X140208002Y-106898532D01*
X140207998Y-106898532D01*
X139981313Y-106918364D01*
X139981302Y-106918366D01*
X139761511Y-106977258D01*
X139761502Y-106977261D01*
X139555267Y-107073431D01*
X139555265Y-107073432D01*
X139368858Y-107203954D01*
X139207954Y-107364858D01*
X139077432Y-107551265D01*
X139077431Y-107551267D01*
X139050382Y-107609275D01*
X139004209Y-107661714D01*
X138937016Y-107680866D01*
X138870135Y-107660650D01*
X138825618Y-107609275D01*
X138798686Y-107551520D01*
X138798568Y-107551266D01*
X138668047Y-107364861D01*
X138668045Y-107364858D01*
X138507141Y-107203954D01*
X138320733Y-107073431D01*
X138237094Y-107034429D01*
X138184655Y-106988256D01*
X138165500Y-106922047D01*
X138165500Y-106736499D01*
X138185185Y-106669460D01*
X138237989Y-106623705D01*
X138289500Y-106612499D01*
X138343002Y-106612499D01*
X138343008Y-106612499D01*
X138352054Y-106611575D01*
X138406972Y-106605965D01*
X138445797Y-106601999D01*
X138612334Y-106546814D01*
X138761656Y-106454712D01*
X138885712Y-106330656D01*
X138977814Y-106181334D01*
X139032999Y-106014797D01*
X139043500Y-105912009D01*
X139043499Y-105011992D01*
X139042743Y-105004596D01*
X139032999Y-104909203D01*
X139032998Y-104909200D01*
X138977814Y-104742666D01*
X138885712Y-104593344D01*
X138761656Y-104469288D01*
X138668888Y-104412069D01*
X138612336Y-104377187D01*
X138612331Y-104377185D01*
X138610862Y-104376698D01*
X138445797Y-104322001D01*
X138445795Y-104322000D01*
X138343010Y-104311500D01*
X136992998Y-104311500D01*
X136992981Y-104311501D01*
X136890203Y-104322000D01*
X136890200Y-104322001D01*
X136723668Y-104377185D01*
X136723663Y-104377187D01*
X136574342Y-104469289D01*
X136450289Y-104593342D01*
X136358187Y-104742663D01*
X136358185Y-104742668D01*
X136347026Y-104776344D01*
X136303001Y-104909203D01*
X136303001Y-104909204D01*
X136303000Y-104909204D01*
X136292500Y-105011983D01*
X136292500Y-105912001D01*
X136292501Y-105912019D01*
X136303000Y-106014796D01*
X136303001Y-106014799D01*
X136335010Y-106111395D01*
X136358186Y-106181334D01*
X136450288Y-106330656D01*
X136574344Y-106454712D01*
X136723666Y-106546814D01*
X136829504Y-106581885D01*
X136886949Y-106621658D01*
X136913772Y-106686174D01*
X136914500Y-106699591D01*
X136914500Y-107079437D01*
X136894815Y-107146476D01*
X136861624Y-107181011D01*
X136828868Y-107203946D01*
X136828865Y-107203949D01*
X136667951Y-107364862D01*
X136537432Y-107551265D01*
X136537431Y-107551267D01*
X136510382Y-107609275D01*
X136464209Y-107661714D01*
X136397016Y-107680866D01*
X136330135Y-107660650D01*
X136285618Y-107609275D01*
X136258686Y-107551520D01*
X136258568Y-107551266D01*
X136128047Y-107364861D01*
X136128045Y-107364858D01*
X135967141Y-107203954D01*
X135780733Y-107073431D01*
X135697094Y-107034429D01*
X135644655Y-106988256D01*
X135625500Y-106922047D01*
X135625500Y-104348742D01*
X135627224Y-104333122D01*
X135626939Y-104333095D01*
X135627673Y-104325333D01*
X135625500Y-104256172D01*
X135625500Y-104226656D01*
X135625500Y-104226650D01*
X135624631Y-104219779D01*
X135624173Y-104213952D01*
X135623782Y-104201505D01*
X135622710Y-104167373D01*
X135617119Y-104148130D01*
X135613173Y-104129078D01*
X135610664Y-104109208D01*
X135593504Y-104065867D01*
X135591624Y-104060379D01*
X135578618Y-104015610D01*
X135568422Y-103998370D01*
X135559861Y-103980894D01*
X135552487Y-103962270D01*
X135552486Y-103962268D01*
X135525079Y-103924545D01*
X135521888Y-103919686D01*
X135498172Y-103879583D01*
X135498165Y-103879574D01*
X135484006Y-103865415D01*
X135471368Y-103850619D01*
X135459594Y-103834413D01*
X135423688Y-103804709D01*
X135419376Y-103800786D01*
X134034960Y-102416369D01*
X134001475Y-102355046D01*
X133999323Y-102341668D01*
X133981674Y-102173744D01*
X133923179Y-101993716D01*
X133828533Y-101829784D01*
X133701871Y-101689112D01*
X133701870Y-101689111D01*
X133548734Y-101577851D01*
X133548729Y-101577848D01*
X133375807Y-101500857D01*
X133375802Y-101500855D01*
X133230001Y-101469865D01*
X133190646Y-101461500D01*
X133001354Y-101461500D01*
X132968897Y-101468398D01*
X132816197Y-101500855D01*
X132816192Y-101500857D01*
X132643270Y-101577848D01*
X132643265Y-101577851D01*
X132490129Y-101689111D01*
X132363466Y-101829785D01*
X132268821Y-101993715D01*
X132268818Y-101993722D01*
X132245525Y-102065412D01*
X132210326Y-102173744D01*
X132190540Y-102362000D01*
X132210326Y-102550256D01*
X132210327Y-102550259D01*
X132268818Y-102730277D01*
X132268821Y-102730284D01*
X132363467Y-102894216D01*
X132486446Y-103030798D01*
X132490129Y-103034888D01*
X132643265Y-103146148D01*
X132643270Y-103146151D01*
X132816192Y-103223142D01*
X132816197Y-103223144D01*
X133001354Y-103262500D01*
X133060548Y-103262500D01*
X133127587Y-103282185D01*
X133148229Y-103298819D01*
X134338181Y-104488771D01*
X134371666Y-104550094D01*
X134374500Y-104576452D01*
X134374500Y-107079437D01*
X134354815Y-107146476D01*
X134321624Y-107181011D01*
X134288868Y-107203946D01*
X134288865Y-107203949D01*
X134127951Y-107364862D01*
X134002109Y-107544586D01*
X133997432Y-107551266D01*
X133997315Y-107551518D01*
X133970106Y-107609867D01*
X133923933Y-107662306D01*
X133856739Y-107681457D01*
X133789858Y-107661241D01*
X133745342Y-107609865D01*
X133718135Y-107551520D01*
X133718134Y-107551518D01*
X133587657Y-107365179D01*
X133426820Y-107204342D01*
X133240482Y-107073865D01*
X133034328Y-106977734D01*
X132838000Y-106925127D01*
X132838000Y-107768498D01*
X132730315Y-107719320D01*
X132623763Y-107704000D01*
X132552237Y-107704000D01*
X132445685Y-107719320D01*
X132338000Y-107768498D01*
X132338000Y-106925127D01*
X132141671Y-106977734D01*
X131935517Y-107073865D01*
X131749179Y-107204342D01*
X131588342Y-107365179D01*
X131457867Y-107551515D01*
X131430657Y-107609867D01*
X131384484Y-107662306D01*
X131317290Y-107681457D01*
X131250409Y-107661241D01*
X131205893Y-107609865D01*
X131178685Y-107551518D01*
X131178568Y-107551266D01*
X131048047Y-107364861D01*
X131048045Y-107364858D01*
X130887141Y-107203954D01*
X130700734Y-107073432D01*
X130700732Y-107073431D01*
X130494497Y-106977261D01*
X130494488Y-106977258D01*
X130274697Y-106918366D01*
X130274693Y-106918365D01*
X130274692Y-106918365D01*
X130274691Y-106918364D01*
X130274686Y-106918364D01*
X130048002Y-106898532D01*
X130047998Y-106898532D01*
X129821313Y-106918364D01*
X129821302Y-106918366D01*
X129601511Y-106977258D01*
X129601502Y-106977261D01*
X129395267Y-107073431D01*
X129395265Y-107073432D01*
X129208858Y-107203954D01*
X129047954Y-107364858D01*
X128917432Y-107551265D01*
X128917431Y-107551267D01*
X128890382Y-107609275D01*
X128844209Y-107661714D01*
X128777016Y-107680866D01*
X128710135Y-107660650D01*
X128665618Y-107609275D01*
X128638686Y-107551520D01*
X128638568Y-107551266D01*
X128508047Y-107364861D01*
X128508045Y-107364858D01*
X128347141Y-107203954D01*
X128160734Y-107073432D01*
X128160732Y-107073431D01*
X127954497Y-106977261D01*
X127954488Y-106977258D01*
X127734697Y-106918366D01*
X127734693Y-106918365D01*
X127734692Y-106918365D01*
X127734691Y-106918364D01*
X127734686Y-106918364D01*
X127508002Y-106898532D01*
X127507998Y-106898532D01*
X127281313Y-106918364D01*
X127281302Y-106918366D01*
X127061511Y-106977258D01*
X127061502Y-106977261D01*
X126855267Y-107073431D01*
X126855265Y-107073432D01*
X126668858Y-107203954D01*
X126507954Y-107364858D01*
X126490725Y-107389464D01*
X126436147Y-107433088D01*
X126366648Y-107440280D01*
X126304294Y-107408757D01*
X126268882Y-107348526D01*
X126265861Y-107331591D01*
X126264221Y-107316337D01*
X126262091Y-107296517D01*
X126227567Y-107203954D01*
X126211797Y-107161671D01*
X126211793Y-107161664D01*
X126125547Y-107046455D01*
X126125544Y-107046452D01*
X126010335Y-106960206D01*
X126010328Y-106960202D01*
X125875482Y-106909908D01*
X125875483Y-106909908D01*
X125815883Y-106903501D01*
X125815881Y-106903500D01*
X125815873Y-106903500D01*
X125815864Y-106903500D01*
X124120129Y-106903500D01*
X124120123Y-106903501D01*
X124060516Y-106909908D01*
X123925671Y-106960202D01*
X123925664Y-106960206D01*
X123810455Y-107046452D01*
X123810452Y-107046455D01*
X123724206Y-107161664D01*
X123724202Y-107161671D01*
X123673908Y-107296517D01*
X123667501Y-107356116D01*
X123667500Y-107356135D01*
X123667500Y-109051870D01*
X123667501Y-109051876D01*
X123673908Y-109111483D01*
X123724202Y-109246328D01*
X123724206Y-109246335D01*
X123810452Y-109361544D01*
X123810455Y-109361547D01*
X123925664Y-109447793D01*
X123925671Y-109447797D01*
X124060517Y-109498091D01*
X124060516Y-109498091D01*
X124067444Y-109498835D01*
X124120127Y-109504500D01*
X125815872Y-109504499D01*
X125875483Y-109498091D01*
X126010331Y-109447796D01*
X126125546Y-109361546D01*
X126211796Y-109246331D01*
X126262091Y-109111483D01*
X126265862Y-109076401D01*
X126292599Y-109011855D01*
X126349990Y-108972006D01*
X126419816Y-108969511D01*
X126479905Y-109005163D01*
X126490725Y-109018535D01*
X126497215Y-109027804D01*
X126507956Y-109043143D01*
X126668858Y-109204045D01*
X126668861Y-109204047D01*
X126855266Y-109334568D01*
X127061504Y-109430739D01*
X127281308Y-109489635D01*
X127443230Y-109503801D01*
X127507998Y-109509468D01*
X127508000Y-109509468D01*
X127508002Y-109509468D01*
X127564807Y-109504498D01*
X127734692Y-109489635D01*
X127954496Y-109430739D01*
X128160734Y-109334568D01*
X128347139Y-109204047D01*
X128508047Y-109043139D01*
X128638568Y-108856734D01*
X128665618Y-108798724D01*
X128711790Y-108746285D01*
X128778983Y-108727133D01*
X128845865Y-108747348D01*
X128890382Y-108798725D01*
X128917429Y-108856728D01*
X128917432Y-108856734D01*
X129047954Y-109043141D01*
X129208858Y-109204045D01*
X129208861Y-109204047D01*
X129395266Y-109334568D01*
X129601504Y-109430739D01*
X129821308Y-109489635D01*
X129983230Y-109503801D01*
X130047998Y-109509468D01*
X130048000Y-109509468D01*
X130048002Y-109509468D01*
X130104807Y-109504498D01*
X130274692Y-109489635D01*
X130494496Y-109430739D01*
X130700734Y-109334568D01*
X130887139Y-109204047D01*
X131048047Y-109043139D01*
X131178568Y-108856734D01*
X131205895Y-108798129D01*
X131252064Y-108745695D01*
X131319257Y-108726542D01*
X131386139Y-108746757D01*
X131430657Y-108798133D01*
X131457865Y-108856482D01*
X131588342Y-109042820D01*
X131749179Y-109203657D01*
X131935517Y-109334134D01*
X132141673Y-109430265D01*
X132141682Y-109430269D01*
X132337999Y-109482872D01*
X132338000Y-109482871D01*
X132338000Y-108639501D01*
X132445685Y-108688680D01*
X132552237Y-108704000D01*
X132623763Y-108704000D01*
X132730315Y-108688680D01*
X132838000Y-108639501D01*
X132838000Y-109482872D01*
X133034317Y-109430269D01*
X133034326Y-109430265D01*
X133240482Y-109334134D01*
X133426820Y-109203657D01*
X133587657Y-109042820D01*
X133718132Y-108856484D01*
X133745341Y-108798134D01*
X133791513Y-108745695D01*
X133858707Y-108726542D01*
X133925588Y-108746757D01*
X133970106Y-108798133D01*
X133997431Y-108856732D01*
X133997432Y-108856734D01*
X134127954Y-109043141D01*
X134288858Y-109204045D01*
X134288861Y-109204047D01*
X134475266Y-109334568D01*
X134681504Y-109430739D01*
X134901308Y-109489635D01*
X135063230Y-109503801D01*
X135127998Y-109509468D01*
X135128000Y-109509468D01*
X135128002Y-109509468D01*
X135184807Y-109504498D01*
X135354692Y-109489635D01*
X135574496Y-109430739D01*
X135780734Y-109334568D01*
X135967139Y-109204047D01*
X136128047Y-109043139D01*
X136258568Y-108856734D01*
X136285618Y-108798724D01*
X136331790Y-108746285D01*
X136398983Y-108727133D01*
X136465865Y-108747348D01*
X136510382Y-108798725D01*
X136537429Y-108856728D01*
X136537432Y-108856734D01*
X136667954Y-109043141D01*
X136828858Y-109204045D01*
X136828861Y-109204047D01*
X137015266Y-109334568D01*
X137221504Y-109430739D01*
X137441308Y-109489635D01*
X137603230Y-109503801D01*
X137667998Y-109509468D01*
X137668000Y-109509468D01*
X137668002Y-109509468D01*
X137724807Y-109504498D01*
X137894692Y-109489635D01*
X138114496Y-109430739D01*
X138320734Y-109334568D01*
X138507139Y-109204047D01*
X138668047Y-109043139D01*
X138798568Y-108856734D01*
X138825618Y-108798724D01*
X138871790Y-108746285D01*
X138938983Y-108727133D01*
X139005865Y-108747348D01*
X139050382Y-108798725D01*
X139077429Y-108856728D01*
X139077432Y-108856734D01*
X139207954Y-109043141D01*
X139368858Y-109204045D01*
X139368861Y-109204047D01*
X139555266Y-109334568D01*
X139761504Y-109430739D01*
X139981308Y-109489635D01*
X140143230Y-109503801D01*
X140207998Y-109509468D01*
X140208000Y-109509468D01*
X140208002Y-109509468D01*
X140264807Y-109504498D01*
X140434692Y-109489635D01*
X140654496Y-109430739D01*
X140860734Y-109334568D01*
X141047139Y-109204047D01*
X141208047Y-109043139D01*
X141338568Y-108856734D01*
X141365618Y-108798724D01*
X141411790Y-108746285D01*
X141478983Y-108727133D01*
X141545865Y-108747348D01*
X141590382Y-108798725D01*
X141617429Y-108856728D01*
X141617432Y-108856734D01*
X141747954Y-109043141D01*
X141908858Y-109204045D01*
X141908861Y-109204047D01*
X142095266Y-109334568D01*
X142301504Y-109430739D01*
X142521308Y-109489635D01*
X142683230Y-109503801D01*
X142747998Y-109509468D01*
X142748000Y-109509468D01*
X142748002Y-109509468D01*
X142804807Y-109504498D01*
X142974692Y-109489635D01*
X143194496Y-109430739D01*
X143400734Y-109334568D01*
X143587139Y-109204047D01*
X143748047Y-109043139D01*
X143878568Y-108856734D01*
X143905618Y-108798724D01*
X143951790Y-108746285D01*
X144018983Y-108727133D01*
X144085865Y-108747348D01*
X144130382Y-108798725D01*
X144157429Y-108856728D01*
X144157432Y-108856734D01*
X144287954Y-109043141D01*
X144448858Y-109204045D01*
X144448861Y-109204047D01*
X144635266Y-109334568D01*
X144841504Y-109430739D01*
X145061308Y-109489635D01*
X145223230Y-109503801D01*
X145287998Y-109509468D01*
X145288000Y-109509468D01*
X145288002Y-109509468D01*
X145344807Y-109504498D01*
X145514692Y-109489635D01*
X145734496Y-109430739D01*
X145940734Y-109334568D01*
X146127139Y-109204047D01*
X146288047Y-109043139D01*
X146418568Y-108856734D01*
X146445618Y-108798724D01*
X146491790Y-108746285D01*
X146558983Y-108727133D01*
X146625865Y-108747348D01*
X146670382Y-108798725D01*
X146697429Y-108856728D01*
X146697432Y-108856734D01*
X146827954Y-109043141D01*
X146988858Y-109204045D01*
X146988861Y-109204047D01*
X147175266Y-109334568D01*
X147381504Y-109430739D01*
X147601308Y-109489635D01*
X147763230Y-109503801D01*
X147827998Y-109509468D01*
X147828000Y-109509468D01*
X147828002Y-109509468D01*
X147884807Y-109504498D01*
X148054692Y-109489635D01*
X148274496Y-109430739D01*
X148480734Y-109334568D01*
X148667139Y-109204047D01*
X148828047Y-109043139D01*
X148958568Y-108856734D01*
X148985618Y-108798724D01*
X149031790Y-108746285D01*
X149098983Y-108727133D01*
X149165865Y-108747348D01*
X149210382Y-108798725D01*
X149237429Y-108856728D01*
X149237432Y-108856734D01*
X149367954Y-109043141D01*
X149528858Y-109204045D01*
X149528861Y-109204047D01*
X149715266Y-109334568D01*
X149921504Y-109430739D01*
X150141308Y-109489635D01*
X150303230Y-109503801D01*
X150367998Y-109509468D01*
X150368000Y-109509468D01*
X150368002Y-109509468D01*
X150424807Y-109504498D01*
X150594692Y-109489635D01*
X150814496Y-109430739D01*
X151020734Y-109334568D01*
X151207139Y-109204047D01*
X151368047Y-109043139D01*
X151498568Y-108856734D01*
X151525618Y-108798724D01*
X151571790Y-108746285D01*
X151638983Y-108727133D01*
X151705865Y-108747348D01*
X151750382Y-108798725D01*
X151777429Y-108856728D01*
X151777432Y-108856734D01*
X151907954Y-109043141D01*
X152068858Y-109204045D01*
X152068861Y-109204047D01*
X152255266Y-109334568D01*
X152461504Y-109430739D01*
X152681308Y-109489635D01*
X152843230Y-109503801D01*
X152907998Y-109509468D01*
X152908000Y-109509468D01*
X152908002Y-109509468D01*
X152964807Y-109504498D01*
X153134692Y-109489635D01*
X153354496Y-109430739D01*
X153560734Y-109334568D01*
X153747139Y-109204047D01*
X153908047Y-109043139D01*
X154038568Y-108856734D01*
X154065618Y-108798724D01*
X154111790Y-108746285D01*
X154178983Y-108727133D01*
X154245865Y-108747348D01*
X154290382Y-108798725D01*
X154317429Y-108856728D01*
X154317432Y-108856734D01*
X154447954Y-109043141D01*
X154608858Y-109204045D01*
X154608861Y-109204047D01*
X154795266Y-109334568D01*
X155001504Y-109430739D01*
X155221308Y-109489635D01*
X155383230Y-109503801D01*
X155447998Y-109509468D01*
X155448000Y-109509468D01*
X155448002Y-109509468D01*
X155504807Y-109504498D01*
X155674692Y-109489635D01*
X155894496Y-109430739D01*
X156100734Y-109334568D01*
X156287139Y-109204047D01*
X156448047Y-109043139D01*
X156578568Y-108856734D01*
X156605618Y-108798724D01*
X156651790Y-108746285D01*
X156718983Y-108727133D01*
X156785865Y-108747348D01*
X156830382Y-108798725D01*
X156857429Y-108856728D01*
X156857432Y-108856734D01*
X156987954Y-109043141D01*
X157148858Y-109204045D01*
X157148861Y-109204047D01*
X157335266Y-109334568D01*
X157541504Y-109430739D01*
X157761308Y-109489635D01*
X157923230Y-109503801D01*
X157987998Y-109509468D01*
X157988000Y-109509468D01*
X157988002Y-109509468D01*
X158044807Y-109504498D01*
X158214692Y-109489635D01*
X158434496Y-109430739D01*
X158640734Y-109334568D01*
X158827139Y-109204047D01*
X158988047Y-109043139D01*
X159118568Y-108856734D01*
X159145618Y-108798724D01*
X159191790Y-108746285D01*
X159258983Y-108727133D01*
X159325865Y-108747348D01*
X159370382Y-108798725D01*
X159397429Y-108856728D01*
X159397432Y-108856734D01*
X159527954Y-109043141D01*
X159688858Y-109204045D01*
X159688861Y-109204047D01*
X159875266Y-109334568D01*
X160081504Y-109430739D01*
X160301308Y-109489635D01*
X160463230Y-109503801D01*
X160527998Y-109509468D01*
X160528000Y-109509468D01*
X160528002Y-109509468D01*
X160584807Y-109504498D01*
X160754692Y-109489635D01*
X160974496Y-109430739D01*
X161180734Y-109334568D01*
X161367139Y-109204047D01*
X161528047Y-109043139D01*
X161658568Y-108856734D01*
X161754739Y-108650496D01*
X161813635Y-108430692D01*
X161833468Y-108204000D01*
X161813635Y-107977308D01*
X161760767Y-107780000D01*
X161754741Y-107757511D01*
X161754738Y-107757502D01*
X161736933Y-107719320D01*
X161658568Y-107551266D01*
X161528047Y-107364861D01*
X161528045Y-107364858D01*
X161367141Y-107203954D01*
X161180734Y-107073432D01*
X161180732Y-107073431D01*
X160974497Y-106977261D01*
X160974488Y-106977258D01*
X160754697Y-106918366D01*
X160754693Y-106918365D01*
X160754692Y-106918365D01*
X160754691Y-106918364D01*
X160754686Y-106918364D01*
X160528002Y-106898532D01*
X160527998Y-106898532D01*
X160301313Y-106918364D01*
X160301302Y-106918366D01*
X160081511Y-106977258D01*
X160081502Y-106977261D01*
X159875267Y-107073431D01*
X159875265Y-107073432D01*
X159688858Y-107203954D01*
X159527954Y-107364858D01*
X159397432Y-107551265D01*
X159397431Y-107551267D01*
X159370382Y-107609275D01*
X159324209Y-107661714D01*
X159257016Y-107680866D01*
X159190135Y-107660650D01*
X159145618Y-107609275D01*
X159118686Y-107551520D01*
X159118568Y-107551266D01*
X158988047Y-107364861D01*
X158988045Y-107364858D01*
X158827141Y-107203954D01*
X158640734Y-107073432D01*
X158640732Y-107073431D01*
X158434497Y-106977261D01*
X158434488Y-106977258D01*
X158214697Y-106918366D01*
X158214693Y-106918365D01*
X158214692Y-106918365D01*
X158214691Y-106918364D01*
X158214686Y-106918364D01*
X157988002Y-106898532D01*
X157987998Y-106898532D01*
X157761313Y-106918364D01*
X157761302Y-106918366D01*
X157541511Y-106977258D01*
X157541502Y-106977261D01*
X157335267Y-107073431D01*
X157335265Y-107073432D01*
X157148858Y-107203954D01*
X156987954Y-107364858D01*
X156857432Y-107551265D01*
X156857431Y-107551267D01*
X156830382Y-107609275D01*
X156784209Y-107661714D01*
X156717016Y-107680866D01*
X156650135Y-107660650D01*
X156605618Y-107609275D01*
X156578686Y-107551520D01*
X156578568Y-107551266D01*
X156448047Y-107364861D01*
X156448045Y-107364858D01*
X156287141Y-107203954D01*
X156100734Y-107073432D01*
X156100732Y-107073431D01*
X155894497Y-106977261D01*
X155894488Y-106977258D01*
X155674697Y-106918366D01*
X155674693Y-106918365D01*
X155674692Y-106918365D01*
X155674691Y-106918364D01*
X155674686Y-106918364D01*
X155448002Y-106898532D01*
X155447998Y-106898532D01*
X155221313Y-106918364D01*
X155221302Y-106918366D01*
X155001511Y-106977258D01*
X155001502Y-106977261D01*
X154795267Y-107073431D01*
X154795265Y-107073432D01*
X154608858Y-107203954D01*
X154447954Y-107364858D01*
X154317432Y-107551265D01*
X154317431Y-107551267D01*
X154290382Y-107609275D01*
X154244209Y-107661714D01*
X154177016Y-107680866D01*
X154110135Y-107660650D01*
X154065618Y-107609275D01*
X154038686Y-107551520D01*
X154038568Y-107551266D01*
X153908047Y-107364861D01*
X153908045Y-107364858D01*
X153747141Y-107203954D01*
X153560734Y-107073432D01*
X153560732Y-107073431D01*
X153354497Y-106977261D01*
X153354488Y-106977258D01*
X153134697Y-106918366D01*
X153134693Y-106918365D01*
X153134692Y-106918365D01*
X153134691Y-106918364D01*
X153134686Y-106918364D01*
X152908002Y-106898532D01*
X152907998Y-106898532D01*
X152681313Y-106918364D01*
X152681302Y-106918366D01*
X152483608Y-106971337D01*
X152413758Y-106969674D01*
X152363834Y-106939243D01*
X145127803Y-99703212D01*
X145117980Y-99690950D01*
X145117759Y-99691134D01*
X145112786Y-99685123D01*
X145062364Y-99637773D01*
X145051919Y-99627328D01*
X145041475Y-99616883D01*
X145035986Y-99612625D01*
X145031561Y-99608847D01*
X144997582Y-99576938D01*
X144997580Y-99576936D01*
X144997577Y-99576935D01*
X144980029Y-99567288D01*
X144963763Y-99556604D01*
X144947933Y-99544325D01*
X144905168Y-99525818D01*
X144899922Y-99523248D01*
X144859093Y-99500803D01*
X144859092Y-99500802D01*
X144839693Y-99495822D01*
X144821281Y-99489518D01*
X144802898Y-99481562D01*
X144802892Y-99481560D01*
X144756874Y-99474272D01*
X144751152Y-99473087D01*
X144706021Y-99461500D01*
X144706019Y-99461500D01*
X144685984Y-99461500D01*
X144666586Y-99459973D01*
X144659162Y-99458797D01*
X144646805Y-99456840D01*
X144646804Y-99456840D01*
X144600416Y-99461225D01*
X144594578Y-99461500D01*
X140183000Y-99461500D01*
X140115961Y-99441815D01*
X140070206Y-99389011D01*
X140065811Y-99368811D01*
X140059000Y-99362000D01*
X149755001Y-99362000D01*
X149755001Y-99561986D01*
X149765494Y-99664697D01*
X149820641Y-99831119D01*
X149820643Y-99831124D01*
X149912684Y-99980345D01*
X150036654Y-100104315D01*
X150185875Y-100196356D01*
X150185880Y-100196358D01*
X150352302Y-100251505D01*
X150352309Y-100251506D01*
X150455019Y-100261999D01*
X150879999Y-100261999D01*
X150880000Y-100261998D01*
X150880000Y-99362000D01*
X151380000Y-99362000D01*
X151380000Y-100261999D01*
X151804972Y-100261999D01*
X151804986Y-100261998D01*
X151907697Y-100251505D01*
X152074119Y-100196358D01*
X152074124Y-100196356D01*
X152223345Y-100104315D01*
X152347315Y-99980345D01*
X152439356Y-99831124D01*
X152439358Y-99831119D01*
X152494505Y-99664697D01*
X152494506Y-99664690D01*
X152504999Y-99561986D01*
X152505000Y-99561973D01*
X152505000Y-99362000D01*
X151380000Y-99362000D01*
X150880000Y-99362000D01*
X149755001Y-99362000D01*
X140059000Y-99362000D01*
X137309001Y-99362000D01*
X137298816Y-99372184D01*
X137289316Y-99404539D01*
X137236512Y-99450294D01*
X137185001Y-99461500D01*
X136500500Y-99461500D01*
X136433461Y-99441815D01*
X136387706Y-99389011D01*
X136376500Y-99337500D01*
X136376499Y-98862000D01*
X137309000Y-98862000D01*
X138434000Y-98862000D01*
X138434000Y-97962000D01*
X138934000Y-97962000D01*
X138934000Y-98862000D01*
X140058999Y-98862000D01*
X140058999Y-98662028D01*
X140058998Y-98662013D01*
X140048505Y-98559302D01*
X139993358Y-98392880D01*
X139993356Y-98392875D01*
X139958892Y-98337000D01*
X141015001Y-98337000D01*
X141015001Y-98474486D01*
X141025494Y-98577197D01*
X141080641Y-98743619D01*
X141080643Y-98743624D01*
X141172684Y-98892845D01*
X141296654Y-99016815D01*
X141445875Y-99108856D01*
X141445880Y-99108858D01*
X141612302Y-99164005D01*
X141612309Y-99164006D01*
X141715019Y-99174499D01*
X141989999Y-99174499D01*
X141990000Y-99174498D01*
X141990000Y-98337000D01*
X142490000Y-98337000D01*
X142490000Y-99174499D01*
X142764972Y-99174499D01*
X142764986Y-99174498D01*
X142867697Y-99164005D01*
X143034119Y-99108858D01*
X143034124Y-99108856D01*
X143183345Y-99016815D01*
X143307315Y-98892845D01*
X143326341Y-98862000D01*
X149755000Y-98862000D01*
X150880000Y-98862000D01*
X150880000Y-97962000D01*
X151380000Y-97962000D01*
X151380000Y-98862000D01*
X152504999Y-98862000D01*
X152504999Y-98662028D01*
X152504998Y-98662013D01*
X152494505Y-98559302D01*
X152439358Y-98392880D01*
X152439356Y-98392875D01*
X152404892Y-98337000D01*
X153461001Y-98337000D01*
X153461001Y-98474486D01*
X153471494Y-98577197D01*
X153526641Y-98743619D01*
X153526643Y-98743624D01*
X153618684Y-98892845D01*
X153742654Y-99016815D01*
X153891875Y-99108856D01*
X153891880Y-99108858D01*
X154058302Y-99164005D01*
X154058309Y-99164006D01*
X154161019Y-99174499D01*
X154435999Y-99174499D01*
X154436000Y-99174498D01*
X154436000Y-98337000D01*
X154936000Y-98337000D01*
X154936000Y-99174499D01*
X155210972Y-99174499D01*
X155210986Y-99174498D01*
X155313697Y-99164005D01*
X155480119Y-99108858D01*
X155480124Y-99108856D01*
X155629345Y-99016815D01*
X155753315Y-98892845D01*
X155845356Y-98743624D01*
X155845358Y-98743619D01*
X155900505Y-98577197D01*
X155900506Y-98577190D01*
X155910999Y-98474486D01*
X155911000Y-98474473D01*
X155911000Y-98337000D01*
X154936000Y-98337000D01*
X154436000Y-98337000D01*
X153461001Y-98337000D01*
X152404892Y-98337000D01*
X152358631Y-98262000D01*
X156788001Y-98262000D01*
X156788001Y-98411986D01*
X156798494Y-98514697D01*
X156853641Y-98681119D01*
X156853643Y-98681124D01*
X156945684Y-98830345D01*
X157069654Y-98954315D01*
X157218875Y-99046356D01*
X157218880Y-99046358D01*
X157385302Y-99101505D01*
X157385309Y-99101506D01*
X157488019Y-99111999D01*
X157737999Y-99111999D01*
X157738000Y-99111998D01*
X157738000Y-98262000D01*
X158238000Y-98262000D01*
X158238000Y-99111999D01*
X158487972Y-99111999D01*
X158487986Y-99111998D01*
X158590697Y-99101505D01*
X158757119Y-99046358D01*
X158757124Y-99046356D01*
X158906345Y-98954315D01*
X159030315Y-98830345D01*
X159122356Y-98681124D01*
X159122358Y-98681119D01*
X159177505Y-98514697D01*
X159177506Y-98514690D01*
X159187999Y-98411986D01*
X159188000Y-98411973D01*
X159188000Y-98337000D01*
X160065001Y-98337000D01*
X160065001Y-98474486D01*
X160075494Y-98577197D01*
X160130641Y-98743619D01*
X160130643Y-98743624D01*
X160222684Y-98892845D01*
X160346654Y-99016815D01*
X160495875Y-99108856D01*
X160495880Y-99108858D01*
X160662302Y-99164005D01*
X160662309Y-99164006D01*
X160765019Y-99174499D01*
X161039999Y-99174499D01*
X161040000Y-99174498D01*
X161040000Y-98337000D01*
X161540000Y-98337000D01*
X161540000Y-99174499D01*
X161814972Y-99174499D01*
X161814986Y-99174498D01*
X161917697Y-99164005D01*
X162084119Y-99108858D01*
X162084124Y-99108856D01*
X162233345Y-99016815D01*
X162357315Y-98892845D01*
X162449356Y-98743624D01*
X162449358Y-98743619D01*
X162504505Y-98577197D01*
X162504506Y-98577190D01*
X162514999Y-98474486D01*
X162515000Y-98474473D01*
X162515000Y-98337000D01*
X161540000Y-98337000D01*
X161040000Y-98337000D01*
X160065001Y-98337000D01*
X159188000Y-98337000D01*
X159188000Y-98262000D01*
X158238000Y-98262000D01*
X157738000Y-98262000D01*
X156788001Y-98262000D01*
X152358631Y-98262000D01*
X152347315Y-98243654D01*
X152223345Y-98119684D01*
X152074124Y-98027643D01*
X152074119Y-98027641D01*
X151907697Y-97972494D01*
X151907690Y-97972493D01*
X151804986Y-97962000D01*
X151380000Y-97962000D01*
X150880000Y-97962000D01*
X150455028Y-97962000D01*
X150455012Y-97962001D01*
X150352302Y-97972494D01*
X150185880Y-98027641D01*
X150185875Y-98027643D01*
X150036654Y-98119684D01*
X149912684Y-98243654D01*
X149820643Y-98392875D01*
X149820641Y-98392880D01*
X149765494Y-98559302D01*
X149765493Y-98559309D01*
X149755000Y-98662013D01*
X149755000Y-98862000D01*
X143326341Y-98862000D01*
X143399356Y-98743624D01*
X143399358Y-98743619D01*
X143454505Y-98577197D01*
X143454506Y-98577190D01*
X143464999Y-98474486D01*
X143465000Y-98474473D01*
X143465000Y-98337000D01*
X142490000Y-98337000D01*
X141990000Y-98337000D01*
X141015001Y-98337000D01*
X139958892Y-98337000D01*
X139901315Y-98243654D01*
X139777345Y-98119684D01*
X139628124Y-98027643D01*
X139628119Y-98027641D01*
X139461697Y-97972494D01*
X139461690Y-97972493D01*
X139358986Y-97962000D01*
X138934000Y-97962000D01*
X138434000Y-97962000D01*
X138009028Y-97962000D01*
X138009012Y-97962001D01*
X137906302Y-97972494D01*
X137739880Y-98027641D01*
X137739875Y-98027643D01*
X137590654Y-98119684D01*
X137466684Y-98243654D01*
X137374643Y-98392875D01*
X137374641Y-98392880D01*
X137319494Y-98559302D01*
X137319493Y-98559309D01*
X137309000Y-98662013D01*
X137309000Y-98862000D01*
X136376499Y-98862000D01*
X136376499Y-98661998D01*
X136376498Y-98661979D01*
X136365999Y-98559203D01*
X136365998Y-98559200D01*
X136348006Y-98504905D01*
X136310814Y-98392666D01*
X136218712Y-98243344D01*
X136094656Y-98119288D01*
X135945334Y-98027186D01*
X135778797Y-97972001D01*
X135778795Y-97972000D01*
X135676010Y-97961500D01*
X134325998Y-97961500D01*
X134325981Y-97961501D01*
X134223203Y-97972000D01*
X134223200Y-97972001D01*
X134056668Y-98027185D01*
X134056663Y-98027187D01*
X133907342Y-98119289D01*
X133783289Y-98243342D01*
X133691181Y-98392673D01*
X133689047Y-98397251D01*
X133642872Y-98449688D01*
X133575677Y-98468836D01*
X133508797Y-98448616D01*
X133484519Y-98427813D01*
X133447871Y-98387112D01*
X133447864Y-98387106D01*
X133294734Y-98275851D01*
X133294729Y-98275848D01*
X133121807Y-98198857D01*
X133121802Y-98198855D01*
X132976001Y-98167865D01*
X132936646Y-98159500D01*
X132747354Y-98159500D01*
X132714897Y-98166398D01*
X132562197Y-98198855D01*
X132562192Y-98198857D01*
X132389270Y-98275848D01*
X132389265Y-98275851D01*
X132236129Y-98387111D01*
X132109466Y-98527785D01*
X132014821Y-98691715D01*
X132014818Y-98691722D01*
X131959492Y-98862000D01*
X131956326Y-98871744D01*
X131936540Y-99060000D01*
X131956326Y-99248256D01*
X131956327Y-99248259D01*
X131972873Y-99299182D01*
X131974868Y-99369023D01*
X131938788Y-99428856D01*
X131876087Y-99459684D01*
X131854942Y-99461500D01*
X127622129Y-99461500D01*
X127555090Y-99441815D01*
X127509335Y-99389011D01*
X127499391Y-99319853D01*
X127514742Y-99275500D01*
X127573179Y-99174284D01*
X127631674Y-98994256D01*
X127649321Y-98826345D01*
X127675905Y-98761732D01*
X127684952Y-98751636D01*
X130737772Y-95698819D01*
X130799095Y-95665334D01*
X130825453Y-95662500D01*
X133501500Y-95662500D01*
X133568539Y-95682185D01*
X133614294Y-95734989D01*
X133625500Y-95786500D01*
X133625500Y-96462001D01*
X133625501Y-96462019D01*
X133636000Y-96564796D01*
X133636001Y-96564799D01*
X133674618Y-96681336D01*
X133691186Y-96731334D01*
X133783288Y-96880656D01*
X133907344Y-97004712D01*
X134056666Y-97096814D01*
X134223203Y-97151999D01*
X134325991Y-97162500D01*
X135676008Y-97162499D01*
X135778797Y-97151999D01*
X135945334Y-97096814D01*
X136094656Y-97004712D01*
X136197549Y-96901819D01*
X136258872Y-96868334D01*
X136285230Y-96865500D01*
X137399770Y-96865500D01*
X137466809Y-96885185D01*
X137487451Y-96901819D01*
X137590344Y-97004712D01*
X137739666Y-97096814D01*
X137906203Y-97151999D01*
X138008991Y-97162500D01*
X139359008Y-97162499D01*
X139461797Y-97151999D01*
X139628334Y-97096814D01*
X139777656Y-97004712D01*
X139854549Y-96927819D01*
X139915872Y-96894334D01*
X139942230Y-96891500D01*
X141194270Y-96891500D01*
X141261309Y-96911185D01*
X141281951Y-96927819D01*
X141296344Y-96942212D01*
X141299628Y-96944237D01*
X141299653Y-96944253D01*
X141301445Y-96946246D01*
X141302011Y-96946693D01*
X141301934Y-96946789D01*
X141346379Y-96996199D01*
X141357603Y-97065161D01*
X141329761Y-97129244D01*
X141299665Y-97155326D01*
X141296660Y-97157179D01*
X141296655Y-97157183D01*
X141172684Y-97281154D01*
X141080643Y-97430375D01*
X141080641Y-97430380D01*
X141025494Y-97596802D01*
X141025493Y-97596809D01*
X141015000Y-97699513D01*
X141015000Y-97837000D01*
X143464999Y-97837000D01*
X143464999Y-97699528D01*
X143464998Y-97699513D01*
X143454505Y-97596802D01*
X143399358Y-97430380D01*
X143399356Y-97430375D01*
X143307315Y-97281154D01*
X143183344Y-97157183D01*
X143183341Y-97157181D01*
X143180339Y-97155329D01*
X143178713Y-97153521D01*
X143177677Y-97152702D01*
X143177817Y-97152524D01*
X143133617Y-97103380D01*
X143122397Y-97034417D01*
X143150243Y-96970336D01*
X143180344Y-96944254D01*
X143183656Y-96942212D01*
X143198049Y-96927819D01*
X143259372Y-96894334D01*
X143285730Y-96891500D01*
X144351257Y-96891500D01*
X144366877Y-96893224D01*
X144366904Y-96892939D01*
X144374660Y-96893671D01*
X144374667Y-96893673D01*
X144443814Y-96891500D01*
X144473350Y-96891500D01*
X144480228Y-96890630D01*
X144486041Y-96890172D01*
X144532627Y-96888709D01*
X144551869Y-96883117D01*
X144570912Y-96879174D01*
X144590792Y-96876664D01*
X144634122Y-96859507D01*
X144639646Y-96857617D01*
X144643396Y-96856527D01*
X144684390Y-96844618D01*
X144701629Y-96834422D01*
X144719103Y-96825862D01*
X144737727Y-96818488D01*
X144737727Y-96818487D01*
X144737732Y-96818486D01*
X144775449Y-96791082D01*
X144780305Y-96787892D01*
X144820420Y-96764170D01*
X144834589Y-96749999D01*
X144849379Y-96737368D01*
X144865587Y-96725594D01*
X144895299Y-96689676D01*
X144899212Y-96685376D01*
X147340620Y-94243969D01*
X147401941Y-94210486D01*
X147460392Y-94211877D01*
X147523509Y-94228788D01*
X147601308Y-94249635D01*
X147758780Y-94263412D01*
X147827998Y-94269468D01*
X147828000Y-94269468D01*
X147828002Y-94269468D01*
X147884673Y-94264509D01*
X148054692Y-94249635D01*
X148274496Y-94190739D01*
X148480734Y-94094568D01*
X148667139Y-93964047D01*
X148828047Y-93803139D01*
X148958568Y-93616734D01*
X148985618Y-93558724D01*
X149031790Y-93506285D01*
X149098983Y-93487133D01*
X149165865Y-93507348D01*
X149210382Y-93558725D01*
X149237429Y-93616728D01*
X149237432Y-93616734D01*
X149367954Y-93803141D01*
X149528857Y-93964044D01*
X149561622Y-93986986D01*
X149605248Y-94041563D01*
X149614500Y-94088562D01*
X149614500Y-95039255D01*
X149612775Y-95054872D01*
X149613061Y-95054899D01*
X149612326Y-95062665D01*
X149614500Y-95131814D01*
X149614500Y-95161343D01*
X149614501Y-95161360D01*
X149615368Y-95168231D01*
X149615826Y-95174050D01*
X149617290Y-95220624D01*
X149617291Y-95220627D01*
X149622880Y-95239867D01*
X149626824Y-95258911D01*
X149629336Y-95278792D01*
X149643280Y-95314011D01*
X149646490Y-95322119D01*
X149648382Y-95327647D01*
X149660044Y-95367787D01*
X149661382Y-95372390D01*
X149670131Y-95387185D01*
X149671580Y-95389634D01*
X149680138Y-95407103D01*
X149687514Y-95425732D01*
X149714898Y-95463423D01*
X149718105Y-95468305D01*
X149729781Y-95488047D01*
X149737230Y-95500642D01*
X149754500Y-95563766D01*
X149754500Y-96462001D01*
X149754501Y-96462019D01*
X149765000Y-96564796D01*
X149765001Y-96564799D01*
X149803618Y-96681336D01*
X149820186Y-96731334D01*
X149912288Y-96880656D01*
X150036344Y-97004712D01*
X150185666Y-97096814D01*
X150352203Y-97151999D01*
X150454991Y-97162500D01*
X151805008Y-97162499D01*
X151907797Y-97151999D01*
X152074334Y-97096814D01*
X152223656Y-97004712D01*
X152347712Y-96880656D01*
X152439814Y-96731334D01*
X152442744Y-96722493D01*
X152482518Y-96665049D01*
X152547035Y-96638228D01*
X152560449Y-96637500D01*
X153437652Y-96637500D01*
X153504691Y-96657185D01*
X153543189Y-96696401D01*
X153618288Y-96818156D01*
X153742344Y-96942212D01*
X153745628Y-96944237D01*
X153745653Y-96944253D01*
X153747445Y-96946246D01*
X153748011Y-96946693D01*
X153747934Y-96946789D01*
X153792379Y-96996199D01*
X153803603Y-97065161D01*
X153775761Y-97129244D01*
X153745665Y-97155326D01*
X153742660Y-97157179D01*
X153742655Y-97157183D01*
X153618684Y-97281154D01*
X153526643Y-97430375D01*
X153526641Y-97430380D01*
X153471494Y-97596802D01*
X153471493Y-97596809D01*
X153461000Y-97699513D01*
X153461000Y-97837000D01*
X155910999Y-97837000D01*
X155910999Y-97699528D01*
X155910998Y-97699513D01*
X155900505Y-97596802D01*
X155845358Y-97430380D01*
X155845356Y-97430375D01*
X155753315Y-97281154D01*
X155629344Y-97157183D01*
X155629341Y-97157181D01*
X155626339Y-97155329D01*
X155624713Y-97153521D01*
X155623677Y-97152702D01*
X155623817Y-97152524D01*
X155579617Y-97103380D01*
X155568397Y-97034417D01*
X155596243Y-96970336D01*
X155626344Y-96944254D01*
X155629656Y-96942212D01*
X155753712Y-96818156D01*
X155845814Y-96668834D01*
X155900999Y-96502297D01*
X155911500Y-96399509D01*
X155911499Y-95624492D01*
X155911123Y-95620815D01*
X155901755Y-95529104D01*
X155900999Y-95521703D01*
X155900997Y-95521699D01*
X155900089Y-95517453D01*
X155905307Y-95447779D01*
X155947364Y-95391985D01*
X156012910Y-95367787D01*
X156021343Y-95367500D01*
X156407548Y-95367500D01*
X156474587Y-95387185D01*
X156495229Y-95403819D01*
X156751181Y-95659771D01*
X156784666Y-95721094D01*
X156787500Y-95747452D01*
X156787500Y-96412001D01*
X156787501Y-96412019D01*
X156798000Y-96514796D01*
X156798001Y-96514799D01*
X156853185Y-96681331D01*
X156853187Y-96681336D01*
X156945289Y-96830657D01*
X157039304Y-96924672D01*
X157072789Y-96985995D01*
X157067805Y-97055687D01*
X157039305Y-97100034D01*
X156945682Y-97193657D01*
X156853643Y-97342875D01*
X156853641Y-97342880D01*
X156798494Y-97509302D01*
X156798493Y-97509309D01*
X156788000Y-97612013D01*
X156788000Y-97762000D01*
X159187999Y-97762000D01*
X159187999Y-97612028D01*
X159187998Y-97612013D01*
X159177505Y-97509302D01*
X159122358Y-97342880D01*
X159122356Y-97342875D01*
X159030315Y-97193654D01*
X158936695Y-97100034D01*
X158903210Y-97038711D01*
X158908194Y-96969019D01*
X158936691Y-96924676D01*
X159030712Y-96830656D01*
X159113519Y-96696402D01*
X159165467Y-96649679D01*
X159219058Y-96637500D01*
X160041652Y-96637500D01*
X160108691Y-96657185D01*
X160147189Y-96696401D01*
X160222288Y-96818156D01*
X160346344Y-96942212D01*
X160349628Y-96944237D01*
X160349653Y-96944253D01*
X160351445Y-96946246D01*
X160352011Y-96946693D01*
X160351934Y-96946789D01*
X160396379Y-96996199D01*
X160407603Y-97065161D01*
X160379761Y-97129244D01*
X160349665Y-97155326D01*
X160346660Y-97157179D01*
X160346655Y-97157183D01*
X160222684Y-97281154D01*
X160130643Y-97430375D01*
X160130641Y-97430380D01*
X160075494Y-97596802D01*
X160075493Y-97596809D01*
X160065000Y-97699513D01*
X160065000Y-97837000D01*
X162514999Y-97837000D01*
X162514999Y-97699528D01*
X162514998Y-97699513D01*
X162504505Y-97596802D01*
X162449358Y-97430380D01*
X162449356Y-97430375D01*
X162357315Y-97281154D01*
X162233344Y-97157183D01*
X162233341Y-97157181D01*
X162230339Y-97155329D01*
X162228713Y-97153521D01*
X162227677Y-97152702D01*
X162227817Y-97152524D01*
X162183617Y-97103380D01*
X162172397Y-97034417D01*
X162200243Y-96970336D01*
X162230344Y-96944254D01*
X162233656Y-96942212D01*
X162357712Y-96818156D01*
X162449814Y-96668834D01*
X162504999Y-96502297D01*
X162515500Y-96399509D01*
X162515499Y-95624492D01*
X162515123Y-95620815D01*
X162504999Y-95521703D01*
X162504998Y-95521700D01*
X162498020Y-95500641D01*
X162449814Y-95355166D01*
X162357712Y-95205844D01*
X162233656Y-95081788D01*
X162114206Y-95008111D01*
X162084336Y-94989687D01*
X162084331Y-94989685D01*
X162082862Y-94989198D01*
X161917797Y-94934501D01*
X161917795Y-94934500D01*
X161815010Y-94924000D01*
X160764998Y-94924000D01*
X160764980Y-94924001D01*
X160662203Y-94934500D01*
X160662200Y-94934501D01*
X160495668Y-94989685D01*
X160495663Y-94989687D01*
X160346342Y-95081789D01*
X160222289Y-95205842D01*
X160222288Y-95205844D01*
X160150570Y-95322119D01*
X160147191Y-95327597D01*
X160095243Y-95374321D01*
X160041652Y-95386500D01*
X159219058Y-95386500D01*
X159152019Y-95366815D01*
X159113519Y-95327597D01*
X159111817Y-95324837D01*
X159030712Y-95193344D01*
X158906656Y-95069288D01*
X158781663Y-94992192D01*
X158757336Y-94977187D01*
X158757331Y-94977185D01*
X158687363Y-94954000D01*
X158590797Y-94922001D01*
X158590795Y-94922000D01*
X158488016Y-94911500D01*
X158488009Y-94911500D01*
X157823453Y-94911500D01*
X157756414Y-94891815D01*
X157735772Y-94875181D01*
X157218803Y-94358212D01*
X157208980Y-94345950D01*
X157208759Y-94346134D01*
X157203786Y-94340123D01*
X157198959Y-94335590D01*
X157153364Y-94292773D01*
X157139591Y-94279000D01*
X157132475Y-94271883D01*
X157126986Y-94267625D01*
X157122561Y-94263847D01*
X157088582Y-94231938D01*
X157088580Y-94231936D01*
X157088577Y-94231935D01*
X157071029Y-94222288D01*
X157054763Y-94211604D01*
X157051311Y-94208926D01*
X157038936Y-94199327D01*
X157038935Y-94199326D01*
X157038933Y-94199325D01*
X156996168Y-94180818D01*
X156990922Y-94178248D01*
X156950093Y-94155803D01*
X156950092Y-94155802D01*
X156930693Y-94150822D01*
X156912281Y-94144518D01*
X156893898Y-94136562D01*
X156893892Y-94136560D01*
X156847874Y-94129272D01*
X156842152Y-94128087D01*
X156797021Y-94116500D01*
X156797019Y-94116500D01*
X156776984Y-94116500D01*
X156757586Y-94114973D01*
X156750162Y-94113797D01*
X156737805Y-94111840D01*
X156737804Y-94111840D01*
X156691416Y-94116225D01*
X156685578Y-94116500D01*
X156434049Y-94116500D01*
X156367010Y-94096815D01*
X156321255Y-94044011D01*
X156311311Y-93974853D01*
X156340336Y-93911297D01*
X156346368Y-93904819D01*
X156448045Y-93803141D01*
X156448047Y-93803139D01*
X156578568Y-93616734D01*
X156605618Y-93558724D01*
X156651790Y-93506285D01*
X156718983Y-93487133D01*
X156785865Y-93507348D01*
X156830382Y-93558725D01*
X156857429Y-93616728D01*
X156857432Y-93616734D01*
X156987954Y-93803141D01*
X157148858Y-93964045D01*
X157148861Y-93964047D01*
X157335266Y-94094568D01*
X157541504Y-94190739D01*
X157541509Y-94190740D01*
X157541511Y-94190741D01*
X157573555Y-94199327D01*
X157761308Y-94249635D01*
X157918780Y-94263412D01*
X157987998Y-94269468D01*
X157988000Y-94269468D01*
X157988002Y-94269468D01*
X158044673Y-94264509D01*
X158214692Y-94249635D01*
X158434496Y-94190739D01*
X158640734Y-94094568D01*
X158827139Y-93964047D01*
X158988047Y-93803139D01*
X159118568Y-93616734D01*
X159145618Y-93558724D01*
X159191790Y-93506285D01*
X159258983Y-93487133D01*
X159325865Y-93507348D01*
X159370382Y-93558725D01*
X159397429Y-93616728D01*
X159397432Y-93616734D01*
X159527954Y-93803141D01*
X159688858Y-93964045D01*
X159688861Y-93964047D01*
X159875266Y-94094568D01*
X160081504Y-94190739D01*
X160081509Y-94190740D01*
X160081511Y-94190741D01*
X160113555Y-94199327D01*
X160301308Y-94249635D01*
X160458780Y-94263412D01*
X160527998Y-94269468D01*
X160528000Y-94269468D01*
X160528002Y-94269468D01*
X160584673Y-94264509D01*
X160754692Y-94249635D01*
X160974496Y-94190739D01*
X161180734Y-94094568D01*
X161367139Y-93964047D01*
X161528047Y-93803139D01*
X161658568Y-93616734D01*
X161754739Y-93410496D01*
X161813635Y-93190692D01*
X161833468Y-92964000D01*
X161813635Y-92737308D01*
X161760767Y-92540000D01*
X161754741Y-92517511D01*
X161754738Y-92517502D01*
X161736933Y-92479320D01*
X161658568Y-92311266D01*
X161528047Y-92124861D01*
X161528045Y-92124858D01*
X161367141Y-91963954D01*
X161180734Y-91833432D01*
X161180732Y-91833431D01*
X160974497Y-91737261D01*
X160974488Y-91737258D01*
X160754697Y-91678366D01*
X160754693Y-91678365D01*
X160754692Y-91678365D01*
X160754691Y-91678364D01*
X160754686Y-91678364D01*
X160528002Y-91658532D01*
X160527998Y-91658532D01*
X160301313Y-91678364D01*
X160301302Y-91678366D01*
X160103608Y-91731338D01*
X160033758Y-91729675D01*
X159983834Y-91699244D01*
X157284596Y-89000005D01*
X162594754Y-89000005D01*
X162613718Y-89301446D01*
X162613719Y-89301453D01*
X162613720Y-89301457D01*
X162664524Y-89567784D01*
X162670320Y-89598164D01*
X162763659Y-89885431D01*
X162763661Y-89885436D01*
X162892265Y-90158732D01*
X162892268Y-90158738D01*
X163054111Y-90413763D01*
X163054114Y-90413767D01*
X163054115Y-90413768D01*
X163246651Y-90646504D01*
X163426277Y-90815185D01*
X163466836Y-90853272D01*
X163466846Y-90853280D01*
X163711193Y-91030808D01*
X163711198Y-91030810D01*
X163711205Y-91030816D01*
X163975896Y-91176332D01*
X163975901Y-91176334D01*
X163975903Y-91176335D01*
X163975904Y-91176336D01*
X164256734Y-91287524D01*
X164256737Y-91287525D01*
X164323148Y-91304576D01*
X164549302Y-91362642D01*
X164696039Y-91381179D01*
X164848963Y-91400499D01*
X164848969Y-91400499D01*
X164848973Y-91400500D01*
X164848975Y-91400500D01*
X165151025Y-91400500D01*
X165151027Y-91400500D01*
X165151032Y-91400499D01*
X165151036Y-91400499D01*
X165230591Y-91390448D01*
X165450698Y-91362642D01*
X165743262Y-91287525D01*
X165743265Y-91287524D01*
X166024095Y-91176336D01*
X166024096Y-91176335D01*
X166024094Y-91176335D01*
X166024104Y-91176332D01*
X166288795Y-91030816D01*
X166533162Y-90853274D01*
X166753349Y-90646504D01*
X166945885Y-90413768D01*
X167107733Y-90158736D01*
X167236341Y-89885430D01*
X167329681Y-89598160D01*
X167386280Y-89301457D01*
X167386281Y-89301446D01*
X167405246Y-89000005D01*
X167405246Y-88999994D01*
X167386281Y-88698553D01*
X167386280Y-88698546D01*
X167386280Y-88698543D01*
X167329681Y-88401840D01*
X167236341Y-88114570D01*
X167107733Y-87841264D01*
X166945885Y-87586232D01*
X166753349Y-87353496D01*
X166533162Y-87146726D01*
X166533159Y-87146724D01*
X166533153Y-87146719D01*
X166288806Y-86969191D01*
X166288799Y-86969186D01*
X166288795Y-86969184D01*
X166024104Y-86823668D01*
X166024101Y-86823666D01*
X166024096Y-86823664D01*
X166024095Y-86823663D01*
X165743265Y-86712475D01*
X165743262Y-86712474D01*
X165450695Y-86637357D01*
X165151036Y-86599500D01*
X165151027Y-86599500D01*
X164848973Y-86599500D01*
X164848963Y-86599500D01*
X164549304Y-86637357D01*
X164256737Y-86712474D01*
X164256734Y-86712475D01*
X163975904Y-86823663D01*
X163975903Y-86823664D01*
X163711205Y-86969184D01*
X163711193Y-86969191D01*
X163466846Y-87146719D01*
X163466836Y-87146727D01*
X163246652Y-87353494D01*
X163054111Y-87586236D01*
X162892268Y-87841261D01*
X162892265Y-87841267D01*
X162763661Y-88114563D01*
X162763659Y-88114568D01*
X162670320Y-88401835D01*
X162613719Y-88698546D01*
X162613718Y-88698553D01*
X162594754Y-88999994D01*
X162594754Y-89000005D01*
X157284596Y-89000005D01*
X154729272Y-86444681D01*
X154695787Y-86383358D01*
X154700771Y-86313666D01*
X154742643Y-86257733D01*
X154808107Y-86233316D01*
X154816953Y-86233000D01*
X167642442Y-86233000D01*
X167709481Y-86252685D01*
X167755236Y-86305489D01*
X167766441Y-86357556D01*
X167651586Y-111970291D01*
X167643180Y-111998450D01*
X167648230Y-112007513D01*
X167651293Y-112035465D01*
X167640552Y-114430806D01*
X167620567Y-114497757D01*
X167567558Y-114543274D01*
X167516805Y-114554250D01*
X165671639Y-114558000D01*
X165604560Y-114538451D01*
X165558698Y-114485741D01*
X165548614Y-114416602D01*
X165577509Y-114352988D01*
X165636210Y-114315094D01*
X165640475Y-114313915D01*
X165743262Y-114287525D01*
X165839743Y-114249325D01*
X166024095Y-114176336D01*
X166024096Y-114176335D01*
X166024094Y-114176335D01*
X166024104Y-114176332D01*
X166288795Y-114030816D01*
X166533162Y-113853274D01*
X166753349Y-113646504D01*
X166945885Y-113413768D01*
X167107733Y-113158736D01*
X167236341Y-112885430D01*
X167329681Y-112598160D01*
X167386280Y-112301457D01*
X167403539Y-112027122D01*
X167410640Y-112007572D01*
X167408454Y-112004136D01*
X167403832Y-111977521D01*
X167386281Y-111698553D01*
X167386280Y-111698546D01*
X167386280Y-111698543D01*
X167329681Y-111401840D01*
X167236341Y-111114570D01*
X167107733Y-110841264D01*
X166986860Y-110650798D01*
X166945888Y-110586236D01*
X166945885Y-110586232D01*
X166753349Y-110353496D01*
X166717679Y-110320000D01*
X166533163Y-110146727D01*
X166533153Y-110146719D01*
X166288806Y-109969191D01*
X166288799Y-109969186D01*
X166288795Y-109969184D01*
X166024104Y-109823668D01*
X166024101Y-109823666D01*
X166024096Y-109823664D01*
X166024095Y-109823663D01*
X165743265Y-109712475D01*
X165743262Y-109712474D01*
X165450695Y-109637357D01*
X165151036Y-109599500D01*
X165151027Y-109599500D01*
X164848973Y-109599500D01*
X164848963Y-109599500D01*
X164549304Y-109637357D01*
X164256737Y-109712474D01*
X164256734Y-109712475D01*
X163975904Y-109823663D01*
X163975903Y-109823664D01*
X163711205Y-109969184D01*
X163711193Y-109969191D01*
X163466846Y-110146719D01*
X163466836Y-110146727D01*
X163246652Y-110353494D01*
X163054111Y-110586236D01*
X162892268Y-110841261D01*
X162892265Y-110841267D01*
X162763661Y-111114563D01*
X162763659Y-111114568D01*
X162670320Y-111401835D01*
X162613719Y-111698546D01*
X162613718Y-111698553D01*
X162594754Y-111999994D01*
X162594754Y-112000005D01*
X162613718Y-112301446D01*
X162613719Y-112301453D01*
X162670320Y-112598164D01*
X162763659Y-112885431D01*
X162763661Y-112885436D01*
X162892265Y-113158732D01*
X162892268Y-113158738D01*
X163054111Y-113413763D01*
X163246652Y-113646505D01*
X163466836Y-113853272D01*
X163466846Y-113853280D01*
X163711193Y-114030808D01*
X163711198Y-114030810D01*
X163711205Y-114030816D01*
X163975896Y-114176332D01*
X163975901Y-114176334D01*
X163975903Y-114176335D01*
X163975904Y-114176336D01*
X164256730Y-114287522D01*
X164256738Y-114287525D01*
X164369995Y-114316604D01*
X164430033Y-114352341D01*
X164461219Y-114414865D01*
X164453651Y-114484324D01*
X164409733Y-114538665D01*
X164343408Y-114560635D01*
X164339410Y-114560708D01*
X124082781Y-114642530D01*
X124015702Y-114622981D01*
X123969840Y-114570271D01*
X123959756Y-114501132D01*
X123988651Y-114437518D01*
X124022789Y-114409870D01*
X124224795Y-114298816D01*
X124469162Y-114121274D01*
X124689349Y-113914504D01*
X124881885Y-113681768D01*
X125043733Y-113426736D01*
X125172341Y-113153430D01*
X125265681Y-112866160D01*
X125322280Y-112569457D01*
X125339141Y-112301457D01*
X125341246Y-112268005D01*
X125341246Y-112267994D01*
X125322281Y-111966553D01*
X125322280Y-111966546D01*
X125322280Y-111966543D01*
X125265681Y-111669840D01*
X125172341Y-111382570D01*
X125043733Y-111109264D01*
X124977822Y-111005405D01*
X124881888Y-110854236D01*
X124823505Y-110783663D01*
X124689349Y-110621496D01*
X124469162Y-110414726D01*
X124469159Y-110414724D01*
X124469153Y-110414719D01*
X124224806Y-110237191D01*
X124224799Y-110237186D01*
X124224795Y-110237184D01*
X123960104Y-110091668D01*
X123960101Y-110091666D01*
X123960096Y-110091664D01*
X123960095Y-110091663D01*
X123679265Y-109980475D01*
X123679262Y-109980474D01*
X123386695Y-109905357D01*
X123087036Y-109867500D01*
X123087027Y-109867500D01*
X122784973Y-109867500D01*
X122784963Y-109867500D01*
X122485304Y-109905357D01*
X122192737Y-109980474D01*
X122192734Y-109980475D01*
X121911904Y-110091663D01*
X121911903Y-110091664D01*
X121647205Y-110237184D01*
X121647193Y-110237191D01*
X121402846Y-110414719D01*
X121402836Y-110414727D01*
X121182652Y-110621494D01*
X120990111Y-110854236D01*
X120828268Y-111109261D01*
X120828265Y-111109267D01*
X120699661Y-111382563D01*
X120699659Y-111382568D01*
X120606320Y-111669835D01*
X120549719Y-111966546D01*
X120549718Y-111966553D01*
X120530754Y-112267994D01*
X120530754Y-112268005D01*
X120549718Y-112569446D01*
X120549719Y-112569453D01*
X120606320Y-112866164D01*
X120699659Y-113153431D01*
X120699661Y-113153436D01*
X120828265Y-113426732D01*
X120828268Y-113426738D01*
X120990111Y-113681763D01*
X120990114Y-113681767D01*
X120990115Y-113681768D01*
X121131995Y-113853272D01*
X121182652Y-113914505D01*
X121402836Y-114121272D01*
X121402846Y-114121280D01*
X121647193Y-114298808D01*
X121647199Y-114298811D01*
X121647205Y-114298816D01*
X121857656Y-114414513D01*
X121906919Y-114464058D01*
X121921576Y-114532373D01*
X121896973Y-114597768D01*
X121840920Y-114639479D01*
X121798170Y-114647174D01*
X105280808Y-114680746D01*
X105213729Y-114661197D01*
X105167867Y-114608487D01*
X105156557Y-114556192D01*
X105156664Y-114532373D01*
X105243686Y-95039255D01*
X105282449Y-86356446D01*
X105302433Y-86289496D01*
X105355441Y-86243977D01*
X105406448Y-86233000D01*
X114638651Y-86233000D01*
X114705690Y-86252685D01*
G37*
%TD.AperFunction*%
%TA.AperFunction,Conductor*%
G36*
X120075704Y-100644012D02*
G01*
X120095520Y-100660111D01*
X120403197Y-100967788D01*
X120413022Y-100980051D01*
X120413243Y-100979869D01*
X120418214Y-100985878D01*
X120444217Y-101010295D01*
X120468635Y-101033226D01*
X120489529Y-101054120D01*
X120495011Y-101058373D01*
X120499443Y-101062157D01*
X120533418Y-101094062D01*
X120550976Y-101103714D01*
X120567235Y-101114395D01*
X120583064Y-101126673D01*
X120625838Y-101145182D01*
X120631056Y-101147738D01*
X120671908Y-101170197D01*
X120691316Y-101175180D01*
X120709717Y-101181480D01*
X120728104Y-101189437D01*
X120771488Y-101196308D01*
X120774119Y-101196725D01*
X120779839Y-101197909D01*
X120824981Y-101209500D01*
X120845016Y-101209500D01*
X120864414Y-101211026D01*
X120884194Y-101214159D01*
X120884195Y-101214160D01*
X120884195Y-101214159D01*
X120884196Y-101214160D01*
X120930584Y-101209775D01*
X120936422Y-101209500D01*
X122961368Y-101209500D01*
X123028407Y-101229185D01*
X123074162Y-101281989D01*
X123084106Y-101351147D01*
X123079300Y-101371813D01*
X123066326Y-101411744D01*
X123054321Y-101525965D01*
X123048679Y-101579649D01*
X123022094Y-101644263D01*
X123013039Y-101654368D01*
X121454228Y-103213181D01*
X121392905Y-103246666D01*
X121366547Y-103249500D01*
X120066985Y-103249500D01*
X119999946Y-103229815D01*
X119954191Y-103177011D01*
X119944247Y-103107853D01*
X119947210Y-103093406D01*
X119985636Y-102950000D01*
X119088686Y-102950000D01*
X119114493Y-102909844D01*
X119155000Y-102771889D01*
X119155000Y-102628111D01*
X119114493Y-102490156D01*
X119088686Y-102450000D01*
X119985636Y-102450000D01*
X119985635Y-102449999D01*
X119928432Y-102236513D01*
X119928429Y-102236507D01*
X119828600Y-102022422D01*
X119828599Y-102022420D01*
X119693113Y-101828926D01*
X119693108Y-101828920D01*
X119526078Y-101661890D01*
X119340405Y-101531879D01*
X119296780Y-101477302D01*
X119289588Y-101407804D01*
X119321110Y-101345449D01*
X119340406Y-101328730D01*
X119414017Y-101277187D01*
X119526401Y-101198495D01*
X119693495Y-101031401D01*
X119829035Y-100837830D01*
X119895457Y-100695385D01*
X119941629Y-100642948D01*
X120008823Y-100623796D01*
X120075704Y-100644012D01*
G37*
%TD.AperFunction*%
%TA.AperFunction,Conductor*%
G36*
X117469855Y-100826546D02*
G01*
X117486575Y-100845842D01*
X117616501Y-101031396D01*
X117616506Y-101031402D01*
X117783597Y-101198493D01*
X117783603Y-101198498D01*
X117969594Y-101328730D01*
X118013219Y-101383307D01*
X118020413Y-101452805D01*
X117988890Y-101515160D01*
X117969595Y-101531880D01*
X117783922Y-101661890D01*
X117783920Y-101661891D01*
X117616891Y-101828920D01*
X117616890Y-101828922D01*
X117486880Y-102014595D01*
X117432303Y-102058219D01*
X117362804Y-102065412D01*
X117300450Y-102033890D01*
X117283730Y-102014594D01*
X117153494Y-101828597D01*
X116986402Y-101661506D01*
X116986396Y-101661501D01*
X116800842Y-101531575D01*
X116757217Y-101476998D01*
X116750023Y-101407500D01*
X116781546Y-101345145D01*
X116800842Y-101328425D01*
X116874017Y-101277187D01*
X116986401Y-101198495D01*
X117153495Y-101031401D01*
X117283425Y-100845842D01*
X117338002Y-100802217D01*
X117407500Y-100795023D01*
X117469855Y-100826546D01*
G37*
%TD.AperFunction*%
%TA.AperFunction,Conductor*%
G36*
X121766587Y-90815185D02*
G01*
X121787229Y-90831819D01*
X123642310Y-92686901D01*
X123675795Y-92748224D01*
X123678157Y-92785388D01*
X123662532Y-92963996D01*
X123662532Y-92964001D01*
X123682364Y-93190686D01*
X123682366Y-93190697D01*
X123741258Y-93410488D01*
X123741261Y-93410497D01*
X123837431Y-93616732D01*
X123837432Y-93616734D01*
X123967954Y-93803141D01*
X124128858Y-93964045D01*
X124128861Y-93964047D01*
X124315266Y-94094568D01*
X124521504Y-94190739D01*
X124521509Y-94190740D01*
X124521511Y-94190741D01*
X124553555Y-94199327D01*
X124741308Y-94249635D01*
X124898780Y-94263412D01*
X124967998Y-94269468D01*
X124968000Y-94269468D01*
X124968002Y-94269468D01*
X125024673Y-94264509D01*
X125194692Y-94249635D01*
X125414496Y-94190739D01*
X125620734Y-94094568D01*
X125807139Y-93964047D01*
X125968047Y-93803139D01*
X126098568Y-93616734D01*
X126125895Y-93558129D01*
X126172064Y-93505695D01*
X126239257Y-93486542D01*
X126306139Y-93506757D01*
X126350657Y-93558133D01*
X126377865Y-93616482D01*
X126508342Y-93802820D01*
X126669179Y-93963657D01*
X126855517Y-94094134D01*
X127061673Y-94190265D01*
X127061682Y-94190269D01*
X127281389Y-94249139D01*
X127281400Y-94249141D01*
X127331774Y-94253548D01*
X127396843Y-94279000D01*
X127437822Y-94335590D01*
X127441701Y-94405352D01*
X127408649Y-94464757D01*
X123473178Y-98400231D01*
X123411855Y-98433716D01*
X123385497Y-98436550D01*
X123326304Y-98436550D01*
X123293847Y-98443448D01*
X123141147Y-98475905D01*
X123141142Y-98475907D01*
X122968220Y-98552898D01*
X122968215Y-98552901D01*
X122815079Y-98664161D01*
X122688416Y-98804835D01*
X122593771Y-98968765D01*
X122593768Y-98968772D01*
X122535277Y-99148790D01*
X122535276Y-99148794D01*
X122515490Y-99337050D01*
X122535276Y-99525306D01*
X122535277Y-99525309D01*
X122593768Y-99705327D01*
X122593770Y-99705331D01*
X122593771Y-99705334D01*
X122632550Y-99772501D01*
X122649022Y-99840401D01*
X122626169Y-99906428D01*
X122571247Y-99949618D01*
X122525162Y-99958500D01*
X121214453Y-99958500D01*
X121147414Y-99938815D01*
X121126772Y-99922181D01*
X119805803Y-98601212D01*
X119795980Y-98588950D01*
X119795759Y-98589134D01*
X119790786Y-98583122D01*
X119771643Y-98565146D01*
X119736248Y-98504905D01*
X119739042Y-98435091D01*
X119754949Y-98403635D01*
X119829035Y-98297830D01*
X119928903Y-98083663D01*
X119990063Y-97855408D01*
X120010659Y-97620000D01*
X119990063Y-97384592D01*
X119928903Y-97156337D01*
X119829035Y-96942171D01*
X119823425Y-96934158D01*
X119693494Y-96748597D01*
X119526402Y-96581506D01*
X119526401Y-96581505D01*
X119340405Y-96451269D01*
X119296781Y-96396692D01*
X119289588Y-96327193D01*
X119321110Y-96264839D01*
X119340405Y-96248119D01*
X119526082Y-96118105D01*
X119693105Y-95951082D01*
X119828600Y-95757578D01*
X119928429Y-95543492D01*
X119928432Y-95543486D01*
X119985636Y-95330000D01*
X119088686Y-95330000D01*
X119114493Y-95289844D01*
X119155000Y-95151889D01*
X119155000Y-95008111D01*
X119114493Y-94870156D01*
X119088686Y-94830000D01*
X119985636Y-94830000D01*
X119985635Y-94829999D01*
X119928432Y-94616513D01*
X119928429Y-94616507D01*
X119828600Y-94402422D01*
X119828599Y-94402420D01*
X119693113Y-94208926D01*
X119693108Y-94208920D01*
X119526078Y-94041890D01*
X119340405Y-93911879D01*
X119296780Y-93857302D01*
X119289588Y-93787804D01*
X119321110Y-93725449D01*
X119340406Y-93708730D01*
X119340842Y-93708425D01*
X119526401Y-93578495D01*
X119693495Y-93411401D01*
X119829035Y-93217830D01*
X119928903Y-93003663D01*
X119990063Y-92775408D01*
X120010659Y-92540000D01*
X119990063Y-92304592D01*
X119928903Y-92076337D01*
X119829035Y-91862171D01*
X119823424Y-91854158D01*
X119693496Y-91668600D01*
X119634083Y-91609187D01*
X119571567Y-91546671D01*
X119538084Y-91485351D01*
X119543068Y-91415659D01*
X119584939Y-91359725D01*
X119615915Y-91342810D01*
X119747331Y-91293796D01*
X119862546Y-91207546D01*
X119948796Y-91092331D01*
X119999091Y-90957483D01*
X120004600Y-90906245D01*
X120031338Y-90841694D01*
X120088730Y-90801846D01*
X120127889Y-90795500D01*
X121699548Y-90795500D01*
X121766587Y-90815185D01*
G37*
%TD.AperFunction*%
%TA.AperFunction,Conductor*%
G36*
X117470160Y-95746110D02*
G01*
X117486879Y-95765405D01*
X117616890Y-95951078D01*
X117783917Y-96118105D01*
X117969595Y-96248119D01*
X118013219Y-96302696D01*
X118020412Y-96372195D01*
X117988890Y-96434549D01*
X117969595Y-96451269D01*
X117783594Y-96581508D01*
X117616505Y-96748597D01*
X117486575Y-96934158D01*
X117431998Y-96977783D01*
X117362500Y-96984977D01*
X117300145Y-96953454D01*
X117283425Y-96934158D01*
X117153494Y-96748597D01*
X116986402Y-96581506D01*
X116986396Y-96581501D01*
X116800842Y-96451575D01*
X116757217Y-96396998D01*
X116750023Y-96327500D01*
X116781546Y-96265145D01*
X116800842Y-96248425D01*
X116823026Y-96232891D01*
X116986401Y-96118495D01*
X117153495Y-95951401D01*
X117283730Y-95765405D01*
X117338307Y-95721781D01*
X117407805Y-95714587D01*
X117470160Y-95746110D01*
G37*
%TD.AperFunction*%
%TA.AperFunction,Conductor*%
G36*
X144626587Y-88275185D02*
G01*
X144647229Y-88291819D01*
X147810949Y-91455540D01*
X147844434Y-91516863D01*
X147839450Y-91586555D01*
X147797578Y-91642488D01*
X147734076Y-91666749D01*
X147601312Y-91678364D01*
X147601302Y-91678366D01*
X147381511Y-91737258D01*
X147381502Y-91737261D01*
X147175267Y-91833431D01*
X147175265Y-91833432D01*
X146988858Y-91963954D01*
X146827954Y-92124858D01*
X146697432Y-92311265D01*
X146697431Y-92311267D01*
X146670382Y-92369275D01*
X146624209Y-92421714D01*
X146557016Y-92440866D01*
X146490135Y-92420650D01*
X146445618Y-92369275D01*
X146418686Y-92311520D01*
X146418568Y-92311266D01*
X146288047Y-92124861D01*
X146288045Y-92124858D01*
X146127141Y-91963954D01*
X145940734Y-91833432D01*
X145940732Y-91833431D01*
X145734497Y-91737261D01*
X145734488Y-91737258D01*
X145514697Y-91678366D01*
X145514693Y-91678365D01*
X145514692Y-91678365D01*
X145514691Y-91678364D01*
X145514686Y-91678364D01*
X145288002Y-91658532D01*
X145287998Y-91658532D01*
X145061313Y-91678364D01*
X145061302Y-91678366D01*
X144841511Y-91737258D01*
X144841502Y-91737261D01*
X144635267Y-91833431D01*
X144635265Y-91833432D01*
X144448858Y-91963954D01*
X144287954Y-92124858D01*
X144157432Y-92311265D01*
X144157431Y-92311267D01*
X144130382Y-92369275D01*
X144084209Y-92421714D01*
X144017016Y-92440866D01*
X143950135Y-92420650D01*
X143905618Y-92369275D01*
X143878686Y-92311520D01*
X143878568Y-92311266D01*
X143748047Y-92124861D01*
X143748045Y-92124858D01*
X143587141Y-91963954D01*
X143400734Y-91833432D01*
X143400732Y-91833431D01*
X143194497Y-91737261D01*
X143194488Y-91737258D01*
X142974697Y-91678366D01*
X142974693Y-91678365D01*
X142974692Y-91678365D01*
X142974691Y-91678364D01*
X142974686Y-91678364D01*
X142748002Y-91658532D01*
X142747998Y-91658532D01*
X142521313Y-91678364D01*
X142521302Y-91678366D01*
X142301511Y-91737258D01*
X142301502Y-91737261D01*
X142095267Y-91833431D01*
X142095265Y-91833432D01*
X141908858Y-91963954D01*
X141747954Y-92124858D01*
X141617432Y-92311265D01*
X141617431Y-92311267D01*
X141590382Y-92369275D01*
X141544209Y-92421714D01*
X141477016Y-92440866D01*
X141410135Y-92420650D01*
X141365618Y-92369275D01*
X141338686Y-92311520D01*
X141338568Y-92311266D01*
X141208047Y-92124861D01*
X141208045Y-92124858D01*
X141047141Y-91963954D01*
X140860734Y-91833432D01*
X140860732Y-91833431D01*
X140654497Y-91737261D01*
X140654488Y-91737258D01*
X140434697Y-91678366D01*
X140434693Y-91678365D01*
X140434692Y-91678365D01*
X140434691Y-91678364D01*
X140434686Y-91678364D01*
X140208002Y-91658532D01*
X140207998Y-91658532D01*
X139981313Y-91678364D01*
X139981302Y-91678366D01*
X139761511Y-91737258D01*
X139761502Y-91737261D01*
X139555267Y-91833431D01*
X139555265Y-91833432D01*
X139368858Y-91963954D01*
X139207954Y-92124858D01*
X139077432Y-92311265D01*
X139077431Y-92311267D01*
X139050382Y-92369275D01*
X139004209Y-92421714D01*
X138937016Y-92440866D01*
X138870135Y-92420650D01*
X138825618Y-92369275D01*
X138798686Y-92311520D01*
X138798568Y-92311266D01*
X138668047Y-92124861D01*
X138668045Y-92124858D01*
X138507141Y-91963954D01*
X138320734Y-91833432D01*
X138320732Y-91833431D01*
X138114497Y-91737261D01*
X138114488Y-91737258D01*
X137894697Y-91678366D01*
X137894693Y-91678365D01*
X137894692Y-91678365D01*
X137894691Y-91678364D01*
X137894686Y-91678364D01*
X137668002Y-91658532D01*
X137667998Y-91658532D01*
X137441313Y-91678364D01*
X137441302Y-91678366D01*
X137221511Y-91737258D01*
X137221502Y-91737261D01*
X137015267Y-91833431D01*
X137015265Y-91833432D01*
X136828858Y-91963954D01*
X136667954Y-92124858D01*
X136537432Y-92311265D01*
X136537431Y-92311267D01*
X136510382Y-92369275D01*
X136464209Y-92421714D01*
X136397016Y-92440866D01*
X136330135Y-92420650D01*
X136285618Y-92369275D01*
X136258686Y-92311520D01*
X136258568Y-92311266D01*
X136128047Y-92124861D01*
X136128045Y-92124858D01*
X135967141Y-91963954D01*
X135780734Y-91833432D01*
X135780732Y-91833431D01*
X135574497Y-91737261D01*
X135574488Y-91737258D01*
X135354697Y-91678366D01*
X135354693Y-91678365D01*
X135354692Y-91678365D01*
X135354691Y-91678364D01*
X135354686Y-91678364D01*
X135128002Y-91658532D01*
X135127998Y-91658532D01*
X134901313Y-91678364D01*
X134901302Y-91678366D01*
X134681511Y-91737258D01*
X134681502Y-91737261D01*
X134475267Y-91833431D01*
X134475265Y-91833432D01*
X134288858Y-91963954D01*
X134127954Y-92124858D01*
X133997432Y-92311265D01*
X133997431Y-92311267D01*
X133970382Y-92369275D01*
X133924209Y-92421714D01*
X133857016Y-92440866D01*
X133790135Y-92420650D01*
X133745618Y-92369275D01*
X133718686Y-92311520D01*
X133718568Y-92311266D01*
X133588047Y-92124861D01*
X133588045Y-92124858D01*
X133427141Y-91963954D01*
X133240734Y-91833432D01*
X133240732Y-91833431D01*
X133034497Y-91737261D01*
X133034488Y-91737258D01*
X132814697Y-91678366D01*
X132814693Y-91678365D01*
X132814692Y-91678365D01*
X132814691Y-91678364D01*
X132814686Y-91678364D01*
X132588002Y-91658532D01*
X132587998Y-91658532D01*
X132361313Y-91678364D01*
X132361302Y-91678366D01*
X132141511Y-91737258D01*
X132141502Y-91737261D01*
X131935267Y-91833431D01*
X131935265Y-91833432D01*
X131748858Y-91963954D01*
X131587954Y-92124858D01*
X131457432Y-92311265D01*
X131457431Y-92311267D01*
X131430382Y-92369275D01*
X131384209Y-92421714D01*
X131317016Y-92440866D01*
X131250135Y-92420650D01*
X131205618Y-92369275D01*
X131178686Y-92311520D01*
X131178568Y-92311266D01*
X131048047Y-92124861D01*
X131048045Y-92124858D01*
X130887141Y-91963954D01*
X130700734Y-91833432D01*
X130700732Y-91833431D01*
X130494497Y-91737261D01*
X130494488Y-91737258D01*
X130274697Y-91678366D01*
X130274693Y-91678365D01*
X130274692Y-91678365D01*
X130274691Y-91678364D01*
X130274686Y-91678364D01*
X130048002Y-91658532D01*
X130047998Y-91658532D01*
X129821313Y-91678364D01*
X129821302Y-91678366D01*
X129601511Y-91737258D01*
X129601502Y-91737261D01*
X129395267Y-91833431D01*
X129395265Y-91833432D01*
X129208858Y-91963954D01*
X129047954Y-92124858D01*
X128975885Y-92227785D01*
X128917432Y-92311266D01*
X128917315Y-92311518D01*
X128890106Y-92369867D01*
X128843933Y-92422306D01*
X128776739Y-92441457D01*
X128709858Y-92421241D01*
X128665342Y-92369865D01*
X128638135Y-92311520D01*
X128638134Y-92311518D01*
X128507657Y-92125179D01*
X128346820Y-91964342D01*
X128160482Y-91833865D01*
X127954328Y-91737734D01*
X127758000Y-91685127D01*
X127758000Y-92528498D01*
X127650315Y-92479320D01*
X127543763Y-92464000D01*
X127472237Y-92464000D01*
X127365685Y-92479320D01*
X127258000Y-92528498D01*
X127258000Y-91685127D01*
X127061671Y-91737734D01*
X126855517Y-91833865D01*
X126669179Y-91964342D01*
X126508342Y-92125179D01*
X126377867Y-92311515D01*
X126350657Y-92369867D01*
X126304484Y-92422306D01*
X126237290Y-92441457D01*
X126170409Y-92421241D01*
X126125893Y-92369865D01*
X126098685Y-92311518D01*
X126098568Y-92311266D01*
X125968047Y-92124861D01*
X125968045Y-92124858D01*
X125807141Y-91963954D01*
X125620734Y-91833432D01*
X125620732Y-91833431D01*
X125414497Y-91737261D01*
X125414488Y-91737258D01*
X125194697Y-91678366D01*
X125194693Y-91678365D01*
X125194692Y-91678365D01*
X125194691Y-91678364D01*
X125194686Y-91678364D01*
X124968002Y-91658532D01*
X124967998Y-91658532D01*
X124741313Y-91678364D01*
X124741302Y-91678366D01*
X124543608Y-91731337D01*
X124473758Y-91729674D01*
X124423834Y-91699243D01*
X122666710Y-89942119D01*
X122633225Y-89880796D01*
X122638209Y-89811104D01*
X122662243Y-89771464D01*
X122698030Y-89731719D01*
X122698033Y-89731716D01*
X122792679Y-89567784D01*
X122851174Y-89387756D01*
X122868821Y-89219844D01*
X122895404Y-89155234D01*
X122904451Y-89145139D01*
X123757772Y-88291819D01*
X123819095Y-88258334D01*
X123845453Y-88255500D01*
X144559548Y-88255500D01*
X144626587Y-88275185D01*
G37*
%TD.AperFunction*%
%TD*%
M02*
