  0
SECTION
  2
HEADER
  9
$ANGBASE
  50
0.0
  9
$ANGDIR
  70
1
  9
$MEASUREMENT
  70
0
  0
ENDSEC
  0
SECTION
  2
TABLES
  0
TABLE
  2
LTYPE
  70
4
  0
LTYPE
  5
40F
  2
CONTINUOUS
  70
0
  3
Solid line
  72
65
  73
0
  40
0.0
  0
LTYPE
  5
410
  2
DASHDOT
 70
0
  3
Dash Dot ____ _ ____ _
 72
65
 73
4
 40
2.0
 49
1.25
 49
-0.25
 49
0.25
 49
-0.25
  0
LTYPE
  5
411
  2
DASHED
 70
0
  3
Dashed __ __ __ __ __
 72
65
 73
2
 40
0.75
 49
0.5
 49
-0.25
  0
LTYPE
  5
43B
  2
DOTTED
 70
0
  3
Dotted .  .  .  .
 72
65
 73
2
 40
0.2
 49
0.0
 49
-0.2
  0
ENDTAB
  0
TABLE
  2
STYLE
  70
4
  0
STYLE
  2
KICAD
  70
0
  40
0
  41
1
  42
1
  50
0
  71
0
  3
isocp.shx
  0
STYLE
  2
KICADB
  70
0
  40
0
  41
1
  42
1
  50
0
  71
0
  3
isocp.shx
  0
STYLE
  2
KICADI
  70
0
  40
0
  41
1
  42
1
  50
15
  71
0
  3
isocp.shx
  0
STYLE
  2
KICADBI
  70
0
  40
0
  41
1
  42
1
  50
15
  71
0
  3
isocp.shx
  0
ENDTAB
  0
TABLE
  2
LAYER
  70
1
  0
LAYER
  2
BLACK
  70
0
  62
7
  6
CONTINUOUS
  0
ENDTAB
  0
ENDSEC
  0
SECTION
  2
ENTITIES
0
LINE
8
BLACK
6
CONTINUOUS
10
4.1338582677165352
20
-3.3858267716535431
11
6.6141732283464565
21
-3.3858267716535431
0
LINE
8
BLACK
6
CONTINUOUS
10
6.6141732283464565
20
-3.3858267716535431
11
6.6141732283464565
21
-4.5275590551181102
0
LINE
8
BLACK
6
CONTINUOUS
10
6.6141732283464565
20
-4.5275590551181102
11
4.1338582677165352
21
-4.5275590551181102
0
LINE
8
BLACK
6
CONTINUOUS
10
4.1338582677165352
20
-4.5275590551181102
11
4.1338582677165352
21
-3.3858267716535431
0
LINE
8
BLACK
6
CONTINUOUS
10
4.2345577952755908
20
-4.6521589763779527
11
4.2345577952755908
21
-4.5734188188976379
0
LINE
8
BLACK
6
CONTINUOUS
10
4.2345577952755908
20
-4.5734188188976379
11
4.2533054330708664
21
-4.5734188188976379
0
LINE
8
BLACK
6
CONTINUOUS
10
4.2533054330708664
20
-4.5734188188976379
11
4.2645540551181105
21
-4.577168346456693
0
LINE
8
BLACK
6
CONTINUOUS
10
4.2645540551181105
20
-4.577168346456693
11
4.2720531102362207
21
-4.5846674015748032
0
LINE
8
BLACK
6
CONTINUOUS
10
4.2720531102362207
20
-4.5846674015748032
11
4.2758026377952758
21
-4.5921664566929135
0
LINE
8
BLACK
6
CONTINUOUS
10
4.2758026377952758
20
-4.5921664566929135
11
4.2795521653543309
21
-4.6071645669291339
0
LINE
8
BLACK
6
CONTINUOUS
10
4.2795521653543309
20
-4.6071645669291339
11
4.2795521653543309
21
-4.618413188976378
0
LINE
8
BLACK
6
CONTINUOUS
10
4.2795521653543309
20
-4.618413188976378
11
4.2758026377952758
21
-4.6334112992125984
0
LINE
8
BLACK
6
CONTINUOUS
10
4.2758026377952758
20
-4.6334112992125984
11
4.2720531102362207
21
-4.6409103543307086
0
LINE
8
BLACK
6
CONTINUOUS
10
4.2720531102362207
20
-4.6409103543307086
11
4.2645540551181105
21
-4.6484094488188976
0
LINE
8
BLACK
6
CONTINUOUS
10
4.2645540551181105
20
-4.6484094488188976
11
4.2533054330708664
21
-4.6521589763779527
0
LINE
8
BLACK
6
CONTINUOUS
10
4.2533054330708664
20
-4.6521589763779527
11
4.2345577952755908
21
-4.6521589763779527
0
LINE
8
BLACK
6
CONTINUOUS
10
4.3132979527559057
20
-4.6521589763779527
11
4.3132979527559057
21
-4.5996655118110237
0
LINE
8
BLACK
6
CONTINUOUS
10
4.3132979527559057
20
-4.6146636614173229
11
4.3170474803149608
21
-4.6071645669291339
0
LINE
8
BLACK
6
CONTINUOUS
10
4.3170474803149608
20
-4.6071645669291339
11
4.3207970078740159
21
-4.6034150393700788
0
LINE
8
BLACK
6
CONTINUOUS
10
4.3207970078740159
20
-4.6034150393700788
11
4.3282960629921261
21
-4.5996655118110237
0
LINE
8
BLACK
6
CONTINUOUS
10
4.3282960629921261
20
-4.5996655118110237
11
4.3357951574803151
21
-4.5996655118110237
0
LINE
8
BLACK
6
CONTINUOUS
10
4.3620418503937008
20
-4.6521589763779527
11
4.3620418503937008
21
-4.5996655118110237
0
LINE
8
BLACK
6
CONTINUOUS
10
4.3620418503937008
20
-4.5734188188976379
11
4.3582923228346457
21
-4.577168346456693
0
LINE
8
BLACK
6
CONTINUOUS
10
4.3582923228346457
20
-4.577168346456693
11
4.3620418503937008
21
-4.5809178740157481
0
LINE
8
BLACK
6
CONTINUOUS
10
4.3620418503937008
20
-4.5809178740157481
11
4.365791377952756
21
-4.577168346456693
0
LINE
8
BLACK
6
CONTINUOUS
10
4.365791377952756
20
-4.577168346456693
11
4.3620418503937008
21
-4.5734188188976379
0
LINE
8
BLACK
6
CONTINUOUS
10
4.3620418503937008
20
-4.5734188188976379
11
4.3620418503937008
21
-4.5809178740157481
0
LINE
8
BLACK
6
CONTINUOUS
10
4.410785748031496
20
-4.6521589763779527
11
4.4032866929133858
21
-4.6484094488188976
0
LINE
8
BLACK
6
CONTINUOUS
10
4.4032866929133858
20
-4.6484094488188976
11
4.3995371653543307
21
-4.6409103543307086
0
LINE
8
BLACK
6
CONTINUOUS
10
4.3995371653543307
20
-4.6409103543307086
11
4.3995371653543307
21
-4.5734188188976379
0
LINE
8
BLACK
6
CONTINUOUS
10
4.452030590551181
20
-4.6521589763779527
11
4.4445315354330708
21
-4.6484094488188976
0
LINE
8
BLACK
6
CONTINUOUS
10
4.4445315354330708
20
-4.6484094488188976
11
4.4407820078740157
21
-4.6409103543307086
0
LINE
8
BLACK
6
CONTINUOUS
10
4.4407820078740157
20
-4.6409103543307086
11
4.4407820078740157
21
-4.5734188188976379
0
LINE
8
BLACK
6
CONTINUOUS
10
4.5420193700787399
20
-4.6521589763779527
11
4.5420193700787399
21
-4.5734188188976379
0
LINE
8
BLACK
6
CONTINUOUS
10
4.5420193700787399
20
-4.5734188188976379
11
4.5682661023622044
21
-4.6296617716535433
0
LINE
8
BLACK
6
CONTINUOUS
10
4.5682661023622044
20
-4.6296617716535433
11
4.5945127952755902
21
-4.5734188188976379
0
LINE
8
BLACK
6
CONTINUOUS
10
4.5945127952755902
20
-4.5734188188976379
11
4.5945127952755902
21
-4.6521589763779527
0
LINE
8
BLACK
6
CONTINUOUS
10
4.6657538976377948
20
-4.6521589763779527
11
4.6657538976377948
21
-4.6109141338582678
0
LINE
8
BLACK
6
CONTINUOUS
10
4.6657538976377948
20
-4.6109141338582678
11
4.6620043700787397
21
-4.6034150393700788
0
LINE
8
BLACK
6
CONTINUOUS
10
4.6620043700787397
20
-4.6034150393700788
11
4.6545053149606295
21
-4.5996655118110237
0
LINE
8
BLACK
6
CONTINUOUS
10
4.6545053149606295
20
-4.5996655118110237
11
4.6395071653543303
21
-4.5996655118110237
0
LINE
8
BLACK
6
CONTINUOUS
10
4.6395071653543303
20
-4.5996655118110237
11
4.6320081102362201
21
-4.6034150393700788
0
LINE
8
BLACK
6
CONTINUOUS
10
4.6657538976377948
20
-4.6484094488188976
11
4.6582548425196846
21
-4.6521589763779527
0
LINE
8
BLACK
6
CONTINUOUS
10
4.6582548425196846
20
-4.6521589763779527
11
4.6395071653543303
21
-4.6521589763779527
0
LINE
8
BLACK
6
CONTINUOUS
10
4.6395071653543303
20
-4.6521589763779527
11
4.6320081102362201
21
-4.6484094488188976
0
LINE
8
BLACK
6
CONTINUOUS
10
4.6320081102362201
20
-4.6484094488188976
11
4.6282585826771649
21
-4.6409103543307086
0
LINE
8
BLACK
6
CONTINUOUS
10
4.6282585826771649
20
-4.6409103543307086
11
4.6282585826771649
21
-4.6334112992125984
0
LINE
8
BLACK
6
CONTINUOUS
10
4.6282585826771649
20
-4.6334112992125984
11
4.6320081102362201
21
-4.6259122440944882
0
LINE
8
BLACK
6
CONTINUOUS
10
4.6320081102362201
20
-4.6259122440944882
11
4.6395071653543303
21
-4.6221627165354331
0
LINE
8
BLACK
6
CONTINUOUS
10
4.6395071653543303
20
-4.6221627165354331
11
4.6582548425196846
21
-4.6221627165354331
0
LINE
8
BLACK
6
CONTINUOUS
10
4.6582548425196846
20
-4.6221627165354331
11
4.6657538976377948
21
-4.618413188976378
0
LINE
8
BLACK
6
CONTINUOUS
10
4.7032492125984247
20
-4.5996655118110237
11
4.7032492125984247
21
-4.6784056692913385
0
LINE
8
BLACK
6
CONTINUOUS
10
4.7032492125984247
20
-4.6034150393700788
11
4.7107482677165358
21
-4.5996655118110237
0
LINE
8
BLACK
6
CONTINUOUS
10
4.7107482677165358
20
-4.5996655118110237
11
4.725746417322835
21
-4.5996655118110237
0
LINE
8
BLACK
6
CONTINUOUS
10
4.725746417322835
20
-4.5996655118110237
11
4.7332454724409452
21
-4.6034150393700788
0
LINE
8
BLACK
6
CONTINUOUS
10
4.7332454724409452
20
-4.6034150393700788
11
4.7369950000000003
21
-4.6071645669291339
0
LINE
8
BLACK
6
CONTINUOUS
10
4.7369950000000003
20
-4.6071645669291339
11
4.7407445275590554
21
-4.6146636614173229
0
LINE
8
BLACK
6
CONTINUOUS
10
4.7407445275590554
20
-4.6146636614173229
11
4.7407445275590554
21
-4.6371608267716535
0
LINE
8
BLACK
6
CONTINUOUS
10
4.7407445275590554
20
-4.6371608267716535
11
4.7369950000000003
21
-4.6446598818897638
0
LINE
8
BLACK
6
CONTINUOUS
10
4.7369950000000003
20
-4.6446598818897638
11
4.7332454724409452
21
-4.6484094488188976
0
LINE
8
BLACK
6
CONTINUOUS
10
4.7332454724409452
20
-4.6484094488188976
11
4.725746417322835
21
-4.6521589763779527
0
LINE
8
BLACK
6
CONTINUOUS
10
4.725746417322835
20
-4.6521589763779527
11
4.7107482677165358
21
-4.6521589763779527
0
LINE
8
BLACK
6
CONTINUOUS
10
4.7107482677165358
20
-4.6521589763779527
11
4.7032492125984247
21
-4.6484094488188976
0
LINE
8
BLACK
6
CONTINUOUS
10
4.7744903149606301
20
-4.6446598818897638
11
4.7782398425196853
21
-4.6484094488188976
0
LINE
8
BLACK
6
CONTINUOUS
10
4.7782398425196853
20
-4.6484094488188976
11
4.7744903149606301
21
-4.6521589763779527
0
LINE
8
BLACK
6
CONTINUOUS
10
4.7744903149606301
20
-4.6521589763779527
11
4.770740787401575
21
-4.6484094488188976
0
LINE
8
BLACK
6
CONTINUOUS
10
4.770740787401575
20
-4.6484094488188976
11
4.7744903149606301
21
-4.6446598818897638
0
LINE
8
BLACK
6
CONTINUOUS
10
4.7744903149606301
20
-4.6446598818897638
11
4.7744903149606301
21
-4.6521589763779527
0
LINE
8
BLACK
6
CONTINUOUS
10
4.7744903149606301
20
-4.6034150393700788
11
4.7782398425196853
21
-4.6071645669291339
0
LINE
8
BLACK
6
CONTINUOUS
10
4.7782398425196853
20
-4.6071645669291339
11
4.7744903149606301
21
-4.6109141338582678
0
LINE
8
BLACK
6
CONTINUOUS
10
4.7744903149606301
20
-4.6109141338582678
11
4.770740787401575
21
-4.6071645669291339
0
LINE
8
BLACK
6
CONTINUOUS
10
4.770740787401575
20
-4.6071645669291339
11
4.7744903149606301
21
-4.6034150393700788
0
LINE
8
BLACK
6
CONTINUOUS
10
4.7744903149606301
20
-4.6034150393700788
11
4.7744903149606301
21
-4.6109141338582678
  0
ENDSEC
  0
EOF
